<svg xmlns="http://www.w3.org/2000/svg" width="24.516" height="19.409" viewBox="0 0 24.516 19.409"><defs><style>.a{fill:#00b0b6;}</style></defs><path class="a" d="M2217.4-403.052l1.956-1.871v-.41h-6.776l-4.83,12.021-5.495-12.021h-7.105v.41l2.285,2.751a.959.959,0,0,1,.31.8v10.811a1.233,1.233,0,0,1-.33,1.073l-2.574,3.12v.4h7.3v-.41l-2.574-3.115a1.27,1.27,0,0,1-.354-1.073v-9.351l6.407,13.953h.744l5.51-13.953V-388.8c0,.293,0,.353-.192.545l-1.981,1.917v.411h9.614v-.41l-1.91-1.87a.568.568,0,0,1-.219-.545v-13.757a.566.566,0,0,1,.218-.546Z" transform="translate(-2194.839 405.333)"/></svg>