<svg xmlns="http://www.w3.org/2000/svg" width="24.516" height="19.92" viewBox="0 0 24.516 19.92"><defs><style>.a{fill:#00b0b6;}</style></defs><path class="a" d="M3514.385-408.309a10.473,10.473,0,0,1-2.9.794,5,5,0,0,0,2.211-2.778,10.043,10.043,0,0,1-3.187,1.217,5.036,5.036,0,0,0-3.671-1.591,5.024,5.024,0,0,0-5.023,5.027,5.189,5.189,0,0,0,.116,1.146,14.227,14.227,0,0,1-10.36-5.257,5.063,5.063,0,0,0-.688,2.541,5.034,5.034,0,0,0,2.232,4.177,4.963,4.963,0,0,1-2.271-.619v.055a5.049,5.049,0,0,0,4.027,4.939,5.017,5.017,0,0,1-1.318.165,4.444,4.444,0,0,1-.952-.086,5.074,5.074,0,0,0,4.7,3.5,10.1,10.1,0,0,1-6.231,2.144,9.417,9.417,0,0,1-1.2-.069,14.15,14.15,0,0,0,7.71,2.255,14.207,14.207,0,0,0,14.305-14.3c0-.222-.008-.437-.018-.65A10.027,10.027,0,0,0,3514.385-408.309Z" transform="translate(-3489.869 410.667)"/></svg>