<svg xmlns="http://www.w3.org/2000/svg" width="289.079" height="67.844" viewBox="0 0 289.079 67.844"><defs><style>.a{fill:#fff;}</style></defs><g transform="translate(-78.377 -78.377)"><g transform="translate(78.377 78.377)"><path class="a" d="M106.22,104.977,80.056,78.668a.983.983,0,0,0-1.679.693v23.217a.979.979,0,0,0,.286.692l13.369,13.441-4.805,4.616a.98.98,0,0,0-.3.708v23.2a.983.983,0,0,0,1.664.709L106.2,129.018a.983.983,0,0,0,.3-.708V105.67A.982.982,0,0,0,106.22,104.977Zm-2.256,20.13-8.307-8.354,8.307-7.981Zm-10.1-10.155L80.919,101.934V83.141l22.5,22.625Zm9.558,13.215L89.466,141.574V122.7l4.358-4.187Z" transform="translate(-78.377 -78.377)"/><g transform="translate(31.058)"><path class="a" d="M119.5,105.67v22.64a.982.982,0,0,0,.3.708l17.617,16.927a.982.982,0,0,0,1.663-.709v-23.2a.982.982,0,0,0-.3-.708l-4.805-4.616,13.369-13.441a.982.982,0,0,0,.285-.692V79.362a.982.982,0,0,0-1.679-.693L119.79,104.977A.985.985,0,0,0,119.5,105.67Zm2.542,3.1,8.307,7.981-8.307,8.354Zm.543-3.006,22.5-22.625v18.793l-12.945,13.017Zm9.6,12.749,4.358,4.187v18.872L122.59,128.167Z" transform="translate(-119.505 -78.377)"/></g></g><g transform="translate(169.033 131.434)"><path class="a" d="M203.978,149.135a2.569,2.569,0,0,1,1.032,1.024,3.084,3.084,0,0,1,.365,1.519,2.952,2.952,0,0,1-.372,1.5,2.573,2.573,0,0,1-1.053,1,3.314,3.314,0,0,1-1.569.358h-2.521a.051.051,0,0,0-.057.057v4.07a.126.126,0,0,1-.143.143h-1.088a.126.126,0,0,1-.143-.143v-9.757a.127.127,0,0,1,.143-.143h3.868A3.152,3.152,0,0,1,203.978,149.135Zm-.459,3.818a1.672,1.672,0,0,0,.48-1.247,1.65,1.65,0,0,0-1.748-1.748h-2.392a.051.051,0,0,0-.057.057v3.353a.051.051,0,0,0,.057.057h2.392A1.728,1.728,0,0,0,203.519,152.954Z" transform="translate(-198.426 -148.67)"/><path class="a" d="M236.218,158.717l-2.006-4.283a.056.056,0,0,0-.057-.043h-2.063a.05.05,0,0,0-.057.057v4.227a.127.127,0,0,1-.143.143H230.8a.126.126,0,0,1-.143-.143v-9.743a.126.126,0,0,1,.143-.143h3.854a3.092,3.092,0,0,1,1.512.358,2.527,2.527,0,0,1,1.01,1,3.019,3.019,0,0,1,.358,1.49,2.743,2.743,0,0,1-.523,1.7,2.565,2.565,0,0,1-1.454.938c-.038.019-.048.043-.029.072l2.077,4.3a.162.162,0,0,1,.014.071c0,.067-.039.1-.115.1h-1.132A.157.157,0,0,1,236.218,158.717Zm-4.183-8.682v3.209a.05.05,0,0,0,.057.057h2.393a1.659,1.659,0,0,0,1.217-.452,1.6,1.6,0,0,0,.459-1.2,1.577,1.577,0,0,0-1.676-1.676h-2.393A.05.05,0,0,0,232.035,150.035Z" transform="translate(-206.318 -148.674)"/><path class="a" d="M264.488,158.48a3.078,3.078,0,0,1-1.246-1.211,3.575,3.575,0,0,1-.444-1.8v-3.41a3.532,3.532,0,0,1,.444-1.79,3.091,3.091,0,0,1,1.246-1.2,4.221,4.221,0,0,1,3.711,0,3.093,3.093,0,0,1,1.247,1.2,3.54,3.54,0,0,1,.444,1.79v3.41a3.583,3.583,0,0,1-.444,1.8,3.08,3.08,0,0,1-1.247,1.211,4.221,4.221,0,0,1-3.711,0Zm3.425-1.362a2.149,2.149,0,0,0,.6-1.59v-3.482a2.194,2.194,0,0,0-.6-1.612,2.117,2.117,0,0,0-1.576-.609,2.092,2.092,0,0,0-1.569.609,2.208,2.208,0,0,0-.594,1.612v3.482a2.163,2.163,0,0,0,.594,1.59,2.1,2.1,0,0,0,1.569.6A2.13,2.13,0,0,0,267.913,157.118Z" transform="translate(-214.187 -148.637)"/><path class="a" d="M301.972,148.932v.918a.127.127,0,0,1-.143.143h-2.751a.051.051,0,0,0-.057.057v8.625a.126.126,0,0,1-.143.143h-1.089a.126.126,0,0,1-.143-.143v-8.625a.051.051,0,0,0-.057-.057h-2.622a.126.126,0,0,1-.143-.143v-.918a.126.126,0,0,1,.143-.143h6.863A.127.127,0,0,1,301.972,148.932Z" transform="translate(-222.028 -148.674)"/><path class="a" d="M327.969,158.48a3.079,3.079,0,0,1-1.247-1.211,3.575,3.575,0,0,1-.444-1.8v-3.41a3.532,3.532,0,0,1,.444-1.79,3.092,3.092,0,0,1,1.247-1.2,4.221,4.221,0,0,1,3.711,0,3.09,3.09,0,0,1,1.246,1.2,3.533,3.533,0,0,1,.445,1.79v3.41a3.575,3.575,0,0,1-.445,1.8,3.078,3.078,0,0,1-1.246,1.211,4.221,4.221,0,0,1-3.711,0Zm3.425-1.362a2.149,2.149,0,0,0,.6-1.59v-3.482a2.194,2.194,0,0,0-.6-1.612,2.118,2.118,0,0,0-1.577-.609,2.092,2.092,0,0,0-1.568.609,2.208,2.208,0,0,0-.594,1.612v3.482a2.163,2.163,0,0,0,.594,1.59,2.1,2.1,0,0,0,1.568.6A2.131,2.131,0,0,0,331.393,157.118Z" transform="translate(-229.73 -148.637)"/><path class="a" d="M360.617,158.5a2.949,2.949,0,0,1-1.232-1.161,3.369,3.369,0,0,1-.437-1.726V151.9a3.293,3.293,0,0,1,.437-1.712,2.973,2.973,0,0,1,1.232-1.146,3.94,3.94,0,0,1,1.827-.409,4.017,4.017,0,0,1,1.82.394,2.945,2.945,0,0,1,1.225,1.11,3.134,3.134,0,0,1,.437,1.662v.014a.15.15,0,0,1-.044.114.136.136,0,0,1-.1.044l-1.089.057c-.1,0-.143-.043-.143-.128v-.043a1.966,1.966,0,0,0-.573-1.476,2.1,2.1,0,0,0-1.533-.559,2.124,2.124,0,0,0-1.54.559,1.952,1.952,0,0,0-.581,1.476v3.811a1.952,1.952,0,0,0,.581,1.476,2.124,2.124,0,0,0,1.54.559,2.1,2.1,0,0,0,1.533-.559,1.966,1.966,0,0,0,.573-1.476v-.029c0-.085.048-.129.143-.129l1.089.057a.127.127,0,0,1,.143.143,3.173,3.173,0,0,1-.437,1.67,2.977,2.977,0,0,1-1.225,1.124,4.309,4.309,0,0,1-3.647-.008Z" transform="translate(-237.728 -148.637)"/><path class="a" d="M393.024,158.48a3.08,3.08,0,0,1-1.247-1.211,3.575,3.575,0,0,1-.444-1.8v-3.41a3.532,3.532,0,0,1,.444-1.79,3.092,3.092,0,0,1,1.247-1.2,4.221,4.221,0,0,1,3.711,0,3.09,3.09,0,0,1,1.246,1.2,3.532,3.532,0,0,1,.445,1.79v3.41a3.575,3.575,0,0,1-.445,1.8,3.077,3.077,0,0,1-1.246,1.211,4.221,4.221,0,0,1-3.711,0Zm3.425-1.362a2.149,2.149,0,0,0,.6-1.59v-3.482a2.194,2.194,0,0,0-.6-1.612,2.117,2.117,0,0,0-1.576-.609,2.092,2.092,0,0,0-1.569.609,2.208,2.208,0,0,0-.594,1.612v3.482a2.163,2.163,0,0,0,.594,1.59,2.1,2.1,0,0,0,1.569.6A2.13,2.13,0,0,0,396.448,157.118Z" transform="translate(-245.658 -148.637)"/><path class="a" d="M424.364,158.675v-9.743a.126.126,0,0,1,.143-.143H425.6a.127.127,0,0,1,.143.143v8.64a.05.05,0,0,0,.057.057h4.943a.127.127,0,0,1,.143.143v.9a.127.127,0,0,1-.143.143h-6.232A.126.126,0,0,1,424.364,158.675Z" transform="translate(-253.745 -148.674)"/></g><g transform="translate(150.988 89.682)"><path class="a" d="M174.531,93.347h10.593q8.792,0,8.793,7.506,0,5.275-3.946,6.948,4.931,1.544,4.932,7.077,0,4.5-2.337,6.391t-6.8,1.887H174.531Zm10.508,2.359H177.19v11.109h8.235a5.036,5.036,0,0,0,5.791-5.7,5.106,5.106,0,0,0-1.523-4.118A7.09,7.09,0,0,0,185.039,95.706Zm.429,13.425H177.19V120.8h8.536a7.568,7.568,0,0,0,4.8-1.33q1.673-1.329,1.673-4.675Q192.2,109.131,185.468,109.131Z" transform="translate(-174.531 -93.347)"/><path class="a" d="M212.531,114.407q0,6.777,7.42,6.777,3.86,0,5.791-1.587t1.93-5.19V93.347h2.659v21.06q0,4.847-2.616,7.013t-7.657,2.166q-5.04,0-7.592-2.166t-2.552-7.013V93.347h2.616Z" transform="translate(-183.194 -93.347)"/><path class="a" d="M242.971,95.749v-2.4h21.445v2.4h-9.35v27.408h-2.66V95.749Z" transform="translate(-191.288 -93.347)"/><path class="a" d="M275.685,95.749v-2.4h21.446v2.4h-9.35v27.408h-2.659V95.749Z" transform="translate(-199.298 -93.347)"/><path class="a" d="M311.467,123.157V93.347h17.886v2.4H314.126v11.066h12.653v2.359H314.126V120.8h15.227v2.359Z" transform="translate(-208.059 -93.347)"/><path class="a" d="M347.182,111.4v11.753h-2.66V93.347H355.46q4.674,0,6.969,2.123t2.295,6.713q0,7.163-5.748,8.707l6.133,12.267H362.15L356.275,111.4Zm14.8-9.178q0-3.346-1.587-4.933t-4.932-1.587h-8.278v13.339h8.278Q361.979,109.045,361.979,102.226Z" transform="translate(-216.152 -93.347)"/><path class="a" d="M381.156,123.157V93.347h17.585v2.4H383.816v12.31h12.7v2.359h-12.7v12.739Z" transform="translate(-225.121 -93.347)"/><path class="a" d="M428.977,123.157h-16.3V93.347h2.659v27.408h13.639Z" transform="translate(-232.84 -93.347)"/><path class="a" d="M444.555,123.157h-2.66v-12.61l-9.565-17.2h2.959l7.935,14.454,7.892-14.454h3l-9.564,17.2Z" transform="translate(-237.651 -93.347)"/></g></g></svg>