<svg xmlns="http://www.w3.org/2000/svg" width="29.125" height="29.125" viewBox="0 0 29.125 29.125"><defs><style>.a{fill:#fff;}.b{fill:#00c3ff;}</style></defs><g transform="translate(-244.222 -2650.689)"><g transform="translate(244.222 2650.688)"><path class="a" d="M582.832,19.257a1.709,1.709,0,0,0-1.258-1.646,1.705,1.705,0,0,0-1.138-2.275A1.706,1.706,0,0,0,578.85,13h-6.132a8.446,8.446,0,0,0-3.724.879l-.517.258H562.24a1.7,1.7,0,0,0-.629.121,1.706,1.706,0,0,0-3.293,0,1.7,1.7,0,0,0-2.275,1.138,1.705,1.705,0,0,0-2.336,1.586v6.132a8.839,8.839,0,0,0,1.138,4.241v6.237a1.7,1.7,0,0,0,.121.629,1.706,1.706,0,0,0,0,3.293A1.7,1.7,0,0,0,556.1,39.79a1.706,1.706,0,0,0,1.586,2.336h1.371a.569.569,0,0,0,0-1.138h-1.371a.569.569,0,0,1,0-1.138h1.138a.569.569,0,0,0,0-1.138h-2.275a.569.569,0,1,1,0-1.138h2.275a.569.569,0,0,0,0-1.138h-3.413a.569.569,0,0,1,0-1.138h3.413a.569.569,0,0,0,0-1.138h-2.275a.569.569,0,1,1,0-1.138h5.689a.569.569,0,0,0,.569-.569v-.569h1.434a3.52,3.52,0,0,1,3.177,1.959.569.569,0,0,0,.51.316h4.665v5.12a1.7,1.7,0,0,0,.1.569h-3.625a.568.568,0,0,0-.254.06l-.635.317a7.3,7.3,0,0,1-3.218.76h-.791a.569.569,0,1,0,0,1.138h.791a8.445,8.445,0,0,0,3.724-.879l.517-.258h5.1a1.7,1.7,0,0,0,.629-.121,1.706,1.706,0,0,0,3.293,0,1.7,1.7,0,0,0,2.275-1.138,1.706,1.706,0,0,0,2.336-1.586V31.317a.565.565,0,0,0-.054-.241,8.506,8.506,0,0,0-.825-2.789l-.258-.517V21.533a1.7,1.7,0,0,0-.121-.629A1.709,1.709,0,0,0,582.832,19.257ZM561.671,31.886h-5.12a1.7,1.7,0,0,0-.569.1V27.221a.569.569,0,0,0-.06-.254,8.016,8.016,0,0,1-1.078-3.853V16.982a.569.569,0,1,1,1.138,0V18.12a.569.569,0,0,0,1.138,0V15.844a.569.569,0,1,1,1.138,0V18.12a.569.569,0,1,0,1.138,0V14.707a.569.569,0,1,1,1.138,0V18.12a.569.569,0,1,0,1.138,0V15.844a.569.569,0,1,1,1.138,0v5.689a.569.569,0,0,0,.569.569h.569v1.434a3.565,3.565,0,0,1-1.959,3.177.569.569,0,0,0-.316.51Zm2.571-1.138h-1.434V27.559a4.651,4.651,0,0,0,2.275-4.024V22.1h3.189a4.65,4.65,0,0,0,4.024,2.275h1.434v3.189a4.65,4.65,0,0,0-2.275,4.024v1.434h-3.189a4.651,4.651,0,0,0-4.024-2.275Zm17.452,7.4a.569.569,0,0,1-1.138,0V37.006a.569.569,0,1,0-1.138,0v2.275a.569.569,0,0,1-1.138,0V37.006a.569.569,0,0,0-1.138,0v3.413a.569.569,0,1,1-1.138,0V37.006a.569.569,0,1,0-1.138,0v2.275a.569.569,0,0,1-1.138,0V33.592a.569.569,0,0,0-.569-.569h-.569V31.59a3.519,3.519,0,0,1,1.959-3.177.569.569,0,0,0,.316-.51V23.239h5.12a1.7,1.7,0,0,0,.569-.1V27.9a.569.569,0,0,0,.06.254l.318.635a7.3,7.3,0,0,1,.76,3.218Zm-.569-18.317h-3.413a.569.569,0,1,0,0,1.138h2.275a.569.569,0,0,1,0,1.138H574.3a.569.569,0,0,0-.569.569v.569H572.3a3.565,3.565,0,0,1-3.177-1.959.569.569,0,0,0-.51-.316h-4.665v-5.12a1.7,1.7,0,0,0-.1-.569h4.762a.568.568,0,0,0,.254-.06,8.018,8.018,0,0,1,3.853-1.078h6.132a.569.569,0,0,1,0,1.138h-1.138a.569.569,0,1,0,0,1.138h2.275a.569.569,0,0,1,0,1.138h-2.275a.569.569,0,1,0,0,1.138h3.413a.569.569,0,0,1,0,1.138Z" transform="translate(-553.707 -13)"/><ellipse class="b" cx="0.569" cy="0.569" rx="0.569" ry="0.569" transform="translate(7.395 27.817)"/></g></g></svg>