<svg xmlns="http://www.w3.org/2000/svg" width="922.116" height="606.317" viewBox="0 0 922.116 606.317"><g transform="translate(-1083.837 -1313.861) rotate(-3)"><g transform="translate(1009.412 1398.781)"><g transform="translate(273.753 281.054)" opacity="0.1"><path d="M449.846,403.559,568.436,508.388l31.487-155.111L481.332,248.449,331.255,298.738,299.768,453.849Z" transform="translate(-299.767 -248.448)" fill="#42e8e0"/><path d="M347.752,248.449,466.343,353.277,434.856,508.388,316.265,403.561Z" transform="translate(-166.186 -248.449)" fill="#42e8e0"/><path d="M331.255,298.739l150.077-50.29L449.846,403.561,299.768,453.85Z" transform="translate(-299.768 -248.449)" fill="#2fd3c7"/><path d="M449.842,265.5,568.434,370.326,418.359,420.614,299.768,315.786Z" transform="translate(-299.763 -110.387)" fill="#42e8e0"/><path d="M449.846,271.486,568.436,376.314l1.366-6.727L451.212,264.76,301.137,315.048l-1.369,6.728Z" transform="translate(-299.767 -116.375)" fill="#fff"/></g><g transform="translate(311.039 217.589)"><path d="M440.941,399.75,303.866,320.61l137.07-79.137,137.074,79.14Z" transform="translate(-303.866 -241.473)" fill="#03002d" opacity="0.4"/></g><g transform="translate(0 49.704)"><path d="M633.344,637.886c-90.345,0-180.7-19.85-249.483-59.56-66.91-38.636-103.755-90.081-103.755-144.865S316.95,327.224,383.861,288.6c137.551-79.41,361.379-79.419,498.939.009,66.91,38.627,103.763,90.072,103.763,144.864,0,54.775-36.844,106.22-103.754,144.856C814.033,618.036,723.688,637.886,633.344,637.886Zm-.027-406.011c-89.826,0-179.635,19.732-248.018,59.205-65.973,38.1-102.317,88.653-102.317,142.381,0,53.71,36.344,104.282,102.326,142.372,136.768,78.964,359.3,78.964,496.064,0,65.973-38.09,102.308-88.653,102.308-142.363,0-53.728-36.335-104.282-102.318-142.381C812.978,251.607,723.133,231.875,633.316,231.875Z" transform="translate(-185.222 -174.284)" fill="#42e8e0" opacity="0.4"/><path d="M717.8,741.377c-114.644,0-229.288-25.2-316.566-75.589C316.4,616.827,269.676,551.617,269.676,482.2S316.4,347.566,401.222,298.6c174.559-100.771,458.575-100.771,633.114.009,84.842,48.971,131.555,114.18,131.555,183.6s-46.713,134.621-131.545,183.583l-.719-1.237.719,1.237C947.076,716.178,832.432,741.377,717.8,741.377Zm-.028-515.524c-114.116,0-228.232,25.081-315.111,75.234-83.9,48.443-130.1,112.752-130.1,181.109,0,68.338,46.2,132.665,130.109,181.108,173.766,100.316,456.491,100.316,630.24,0h0c83.9-48.443,130.109-112.76,130.109-181.1S1116.8,349.54,1032.9,301.088C946.029,250.935,831.9,225.853,717.77,225.853Z" transform="translate(-269.676 -223.018)" fill="#42e8e0" opacity="0.2"/><path d="M566.825,556.367c-71.214,0-142.418-15.647-196.637-46.951-52.792-30.475-81.866-71.076-81.866-114.343S317.4,311.2,370.179,280.72c108.412-62.589,284.825-62.589,393.238,0,52.8,30.485,81.876,71.1,81.876,114.371s-29.075,83.858-81.866,114.334C709.225,540.72,638.02,556.367,566.825,556.367Zm-.027-319.75c-70.686,0-141.362,15.529-195.173,46.6C319.762,313.16,291.2,352.879,291.2,395.072s28.565,81.912,80.429,111.86c107.63,62.134,282.743,62.125,390.364.009l.719,1.237-.719-1.237c51.854-29.948,80.42-69.676,80.42-111.851,0-42.2-28.566-81.93-80.429-111.878C708.169,252.145,637.484,236.616,566.8,236.616Z" transform="translate(-118.695 -135.895)" fill="#42e8e0"/></g><g transform="translate(288.078)"><path d="M445.584,375.055l-15.695-157.5-128.547,92.34,15.7,157.5,144.245,65.157,128.547-92.34Z" transform="translate(-301.342 -217.555)" fill="#42e8e0"/><path d="M317.038,467.395l-15.7-157.5,128.547-92.34,15.7,157.5Z" transform="translate(-301.342 -217.555)" fill="#00b0b6"/><path d="M447.314,392.364,303.068,327.207l128.547-92.34,144.246,65.156Z" transform="translate(-287.372 -77.368)" fill="#2fd3c7"/><path d="M331.168,375.055l-15.7-157.5L459.714,282.71l15.7,157.5Z" transform="translate(-186.926 -217.555)" fill="#00b0b6"/><path d="M336.13,375.055l-15.695-157.5-5.576,4,15.7,157.5L474.8,444.214l5.579-4Z" transform="translate(-191.888 -217.555)" fill="#fff"/></g><path d="M310.032,248.164H441.784L390.92,284.7Z" transform="translate(57.099 30.295)" fill="#03002d" opacity="0.4"/></g><g transform="translate(1679.098 1769.297)"><path d="M343.29,276.778a18.5,18.5,0,1,0,18.494-18.495A18.5,18.5,0,0,0,343.29,276.778Z" transform="translate(-343.29 -258.283)" fill="#42e8e0" opacity="0.4"/><ellipse cx="8.027" cy="8.027" rx="8.027" ry="8.027" transform="translate(10.47 10.472)" fill="#42e8e0" style="mix-blend-mode:lighten;isolation:isolate"/></g><g transform="translate(1316.206 1824.574)"><ellipse cx="28.871" cy="28.871" rx="28.871" ry="28.871" fill="#42e8e0" opacity="0.4"/><path d="M305.2,278.683a12.531,12.531,0,1,0,12.527-12.527A12.533,12.533,0,0,0,305.2,278.683Z" transform="translate(-288.854 -249.81)" fill="#42e8e0" style="mix-blend-mode:lighten;isolation:isolate"/></g><g transform="translate(1229.43 1582.002)"><path d="M293.861,257.254a19.559,19.559,0,1,0,19.559-19.559A19.56,19.56,0,0,0,293.861,257.254Z" transform="translate(-293.861 -237.695)" fill="#42e8e0" opacity="0.4"/><path d="M295.078,247.4a8.488,8.488,0,1,0,8.488-8.488A8.479,8.479,0,0,0,295.078,247.4Z" transform="translate(-284.006 -227.841)" fill="#42e8e0" style="mix-blend-mode:lighten;isolation:isolate"/></g></g></svg>