<svg xmlns="http://www.w3.org/2000/svg" xmlns:xlink="http://www.w3.org/1999/xlink" width="432.489" height="973.797" viewBox="0 0 432.489 973.797"><defs><clipPath id="a"><rect width="391.345" height="973.797" transform="translate(2015.149 3407.939)" fill="#fff" stroke="#707070" stroke-width="1"/></clipPath><clipPath id="b"><rect width="1859.045" height="973.797" rx="12.001" fill="none"/></clipPath></defs><g transform="translate(36.75 -1793.527)"><g transform="translate(-2010.756 -1614.413)" opacity="0.3" clip-path="url(#a)"><g transform="translate(547.45 3407.939)"><g transform="translate(0 0)"><g transform="translate(0 0)" clip-path="url(#b)"><g transform="translate(-47.113 -126.059)"><path d="M593.488,349.744a14.31,14.31,0,0,0,12.966,0c3.582-2.067,3.582-5.417,0-7.487a14.332,14.332,0,0,0-12.966,0C589.906,344.327,589.906,347.677,593.488,349.744Z" transform="translate(1375.969 751.336)" fill="#42e8e0"/><path d="M516.757,344.788a14.332,14.332,0,0,0,12.966,0c3.582-2.067,3.582-5.417,0-7.487a14.332,14.332,0,0,0-12.966,0C513.176,339.371,513.176,342.721,516.757,344.788Z" transform="translate(1191.443 739.417)" fill="#42e8e0"/><path d="M482.436,363.676a14.318,14.318,0,0,0,12.969,0c3.582-2.067,3.582-5.417,0-7.487a14.339,14.339,0,0,0-12.969,0C478.855,358.259,478.855,361.609,482.436,363.676Z" transform="translate(1108.906 784.84)" fill="#42e8e0"/><path d="M636.686,283.589a14.339,14.339,0,0,0,12.969,0c3.578-2.067,3.578-5.42,0-7.487a14.339,14.339,0,0,0-12.969,0C633.1,278.169,633.1,281.522,636.686,283.589Z" transform="translate(1479.854 592.243)" fill="#42e8e0"/><g transform="translate(0 0)"><path d="M552.423,450.011l-.511-.3L307.666,308.7l1.542-.885L552.43,167.385l.514.3L797.191,308.693l-1.542.889ZM311.776,308.7,552.423,447.638,793.081,308.693,552.43,169.758Z" transform="translate(695.071 334.524)" fill="#21c4fc"/><path d="M406.757,563.235l-1.024-1.776,168.058-97.028,0-159.16.515-.3L1058.961,25.164l1.024,1.776L575.849,306.456l0,159.16-.515.3Z" transform="translate(930.907 -7.496)" fill="#21c4fc"/><path d="M471.512,287.6h-2.055l0-146.914.515-.3L676.731,21.018l1.024,1.776L471.516,141.867Z" transform="translate(1084.155 -17.465)" fill="#21c4fc"/><path d="M416.068,359.031l-1.024-1.776,164.364-94.9H865.274L1115.84,117.689h43.987l.236.14,177.232,102.325-1.024,1.776-177-102.185h-42.883L865.827,264.41H579.959Z" transform="translate(953.297 215.013)" fill="#21c4fc"/><path d="M804.135,456.334,473.855,265.65H276.917l-.236-.14L152.324,193.715V77.229h2.055v115.3l123.09,71.063H474.407l.236.14L805.159,454.558Z" transform="translate(321.497 117.713)" fill="#21c4fc"/><path d="M677.03,450.094,341.553,256.406l0-115.046L221.616,72.109l1.024-1.776,120.972,69.843,0,115.047,334.446,193.1Z" transform="translate(488.133 101.131)" fill="#21c4fc"/><path d="M507.135,464.994,309.488,350.886l0-98.731.516-.3L652.373,54.192l1.024,1.776L311.546,253.339l0,96.363L508.159,463.219Z" transform="translate(699.452 62.313)" fill="#21c4fc"/><path d="M149.981,495.725H149.7l-.236-.14L15.706,418.358l1.024-1.776,133.527,77.088,302.543,0L671.418,367.448h180.8l248.76-143.619,1.024,1.776L852.769,369.5H671.97L453.351,495.722Z" transform="translate(-7.048 470.265)" fill="#21c4fc"/><path d="M165.274,419.355l-1.024-1.776,108.43-62.607H480.172l235.42-135.918,1.024,1.776-235.892,136.2H273.231Z" transform="translate(350.177 458.781)" fill="#21c4fc"/><path d="M560.659,309.773l-172.8-99.761h-123.2l-79.8,46.068-1.024-1.775,80.27-46.348H388.415l.236.14L561.683,308Z" transform="translate(397.285 432.093)" fill="#21c4fc"/><path d="M157.331,385.2l-1.024-1.775,96.2-55.545V280.137h2.055v48.928l-.515.3Z" transform="translate(331.077 605.676)" fill="#21c4fc"/><path d="M413.735,156.781H335.091v-2.055h78.092l140.1-80.885,1.024,1.776Z" transform="translate(761.025 109.566)" fill="#21c4fc"/><path d="M427.083,282.43h-2.055l0-50.75L327.77,175.526v-54.82h2.055v53.636L427.086,230.5Z" transform="translate(743.418 222.27)" fill="#21c4fc"/><path d="M765.985,595.208,596.514,497.366l0-159.156-183.6-106,1.024-1.775,184.63,106.594,0,159.156,168.44,97.251Z" transform="translate(948.187 486.141)" fill="#21c4fc"/><path d="M672.8,649.01l-67.209-38.8V540.045L540.38,502.4l.006-186.541L404.212,237.233l1.024-1.776,137.2,79.213-.006,186.541,65.211,37.649v70.165l66.178,38.208Z" transform="translate(927.25 498.228)" fill="#21c4fc"/><path d="M1103.141,427.933l-52.951-30.567H937.221l-.236-.14L733.583,279.8H554.539l-.236-.14L442.518,215.117l1.024-1.776,111.548,64.4H734.134l.236.14,203.4,117.431h112.969l.236.14,53.188,30.707Z" transform="translate(1019.369 445.042)" fill="#21c4fc"/><path d="M749.295,283.077l-70.9-40.931H541.656V240.09H678.944l.236.14L750.319,281.3Z" transform="translate(1257.78 509.369)" fill="#21c4fc"/><path d="M994.211,631.153,731.782,479.641v-79.2L426.653,224.277l1.024-1.776,306.16,176.759v79.2l261.4,150.92Z" transform="translate(981.216 467.071)" fill="#21c4fc"/><path d="M425.692,341.186l-1.024-1.776,118.438-68.383,331.228,0,239.114-138.049,1.025,1.776L874.885,273.079l-331.228,0Z" transform="translate(976.441 251.774)" fill="#21c4fc"/><path d="M551.919,214.59h-.276l-.236-.14-67.744-39.112,1.024-1.776L552.2,212.535l182.309,0v2.055Z" transform="translate(1118.316 349.379)" fill="#21c4fc"/><path d="M547.578,766.321h-2.055l0-111.127-263.9-152.363,0-122.584.515-.3L531.881,235.767l1.024,1.776L283.683,381.431l0,120.217,263.9,152.363Z" transform="translate(632.445 498.973)" fill="#21c4fc"/><path d="M515,388.279l-90.914-52.486-107.405,0v-2.055l107.958,0,.236.14L516.024,386.5Z" transform="translate(716.751 734.577)" fill="#21c4fc"/><rect width="211.786" height="2.05" transform="matrix(0.866, -0.5, 0.5, 0.866, 1016.289, 861.021)" fill="#21c4fc"/><path d="M499.032,614.566h-2.055l.007-310.449L392.677,243.894l1.024-1.776,105.337,60.815Z" transform="translate(899.51 514.245)" fill="#21c4fc"/><path d="M409.477,437.4h-2.055l0-108.762.515-.3,54.1-31.235,1.024,1.776-53.583,30.939Z" transform="translate(934.97 646.488)" fill="#21c4fc"/><path d="M1080.456,326.522l-164.4-94.917-253.917,0-.236-.14-83.964-48.476H537.546L434.234,242.638l-1.024-1.776,103.785-59.924h41.493l.236.14,83.964,48.476,253.917,0,.236.14,164.64,95.056Z" transform="translate(996.983 367.117)" fill="#21c4fc"/><path d="M360.613,372.072H293.849v-2.055h66.212L572.139,247.579l1.024,1.776Z" transform="translate(661.844 527.378)" fill="#21c4fc"/><path d="M347.387,421.731l-1.024-1.776L519.81,319.815V279.282l-50.953-29.42,1.024-1.776L521.865,278.1V321l-.515.3Z" transform="translate(788.131 528.599)" fill="#21c4fc"/><path d="M344.013,322.921l-1.024-1.776,77.863-44.958h65.4v2.055H421.4Z" transform="translate(780.017 596.176)" fill="#21c4fc"/><path d="M344.421,430.224l-1.024-1.775,79.887-46.125V345.259l.515-.3,90.4-52.193V271.486h2.055v22.468l-.516.3-90.4,52.193v37.064l-.515.3Z" transform="translate(780.998 584.871)" fill="#21c4fc"/><path d="M343.132,297.134a14.317,14.317,0,0,0,12.969,0c3.582-2.067,3.582-5.417,0-7.487a14.339,14.339,0,0,0-12.969,0C339.551,291.717,339.551,295.067,343.132,297.134Z" transform="translate(773.902 624.817)" fill="#21c4fc"/><path d="M346.436,306.268a14.339,14.339,0,0,0,12.969,0c3.582-2.067,3.582-5.421,0-7.487a14.339,14.339,0,0,0-12.969,0C342.857,300.848,342.857,304.2,346.436,306.268Z" transform="translate(781.852 646.783)" fill="#21c4fc"/><path d="M400.956,300.99a14.339,14.339,0,0,0,12.969,0c3.582-2.067,3.582-5.42,0-7.487a14.339,14.339,0,0,0-12.969,0C397.377,295.57,397.377,298.923,400.956,300.99Z" transform="translate(912.964 634.09)" fill="#21c4fc"/><path d="M515.288,218.785a14.338,14.338,0,0,0,12.969,0c3.582-2.067,3.582-5.42,0-7.487a14.338,14.338,0,0,0-12.969,0C511.709,213.365,511.709,216.718,515.288,218.785Z" transform="translate(1187.914 436.4)" fill="#21c4fc"/><path d="M589.016,235.242a14.328,14.328,0,0,0,12.969,0c3.582-2.067,3.582-5.417,0-7.487a14.328,14.328,0,0,0-12.969,0C585.437,229.822,585.437,233.172,589.016,235.242Z" transform="translate(1365.219 475.969)" fill="#21c4fc"/><path d="M491.925,207.5a14.318,14.318,0,0,0,12.969,0c3.582-2.067,3.582-5.417,0-7.487a14.339,14.339,0,0,0-12.969,0C488.346,202.078,488.346,205.428,491.925,207.5Z" transform="translate(1131.73 409.249)" fill="#21c4fc"/><path d="M483.6,225.775a14.331,14.331,0,0,0,12.966,0c3.582-2.07,3.582-5.421,0-7.487a14.31,14.31,0,0,0-12.966,0C480.014,220.354,480.014,223.708,483.6,225.775Z" transform="translate(1111.696 453.203)" fill="#21c4fc"/><path d="M359.426,399.073a14.311,14.311,0,0,0,12.966,0c3.582-2.067,3.582-5.417,0-7.487a14.332,14.332,0,0,0-12.966,0C355.845,393.656,355.845,397.006,359.426,399.073Z" transform="translate(813.086 869.964)" fill="#21c4fc"/><path d="M375.07,356.978a14.339,14.339,0,0,0,12.969,0c3.579-2.067,3.582-5.421,0-7.487a14.339,14.339,0,0,0-12.969,0C371.488,351.558,371.488,354.911,375.07,356.978Z" transform="translate(850.708 768.732)" fill="#21c4fc"/><path d="M121.029,395.278a14.338,14.338,0,0,0,12.969,0c3.582-2.067,3.582-5.421,0-7.487a14.338,14.338,0,0,0-12.969,0C117.45,389.857,117.45,393.211,121.029,395.278Z" transform="translate(239.783 860.838)" fill="#21c4fc"/><path d="M214.094,397.237a14.339,14.339,0,0,0,12.969,0c3.578-2.067,3.578-5.421,0-7.487a14.339,14.339,0,0,0-12.969,0C210.513,391.816,210.513,395.17,214.094,397.237Z" transform="translate(463.585 865.549)" fill="#21c4fc"/><path d="M241.98,333.8a14.339,14.339,0,0,0,12.969,0c3.582-2.07,3.582-5.42,0-7.487a14.318,14.318,0,0,0-12.969,0C238.4,328.377,238.4,331.728,241.98,333.8Z" transform="translate(530.651 712.982)" fill="#21c4fc"/><path d="M557.325,192.792a14.318,14.318,0,0,0,12.969,0c3.582-2.067,3.582-5.417,0-7.487a14.331,14.331,0,0,0-12.966,0C553.747,187.375,553.747,190.725,557.325,192.792Z" transform="translate(1289.01 373.891)" fill="#21c4fc"/><path d="M627.1,140.719a14.339,14.339,0,0,0,12.969,0c3.582-2.067,3.582-5.42,0-7.487a14.339,14.339,0,0,0-12.969,0C623.524,135.3,623.524,138.652,627.1,140.719Z" transform="translate(1456.812 248.663)" fill="#21c4fc"/><path d="M685.75,155.526a14.339,14.339,0,0,0,12.969,0c3.578-2.07,3.578-5.421,0-7.487a14.339,14.339,0,0,0-12.969,0C682.169,150.106,682.169,153.459,685.75,155.526Z" transform="translate(1597.845 284.272)" fill="#21c4fc"/><path d="M530.912,29.012a14.311,14.311,0,0,0,12.966,0c3.582-2.067,3.582-5.417,0-7.487a14.332,14.332,0,0,0-12.966,0C527.331,23.595,527.331,26.945,530.912,29.012Z" transform="translate(1225.484 -19.975)" fill="#21c4fc"/><path d="M343.54,325.331a14.332,14.332,0,0,0,12.966,0c3.582-2.07,3.582-5.421,0-7.487a14.31,14.31,0,0,0-12.966,0C339.958,319.91,339.958,323.261,343.54,325.331Z" transform="translate(774.883 692.62)" fill="#21c4fc"/><path d="M407.717,345.8a14.328,14.328,0,0,0,12.969,0c3.578-2.067,3.582-5.417,0-7.487a14.328,14.328,0,0,0-12.969,0C404.136,340.377,404.136,343.727,407.717,345.8Z" transform="translate(929.219 741.837)" fill="#21c4fc"/><path d="M423.607,359.554a14.339,14.339,0,0,0,12.969,0c3.578-2.067,3.578-5.42,0-7.487a14.339,14.339,0,0,0-12.969,0C420.026,354.134,420.026,357.487,423.607,359.554Z" transform="translate(967.432 774.927)" fill="#21c4fc"/><path d="M602.783,259.938a14.331,14.331,0,0,0,12.966,0c3.582-2.07,3.582-5.421,0-7.487a14.332,14.332,0,0,0-12.966,0C599.2,254.518,599.2,257.868,602.783,259.938Z" transform="translate(1398.322 535.366)" fill="#21c4fc"/><path d="M554.583,280.351a14.338,14.338,0,0,0,12.969,0c3.582-2.07,3.582-5.42,0-7.487a14.331,14.331,0,0,0-12.966,0C551,274.931,551,278.281,554.583,280.351Z" transform="translate(1282.415 584.456)" fill="#21c4fc"/><path d="M623.405,230.942a14.318,14.318,0,0,0,12.969,0c3.582-2.067,3.582-5.421,0-7.487a14.339,14.339,0,0,0-12.969,0C619.824,225.522,619.824,228.875,623.405,230.942Z" transform="translate(1447.915 465.635)" fill="#21c4fc"/><path d="M293.842,291.323a14.339,14.339,0,0,0,12.969,0c3.578-2.067,3.582-5.421,0-7.487a14.339,14.339,0,0,0-12.969,0C290.261,285.9,290.261,289.256,293.842,291.323Z" transform="translate(655.367 610.842)" fill="#21c4fc"/><path d="M185.209,228.6a14.339,14.339,0,0,0,12.969,0c3.582-2.067,3.582-5.421,0-7.487a14.338,14.338,0,0,0-12.969,0C181.628,223.184,181.628,226.537,185.209,228.6Z" transform="translate(394.121 460.013)" fill="#21c4fc"/><path d="M231.193,189.72a14.317,14.317,0,0,0,12.969,0c3.582-2.067,3.582-5.417,0-7.487a14.339,14.339,0,0,0-12.969,0C227.614,184.3,227.614,187.653,231.193,189.72Z" transform="translate(504.71 366.503)" fill="#21c4fc"/><path d="M257.191,203.191a14.339,14.339,0,0,0,12.969,0c3.582-2.067,3.582-5.421,0-7.487a14.339,14.339,0,0,0-12.969,0C253.612,197.771,253.612,201.124,257.191,203.191Z" transform="translate(567.231 398.899)" fill="#21c4fc"/><path d="M282.168,182.112a14.332,14.332,0,0,0,12.966,0c3.582-2.067,3.582-5.421,0-7.487a14.332,14.332,0,0,0-12.966,0C278.587,176.692,278.587,180.045,282.168,182.112Z" transform="translate(627.293 348.207)" fill="#21c4fc"/><path d="M328.065,128.189a14.332,14.332,0,0,0,12.966,0c3.582-2.067,3.582-5.421,0-7.487a14.339,14.339,0,0,0-12.969,0C324.484,122.769,324.484,126.122,328.065,128.189Z" transform="translate(737.668 218.531)" fill="#21c4fc"/><path d="M152.059,85.033a14.318,14.318,0,0,0,12.969,0c3.582-2.067,3.582-5.417,0-7.487a14.332,14.332,0,0,0-12.966,0C148.481,79.616,148.481,82.966,152.059,85.033Z" transform="translate(314.408 114.747)" fill="#21c4fc"/><path d="M221.757,78.077a14.318,14.318,0,0,0,12.969,0c3.582-2.067,3.582-5.417,0-7.487a14.339,14.339,0,0,0-12.969,0C218.178,72.66,218.178,76.01,221.757,78.077Z" transform="translate(482.018 98.019)" fill="#21c4fc"/><path d="M360.115,131.894a14.339,14.339,0,0,0,12.969,0c3.582-2.067,3.582-5.421,0-7.487a14.339,14.339,0,0,0-12.969,0C356.534,126.474,356.534,129.827,360.115,131.894Z" transform="translate(814.743 227.44)" fill="#21c4fc"/><path d="M363.651,112.261a14.339,14.339,0,0,0,12.969,0c3.582-2.067,3.582-5.421,0-7.487a14.339,14.339,0,0,0-12.969,0C360.07,106.841,360.07,110.194,363.651,112.261Z" transform="translate(823.247 180.226)" fill="#21c4fc"/><path d="M418.829,89.082a14.339,14.339,0,0,0,12.969,0c3.582-2.067,3.582-5.42,0-7.487a14.332,14.332,0,0,0-12.966,0C415.251,83.662,415.251,87.015,418.829,89.082Z" transform="translate(955.948 124.484)" fill="#21c4fc"/><path d="M399.317,81.585a14.318,14.318,0,0,0,12.969,0c3.582-2.067,3.582-5.421,0-7.487a14.339,14.339,0,0,0-12.969,0C395.736,76.165,395.736,79.518,399.317,81.585Z" transform="translate(909.018 106.455)" fill="#21c4fc"/><path d="M597.728,32.907a14.339,14.339,0,0,0,12.969,0c3.582-2.067,3.582-5.421,0-7.487a14.339,14.339,0,0,0-12.969,0C594.146,27.487,594.146,30.84,597.728,32.907Z" transform="translate(1386.166 -10.608)" fill="#21c4fc"/><path d="M410.336,61.938a14.339,14.339,0,0,0,12.969,0c3.579-2.07,3.579-5.421,0-7.487a14.318,14.318,0,0,0-12.969,0C406.755,56.517,406.755,59.868,410.336,61.938Z" transform="translate(935.517 59.201)" fill="#21c4fc"/><path d="M293.115,225.513a14.332,14.332,0,0,0,12.966,0c3.582-2.067,3.582-5.421,0-7.487a14.332,14.332,0,0,0-12.966,0C289.533,220.092,289.533,223.446,293.115,225.513Z" transform="translate(653.619 452.58)" fill="#21c4fc"/><path d="M421.595,160.419a14.339,14.339,0,0,0,12.969,0c3.582-2.067,3.582-5.421,0-7.487a14.339,14.339,0,0,0-12.969,0C418.016,155,418.016,158.352,421.595,160.419Z" transform="translate(962.597 296.039)" fill="#21c4fc"/><path d="M532.324,122.061a14.329,14.329,0,0,0,12.969,0c3.578-2.067,3.578-5.417,0-7.487a14.339,14.339,0,0,0-12.969,0C528.742,116.644,528.742,119.994,532.324,122.061Z" transform="translate(1228.879 203.794)" fill="#21c4fc"/><path d="M613.305,80.228a14.339,14.339,0,0,0,12.969,0c3.582-2.067,3.582-5.421,0-7.487a14.331,14.331,0,0,0-12.966,0C609.727,74.808,609.727,78.161,613.305,80.228Z" transform="translate(1423.633 103.192)" fill="#21c4fc"/><path d="M587.988,73.463a14.332,14.332,0,0,0,12.966,0c3.582-2.067,3.582-5.421,0-7.487a14.332,14.332,0,0,0-12.966,0C584.406,68.043,584.406,71.4,587.988,73.463Z" transform="translate(1362.742 86.923)" fill="#21c4fc"/><path d="M247.587,228.275a14.318,14.318,0,0,0,12.969,0c3.582-2.067,3.582-5.421,0-7.487a14.339,14.339,0,0,0-12.969,0C244.008,222.858,244.008,226.208,247.587,228.275Z" transform="translate(544.135 459.222)" fill="#21c4fc"/><path d="M156.45,318.216a14.339,14.339,0,0,0,12.969,0c3.578-2.067,3.578-5.417,0-7.487a14.339,14.339,0,0,0-12.969,0C152.869,312.8,152.869,316.149,156.45,318.216Z" transform="translate(324.961 675.516)" fill="#21c4fc"/><path d="M119.834,222.124a14.332,14.332,0,0,0,12.966,0c3.582-2.07,3.582-5.421,0-7.491a14.332,14.332,0,0,0-12.966,0C116.253,216.7,116.253,220.053,119.834,222.124Z" transform="translate(236.905 444.42)" fill="#21c4fc"/><path d="M164.391,284.567a14.339,14.339,0,0,0,12.969,0c3.582-2.067,3.582-5.42,0-7.487a14.339,14.339,0,0,0-12.969,0C160.812,279.147,160.812,282.5,164.391,284.567Z" transform="translate(344.062 594.595)" fill="#21c4fc"/><path d="M15.849,288.185a14.339,14.339,0,0,0,12.969,0c3.582-2.067,3.582-5.421,0-7.487a14.339,14.339,0,0,0-12.969,0C12.268,282.764,12.268,286.118,15.849,288.185Z" transform="translate(-13.163 603.296)" fill="#21c4fc"/><path d="M311.8,280.614a14.338,14.338,0,0,0,12.969,0c3.579-2.067,3.579-5.42,0-7.487a14.338,14.338,0,0,0-12.969,0C308.217,275.194,308.217,278.547,311.8,280.614Z" transform="translate(698.548 585.089)" fill="#21c4fc"/><rect width="88.779" height="2.05" transform="translate(1320.117 930.569) rotate(-29.981)" fill="#21c4fc"/><path d="M376.713,242.238H332.347l-.236-.14-39.445-22.773,1.024-1.776L332.9,240.183h43.814Z" transform="translate(658.997 455.162)" fill="#21c4fc"/><path d="M232.075,227.693l-1.024-1.775L338.8,163.706H412.09l.236.14,94.91,54.79h59.9v2.055H506.684l-.236-.14-94.91-54.79H339.352Z" transform="translate(510.824 325.676)" fill="#21c4fc"/><path d="M448.913,251.208l-107.6-62.118H305.926l-47.319,27.315-1.024-1.776,47.791-27.595h36.492l.236.14,107.834,62.258Z" transform="translate(574.63 381.779)" fill="#21c4fc"/><path d="M362.205,263.766H360.15V221.252l-78.125-45.108,1.024-1.775,79.156,45.7Z" transform="translate(633.408 351.319)" fill="#21c4fc"/><path d="M545.241,265.26h-79.95V263.2h79.4l90.352-52.163,1.024,1.776Z" transform="translate(1074.133 439.512)" fill="#21c4fc"/><path d="M121.911,770.067l-1.024-1.776,275.16-158.864,0-100.968.516-.3L879.732,229.206l1.024,1.776L398.106,509.643l0,100.968-.515.3Z" transform="translate(245.897 483.193)" fill="#21c4fc"/><path d="M614.679,229.592l-68.413-39.5H519.03l-36.489,21.071H440.755V209.11H481.99l36.489-21.071h28.339l.236.14L615.7,227.816Z" transform="translate(1015.13 384.193)" fill="#21c4fc"/><path d="M410.988,411.888l-1.024-1.776,129.707-74.89,0-84.878-147.409-85.1V133.282l.515-.3,89.454-51.648,1.024,1.776-88.938,51.352v29.589l147.41,85.1,0,87.246-.515.3Z" transform="translate(898.516 127.596)" fill="#21c4fc"/><path d="M408.339,221.806h-2.055l0-39.312.515-.3,51.133-29.523,1.024,1.776-50.617,29.227Z" transform="translate(932.232 299.15)" fill="#21c4fc"/><path d="M485.866,372.829l-1.024-1.776L792.894,193.2l0-46.467.516-.3L921.387,72.548l1.024,1.776-127.458,73.59,0,46.468-.515.3Z" transform="translate(1121.153 106.455)" fill="#21c4fc"/><path d="M519.829,260.1h-2.055V203.463l.515-.3L756.352,65.719l1.024,1.776L519.829,204.647Z" transform="translate(1200.348 90.034)" fill="#21c4fc"/><path d="M463.969,271.782l-1.024-1.775,155.186-89.6,0-19.588.516-.3,80.034-46.208,1.024,1.776L620.19,162.006l0,19.588-.515.3Z" transform="translate(1068.492 206.906)" fill="#21c4fc"/><path d="M242.863,424.982l-1.024-1.775,91.376-52.759V311.406l44.609-25.753,1.024,1.776-43.578,25.161v59.043l-.515.3Z" transform="translate(536.766 618.94)" fill="#21c4fc"/><path d="M371.9,258.75h-61.34l-.236-.14-62.877-36.3,1.024-1.776,62.64,36.163H371.9Z" transform="translate(550.249 462.334)" fill="#21c4fc"/><path d="M343.535,345.234h-.276l-.236-.139L120.341,216.528l1.024-1.776L343.811,343.179l280.577,0v2.055Z" transform="translate(244.584 448.436)" fill="#21c4fc"/><path d="M452.172,286.687h-2.055l0-108.712-89.713-51.8,1.024-1.775,90.743,52.389Z" transform="translate(821.907 231.157)" fill="#21c4fc"/><path d="M444.2,270.909l-1.024-1.775,65.34-37.726v-41.39L363.508,106.293l1.024-1.776,146.039,84.317v43.757l-.515.3Z" transform="translate(829.363 183.337)" fill="#21c4fc"/><path d="M768.516,341.354,604.758,246.813H465.425v-2.055H605.31l.236.14,163.994,94.68Z" transform="translate(1074.458 520.595)" fill="#21c4fc"/><path d="M704.2,247.81l-.236-.14L659.322,221.9H499.975v-2.055h159.9l.236.14,44.639,25.769,98.428,0v2.055Z" transform="translate(1157.545 460.685)" fill="#21c4fc"/><path d="M575.24,250.222,500.9,207.306H445.058v-2.055h56.4l.236.14,74.574,43.056Z" transform="translate(1025.478 425.585)" fill="#21c4fc"/><path d="M214.975,562.838l-1.024-1.775,109.44-63.186v-94.66l.516-.3,146.821-84.769,1.024,1.776L325.446,404.4V499.06l-.515.3Z" transform="translate(469.7 697.093)" fill="#21c4fc"/></g></g></g></g></g></g><g transform="translate(-36.75 1956.874)"><g transform="translate(0 282.494)" opacity="0.1"><path d="M280.808,357.3,177.3,297.541V417.06l103.509,59.76,103.509-59.76V297.541Z" transform="translate(-177.3 -237.782)" fill="#42e8e0"/><path d="M280.809,476.821,177.3,417.06V297.541L280.809,357.3Z" transform="translate(-177.3 -237.782)" fill="#42e8e0"/><path d="M295.876,417.06,192.367,476.821V357.3l103.509-59.761Z" transform="translate(-88.858 -237.782)" fill="#2fd3c7"/><path d="M280.809,408.362,177.3,348.6l103.506-59.759L384.314,348.6Z" transform="translate(-177.3 -288.842)" fill="#42e8e0"/><path d="M280.808,357.3,177.3,297.541v5.183l103.509,59.762,103.506-59.76,0-5.185Z" transform="translate(-177.3 -237.782)" fill="#fff"/></g><path d="M280.809,397.816,177.3,338.055,280.805,278.3l103.509,59.761Z" transform="translate(-177.3 -68.251)" fill="#03002d" opacity="0.4"/><path d="M280.808,316.18,177.3,256.419V375.937L280.808,435.7l103.509-59.76V256.419Z" transform="translate(-177.3 -196.66)" fill="#42e8e0"/><path d="M280.809,435.7,177.3,375.937V256.419L280.809,316.18Z" transform="translate(-177.3 -196.66)" fill="#00b0b6"/><path d="M295.876,375.937,192.367,435.7V316.18l103.509-59.761Z" transform="translate(-88.858 -196.66)" fill="#2fd3c7"/><path d="M280.809,367.24,177.3,307.479,280.805,247.72l103.509,59.761Z" transform="translate(-177.3 -247.72)" fill="#00b0b6"/><path d="M280.808,316.18,177.3,256.419V261.6l103.509,59.761L384.314,261.6l0-5.185Z" transform="translate(-177.3 -196.66)" fill="#fff"/></g></g></svg>