<svg xmlns="http://www.w3.org/2000/svg" width="106.652" height="268.685" viewBox="0 0 106.652 268.685"><g transform="translate(0 145.536)" opacity="0.1"><path d="M230.625,328.329,177.3,297.541v61.574L230.625,389.9l53.326-30.788V297.541Z" transform="translate(-177.3 -266.754)" fill="#42e8e0"/><path d="M230.626,389.9,177.3,359.115V297.541l53.326,30.788Z" transform="translate(-177.3 -266.754)" fill="#42e8e0"/><path d="M245.693,359.115,192.367,389.9V328.329l53.326-30.788Z" transform="translate(-139.041 -266.754)" fill="#2fd3c7"/><path d="M230.626,350.417,177.3,319.629l53.325-30.787L283.95,319.63Z" transform="translate(-177.3 -288.842)" fill="#42e8e0"/><path d="M230.625,328.329,177.3,297.541v2.67L230.625,331l53.325-30.787,0-2.671Z" transform="translate(-177.3 -266.754)" fill="#fff"/></g><path d="M230.626,339.871,177.3,309.083,230.624,278.3l53.326,30.788Z" transform="translate(-177.3 -170.084)" fill="#03002d" opacity="0.4"/><path d="M230.625,287.207,177.3,256.419v61.574l53.326,30.787,53.326-30.787V256.419Z" transform="translate(-177.3 -225.632)" fill="#42e8e0"/><path d="M230.626,348.781,177.3,317.993V256.419l53.326,30.788Z" transform="translate(-177.3 -225.632)" fill="#00b0b6"/><path d="M245.693,317.993l-53.326,30.788V287.207l53.326-30.788Z" transform="translate(-139.041 -225.632)" fill="#2fd3c7"/><path d="M230.626,309.295,177.3,278.507l53.325-30.787,53.326,30.788Z" transform="translate(-177.3 -247.72)" fill="#00b0b6"/><path d="M230.625,287.207,177.3,256.419v2.671l53.326,30.788L283.95,259.09l0-2.671Z" transform="translate(-177.3 -225.632)" fill="#fff"/></svg>