<svg xmlns="http://www.w3.org/2000/svg" width="62.255" height="49.286" viewBox="0 0 62.255 49.286"><path d="M2252.127-399.541l4.967-4.752v-1.04h-17.208l-12.265,30.526-13.954-30.526h-18.043v1.04l5.8,6.986a2.433,2.433,0,0,1,.786,2.031v27.452a3.129,3.129,0,0,1-.838,2.724l-6.536,7.922v1.027h18.534v-1.04l-6.537-7.909a3.224,3.224,0,0,1-.9-2.724v-23.746l16.269,35.432h1.89l13.99-35.432v28.226c0,.744,0,.9-.488,1.385l-5.032,4.869v1.043h24.414v-1.04l-4.85-4.75a1.443,1.443,0,0,1-.554-1.385v-34.933a1.436,1.436,0,0,1,.552-1.385Z" transform="translate(-2194.839 405.333)" fill="#00b0b6"/></svg>