<svg xmlns="http://www.w3.org/2000/svg" width="34.748" height="33.503" viewBox="0 0 34.748 33.503"><defs><style>.a{fill:#fff;}</style></defs><g transform="translate(6.934 8.53)"><path class="a" d="M139.759,146.067l-7.622,8.783a1.157,1.157,0,0,1-.823.395h-.044a1.155,1.155,0,0,1-.815-.34l-4.354-4.392a1.147,1.147,0,0,1,.816-1.955h0a1.138,1.138,0,0,1,.81.339l3.483,3.513,6.812-7.849a1.148,1.148,0,0,1,1.734,1.505Z" transform="translate(-125.769 -144.166)"/></g><g transform="translate(21.936 22.044)"><path class="a" d="M325.362,324.136a1.114,1.114,0,0,1-1.9.787l-10.911-9.566a14.267,14.267,0,0,0,1.583-1.566l10.9,9.559.17.217Z" transform="translate(-312.55 -313.79)"/></g><path class="a" d="M59.929,45.86a14.07,14.07,0,1,0,7.892,25.711q.307-.208.6-.433T69,70.675a14.271,14.271,0,0,0,1.583-1.566c.161-.187.318-.378.469-.574s.3-.395.439-.6A14.063,14.063,0,0,0,59.929,45.86ZM69.9,67.287q-.308.418-.651.807A12.277,12.277,0,0,1,68,69.331q-.393.338-.814.643A12.409,12.409,0,1,1,69.9,67.287Z" transform="translate(-45.86 -45.86)"/></svg>