<svg xmlns="http://www.w3.org/2000/svg" width="69.047" height="34.222" viewBox="0 0 69.047 34.222"><defs><style>.a{fill:#00c3ff;}</style></defs><g transform="translate(0)"><path class="a" d="M-364.414,629.381a1.012,1.012,0,0,0-1.14.867,15.071,15.071,0,0,1-4.988,9.271,15.07,15.07,0,0,1-9.958,3.753,15,15,0,0,1-5.764-1.14c-.03-.013-.065-.025-.1-.034a18.8,18.8,0,0,1-5.391-3.23,1.013,1.013,0,0,0-1.423.164,1.013,1.013,0,0,0,.164,1.423A20.783,20.783,0,0,0-387,644.02a17.016,17.016,0,0,0,6.5,1.277,17.094,17.094,0,0,0,11.3-4.258,17.1,17.1,0,0,0,5.657-10.517,1.013,1.013,0,0,0-.866-1.141Z" transform="translate(432.586 -611.075)"/><path class="a" d="M-655.529,510.669c2.149,1.916,4.823,3.875,8.355,3.875h0a10.9,10.9,0,0,0,10.88-10.885,10.9,10.9,0,0,0-10.884-10.884h0c-4.138,0-6.959,2.4-8.954,4.5-2.919,3.063-9.539,10.918-9.78,11.222-6.347,8.033-10.117,9-10.323,9.048a.765.765,0,0,0-.221.064,14.991,14.991,0,0,1-5.132,1.127l-.642.013a14.982,14.982,0,0,1-10.7-4.457,14.984,14.984,0,0,1-4.379-10.741,14.969,14.969,0,0,1,4.523-10.63,14.98,14.98,0,0,1,10.563-4.342h.153a15.006,15.006,0,0,1,5.432,1.067c.107.043.213.084.321.125.527.2,5.174,2.074,10.4,8.714,0,0-2.247,2.745-2.767,3.362-1.02-1.111-2.941-3.128-5.257-5.193-2.149-1.916-4.822-3.875-8.355-3.875h0c-.361,0-.726.018-1.084.054a1.013,1.013,0,0,0-.908,1.108,1.014,1.014,0,0,0,1.108.908c.292-.029.589-.044.884-.044h0c1.6,0,3.686.4,7.007,3.361,2.361,2.1,4.339,4.2,5.277,5.232-1.483,1.706-3.071,3.447-4.8,5.257-2.549,2.675-4.859,3.868-7.488,3.868a8.869,8.869,0,0,1-8.859-8.859,8.851,8.851,0,0,1,3.951-7.377,1.013,1.013,0,0,0,.281-1.4,1.013,1.013,0,0,0-1.4-.281,10.873,10.873,0,0,0-4.853,9.063,10.9,10.9,0,0,0,10.884,10.885c4.138,0,6.959-2.4,8.954-4.5,2.919-3.063,9.96-11.45,9.96-11.45l.013-.015c6.231-7.811,9.926-8.758,10.13-8.8a.762.762,0,0,0,.221-.064,14.99,14.99,0,0,1,5.132-1.127l.642-.013a15.082,15.082,0,0,1,9.841,3.66,15.086,15.086,0,0,1,5.052,9.069,1.013,1.013,0,0,0,1.157.844,1.013,1.013,0,0,0,.844-1.157,17.115,17.115,0,0,0-5.729-10.289,17.107,17.107,0,0,0-11.174-4.152h-.02l-.663.013h-.021a17.013,17.013,0,0,0-5.742,1.242c-.847.189-4.695,1.43-10.9,9.077-5.338-6.645-10.08-8.664-11.012-9.013-.094-.035-.188-.072-.281-.109a17.023,17.023,0,0,0-6.162-1.211,16.978,16.978,0,0,0-12.156,4.922,16.982,16.982,0,0,0-5.128,12.06,17,17,0,0,0,4.967,12.182,16.993,16.993,0,0,0,12.143,5.056h.021l.663-.013h.021a17.011,17.011,0,0,0,5.741-1.242c.837-.186,4.592-1.4,10.649-8.769.579.661,1.166,1.3,1.753,1.9a1.013,1.013,0,0,0,1.432.017,1.013,1.013,0,0,0,.017-1.432c-.638-.653-1.276-1.349-1.9-2.076.532-.642,2.516-3.06,3.036-3.678,1.019,1.111,2.941,3.128,5.257,5.193Zm.867-12c2.549-2.675,4.859-3.868,7.488-3.868a8.869,8.869,0,0,1,8.859,8.859,8.87,8.87,0,0,1-8.856,8.859h0c-1.6,0-3.686-.4-7.007-3.361-2.361-2.105-4.34-4.2-5.277-5.233,1.483-1.706,3.072-3.447,4.8-5.256Z" transform="translate(699.327 -486.549)"/></g></svg>