<svg xmlns="http://www.w3.org/2000/svg" width="61.446" height="63.828" viewBox="0 0 61.446 63.828"><defs><style>.a{fill:#00c3ff;}</style></defs><g transform="translate(-1317.41 -348)"><g transform="translate(1338.633 348)"><path class="a" d="M1516.678,359.375a.91.91,0,0,1-.835.558h-6.079v18.93a.9.9,0,1,1-1.809,0V359.03a.9.9,0,0,1,.9-.9h4.8l-7.939-7.941-7.94,7.942h4.8a.9.9,0,0,1,.9.9v20.628a.9.9,0,0,1-1.809,0V359.933H1495.6a.9.9,0,0,1-.639-1.544l10.123-10.124a.906.906,0,0,1,1.28,0l10.125,10.124A.9.9,0,0,1,1516.678,359.375Z" transform="translate(-1494.689 -348)"/></g><g transform="translate(1317.41 368.53)"><path class="a" d="M1347.124,535.279a.9.9,0,0,1-1.605.463,19.626,19.626,0,0,0-5.451-4.7l-.03-.016a27.128,27.128,0,0,0-11.67-3.346.907.907,0,0,1-.836-.9v-4.2l-7.938,7.941,7.938,7.941v-5.385a.891.891,0,0,1,.3-.668.907.907,0,0,1,.692-.233,23.389,23.389,0,0,1,8.259,2.175,15.346,15.346,0,0,1,4.882,3.748,15.632,15.632,0,0,1,2.57,4.231.9.9,0,1,1-1.669.7,13.872,13.872,0,0,0-2.271-3.748,13.626,13.626,0,0,0-4.318-3.311,20.914,20.914,0,0,0-6.632-1.863v6.539a.905.905,0,0,1-1.545.639l-10.122-10.126a.906.906,0,0,1,0-1.28l10.122-10.124a.906.906,0,0,1,1.545.641v5.587a28.5,28.5,0,0,1,11.609,3.483l.382.223h-.008a21.376,21.376,0,0,1,5.608,4.928A.9.9,0,0,1,1347.124,535.279Z" transform="translate(-1317.41 -519.488)"/></g><g transform="translate(1345.511 368.53)"><path class="a" d="M1585.485,530.518a.894.894,0,0,1-.265.639l-1.886,1.888-8.239,8.238a.9.9,0,0,1-1.544-.639v-6.249a17.828,17.828,0,0,0-5.449,2.066,14.618,14.618,0,0,0-2.864,2.258,15.5,15.5,0,0,0-2.266,2.957l-.022.031a21.06,21.06,0,0,0-2.7,8.912.237.237,0,0,1,.006.045c-.006.237-.016.449-.029.617v10.6a.905.905,0,1,1-1.81,0V551.247l0-.062a.087.087,0,0,1,0-.016.114.114,0,0,1,0-.032v-.023l.006-.188a22.933,22.933,0,0,1,2.49-9.289l-.086.094.585-.983a16.746,16.746,0,0,1,5.69-5.8l.058-.037a20.147,20.147,0,0,1,7.143-2.525.9.9,0,0,1,.734.2.911.911,0,0,1,.317.691v5.179l7.941-7.942-7.941-7.941v4.36a.908.908,0,0,1-.784.9A24.631,24.631,0,0,0,1564.2,531.5a21.009,21.009,0,0,0-5.942,5.89,25.637,25.637,0,0,0-3.755,9.119,24.524,24.524,0,0,0-.551,4.629v10.746a.905.905,0,0,1-1.81,0V551.133a26.356,26.356,0,0,1,.588-5,27.511,27.511,0,0,1,4.025-9.759,22.835,22.835,0,0,1,6.453-6.394l.184-.121v0a26.235,26.235,0,0,1,10.161-3.681v-5.789a.9.9,0,0,1,1.544-.639l10.125,10.123A.9.9,0,0,1,1585.485,530.518Z" transform="translate(-1552.14 -519.489)"/></g></g></svg>