<svg xmlns="http://www.w3.org/2000/svg" width="60.305" height="50.254" viewBox="0 0 60.305 50.254"><defs><style>.a{fill:#00c3ff;}</style></defs><g transform="translate(0)"><path class="a" d="M-507.907,1120.866a17.723,17.723,0,0,0,7.754-14.345c0-10.393-9.862-18.845-21.986-18.845-9.785,0-18.242,5.395-21.052,13.423a1.256,1.256,0,0,0,.771,1.6,1.259,1.259,0,0,0,1.6-.771c2.417-6.913,10.1-11.74,18.68-11.74,10.737,0,19.474,7.327,19.474,16.333,0,5.056-2.749,9.75-7.541,12.88a1.256,1.256,0,0,0-.437,1.613l1.229,2.46-3.556-2.033a1.272,1.272,0,0,0-1.075-.083,22.434,22.434,0,0,1-5.52,1.334,1.256,1.256,0,0,0-1.106,1.39,1.239,1.239,0,0,0,1.39,1.106,24.993,24.993,0,0,0,5.573-1.274l6.649,3.8a1.241,1.241,0,0,0,.623.166,1.257,1.257,0,0,0,.864-.344,1.255,1.255,0,0,0,.261-1.475Z" transform="translate(560.458 -1087.676)"/><path class="a" d="M-670.418,1236.988c-10.393,0-18.845,6.762-18.845,15.076,0,4.48,2.53,8.749,6.822,11.6l-1.709,4.269a1.258,1.258,0,0,0,.317,1.392,1.248,1.248,0,0,0,.849.332,1.262,1.262,0,0,0,.565-.133l6.229-3.116a23.105,23.105,0,0,0,5.772.734c10.393,0,18.845-6.762,18.845-15.076S-660.025,1236.988-670.418,1236.988Zm-.005,27.642a20.589,20.589,0,0,1-5.566-.769,1.26,1.26,0,0,0-.9.085l-3.7,1.849.872-2.176a1.254,1.254,0,0,0-.533-1.55c-4.131-2.412-6.5-6.058-6.5-10,0-6.927,7.327-12.564,16.333-12.564s16.33,5.636,16.33,12.564S-661.417,1264.63-670.423,1264.63Z" transform="translate(689.263 -1219.401)"/></g></svg>