<svg xmlns="http://www.w3.org/2000/svg" width="59.036" height="52.444" viewBox="0 0 59.036 52.444"><defs><style>.a{fill:#00c3ff;}</style></defs><path class="a" d="M749.372,396.868H726.527l-1.7-3.475a3.948,3.948,0,0,0-3.526-2.2h-9.689a3.929,3.929,0,0,0-3.924,3.924v3.149H704.9a3.929,3.929,0,0,0-3.924,3.924v3.147h-2.795a3.929,3.929,0,0,0-3.925,3.924v30.45a3.929,3.929,0,0,0,3.925,3.925h37.759a3.929,3.929,0,0,0,3.924-3.925v-3.147h2.794a3.929,3.929,0,0,0,3.924-3.925v-3.149h2.786a3.929,3.929,0,0,0,3.924-3.925V400.792A3.929,3.929,0,0,0,749.372,396.868Zm-11.81,42.843a1.62,1.62,0,0,1-1.618,1.619H698.185a1.62,1.62,0,0,1-1.618-1.619v-30.45a1.62,1.62,0,0,1,1.618-1.618h9.689a1.628,1.628,0,0,1,1.454.908l1.2,2.462h-5.57a1.153,1.153,0,1,0,0,2.306h30.982a1.62,1.62,0,0,1,1.618,1.618Zm5.1-5.453h-2.793v-19.32a3.929,3.929,0,0,0-3.925-3.924H713.1l-1.7-3.475a3.949,3.949,0,0,0-3.526-2.2h-4.589V402.19a1.62,1.62,0,0,1,1.618-1.619h9.689a1.608,1.608,0,0,1,1.445.906l1.2,2.462h-2.649a1.153,1.153,0,1,0,0,2.306h28.069a1.612,1.612,0,0,1,1.611,1.617v20.473a1.2,1.2,0,0,0,.007.128v4.174A1.62,1.62,0,0,1,742.661,434.258Zm8.328-8.692a1.62,1.62,0,0,1-1.618,1.619h-2.786V407.866a3.932,3.932,0,0,0-3.932-3.926H719.817l-1.7-3.474a3.955,3.955,0,0,0-2.976-2.161,3.906,3.906,0,0,0-.559-.041H710v-3.147a1.62,1.62,0,0,1,1.618-1.618H721.3a1.628,1.628,0,0,1,1.454.908l1.2,2.462h-1.944a1.153,1.153,0,1,0,0,2.306h27.354a1.62,1.62,0,0,1,1.618,1.618Z" transform="translate(-694.26 -391.192)"/></svg>