<svg xmlns="http://www.w3.org/2000/svg" width="62.993" height="62.993" viewBox="0 0 62.993 62.993"><defs><style>.a{fill:#00c3ff;}</style></defs><path class="a" d="M186.827,556.922a.923.923,0,0,0,.923-.923v-6.664a.923.923,0,0,0-.6-.864l-10.937-4.1a.922.922,0,0,0-.648,0l-10.937,4.1a.923.923,0,0,0-.6.864V552.3a.923.923,0,1,0,1.845,0v-1.631l9.092,3.409v12.2l-9.092-3.409v-6.25a.923.923,0,1,0-1.845,0V563.5a.923.923,0,0,0,.6.864l10.937,4.1v0a.9.9,0,0,0,.648,0l10.937-4.1a.923.923,0,0,0,.6-.864v-3.2a.923.923,0,1,0-1.846,0v2.564l-9.092,3.409v-12.2l9.092-3.409V556A.923.923,0,0,0,186.827,556.922Zm-10.937-4.471-8.309-3.116,8.309-3.116,8.309,3.116Z" transform="translate(-144.393 -524.923)"/><path class="a" d="M226.349,395.936v6.627a.923.923,0,0,0,1.845,0v-6.627a4.651,4.651,0,1,0-1.845,0Zm.923-7.365a2.806,2.806,0,1,1-2.806,2.806A2.809,2.809,0,0,1,227.271,388.571Z" transform="translate(-195.775 -386.726)"/><path class="a" d="M350.528,726.438a6.357,6.357,0,0,0-3.818,1.269L344.5,725.5a.923.923,0,0,0-1.305,1.3l2.209,2.209a6.389,6.389,0,1,0,5.123-2.574Zm0,10.937a4.546,4.546,0,1,1,4.546-4.546A4.551,4.551,0,0,1,350.528,737.375Z" transform="translate(-301.279 -683.58)"/><path class="a" d="M70.583,459.275a6.357,6.357,0,0,0,3.818-1.269l2.209,2.209a.923.923,0,1,0,1.305-1.3L75.706,456.7a6.389,6.389,0,1,0-5.123,2.573Zm0-10.937a4.546,4.546,0,1,1-4.546,4.546A4.551,4.551,0,0,1,70.583,448.338Z" transform="translate(-56.839 -439.14)"/><path class="a" d="M228.194,770.055v-6.627a.923.923,0,1,0-1.845,0v6.627a4.651,4.651,0,1,0,1.845,0Zm-.923,7.365a2.806,2.806,0,1,1,2.806-2.806A2.809,2.809,0,0,1,227.271,777.42Z" transform="translate(-195.775 -716.272)"/><path class="a" d="M392.313,604.921a4.659,4.659,0,0,0-4.559,3.729h-6.627a.923.923,0,1,0,0,1.846h6.627a4.651,4.651,0,1,0,4.559-5.574Zm0,7.457a2.806,2.806,0,1,1,2.806-2.806A2.809,2.809,0,0,1,392.313,612.378Z" transform="translate(-333.971 -578.076)"/><path class="a" d="M13.635,610.5h6.627a.923.923,0,0,0,0-1.846H13.635a4.651,4.651,0,1,0,0,1.846Zm-4.559,1.883a2.806,2.806,0,1,1,2.806-2.806A2.809,2.809,0,0,1,9.076,612.378Z" transform="translate(-4.425 -578.076)"/><path class="a" d="M343.848,460.485a.92.92,0,0,0,.653-.27l2.209-2.209A6.4,6.4,0,1,0,345.4,456.7L343.2,458.91a.923.923,0,0,0,.653,1.575Zm6.679-12.147a4.546,4.546,0,1,1-4.546,4.546A4.551,4.551,0,0,1,350.527,448.337Z" transform="translate(-301.278 -439.139)"/><path class="a" d="M76.609,725.5,74.4,727.706a6.4,6.4,0,1,0,1.305,1.305l2.209-2.209a.923.923,0,0,0-1.305-1.305Zm-6.026,11.877a4.546,4.546,0,1,1,4.546-4.546A4.551,4.551,0,0,1,70.582,737.375Z" transform="translate(-56.838 -683.58)"/></svg>