<svg xmlns="http://www.w3.org/2000/svg" width="57.145" height="57.145" viewBox="0 0 57.145 57.145"><defs><style>.a{fill:#00c3ff;}</style></defs><path class="a" d="M1394.031,1056.147h5.38a1.674,1.674,0,0,0,1.674-1.674v-16.139a1.674,1.674,0,0,0-1.674-1.674h-14.465v-3.705a7.054,7.054,0,1,0-14.108,0v3.705h-14.465a1.674,1.674,0,0,0-1.674,1.674V1052.8h-3.705a7.054,7.054,0,1,0,0,14.108h3.705v14.465a1.674,1.674,0,0,0,1.674,1.674h16.139a1.674,1.674,0,0,0,1.674-1.674v-5.38a3.705,3.705,0,0,1,7.411,0v5.38a1.674,1.674,0,0,0,1.674,1.674h16.139a1.674,1.674,0,0,0,1.674-1.674v-16.139a1.674,1.674,0,0,0-1.674-1.674h-5.38a3.706,3.706,0,1,1,0-7.411Zm.8,9.856h3.843v14.629h-14.629v-3.843c0-4.034-2.031-6.86-6.065-6.86s-6.178,2.827-6.178,6.86v3.843h-14.288V1066.2a1.736,1.736,0,0,0-1.736-1.736l-5.579-.114c-2.119,0-3.729-2.716-3.729-4.3,0-2.119,1.61-4.411,3.729-4.411h5.579a1.736,1.736,0,0,0,1.736-1.736v-14.432H1371.6a1.736,1.736,0,0,0,1.736-1.736v-4.783a4.877,4.877,0,0,1,4.752-4.639,4.613,4.613,0,0,1,4.525,4.639v4.783a1.736,1.736,0,0,0,1.736,1.736h14.319v14.174h-3.843c-4.034,0-6.861,2.031-6.861,6.065S1390.795,1066,1394.828,1066Z" transform="translate(-1343.94 -1025.9)"/></svg>