<svg xmlns="http://www.w3.org/2000/svg" viewBox="0 0 522.25 506.23"><defs><style>.cls-1{fill:#00c3ff;}</style></defs><g id="Capa_2" data-name="Capa 2"><g id="_ÎÓÈ_1" data-name="—ÎÓÈ_1"><path class="cls-1" d="M160.65,506.23C72.07,506.23,0,434.18,0,345.59S72.07,184.94,160.65,184.94,321.29,257,321.29,345.59,249.23,506.23,160.65,506.23Zm0-301.15c-77.47,0-140.49,63-140.49,140.51s63,140.5,140.49,140.5,140.49-63,140.49-140.5S238.11,205.08,160.65,205.08Z"/><path class="cls-1" d="M145.83,355.65a39.12,39.12,0,1,1,0-78.23,10.07,10.07,0,1,1,0,20.13,19,19,0,0,0,0,38,10.07,10.07,0,1,1,0,20.13Z"/><path class="cls-1" d="M175.47,413.74a10.07,10.07,0,1,1,0-20.14,19,19,0,0,0,0-38,10.07,10.07,0,1,1,0-20.13,39.11,39.11,0,1,1,0,78.22Z"/><path class="cls-1" d="M175.47,355.65H145.83a10.07,10.07,0,1,1,0-20.13h29.64a10.07,10.07,0,1,1,0,20.13Z"/><path class="cls-1" d="M175.47,413.74H116.78a10.07,10.07,0,0,1,0-20.14h58.69a10.07,10.07,0,1,1,0,20.14Z"/><path class="cls-1" d="M204.52,297.55H145.83a10.07,10.07,0,1,1,0-20.13h58.69a10.07,10.07,0,1,1,0,20.13Z"/><path class="cls-1" d="M160.65,297.55a10.07,10.07,0,0,1-10.08-10.07V263.77a10.08,10.08,0,0,1,20.16,0v23.71A10.06,10.06,0,0,1,160.65,297.55Z"/><path class="cls-1" d="M160.65,438A10.07,10.07,0,0,1,150.57,428v-24.3a10.08,10.08,0,0,1,20.16,0V428A10.06,10.06,0,0,1,160.65,438Z"/><path class="cls-1" d="M358.05,124.45c-79.32,0-163.61-21.81-163.61-62.22C194.44,21.36,276.75,0,358.05,0c81.6,0,164.2,21.36,164.2,62.23C522.25,102.64,437.65,124.45,358.05,124.45Zm0-104.31c-88.87,0-143.45,24.52-143.45,42.09,0,17.15,55.88,42.09,143.45,42.09,87.93,0,144-24.94,144-42.09S446,20.14,358.05,20.14Z"/><path class="cls-1" d="M358.05,436.85H340.86a10.07,10.07,0,1,1,0-20.13h17.19c87.93,0,144-24.94,144-42.09a10.08,10.08,0,0,1,20.16,0C522.25,415.49,439.65,436.85,358.05,436.85Z"/><path class="cls-1" d="M204.52,163a10.06,10.06,0,0,1-10.08-10.07V62.23a10.08,10.08,0,0,1,20.16,0v90.69A10.07,10.07,0,0,1,204.52,163Z"/><path class="cls-1" d="M512.17,384.7a10.07,10.07,0,0,1-10.08-10.07V62.23a10.08,10.08,0,0,1,20.16,0v312.4A10.07,10.07,0,0,1,512.17,384.7Z"/><path class="cls-1" d="M358.05,282.13c-2.58,0-5.16-.14-7.75-.3-2.15-.14-4.32-.29-6.48-.29a10.07,10.07,0,1,1,0-20.13c2.58,0,5.17.14,7.74.3,2.16.14,4.33.29,6.49.29,87.93,0,144-24.94,144-42.09a10.08,10.08,0,0,1,20.16,0C522.25,260.32,437.65,282.13,358.05,282.13Z"/><path class="cls-1" d="M358.05,359.8a10.07,10.07,0,1,1,0-20.14c87.93,0,144-24.93,144-42.09a10.08,10.08,0,0,1,20.16,0C522.25,338,437.65,359.8,358.05,359.8Z"/><path class="cls-1" d="M358.05,203.9c-32.13,0-60-2.68-82.9-8a10.08,10.08,0,0,1,4.55-19.64c21.39,5,47.75,7.47,78.35,7.47,87.93,0,144-24.94,144-42.09a10.08,10.08,0,0,1,20.16,0C522.25,182.53,439.65,203.9,358.05,203.9ZM208.68,164.18a10,10,0,0,1-8.21-4.21,31,31,0,0,1-6-18.3,10.08,10.08,0,0,1,20.16,0,11,11,0,0,0,2.26,6.58,10.05,10.05,0,0,1-8.18,15.93Z"/></g></g></svg>