<svg xmlns="http://www.w3.org/2000/svg" width="62.166" height="64.557" viewBox="0 0 62.166 64.557"><defs><style>.a{fill:#00c3ff;}</style></defs><path class="a" d="M747.24,1433.448a30.322,30.322,0,0,1-26.166-15.1.922.922,0,1,1,1.569-.971c.01.016.019.032.028.048a28.372,28.372,0,0,0,44.245,6.246.922.922,0,0,1,1.313,1.3l-.034.033A30.062,30.062,0,0,1,747.24,1433.448Z" transform="translate(-717.023 -1368.891)"/><path class="a" d="M1031.526,1125.111a.922.922,0,0,1-.8-1.384,28.385,28.385,0,0,0-13.589-40.347.922.922,0,0,1,.693-1.71l.021.009a30.229,30.229,0,0,1,14.472,42.971.922.922,0,0,1-.8.46Z" transform="translate(-975.942 -1075.195)"/><path class="a" d="M691.176,1101.367a.922.922,0,0,1-.9-.706,30.238,30.238,0,0,1,29.367-37.325.922.922,0,0,1,0,1.845,28.39,28.39,0,0,0-27.573,35.052.923.923,0,0,1-.9,1.138Z" transform="translate(-689.431 -1059.197)"/><path class="a" d="M892.858,1040.13a.922.922,0,0,1-.652-1.574l3.5-3.5-3.5-3.5a.922.922,0,0,1,1.3-1.3l4.151,4.151a.922.922,0,0,1,0,1.3l-4.151,4.151a.922.922,0,0,1-.652.265Z" transform="translate(-866.79 -1030)"/><path class="a" d="M709.777,1424.615a.888.888,0,0,1-.239-.032.922.922,0,0,1-.652-1.129l1.518-5.667a.922.922,0,0,1,1.129-.652l5.666,1.519a.922.922,0,1,1-.421,1.8l-.056-.015-4.775-1.279-1.28,4.775A.922.922,0,0,1,709.777,1424.615Z" transform="translate(-706.442 -1369.034)"/><path class="a" d="M1119.814,1378.981a.923.923,0,0,1-.89-.685l-1.518-5.666a.923.923,0,1,1,1.782-.478l1.279,4.776,4.776-1.279a.922.922,0,0,1,.477,1.782l-5.666,1.517a.942.942,0,0,1-.24.032Z" transform="translate(-1064.235 -1329.067)"/><path class="a" d="M795.718,1190.566h-4.473a1.487,1.487,0,0,1-1.484-1.342l-.211-2.122a16.516,16.516,0,0,1-4.755-1.97l-1.648,1.349a1.485,1.485,0,0,1-2-.1l-3.162-3.162a1.486,1.486,0,0,1-.1-2l1.349-1.649a16.513,16.513,0,0,1-1.97-4.755l-2.122-.211a1.488,1.488,0,0,1-1.342-1.484v-4.47a1.487,1.487,0,0,1,1.342-1.483l2.122-.212a16.515,16.515,0,0,1,1.97-4.755l-1.349-1.648a1.487,1.487,0,0,1,.1-2l3.162-3.162a1.486,1.486,0,0,1,2-.1l1.648,1.349a16.474,16.474,0,0,1,4.755-1.971l.211-2.122a1.488,1.488,0,0,1,1.484-1.343h4.473a1.486,1.486,0,0,1,1.483,1.342l.212,2.122a16.5,16.5,0,0,1,4.755,1.97l1.652-1.348a1.484,1.484,0,0,1,2,.1l3.159,3.167a1.485,1.485,0,0,1,.1,2l-1.349,1.646a16.491,16.491,0,0,1,1.97,4.75l2.121.212a1.487,1.487,0,0,1,1.342,1.483v4.473a1.488,1.488,0,0,1-1.345,1.488l-2.122.211a16.5,16.5,0,0,1-1.97,4.755l1.352,1.648a1.489,1.489,0,0,1-.1,2l-3.164,3.163a1.485,1.485,0,0,1-2,.1l-1.649-1.349a16.5,16.5,0,0,1-4.755,1.97l-.212,2.121a1.485,1.485,0,0,1-1.484,1.339Zm-4.151-1.845H795.4l.246-2.466a.923.923,0,0,1,.738-.812,14.671,14.671,0,0,0,5.339-2.214.923.923,0,0,1,1.1.053l1.918,1.568,2.71-2.709-1.568-1.918a.923.923,0,0,1-.052-1.1,14.7,14.7,0,0,0,2.214-5.339.923.923,0,0,1,.813-.738l2.466-.246v-3.831l-2.466-.246a.922.922,0,0,1-.813-.738,14.691,14.691,0,0,0-2.214-5.339.923.923,0,0,1,.052-1.1l1.568-1.917-2.71-2.71-1.918,1.568a.922.922,0,0,1-1.1.053,14.675,14.675,0,0,0-5.339-2.214.923.923,0,0,1-.738-.813l-.246-2.466h-3.835l-.246,2.466a.922.922,0,0,1-.738.813,14.689,14.689,0,0,0-5.339,2.214.922.922,0,0,1-1.1-.053l-1.918-1.568-2.71,2.71,1.568,1.918a.922.922,0,0,1,.053,1.1,14.714,14.714,0,0,0-2.214,5.339.922.922,0,0,1-.813.738l-2.466.246v3.833l2.466.246a.922.922,0,0,1,.813.738,14.714,14.714,0,0,0,2.214,5.339.922.922,0,0,1-.053,1.1l-1.568,1.917,2.71,2.71,1.918-1.568a.923.923,0,0,1,1.1-.052,14.689,14.689,0,0,0,5.339,2.214.922.922,0,0,1,.738.813Z" transform="translate(-763.324 -1136.155)"/><path class="a" d="M855.165,1243.506A10.936,10.936,0,1,1,866.1,1232.57h0A10.947,10.947,0,0,1,855.165,1243.506Zm0-20.026a9.091,9.091,0,1,0,9.091,9.091,9.091,9.091,0,0,0-9.091-9.091Z" transform="translate(-825.007 -1197.838)"/></svg>