<svg xmlns="http://www.w3.org/2000/svg" xmlns:xlink="http://www.w3.org/1999/xlink" width="1920" height="1011.787" viewBox="0 0 1920 1011.787"><defs><clipPath id="a"><path d="M0,0,1920,323.965v687.822H0Z" transform="translate(0 6292)" fill="#1f1fc1"/></clipPath><radialGradient id="b" cx="0.5" cy="0.5" r="0.5" gradientTransform="matrix(-1, 0, 0, 1, 1, 0)" gradientUnits="objectBoundingBox"><stop offset="0" stop-color="#00b0b6"/><stop offset="0.043" stop-color="#00a7ad"/><stop offset="0.514" stop-color="#004d50"/><stop offset="0.843" stop-color="#001516"/><stop offset="1"/></radialGradient><radialGradient id="c" cx="0.5" xlink:href="#b"/><radialGradient id="d" cx="0.5" xlink:href="#b"/><radialGradient id="g" cx="0.5" xlink:href="#b"/><radialGradient id="o" cx="0.5" xlink:href="#b"/><radialGradient id="q" cx="0.5" xlink:href="#b"/></defs><g transform="translate(0 -5174.213)"><g transform="translate(0 -1117.787)" clip-path="url(#a)"><g transform="matrix(0.978, 0.208, -0.208, 0.978, 92.423, 5437.646)"><g transform="translate(0)"><g transform="translate(882.121 877.242)"><g transform="translate(0)"><path d="M2862.855,2817.017" transform="translate(-2862.855 -2817.017)" fill="none"/></g></g><g transform="translate(784.291 848.343)"><g transform="translate(0)"><path d="M3099.879,2747" transform="translate(-3099.879 -2747)" fill="none"/></g></g><g transform="translate(0 623.62)"><rect width="0.413" height="365.402" transform="translate(0.056 53.226) rotate(-97.852)" fill="#0094f9"/><g transform="translate(358.901)"><path d="M4118.159,2202.568a3.1,3.1,0,1,1-2.65,3.5A3.1,3.1,0,0,1,4118.159,2202.568Z" transform="translate(-4115.479 -2202.538)" fill="#0094f9"/></g></g><g transform="translate(358.9 623.619)"><rect width="388.829" height="0.412" transform="matrix(-0.476, -0.88, 0.88, -0.476, 187.895, 345.215)" fill="#0094f9"/><g transform="translate(184.909 342.047)"><path d="M3667.853,3035.833a3.1,3.1,0,1,0,1.254-4.206A3.1,3.1,0,0,0,3667.853,3035.833Z" transform="translate(-3667.479 -3031.253)" fill="#0094f9"/></g><path d="M4115.853,2207.118a3.1,3.1,0,1,1,4.206,1.254A3.1,3.1,0,0,1,4115.853,2207.118Z" transform="translate(-4115.479 -2202.538)" fill="#0094f9"/></g><g transform="translate(543.81 552.144)"><rect width="0.413" height="488.284" transform="translate(3.279 416.736) rotate(-147.875)" fill="#0094f9"/><g transform="translate(259.654)"><path d="M3044.119,2034.121a3.1,3.1,0,1,0-4.279.978A3.1,3.1,0,0,0,3044.119,2034.121Z" transform="translate(-3038.387 -2029.367)" fill="#0094f9"/></g><g transform="translate(0 413.523)"><path d="M3673.212,3036.008a3.1,3.1,0,1,1-.978-4.279A3.1,3.1,0,0,1,3673.212,3036.008Z" transform="translate(-3667.48 -3031.253)" fill="#0094f9"/></g></g><g transform="translate(803.464 552.144)"><rect width="834.57" height="0.412" transform="translate(834.58 74.899) rotate(-175.071)" fill="#0094f9"/><g transform="translate(831.504 71.476)"><path d="M1026.65,2208.735a3.1,3.1,0,1,0-2.827-3.357A3.1,3.1,0,0,0,1026.65,2208.735Z" transform="translate(-1023.812 -2202.539)" fill="#0094f9"/></g><path d="M3041.225,2035.563a3.1,3.1,0,1,1,3.358-2.826A3.1,3.1,0,0,1,3041.225,2035.563Z" transform="translate(-3038.387 -2029.367)" fill="#0094f9"/></g><g transform="translate(1634.967 217.209)"><rect width="0.413" height="467.608" transform="translate(3.283 409.617) rotate(-150.357)" fill="#0094f9"/><g transform="translate(231.274)"><path d="M469.281,1222.521a3.1,3.1,0,1,0-4.232,1.162A3.1,3.1,0,0,0,469.281,1222.521Z" transform="translate(-463.48 -1217.882)" fill="#0094f9"/></g><g transform="translate(0 406.411)"><path d="M1029.613,2207.177a3.1,3.1,0,1,1-1.162-4.233A3.1,3.1,0,0,1,1029.613,2207.177Z" transform="translate(-1023.812 -2202.538)" fill="#0094f9"/></g></g><g transform="translate(1805.156 698.037)"><path d="M255.636,2651.272l-.03-.619L.295,2390.007,0,2390.3Z" transform="translate(2.956 -2387.048)" fill="#0094f9"/><g transform="translate(0)"><path d="M612.367,2388.112a3.1,3.1,0,1,1,4.389.045A3.1,3.1,0,0,1,612.367,2388.112Z" transform="translate(-611.481 -2382.837)" fill="#0094f9"/></g></g><g transform="translate(1308.212 691.232)"><rect width="496.99" height="0.413" transform="matrix(-1, -0.014, 0.014, -1, 500.045, 10.091)" fill="#0094f9"/><path d="M1818.626,2366.352a3.1,3.1,0,1,0,3.061,3.146A3.1,3.1,0,0,0,1818.626,2366.352Z" transform="translate(-1815.48 -2366.352)" fill="#0094f9"/><g transform="translate(496.944 6.804)"><path d="M614.627,2382.836a3.1,3.1,0,1,1-3.146,3.061A3.1,3.1,0,0,1,614.627,2382.836Z" transform="translate(-611.48 -2382.836)" fill="#0094f9"/></g></g><g transform="translate(1124.127 691.232)"><rect width="0.413" height="409.518" transform="matrix(-0.893, -0.45, 0.45, -0.893, 3.289, 369.009)" fill="#0094f9"/><g transform="translate(0 365.812)"><path d="M2261.811,3254.351a3.1,3.1,0,1,0,4.167-1.377A3.1,3.1,0,0,0,2261.811,3254.351Z" transform="translate(-2261.479 -3252.642)" fill="#0094f9"/></g><g transform="translate(184.084)"><path d="M1815.811,2368.059a3.1,3.1,0,1,1,1.377,4.168A3.1,3.1,0,0,1,1815.811,2368.059Z" transform="translate(-1815.479 -2366.35)" fill="#0094f9"/></g></g><g transform="translate(463.007 995.412)"><rect width="663.988" height="0.413" transform="matrix(-0.996, -0.093, 0.093, -0.996, 664.208, 64.922)" fill="#0094f9"/><path d="M3866.643,3103.335a3.1,3.1,0,1,0,2.8,3.379A3.1,3.1,0,0,0,3866.643,3103.335Z" transform="translate(-3863.25 -3103.321)" fill="#0094f9"/><g transform="translate(661.121 61.632)"><path d="M2264.872,3252.657a3.1,3.1,0,1,1-3.378,2.8A3.1,3.1,0,0,1,2264.872,3252.657Z" transform="translate(-2261.48 -3252.643)" fill="#0094f9"/></g></g><g transform="translate(256.54 775.151)"><rect width="301.9" height="0.413" transform="matrix(-0.683, -0.73, 0.73, -0.683, 209.335, 223.586)" fill="#0094f9"/><path d="M4368.849,2570.65a3.1,3.1,0,1,0-.141,4.386A3.1,3.1,0,0,0,4368.849,2570.65Z" transform="translate(-4363.481 -2569.669)" fill="#0094f9"/><g transform="translate(206.467 220.262)"><path d="M3868.619,3104.3a3.1,3.1,0,1,1-4.387-.142A3.1,3.1,0,0,1,3868.619,3104.3Z" transform="translate(-3863.251 -3103.322)" fill="#0094f9"/></g></g><g transform="translate(0.029 775.15)"><path d="M4370.715,2756.25l259.733-179.133-.234-.34-259.5,178.972Z" transform="translate(-4370.715 -2573.843)" fill="#0094f9"/><g transform="translate(256.511)"><path d="M4364.822,2570.217a3.1,3.1,0,1,1-.793,4.317A3.1,3.1,0,0,1,4364.822,2570.217Z" transform="translate(-4363.48 -2569.668)" fill="#0094f9"/></g></g><g transform="translate(1745.716 333.343)"><rect width="324.656" height="0.413" transform="translate(312.813 100.48) rotate(-162.583)" fill="#0094f9"/><g transform="translate(309.77 97.183)"><path d="M7.149,1740.775a3.1,3.1,0,1,0-2.032-3.89A3.1,3.1,0,0,0,7.149,1740.775Z" transform="translate(-4.973 -1734.709)" fill="#0094f9"/></g><path d="M757.661,1505.318a3.1,3.1,0,1,1,3.891-2.032A3.1,3.1,0,0,1,757.661,1505.318Z" transform="translate(-755.485 -1499.252)" fill="#0094f9"/></g><g transform="translate(1372.599 333.343)"><rect width="0.413" height="397.333" transform="matrix(-0.344, -0.939, 0.939, -0.344, 3.175, 139.887)" fill="#0094f9"/><g transform="translate(0 136.589)"><path d="M1661.516,1830.371a3.1,3.1,0,1,0,3.981,1.848A3.1,3.1,0,0,0,1661.516,1830.371Z" transform="translate(-1659.479 -1830.181)" fill="#0094f9"/></g><g transform="translate(373.118)"><path d="M757.523,1499.442a3.1,3.1,0,1,1-1.847,3.982A3.1,3.1,0,0,1,757.523,1499.442Z" transform="translate(-755.486 -1499.252)" fill="#0094f9"/></g></g><g transform="translate(962.394 469.932)"><rect width="0.413" height="517.435" transform="translate(3.229 318.656) rotate(-127.555)" fill="#0094f9"/><g transform="translate(0 315.389)"><path d="M2654.545,2594.954a3.1,3.1,0,1,0,4.352.569A3.1,3.1,0,0,0,2654.545,2594.954Z" transform="translate(-2653.333 -2594.311)" fill="#0094f9"/></g><g transform="translate(410.206)"><path d="M1660.693,1830.826a3.1,3.1,0,1,1-.569,4.352A3.1,3.1,0,0,1,1660.693,1830.826Z" transform="translate(-1659.481 -1830.183)" fill="#0094f9"/></g></g><g transform="translate(681.204 604.932)"><rect width="334.078" height="0.413" transform="translate(284.253 183.556) rotate(-147.364)" fill="#0094f9"/><path d="M3339.38,2157.753a3.1,3.1,0,1,0,.937,4.289A3.1,3.1,0,0,0,3339.38,2157.753Z" transform="translate(-3334.601 -2157.262)" fill="#0094f9"/><g transform="translate(281.189 180.389)"><path d="M2658.112,2594.8a3.1,3.1,0,1,1-4.288.937A3.105,3.105,0,0,1,2658.112,2594.8Z" transform="translate(-2653.332 -2594.31)" fill="#0094f9"/></g></g><g transform="translate(358.9 604.932)"><rect width="0.412" height="378.98" transform="translate(3.213 202.645) rotate(-121.74)" fill="#0094f9"/><g transform="translate(0 199.366)"><path d="M4116.952,2640.752a3.1,3.1,0,1,0,4.271,1.007A3.1,3.1,0,0,0,4116.952,2640.752Z" transform="translate(-4115.48 -2640.288)" fill="#0094f9"/></g><g transform="translate(322.304)"><path d="M3336.072,2157.727a3.1,3.1,0,1,1-1.006,4.272A3.1,3.1,0,0,1,3336.072,2157.727Z" transform="translate(-3334.601 -2157.262)" fill="#0094f9"/></g></g><g transform="translate(0.028 341.071)"><path d="M4484.42,1984.434l.325-.253-362.139-466.2v.672Z" transform="translate(-4122.606 -1517.976)" fill="#0094f9"/><g transform="translate(357.857 462.212)"><ellipse cx="3.104" cy="3.104" rx="3.104" ry="3.104" transform="translate(2.603 8.238) rotate(-114.793)" fill="#0094f9"/></g></g><g transform="translate(1889.354 713.912)"><path d="M171.481,2862.473v-1.122L.384,2428.638l-.384.152Z" transform="translate(2.913 -2425.609)" fill="#0094f9"/><path d="M407.7,2425.546a3.1,3.1,0,1,1,4.028,1.745A3.1,3.1,0,0,1,407.7,2425.546Z" transform="translate(-407.478 -2421.3)" fill="#0094f9"/></g><g transform="translate(1570.716 713.912)"><rect width="0.413" height="330.088" transform="translate(3.158 89.489) rotate(-105.135)" fill="#0094f9"/><g transform="translate(0 86.186)"><path d="M1181.773,2630.221a3.1,3.1,0,1,0,3.806,2.186A3.1,3.1,0,0,0,1181.773,2630.221Z" transform="translate(-1179.478 -2630.113)" fill="#0094f9"/></g><g transform="translate(318.638)"><path d="M409.773,2421.409a3.1,3.1,0,1,1-2.186,3.806A3.1,3.1,0,0,1,409.773,2421.409Z" transform="translate(-407.478 -2421.301)" fill="#0094f9"/></g></g><g transform="translate(1420.477 726.322)"><rect width="167.376" height="0.413" transform="translate(153.277 77.014) rotate(-153.886)" fill="#0094f9"/><path d="M1547.952,2451.686a3.1,3.1,0,1,0,1.418,4.154A3.1,3.1,0,0,0,1547.952,2451.686Z" transform="translate(-1543.479 -2451.368)" fill="#0094f9"/><g transform="translate(150.239 73.776)"><path d="M1183.951,2630.431a3.1,3.1,0,1,1-4.154,1.418A3.1,3.1,0,0,1,1183.951,2630.431Z" transform="translate(-1179.479 -2630.113)" fill="#0094f9"/></g></g><g transform="translate(1108.443 726.323)"><rect width="0.413" height="312.203" transform="translate(3.111 13.581) rotate(-91.885)" fill="#0094f9"/><g transform="translate(0 10.271)"><path d="M2302.482,2476.254a3.1,3.1,0,1,0,3.2,3A3.1,3.1,0,0,0,2302.482,2476.254Z" transform="translate(-2299.481 -2476.253)" fill="#0094f9"/></g><g transform="translate(312.035)"><path d="M1546.482,2451.371a3.1,3.1,0,1,1-3,3.2A3.1,3.1,0,0,1,1546.482,2451.371Z" transform="translate(-1543.481 -2451.369)" fill="#0094f9"/></g></g><g transform="translate(974.714 736.593)"><rect width="0.413" height="235.558" transform="translate(3.274 197.139) rotate(-145.409)" fill="#0094f9"/><g transform="translate(0 193.919)"><path d="M2624.029,2947.422a3.1,3.1,0,1,0,4.317-.793A3.1,3.1,0,0,0,2624.029,2947.422Z" transform="translate(-2623.48 -2946.081)" fill="#0094f9"/></g><g transform="translate(133.729)"><path d="M2300.029,2477.594a3.1,3.1,0,1,1,.793,4.317A3.1,3.1,0,0,1,2300.029,2477.594Z" transform="translate(-2299.48 -2476.252)" fill="#0094f9"/></g></g><g transform="translate(730.37 930.512)"><rect width="0.412" height="244.663" transform="matrix(-0.051, -0.999, 0.999, -0.051, 3.115, 15.784)" fill="#0094f9"/><g transform="translate(0 12.474)"><path d="M3218.426,2976.307a3.1,3.1,0,1,0,3.258,2.941A3.1,3.1,0,0,0,3218.426,2976.307Z" transform="translate(-3215.48 -2976.303)" fill="#0094f9"/></g><g transform="translate(244.344)"><path d="M2626.426,2946.084a3.1,3.1,0,1,1-2.942,3.258A3.1,3.1,0,0,1,2626.426,2946.084Z" transform="translate(-2623.48 -2946.08)" fill="#0094f9"/></g></g><g transform="translate(377.061 942.986)"><rect width="0.413" height="387.341" transform="translate(3.189 162.056) rotate(-114.197)" fill="#0094f9"/><g transform="translate(0 158.764)"><path d="M4073.311,3361.229a3.1,3.1,0,1,0,4.1,1.559A3.1,3.1,0,0,0,4073.311,3361.229Z" transform="translate(-4071.479 -3360.956)" fill="#0094f9"/></g><g transform="translate(353.309)"><path d="M3217.311,2976.575a3.1,3.1,0,1,1-1.559,4.1A3.1,3.1,0,0,1,3217.311,2976.575Z" transform="translate(-3215.479 -2976.302)" fill="#0094f9"/></g></g><g transform="translate(0.027 718.991)"><path d="M4458.634,2819.612l.294-.289L4078.643,2433.6v.588Z" transform="translate(-4078.643 -2433.604)" fill="#0094f9"/><g transform="translate(377.034 382.76)"><path d="M4076.794,3361.883a3.1,3.1,0,1,1-4.389-.031A3.1,3.1,0,0,1,4076.794,3361.883Z" transform="translate(-4071.481 -3360.958)" fill="#0094f9"/></g></g><g transform="translate(974.715 469.932)"><rect width="0.413" height="608.643" transform="matrix(-0.757, -0.654, 0.654, -0.757, 3.26, 463.818)" fill="#0094f9"/><g transform="translate(397.885)"><path d="M1664.933,1835.316a3.1,3.1,0,1,0-4.378.32A3.1,3.1,0,0,0,1664.933,1835.316Z" transform="translate(-1659.481 -1830.183)" fill="#0094f9"/></g><g transform="translate(0 460.58)"><path d="M2628.932,2951.213a3.1,3.1,0,1,1-.319-4.377A3.1,3.1,0,0,1,2628.932,2951.213Z" transform="translate(-2623.48 -2946.08)" fill="#0094f9"/></g></g><g transform="translate(962.392 691.232)"><rect width="0.413" height="358.389" transform="matrix(-0.263, -0.965, 0.965, -0.263, 3.159, 97.392)" fill="#0094f9"/><g transform="translate(0 94.089)"><path d="M2655.62,2594.419a3.1,3.1,0,1,0,3.81,2.18A3.1,3.1,0,0,0,2655.62,2594.419Z" transform="translate(-2653.33 -2594.31)" fill="#0094f9"/></g><g transform="translate(345.818)"><path d="M1817.768,2366.459a3.1,3.1,0,1,1-2.18,3.81A3.1,3.1,0,0,1,1817.768,2366.459Z" transform="translate(-1815.479 -2366.349)" fill="#0094f9"/></g></g><g transform="translate(1420.478 333.343)"><rect width="0.413" height="510.111" transform="translate(3.262 396.215) rotate(-140.388)" fill="#0094f9"/><g transform="translate(325.239)"><path d="M760.982,1504.337a3.1,3.1,0,1,0-4.37.412A3.1,3.1,0,0,0,760.982,1504.337Z" transform="translate(-755.488 -1499.254)" fill="#0094f9"/></g><g transform="translate(0 392.98)"><path d="M1548.975,2456.452a3.1,3.1,0,1,1-.412-4.37A3.1,3.1,0,0,1,1548.975,2456.452Z" transform="translate(-1543.481 -2451.369)" fill="#0094f9"/></g></g><path d="M4711.38,2101.114l.39-.135-202.577-583.714v1.26Z" transform="translate(-4509.165 -1176.488)" fill="#0094f9"/><g transform="translate(358.9 785.321)"><rect width="0.413" height="603.791" transform="matrix(-0.031, -1, 1, -0.031, 3.111, 22.287)" fill="#0094f9"/><g transform="translate(0 18.977)"><path d="M4118.486,2640.29a3.1,3.1,0,1,0,3.2,3.005A3.105,3.105,0,0,0,4118.486,2640.29Z" transform="translate(-4115.479 -2640.288)" fill="#0094f9"/></g><g transform="translate(603.493)"><path d="M2656.339,2594.313a3.1,3.1,0,1,1-3,3.2A3.1,3.1,0,0,1,2656.339,2594.313Z" transform="translate(-2653.333 -2594.312)" fill="#0094f9"/></g></g><g transform="translate(803.464 552.144)"><rect width="523.56" height="0.413" transform="translate(507.814 142.328) rotate(-164.608)" fill="#0094f9"/><path d="M3042.315,2029.478a3.1,3.1,0,1,0,2.167,3.816A3.1,3.1,0,0,0,3042.315,2029.478Z" transform="translate(-3038.386 -2029.365)" fill="#0094f9"/><g transform="translate(504.747 139.088)"><path d="M1819.408,2366.462a3.1,3.1,0,1,1-3.817,2.167A3.1,3.1,0,0,1,1819.408,2366.462Z" transform="translate(-1815.479 -2366.35)" fill="#0094f9"/></g></g><g transform="translate(754.961 762.617)"><rect width="276.551" height="0.413" transform="matrix(-0.795, -0.607, 0.607, -0.795, 222.731, 171.164)" fill="#0094f9"/><g transform="translate(219.754 167.895)"><path d="M2624.7,2951.65a3.1,3.1,0,1,0-.582-4.35A3.1,3.1,0,0,0,2624.7,2951.65Z" transform="translate(-2623.48 -2946.081)" fill="#0094f9"/></g><path d="M3157.122,2544.873a3.1,3.1,0,1,1,4.35-.582A3.1,3.1,0,0,1,3157.122,2544.873Z" transform="translate(-3155.902 -2539.302)" fill="#0094f9"/></g><g transform="translate(730.37 762.616)"><rect width="0.412" height="182.038" transform="translate(3.308 183.502) rotate(-172.237)" fill="#0094f9"/><g transform="translate(0 180.37)"><path d="M3215.508,2978.987a3.1,3.1,0,1,0,3.495-2.656A3.1,3.1,0,0,0,3215.508,2978.987Z" transform="translate(-3215.479 -2976.302)" fill="#0094f9"/></g><g transform="translate(24.59)"><path d="M3155.93,2541.986a3.1,3.1,0,1,1,2.656,3.494A3.105,3.105,0,0,1,3155.93,2541.986Z" transform="translate(-3155.901 -2539.301)" fill="#0094f9"/></g></g><g transform="translate(486.85 765.992)"><rect width="390.602" height="0.412" transform="matrix(-0.899, -0.438, 0.438, -0.899, 354.256, 174.167)" fill="#0094f9"/><g transform="translate(351.301 170.757)"><path d="M2956.091,2967.086a3.1,3.1,0,1,0-1.434-4.148A3.1,3.1,0,0,0,2956.091,2967.086Z" transform="translate(-2954.344 -2961.19)" fill="#0094f9"/></g><path d="M3807.227,2553.375a3.1,3.1,0,1,1,4.148-1.435A3.1,3.1,0,0,1,3807.227,2553.375Z" transform="translate(-3805.479 -2547.479)" fill="#0094f9"/></g><g transform="translate(737.866 719.765)"><rect width="0.413" height="270.063" transform="translate(3.232 171.503) rotate(-128.532)" fill="#0094f9"/><g transform="translate(0 168.238)"><path d="M3198.489,2843.765a3.1,3.1,0,1,0,4.362.495A3.1,3.1,0,0,0,3198.489,2843.765Z" transform="translate(-3197.319 -2843.089)" fill="#0094f9"/></g><g transform="translate(211.258)"><path d="M2686.65,2436.156a3.1,3.1,0,1,1-.494,4.361A3.1,3.1,0,0,1,2686.65,2436.156Z" transform="translate(-2685.48 -2435.48)" fill="#0094f9"/></g></g><g transform="translate(543.809 817.344)"><rect width="0.413" height="319.32" transform="translate(3.2 151.609) rotate(-117.677)" fill="#0094f9"/><g transform="translate(282.783)"><path d="M2986.9,2677.749a3.1,3.1,0,1,0-4.19-1.307A3.1,3.1,0,0,0,2986.9,2677.749Z" transform="translate(-2982.35 -2671.896)" fill="#0094f9"/></g><g transform="translate(0 148.322)"><path d="M3672.025,3037.106a3.1,3.1,0,1,1,1.307-4.19A3.1,3.1,0,0,1,3672.025,3037.106Z" transform="translate(-3667.479 -3031.253)" fill="#0094f9"/></g></g><g transform="translate(974.715 930.512)"><rect width="195.793" height="0.413" transform="translate(152.396 129.778) rotate(-139.752)" fill="#0094f9"/><path d="M2628.59,2946.816a3.1,3.1,0,1,0,.363,4.374A3.1,3.1,0,0,0,2628.59,2946.816Z" transform="translate(-2623.481 -2946.081)" fill="#0094f9"/><g transform="translate(149.413 126.532)"><path d="M2266.59,3253.379a3.1,3.1,0,1,1-4.375.362A3.1,3.1,0,0,1,2266.59,3253.379Z" transform="translate(-2261.481 -3252.644)" fill="#0094f9"/></g></g><g transform="translate(803.464 552.144)"><rect width="386.166" height="0.413" transform="translate(37.598 387.726) rotate(-95.157)" fill="#0094f9"/><g transform="translate(34.688 384.605)"><path d="M2954.358,2964.574a3.1,3.1,0,1,0,2.812-3.37A3.1,3.1,0,0,0,2954.358,2964.574Z" transform="translate(-2954.345 -2961.191)" fill="#0094f9"/></g><path d="M3038.4,2032.75a3.1,3.1,0,1,1,3.37,2.813A3.1,3.1,0,0,1,3038.4,2032.75Z" transform="translate(-3038.387 -2029.367)" fill="#0094f9"/></g><g transform="translate(1526.138 413.725)"><rect width="236.431" height="0.413" transform="translate(111.818 213.058) rotate(-117.444)" fill="#0094f9"/><g transform="translate(108.829 209.894)"><path d="M1024.16,2207.071a3.1,3.1,0,1,0,1.327-4.184A3.1,3.1,0,0,0,1024.16,2207.071Z" transform="translate(-1023.812 -2202.538)" fill="#0094f9"/></g><path d="M1287.833,1698.537a3.1,3.1,0,1,1,4.184,1.326A3.1,3.1,0,0,1,1287.833,1698.537Z" transform="translate(-1287.484 -1694.004)" fill="#0094f9"/></g><g transform="translate(1372.599 469.932)"><rect width="220.132" height="0.413" transform="translate(215.552 60.761) rotate(-164.879)" fill="#0094f9"/><g transform="translate(212.491 57.492)"><path d="M1146.947,1975.575a3.1,3.1,0,1,0-2.186-3.806A3.1,3.1,0,0,0,1146.947,1975.575Z" transform="translate(-1144.653 -1969.474)" fill="#0094f9"/></g><path d="M1661.773,1836.282a3.1,3.1,0,1,1,3.806-2.185A3.1,3.1,0,0,1,1661.773,1836.282Z" transform="translate(-1659.479 -1830.181)" fill="#0094f9"/></g><g transform="translate(1698.667 333.343)"><rect width="0.413" height="440.124" transform="translate(3.309 440.728) rotate(-173.863)" fill="#0094f9"/><g transform="translate(0 437.602)"><path d="M869.5,2562.252a3.1,3.1,0,1,0,3.418-2.754A3.1,3.1,0,0,0,869.5,2562.252Z" transform="translate(-869.48 -2559.48)" fill="#0094f9"/></g><g transform="translate(47.049)"><path d="M755.505,1502.026a3.1,3.1,0,1,1,2.754,3.418A3.1,3.1,0,0,1,755.505,1502.026Z" transform="translate(-755.487 -1499.253)" fill="#0094f9"/></g></g><g transform="translate(1866.241)"><path d="M.309,912.076,194.557,692.25v-.623L0,911.8Z" transform="translate(2.949 -691.626)" fill="#0094f9"/><g transform="translate(0 217.209)"><path d="M468.91,1223.042a3.1,3.1,0,1,1-.271-4.381A3.1,3.1,0,0,1,468.91,1223.042Z" transform="translate(-463.481 -1217.883)" fill="#0094f9"/></g></g><g transform="translate(1866.241 217.209)"><path d="M194.573,1513.65v-.738L.342,1225.123l-.342.231Z" transform="translate(2.933 -1222.134)" fill="#0094f9"/><path d="M469.156,1219.25a3.1,3.1,0,1,0-.836,4.309A3.1,3.1,0,0,0,469.156,1219.25Z" transform="translate(-463.48 -1217.883)" fill="#0094f9"/></g></g><g transform="translate(0.027 184.116)"><g transform="translate(1734.836 393.029)"><path d="M.276,2206.334l325.517-115.52v-.875L0,2205.556Z" transform="translate(3.091 -2089.939)" fill="#00b0b6"/><g transform="translate(0 112.778)"><path d="M785.486,2369.448a3.228,3.228,0,1,1,1.962-4.122A3.229,3.229,0,0,1,785.486,2369.448Z" transform="translate(-781.178 -2363.177)" fill="#00b0b6"/></g></g><g transform="translate(1513.606 505.807)"><rect width="0.826" height="295.875" transform="translate(3.502 200.003) rotate(-131.607)" fill="#00b0b6"/><g transform="translate(0 196.466)"><path d="M1318.264,2839.994a3.228,3.228,0,1,0,4.557.27A3.227,3.227,0,0,0,1318.264,2839.994Z" transform="translate(-1317.18 -2839.18)" fill="#00b0b6"/></g><g transform="translate(221.231)"><path d="M782.264,2363.994a3.228,3.228,0,1,1-.27,4.556A3.228,3.228,0,0,1,782.264,2363.994Z" transform="translate(-781.18 -2363.18)" fill="#00b0b6"/></g></g><g transform="translate(1117.372 424.91)"><rect width="483.665" height="0.826" transform="translate(399.204 280.961) rotate(-144.999)" fill="#00b0b6"/><path d="M2282.258,2167.763a3.228,3.228,0,1,0,.793,4.5A3.229,3.229,0,0,0,2282.258,2167.763Z" transform="translate(-2277.179 -2167.179)" fill="#00b0b6"/><g transform="translate(396.234 277.364)"><path d="M1322.258,2839.763a3.228,3.228,0,1,1-4.5.793A3.229,3.229,0,0,1,1322.258,2839.763Z" transform="translate(-1317.179 -2839.179)" fill="#00b0b6"/></g></g><g transform="translate(585.758 134.338)"><rect width="605.843" height="0.826" transform="translate(534.688 294.081) rotate(-151.357)" fill="#00b0b6"/><path d="M3569.955,1463.575a3.228,3.228,0,1,0,1.284,4.38A3.228,3.228,0,0,0,3569.955,1463.575Z" transform="translate(-3565.178 -1463.179)" fill="#00b0b6"/><g transform="translate(531.614 290.572)"><path d="M2281.955,2167.574a3.228,3.228,0,1,1-4.381,1.284A3.229,3.229,0,0,1,2281.955,2167.574Z" transform="translate(-2277.178 -2167.179)" fill="#00b0b6"/></g></g><g transform="translate(191.175 134.338)"><rect width="0.825" height="395.26" transform="matrix(-0.058, -0.998, 0.998, -0.058, 3.252, 26.754)" fill="#00b0b6"/><g transform="translate(0 23.114)"><path d="M4524.218,1519.185a3.228,3.228,0,1,0,3.411,3.034A3.228,3.228,0,0,0,4524.218,1519.185Z" transform="translate(-4521.179 -1519.179)" fill="#00b0b6"/></g><g transform="translate(394.583)"><path d="M3568.219,1463.185a3.228,3.228,0,1,1-3.034,3.411A3.228,3.228,0,0,1,3568.219,1463.185Z" transform="translate(-3565.179 -1463.18)" fill="#00b0b6"/></g></g><path d="M4722.5,1298.7l.525-.637L4528.364,1137.7v1.07Z" transform="translate(-4528.364 -1137.704)" fill="#00b0b6"/><g transform="translate(191.175 157.452)"><path d="M4526.459,1519.916a3.228,3.228,0,1,1-4.543.439A3.227,3.227,0,0,1,4526.459,1519.916Z" transform="translate(-4521.179 -1519.18)" fill="#00b0b6"/></g><g transform="translate(0 507.458)"><path d="M4380.4,2564.905l255.735-190.045-.493-.662L4380.4,2563.877Z" transform="translate(-4380.403 -2371.301)" fill="#00b0b6"/><g transform="translate(252.261)"><path d="M4374.482,2367.816a3.228,3.228,0,1,1-.666,4.516A3.228,3.228,0,0,1,4374.482,2367.816Z" transform="translate(-4373.18 -2367.179)" fill="#00b0b6"/></g></g><g transform="translate(252.262 502.505)"><rect width="0.826" height="496.968" transform="translate(3.231 8.594) rotate(-90.571)" fill="#00b0b6"/><g transform="translate(496.943)"><path d="M3172.439,2361.635a3.228,3.228,0,1,0-3.26-3.2A3.228,3.228,0,0,0,3172.439,2361.635Z" transform="translate(-3169.179 -2355.18)" fill="#00b0b6"/></g><g transform="translate(0 4.953)"><path d="M4376.44,2373.635a3.228,3.228,0,1,1,3.195-3.26A3.229,3.229,0,0,1,4376.44,2373.635Z" transform="translate(-4373.18 -2367.179)" fill="#00b0b6"/></g></g><g transform="translate(749.204 502.505)"><rect width="424.015" height="0.826" transform="matrix(-0.942, -0.335, 0.335, -0.942, 402.62, 145.62)" fill="#00b0b6"/><g transform="translate(399.536 141.984)"><path d="M2203.325,2705.448a3.228,3.228,0,1,0-1.961-4.122A3.228,3.228,0,0,0,2203.325,2705.448Z" transform="translate(-2201.177 -2699.178)" fill="#00b0b6"/></g><path d="M3171.325,2361.448a3.228,3.228,0,1,1,4.123-1.961A3.229,3.229,0,0,1,3171.325,2361.448Z" transform="translate(-3169.177 -2355.177)" fill="#00b0b6"/></g><g transform="translate(1148.74 644.489)"><rect width="492.716" height="0.826" transform="translate(450.471 209.973) rotate(-155.239)" fill="#00b0b6"/><g transform="translate(447.415 206.372)"><path d="M1119.055,3205.338a3.228,3.228,0,1,0-1.579-4.283A3.228,3.228,0,0,0,1119.055,3205.338Z" transform="translate(-1117.178 -3199.178)" fill="#00b0b6"/></g><path d="M2203.055,2705.338a3.228,3.228,0,1,1,4.282-1.579A3.228,3.228,0,0,1,2203.055,2705.338Z" transform="translate(-2201.178 -2699.178)" fill="#00b0b6"/></g><g transform="translate(1596.155 563.591)"><rect width="0.825" height="352.753" transform="matrix(-0.814, -0.58, 0.58, -0.814, 3.564, 290.737)" fill="#00b0b6"/><g transform="translate(204.721)"><path d="M627.036,2508.281a3.228,3.228,0,1,0-4.5.755A3.229,3.229,0,0,0,627.036,2508.281Z" transform="translate(-621.179 -2503.179)" fill="#00b0b6"/></g><g transform="translate(0 287.27)"><path d="M1123.036,3204.281a3.228,3.228,0,1,1-.756-4.5A3.229,3.229,0,0,1,1123.036,3204.281Z" transform="translate(-1117.179 -3199.18)" fill="#00b0b6"/></g></g><g transform="translate(1800.876 563.591)"><path d="M259.84,2679.4v-.984L.449,2510.161l-.449.692Z" transform="translate(3.004 -2507.279)" fill="#00b0b6"/><path d="M622.65,2509.115a3.228,3.228,0,1,1,4.465-.951A3.228,3.228,0,0,1,622.65,2509.115Z" transform="translate(-621.179 -2503.179)" fill="#00b0b6"/></g><g transform="translate(0 241.988)"><path d="M4236.789,1797.3l315.011-65.65-.169-.808-314.842,65.615Z" transform="translate(-4236.789 -1728.014)" fill="#00b0b6"/><g transform="translate(311.699)"><path d="M4231.741,1724.064a3.228,3.228,0,1,1-2.5,3.818A3.228,3.228,0,0,1,4231.741,1724.064Z" transform="translate(-4229.171 -1723.996)" fill="#00b0b6"/></g></g><g transform="translate(311.698 241.988)"><rect width="552.618" height="0.825" transform="translate(555.525 22.105) rotate(-178.097)" fill="#00b0b6"/><g transform="translate(552.307 18.576)"><path d="M2894.157,1775.455a3.228,3.228,0,1,0-3.117-3.335A3.228,3.228,0,0,0,2894.157,1775.455Z" transform="translate(-2891.038 -1769.001)" fill="#00b0b6"/></g><path d="M4232.292,1730.45a3.228,3.228,0,1,1,3.335-3.117A3.229,3.229,0,0,1,4232.292,1730.45Z" transform="translate(-4229.172 -1723.996)" fill="#00b0b6"/></g><g transform="translate(864.006 260.564)"><rect width="355.854" height="0.825" transform="matrix(-0.626, -0.78, 0.78, -0.626, 225.78, 280.901)" fill="#00b0b6"/><g transform="translate(222.904 277.392)"><path d="M2351.7,2446.319a3.228,3.228,0,1,0,.494-4.538A3.229,3.229,0,0,0,2351.7,2446.319Z" transform="translate(-2350.985 -2441.069)" fill="#00b0b6"/></g><path d="M2891.75,1774.251a3.228,3.228,0,1,1,4.538.495A3.228,3.228,0,0,1,2891.75,1774.251Z" transform="translate(-2891.039 -1769.002)" fill="#00b0b6"/></g><g transform="translate(1086.91 518.071)"><rect width="0.826" height="286.225" transform="matrix(-0.069, -0.998, 0.998, -0.069, 3.257, 23.524)" fill="#00b0b6"/><g transform="translate(285.468 0)"><ellipse cx="3.228" cy="3.228" rx="3.228" ry="3.228" transform="translate(0.143 6.597) rotate(-91.267)" fill="#00b0b6"/></g><g transform="translate(0 19.884)"><path d="M2354.435,2447.516a3.228,3.228,0,1,1,3-3.443A3.228,3.228,0,0,1,2354.435,2447.516Z" transform="translate(-2350.984 -2441.068)" fill="#00b0b6"/></g></g><g transform="translate(1372.447 518.141)"><rect width="332.813" height="0.825" transform="translate(329.215 70.291) rotate(-168.448)" fill="#00b0b6"/><g transform="translate(326.068 66.667)"><path d="M871.76,2560.975a3.228,3.228,0,1,0-2.516-3.809A3.228,3.228,0,0,0,871.76,2560.975Z" transform="translate(-869.178 -2554.584)" fill="#00b0b6"/></g><path d="M1661.76,2399.453a3.228,3.228,0,1,1,3.809-2.515A3.227,3.227,0,0,1,1661.76,2399.453Z" transform="translate(-1659.178 -2393.062)" fill="#00b0b6"/></g><g transform="translate(1698.516 246.287)"><rect width="0.826" height="491.851" transform="translate(3.512 342.05) rotate(-133.493)" fill="#00b0b6"/><g transform="translate(356.819)"><path d="M10.124,1739.98a3.228,3.228,0,1,0-4.563-.12A3.228,3.228,0,0,0,10.124,1739.98Z" transform="translate(-4.674 -1734.41)" fill="#00b0b6"/></g><g transform="translate(0 338.523)"><path d="M874.629,2560.156a3.228,3.228,0,1,1,.12-4.563A3.228,3.228,0,0,1,874.629,2560.156Z" transform="translate(-869.18 -2554.586)" fill="#00b0b6"/></g></g><g transform="translate(0 519.015)"><path d="M4584.121,2718.921l171.651-316-.725-.394-170.926,314.669Z" transform="translate(-4584.121 -2399.491)" fill="#00b0b6"/><g transform="translate(168.061)"><path d="M4577.571,2396.866a3.228,3.228,0,1,1,1.3,4.377A3.228,3.228,0,0,1,4577.571,2396.866Z" transform="translate(-4577.179 -2395.178)" fill="#00b0b6"/></g></g><g transform="translate(167.482 518.435)"><rect width="324.756" height="0.826" transform="translate(322.361 66.976) rotate(-168.852)" fill="#00b0b6"/><g transform="translate(319.217 63.316)"><path d="M3807.783,2553.574a3.228,3.228,0,1,0-2.543-3.791A3.228,3.228,0,0,0,3807.783,2553.574Z" transform="translate(-3805.178 -2547.179)" fill="#00b0b6"/></g><g transform="translate(0 0)"><ellipse cx="3.228" cy="3.228" rx="3.228" ry="3.228" transform="translate(6.325 7.615) rotate(-168.476)" fill="#00b0b6"/></g></g><g transform="translate(486.699 528.048)"><rect width="0.825" height="159.549" transform="matrix(-0.337, -0.942, 0.942, -0.337, 3.368, 57.321)" fill="#00b0b6"/><g transform="translate(150.239)"><path d="M3445.492,2423.333a3.228,3.228,0,1,0-4.126-1.953A3.228,3.228,0,0,0,3445.492,2423.333Z" transform="translate(-3441.177 -2417.064)" fill="#00b0b6"/></g><g transform="translate(0 53.703)"><path d="M3809.493,2553.446a3.228,3.228,0,1,1,1.953-4.126A3.229,3.229,0,0,1,3809.493,2553.446Z" transform="translate(-3805.178 -2547.177)" fill="#00b0b6"/></g></g><g transform="translate(636.939 528.049)"><rect width="312.124" height="0.826" transform="matrix(-1, -0.024, 0.024, -1, 315.25, 11.185)" fill="#00b0b6"/><g transform="translate(312.035 7.476)"><path d="M2688.33,2441.634a3.228,3.228,0,1,0-3.149-3.3A3.228,3.228,0,0,0,2688.33,2441.634Z" transform="translate(-2685.179 -2435.179)" fill="#00b0b6"/></g><path d="M3444.331,2423.521a3.228,3.228,0,1,1,3.3-3.149A3.228,3.228,0,0,1,3444.331,2423.521Z" transform="translate(-3441.18 -2417.067)" fill="#00b0b6"/></g><g transform="translate(948.973 535.525)"><rect width="194.446" height="0.825" transform="translate(136.637 144.688) rotate(-133.436)" fill="#00b0b6"/><g transform="translate(133.729 141.158)"><path d="M2362.064,2782.628a3.228,3.228,0,1,0,.124-4.563A3.228,3.228,0,0,0,2362.064,2782.628Z" transform="translate(-2361.18 -2777.18)" fill="#00b0b6"/></g><path d="M2686.065,2440.628a3.228,3.228,0,1,1,4.563.123A3.228,3.228,0,0,1,2686.065,2440.628Z" transform="translate(-2685.18 -2435.18)" fill="#00b0b6"/></g><g transform="translate(1082.702 676.683)"><rect width="244.513" height="0.825" transform="matrix(-0.999, -0.037, 0.037, -0.999, 247.557, 12.717)" fill="#00b0b6"/><g transform="translate(244.344 9.08)"><path d="M1772.288,2805.633a3.228,3.228,0,1,0-3.106-3.346A3.228,3.228,0,0,0,1772.288,2805.633Z" transform="translate(-1769.18 -2799.18)" fill="#00b0b6"/></g><path d="M2364.288,2783.633a3.228,3.228,0,1,1,3.345-3.106A3.228,3.228,0,0,1,2364.288,2783.633Z" transform="translate(-2361.18 -2777.18)" fill="#00b0b6"/></g><g transform="translate(1327.045 685.763)"><rect width="371.73" height="0.825" transform="translate(356.399 119.22) rotate(-161.877)" fill="#00b0b6"/><g transform="translate(353.309 115.568)"><path d="M915.4,3085.474a3.228,3.228,0,1,0-2.065-4.072A3.229,3.229,0,0,0,915.4,3085.474Z" transform="translate(-913.178 -3079.178)" fill="#00b0b6"/></g><path d="M1771.4,2805.474a3.228,3.228,0,1,1,4.071-2.064A3.228,3.228,0,0,1,1771.4,2805.474Z" transform="translate(-1769.178 -2799.178)" fill="#00b0b6"/></g><g transform="translate(1680.355 523.381)"><path d="M.491,2687.268l379.892-280.485v-1.026L0,2686.6Z" transform="translate(2.983 -2405.757)" fill="#00b0b6"/><g transform="translate(0 277.951)"><path d="M918.325,3085a3.228,3.228,0,1,1,.679-4.514A3.228,3.228,0,0,1,918.325,3085Z" transform="translate(-913.18 -3079.18)" fill="#00b0b6"/></g></g><g transform="translate(864.005 260.563)"><rect width="470.089" height="0.825" transform="matrix(-0.465, -0.885, 0.885, -0.465, 221.471, 419.586)" fill="#00b0b6"/><path d="M2897.123,1770.727a3.228,3.228,0,1,0-1.355,4.359A3.228,3.228,0,0,0,2897.123,1770.727Z" transform="translate(-2891.038 -1769)" fill="#00b0b6"/><g transform="translate(218.696 416.12)"><path d="M2367.263,2778.905a3.228,3.228,0,1,1-4.359-1.355A3.228,3.228,0,0,1,2367.263,2778.905Z" transform="translate(-2361.178 -2777.179)" fill="#00b0b6"/></g></g><g transform="translate(749.204 502.505)"><rect width="339.561" height="0.825" transform="translate(340.888 39.112) rotate(-173.999)" fill="#00b0b6"/><g transform="translate(337.705 35.45)"><path d="M2353.875,2447.506a3.228,3.228,0,1,0-2.874-3.547A3.228,3.228,0,0,0,2353.875,2447.506Z" transform="translate(-2350.984 -2441.068)" fill="#00b0b6"/></g><path d="M3172.07,2361.617a3.228,3.228,0,1,1,3.547-2.874A3.229,3.229,0,0,1,3172.07,2361.617Z" transform="translate(-3169.179 -2355.179)" fill="#00b0b6"/></g><g transform="translate(311.7 241.989)"><rect width="433.141" height="0.826" transform="matrix(-0.751, -0.66, 0.66, -0.751, 328.23, 289.557)" fill="#00b0b6"/><path d="M4234.532,1724.8a3.228,3.228,0,1,0,.292,4.556A3.229,3.229,0,0,0,4234.532,1724.8Z" transform="translate(-4229.173 -1723.997)" fill="#00b0b6"/><g transform="translate(325.239 286.06)"><path d="M3446.54,2417.87a3.228,3.228,0,1,1-4.555.292A3.228,3.228,0,0,1,3446.54,2417.87Z" transform="translate(-3441.18 -2417.066)" fill="#00b0b6"/></g></g><g transform="translate(0.001 157.452)"><path d="M4528.267,1736.882l194.705-210-.6-.561-194.1,209.348Z" transform="translate(-4528.267 -1523.373)" fill="#00b0b6"/><g transform="translate(191.174)"><path d="M4526.774,1524.6a3.228,3.228,0,1,0-4.562.172A3.228,3.228,0,0,0,4526.774,1524.6Z" transform="translate(-4521.18 -1519.18)" fill="#00b0b6"/></g></g><g transform="translate(1908.128 246.286)"><rect width="0.825" height="413.934" transform="matrix(-0.935, -0.356, 0.356, -0.935, 3.614, 390.249)" fill="#00b0b6"/><g transform="translate(0 386.874)"><path d="M361.538,2673.811a3.228,3.228,0,1,0,4.165-1.869A3.228,3.228,0,0,0,361.538,2673.811Z" transform="translate(-361.326 -2671.73)" fill="#00b0b6"/></g><g transform="translate(147.206)"><path d="M4.884,1736.49a3.228,3.228,0,1,1,1.869,4.165A3.228,3.228,0,0,1,4.884,1736.49Z" transform="translate(-4.672 -1734.409)" fill="#00b0b6"/></g></g><g transform="translate(1086.909 537.956)"><rect width="613.398" height="0.825" transform="matrix(-0.997, -0.076, 0.076, -0.997, 614.807, 50.437)" fill="#00b0b6"/><g transform="translate(611.606 46.853)"><path d="M872.16,2561.032a3.228,3.228,0,1,0-2.972-3.465A3.228,3.228,0,0,0,872.16,2561.032Z" transform="translate(-869.179 -2554.585)" fill="#00b0b6"/></g><path d="M2353.966,2447.515a3.228,3.228,0,1,1,3.465-2.972A3.229,3.229,0,0,1,2353.966,2447.515Z" transform="translate(-2350.984 -2441.069)" fill="#00b0b6"/></g><g transform="translate(749.204 424.909)"><rect width="0.825" height="376.256" transform="translate(3.313 81.228) rotate(-101.902)" fill="#00b0b6"/><g transform="translate(368.168)"><path d="M2281.073,2173.565a3.228,3.228,0,1,0-3.824-2.493A3.228,3.228,0,0,0,2281.073,2173.565Z" transform="translate(-2277.178 -2167.178)" fill="#00b0b6"/></g><g transform="translate(0 77.596)"><path d="M3173.072,2361.565a3.228,3.228,0,1,1,2.492-3.824A3.228,3.228,0,0,1,3173.072,2361.565Z" transform="translate(-3169.178 -2355.179)" fill="#00b0b6"/></g></g><path d="M.8,1562.374,5.548,1454.86l.009-18.925-5.578,126.4Z" transform="translate(2058.172 -1312.842)" fill="#00b0b6"/></g><g transform="translate(140.567 290.932)"><g transform="translate(0 0)" opacity="0.59"><circle cx="30.749" cy="30.749" r="30.749" transform="translate(696.624 127.52)" fill="url(#b)" style="mix-blend-mode:color-dodge;isolation:isolate"/><circle cx="30.749" cy="30.749" r="30.749" transform="translate(417.697)" fill="url(#c)" style="mix-blend-mode:color-dodge;isolation:isolate"/><circle cx="30.749" cy="30.749" r="30.749" transform="translate(1740.067 498.823)" fill="url(#d)" style="mix-blend-mode:color-dodge;isolation:isolate"/><circle cx="30.749" cy="30.749" r="30.749" transform="translate(1512.293 666.994)" fill="url(#c)" style="mix-blend-mode:color-dodge;isolation:isolate"/><circle cx="51.799" cy="51.799" r="51.799" transform="translate(1407.044 695.473)" fill="url(#c)" style="mix-blend-mode:color-dodge;isolation:isolate"/><circle cx="30.749" cy="30.749" r="30.749" transform="translate(1630.903 431.936)" fill="url(#g)" style="mix-blend-mode:color-dodge;isolation:isolate"/><circle cx="30.749" cy="30.749" r="30.749" transform="translate(1530.454 452.367)" fill="url(#c)" style="mix-blend-mode:color-dodge;isolation:isolate"/><circle cx="54.482" cy="54.482" r="54.482" transform="translate(1543.043 347.737)" fill="url(#c)" style="mix-blend-mode:color-dodge;isolation:isolate"/><circle cx="25.59" cy="25.59" r="25.59" transform="translate(1350.704 573.095)" fill="url(#c)" style="mix-blend-mode:color-dodge;isolation:isolate"/><circle cx="30.749" cy="30.749" r="30.749" transform="translate(1158.985 551.426)" fill="url(#c)" style="mix-blend-mode:color-dodge;isolation:isolate"/><circle cx="30.749" cy="30.749" r="30.749" transform="translate(980.679 510.151)" fill="url(#c)" style="mix-blend-mode:color-dodge;isolation:isolate"/><circle cx="30.749" cy="30.749" r="30.749" transform="translate(914.64 542.345)" fill="url(#c)" style="mix-blend-mode:color-dodge;isolation:isolate"/><circle cx="30.749" cy="30.749" r="30.749" transform="translate(1204.386 383.804)" fill="url(#c)" style="mix-blend-mode:color-dodge;isolation:isolate"/><circle cx="24.638" cy="24.638" r="24.638" transform="translate(787.023 407.298)" fill="url(#o)" style="mix-blend-mode:color-dodge;isolation:isolate"/><circle cx="52.393" cy="52.393" r="52.393" transform="translate(559.5 346.524)" fill="url(#c)" style="mix-blend-mode:color-dodge;isolation:isolate"/><circle cx="17.654" cy="17.654" r="17.654" transform="translate(481.972 406.806)" fill="url(#q)" style="mix-blend-mode:color-dodge;isolation:isolate"/><circle cx="30.749" cy="30.749" r="30.749" transform="translate(318.638 447.414)" fill="url(#c)" style="mix-blend-mode:color-dodge;isolation:isolate"/><circle cx="30.749" cy="30.749" r="30.749" transform="translate(0 384.677)" fill="url(#c)" style="mix-blend-mode:color-dodge;isolation:isolate"/><circle cx="66.607" cy="66.607" r="66.607" transform="translate(48.342 337.263)" fill="url(#c)" style="mix-blend-mode:color-dodge;isolation:isolate"/><circle cx="30.749" cy="30.749" r="30.749" transform="translate(23.114 23.114)" fill="url(#c)" style="mix-blend-mode:color-dodge;isolation:isolate"/><circle cx="24.591" cy="24.591" r="24.591" transform="translate(149.796 113.809)" fill="url(#o)" style="mix-blend-mode:color-dodge;isolation:isolate"/></g></g></g></g></g></svg>