<svg xmlns="http://www.w3.org/2000/svg" xmlns:xlink="http://www.w3.org/1999/xlink" width="909.098" height="684.818" viewBox="0 0 909.098 684.818"><defs><clipPath id="a"><rect width="402.464" height="590.887" transform="translate(1850.148 3407.939)" fill="#fff" stroke="#707070" stroke-width="1"/></clipPath><clipPath id="b"><rect width="1128.044" height="590.887" rx="12.001" fill="none"/></clipPath><linearGradient id="c" y1="0.5" x2="1" y2="0.5" gradientUnits="objectBoundingBox"><stop offset="0" stop-color="#c8e2ff"/><stop offset="0.178" stop-color="#c2ddfc"/><stop offset="0.41" stop-color="#b2d0f4"/><stop offset="0.671" stop-color="#97bbe6"/><stop offset="0.952" stop-color="#729ed4"/><stop offset="1" stop-color="#6b99d1"/></linearGradient><linearGradient id="g" x1="276.044" y1="0.5" x2="277.044" y2="0.5" xlink:href="#c"/><linearGradient id="h" x1="277.697" y1="0.5" x2="278.696" y2="0.5" xlink:href="#c"/><linearGradient id="i" x1="279.395" y1="0.5" x2="280.395" y2="0.5" xlink:href="#c"/><linearGradient id="j" x1="281.024" y1="0.5" x2="282.024" y2="0.5" xlink:href="#c"/><linearGradient id="k" x1="1.216" y1="0.825" x2="0.075" y2="0.307" gradientUnits="objectBoundingBox"><stop offset="0" stop-color="#57f7e0"/><stop offset="0.117" stop-color="#57f7e0" stop-opacity="0.878"/><stop offset="0.732" stop-color="#57f7e0" stop-opacity="0.251"/><stop offset="1" stop-color="#57f7e0" stop-opacity="0"/></linearGradient><linearGradient id="l" x1="-0.214" y1="0.827" x2="0.703" y2="0.407" xlink:href="#k"/><linearGradient id="m" y1="0.5" x2="1" y2="0.5" gradientUnits="objectBoundingBox"><stop offset="0" stop-color="#6b99d1"/><stop offset="0.021" stop-color="#6d9bd2"/><stop offset="0.236" stop-color="#86b0e4"/><stop offset="0.463" stop-color="#97bff0"/><stop offset="0.708" stop-color="#a1c8f7"/><stop offset="1" stop-color="#a5cbfa"/></linearGradient><linearGradient id="n" y1="0.5" x2="1" y2="0.5" gradientUnits="objectBoundingBox"><stop offset="0" stop-color="#a5cbfa"/><stop offset="0.363" stop-color="#a8cdfa"/><stop offset="0.667" stop-color="#b2d3fb"/><stop offset="0.948" stop-color="#c3dffe"/><stop offset="1" stop-color="#c8e2ff"/></linearGradient><linearGradient id="o" x1="0.5" y1="0.998" x2="0.5" y2="-0.006" gradientUnits="objectBoundingBox"><stop offset="0" stop-color="#57f7d7" stop-opacity="0.702"/><stop offset="0.113" stop-color="#57f7d7" stop-opacity="0.667"/><stop offset="0.287" stop-color="#57f7d8" stop-opacity="0.58"/><stop offset="0.499" stop-color="#57f7da" stop-opacity="0.439"/><stop offset="0.743" stop-color="#57f7dc" stop-opacity="0.239"/><stop offset="1" stop-color="#57f7e0" stop-opacity="0"/></linearGradient></defs><g transform="translate(96.865 -191.625)"><g transform="translate(-1947.014 -3122.383)" opacity="0.3" clip-path="url(#a)"><g transform="translate(1124.569 3407.939)"><g transform="translate(0 0)"><g transform="translate(0 0)" clip-path="url(#b)"><g transform="translate(-28.587 -76.491)"><path d="M592.432,346.19a8.683,8.683,0,0,0,7.867,0c2.173-1.254,2.173-3.287,0-4.543a8.7,8.7,0,0,0-7.867,0C590.259,342.9,590.259,344.936,592.432,346.19Z" transform="translate(602.609 321.93)" fill="#42e8e0"/><path d="M515.7,341.234a8.7,8.7,0,0,0,7.867,0c2.173-1.254,2.173-3.287,0-4.543a8.7,8.7,0,0,0-7.867,0C513.528,337.947,513.528,339.98,515.7,341.234Z" transform="translate(520.812 316.647)" fill="#42e8e0"/><path d="M481.38,360.122a8.688,8.688,0,0,0,7.869,0c2.173-1.254,2.173-3.287,0-4.543a8.7,8.7,0,0,0-7.869,0C479.207,356.835,479.207,358.868,481.38,360.122Z" transform="translate(484.225 336.782)" fill="#42e8e0"/><path d="M635.63,280.035a8.7,8.7,0,0,0,7.87,0c2.171-1.254,2.171-3.289,0-4.543a8.7,8.7,0,0,0-7.87,0C633.457,276.746,633.457,278.781,635.63,280.035Z" transform="translate(648.658 251.408)" fill="#42e8e0"/><g transform="translate(0 0)"><path d="M456.181,338.879l-.31-.182L307.666,253.133l.936-.537,147.584-85.211.312.18L604.7,253.129l-.936.539ZM310.16,253.133l146.022,84.306,146.028-84.31-146.024-84.3Z" transform="translate(300.781 137.167)" fill="#21c4fc"/><path d="M406.354,351.659l-.621-1.077,101.975-58.875,0-96.576.313-.18L802.1,25.164l.621,1.077L508.957,195.848l0,96.576-.313.18Z" transform="translate(405.322 -14.443)" fill="#21c4fc"/><path d="M470.7,182.775h-1.247l0-89.145.313-.18L595.228,21.018l.621,1.077L470.706,94.348Z" transform="translate(473.254 -18.862)" fill="#21c4fc"/><path d="M415.665,264.132l-.621-1.077,99.734-57.584h173.46l152.04-87.781h26.691l.143.085,107.542,62.089-.621,1.077-107.4-62H840.612l-152.04,87.781H515.112Z" transform="translate(415.247 84.19)" fill="#21c4fc"/><path d="M547.834,307.265,347.425,191.56h-119.5l-.143-.085-75.458-43.564V77.229h1.247v69.964l74.689,43.12h119.5l.143.085,200.553,115.79Z" transform="translate(135.184 41.059)" fill="#21c4fc"/><path d="M497.955,300.767,294.392,183.24l0-69.809-72.779-42.02.621-1.077,73.4,42.38,0,69.809L498.577,299.69Z" transform="translate(209.051 33.709)" fill="#21c4fc"/><path d="M429.418,303.461l-119.93-69.24,0-59.908.313-.18L517.546,54.192l.621,1.077L310.737,175.032l0,58.472,119.3,68.881Z" transform="translate(302.724 16.501)" fill="#21c4fc"/><path d="M97.182,388.812h-.168l-.143-.085L15.706,341.867l.621-1.077L97.35,387.566l183.579,0,132.655-76.588H523.29L674.234,223.83l.621,1.077L523.625,312.223H413.918L281.263,388.81Z" transform="translate(-10.453 197.338)" fill="#21c4fc"/><path d="M164.871,340.594l-.621-1.077,65.794-37.989h125.9L498.8,219.054l.621,1.077L356.282,302.774h-125.9Z" transform="translate(147.898 192.247)" fill="#21c4fc"/><path d="M412.488,269.737,307.638,209.2H232.88l-48.42,27.954-.621-1.077,48.707-28.123h75.428l.143.085L413.11,268.66Z" transform="translate(168.779 180.417)" fill="#21c4fc"/><path d="M156.929,343.889l-.621-1.077,58.373-33.7V280.137h1.247v29.689l-.313.179Z" transform="translate(139.431 257.362)" fill="#21c4fc"/><path d="M382.811,124.168h-47.72v-1.247h47.385l85.011-49.08.621,1.077Z" transform="translate(330.017 37.448)" fill="#21c4fc"/><path d="M388.032,218.838h-1.247l0-30.795L327.77,153.971V120.707h1.247v32.546l59.016,34.073Z" transform="translate(322.213 87.407)" fill="#21c4fc"/><path d="M627.154,451.773,524.322,392.4l0-96.574L412.918,231.509l.622-1.077,112.031,64.68,0,96.574L627.776,450.7Z" transform="translate(412.982 204.375)" fill="#21c4fc"/><path d="M567.188,486.4l-40.782-23.543V420.277l-39.569-22.845,0-113.191-82.628-47.706.621-1.077,83.254,48.065,0,113.191,39.569,22.845v42.575l40.156,23.184Z" transform="translate(403.701 209.733)" fill="#21c4fc"/><path d="M843.375,343.553l-32.13-18.548H742.7l-.143-.085L619.132,253.665H510.491l-.143-.085-67.829-39.162.622-1.077,67.686,39.077H619.467l.143.085,123.422,71.255H811.58l.143.085L844,342.476Z" transform="translate(444.536 186.157)" fill="#21c4fc"/><path d="M667.648,266.174l-43.023-24.836H541.656V240.09h83.3l.143.085L668.27,265.1Z" transform="translate(550.218 214.672)" fill="#21c4fc"/><path d="M771.04,470.466,611.8,378.53V330.475l-185.148-106.9.622-1.077L613.048,329.757v48.055l158.613,91.577Z" transform="translate(427.623 195.922)" fill="#21c4fc"/><path d="M425.289,259.315l-.621-1.077,71.867-41.494,200.985,0L842.61,132.975l.622,1.077L697.854,217.989l-200.985,0Z" transform="translate(425.507 100.485)" fill="#21c4fc"/><path d="M525.08,198.457h-.167l-.143-.085L483.663,174.64l.621-1.077,40.963,23.648,110.622,0v1.247Z" transform="translate(488.396 143.752)" fill="#21c4fc"/><path d="M443,557.7h-1.247l0-67.43L281.625,397.818l0-74.382.313-.18,151.537-87.489.621,1.077L282.874,324.154l0,72.946L443,489.552Z" transform="translate(273.021 210.063)" fill="#21c4fc"/><path d="M437.018,366.833l-55.165-31.848-65.172,0V333.74l65.507,0,.143.085,55.308,31.933Z" transform="translate(310.392 314.501)" fill="#21c4fc"/><rect width="128.509" height="1.244" transform="matrix(0.866, -0.5, 0.5, 0.866, 616.671, 522.456)" fill="#21c4fc"/><path d="M457.212,468.114h-1.247l0-188.376L392.677,243.2l.621-1.077,63.917,36.9Z" transform="translate(391.405 216.833)" fill="#21c4fc"/><path d="M408.669,382.236h-1.247l0-66,.313-.18,32.826-18.953.621,1.077-32.513,18.774Z" transform="translate(407.123 275.453)" fill="#21c4fc"/><path d="M825.95,269.276l-99.758-57.594-154.073,0-.143-.085-50.948-29.414H496.52l-62.689,36.192-.621-1.077,62.975-36.361h25.177l.143.085,50.948,29.414,154.073,0,.143.085,99.9,57.679Z" transform="translate(434.612 151.615)" fill="#21c4fc"/><path d="M334.36,323.12H293.849v-1.247h40.176l128.686-74.294.621,1.077Z" transform="translate(286.053 222.654)" fill="#21c4fc"/><path d="M346.984,353.451l-.621-1.077L451.609,291.61V267.016l-30.918-17.852.622-1.077L452.855,266.3v26.031l-.313.18Z" transform="translate(342.033 223.196)" fill="#21c4fc"/><path d="M343.61,304.544l-.621-1.077,47.246-27.28h39.682v1.247H390.57Z" transform="translate(338.436 253.151)" fill="#21c4fc"/><path d="M344.018,367.806l-.621-1.077,48.475-27.988V316.25l.313-.18,54.856-31.67V271.486h1.247v13.633l-.313.18-54.856,31.67v22.49l-.313.18Z" transform="translate(338.871 248.14)" fill="#21c4fc"/><path d="M342.076,293.58a8.687,8.687,0,0,0,7.87,0c2.173-1.254,2.173-3.287,0-4.543a8.7,8.7,0,0,0-7.87,0C339.9,290.293,339.9,292.326,342.076,293.58Z" transform="translate(335.725 265.847)" fill="#21c4fc"/><path d="M345.38,302.714a8.7,8.7,0,0,0,7.869,0c2.173-1.254,2.173-3.289,0-4.543a8.7,8.7,0,0,0-7.869,0C343.209,299.425,343.209,301.46,345.38,302.714Z" transform="translate(339.249 275.584)" fill="#21c4fc"/><path d="M399.9,297.436a8.7,8.7,0,0,0,7.869,0c2.173-1.254,2.173-3.289,0-4.543a8.7,8.7,0,0,0-7.869,0C397.729,294.147,397.729,296.182,399.9,297.436Z" transform="translate(397.368 269.958)" fill="#21c4fc"/><path d="M514.232,215.231a8.7,8.7,0,0,0,7.869,0c2.174-1.254,2.174-3.289,0-4.543a8.7,8.7,0,0,0-7.869,0C512.061,211.942,512.061,213.977,514.232,215.231Z" transform="translate(519.248 182.326)" fill="#21c4fc"/><path d="M587.96,231.687a8.694,8.694,0,0,0,7.87,0c2.173-1.254,2.173-3.287,0-4.543a8.694,8.694,0,0,0-7.87,0C585.789,228.4,585.789,230.431,587.96,231.687Z" transform="translate(597.843 199.866)" fill="#21c4fc"/><path d="M490.869,203.941a8.688,8.688,0,0,0,7.87,0c2.173-1.254,2.173-3.287,0-4.543a8.7,8.7,0,0,0-7.87,0C488.7,200.654,488.7,202.687,490.869,203.941Z" transform="translate(494.343 170.291)" fill="#21c4fc"/><path d="M482.54,222.22a8.7,8.7,0,0,0,7.867,0c2.173-1.256,2.173-3.289,0-4.543a8.684,8.684,0,0,0-7.867,0C480.367,218.931,480.367,220.966,482.54,222.22Z" transform="translate(485.462 189.774)" fill="#21c4fc"/><path d="M358.37,395.519a8.684,8.684,0,0,0,7.867,0c2.173-1.254,2.173-3.287,0-4.543a8.7,8.7,0,0,0-7.867,0C356.2,392.232,356.2,394.265,358.37,395.519Z" transform="translate(353.095 374.516)" fill="#21c4fc"/><path d="M374.014,353.424a8.7,8.7,0,0,0,7.869,0c2.171-1.254,2.173-3.289,0-4.543a8.7,8.7,0,0,0-7.869,0C371.841,350.135,371.841,352.17,374.014,353.424Z" transform="translate(369.772 329.642)" fill="#21c4fc"/><path d="M119.973,391.724a8.7,8.7,0,0,0,7.869,0c2.173-1.254,2.173-3.289,0-4.543a8.7,8.7,0,0,0-7.869,0C117.8,388.435,117.8,390.47,119.973,391.724Z" transform="translate(98.962 370.47)" fill="#21c4fc"/><path d="M213.038,393.683a8.7,8.7,0,0,0,7.869,0c2.171-1.254,2.171-3.289,0-4.543a8.7,8.7,0,0,0-7.869,0C210.865,390.394,210.865,392.429,213.038,393.683Z" transform="translate(198.169 372.558)" fill="#21c4fc"/><path d="M240.924,330.243a8.7,8.7,0,0,0,7.869,0c2.173-1.256,2.173-3.289,0-4.543a8.688,8.688,0,0,0-7.869,0C238.753,326.954,238.753,328.987,240.924,330.243Z" transform="translate(227.898 304.928)" fill="#21c4fc"/><path d="M556.27,189.238a8.688,8.688,0,0,0,7.869,0c2.173-1.254,2.173-3.287,0-4.543a8.7,8.7,0,0,0-7.867,0C554.1,185.951,554.1,187.984,556.27,189.238Z" transform="translate(564.061 154.617)" fill="#21c4fc"/><path d="M626.047,137.165a8.7,8.7,0,0,0,7.869,0c2.173-1.254,2.173-3.289,0-4.543a8.7,8.7,0,0,0-7.869,0C623.876,133.876,623.876,135.911,626.047,137.165Z" transform="translate(638.444 99.107)" fill="#21c4fc"/><path d="M684.694,151.972a8.7,8.7,0,0,0,7.869,0c2.171-1.256,2.171-3.289,0-4.543a8.7,8.7,0,0,0-7.869,0C682.521,148.683,682.521,150.718,684.694,151.972Z" transform="translate(700.961 114.891)" fill="#21c4fc"/><path d="M529.856,25.458a8.683,8.683,0,0,0,7.867,0c2.173-1.254,2.173-3.287,0-4.543a8.7,8.7,0,0,0-7.867,0C527.683,22.171,527.683,24.2,529.856,25.458Z" transform="translate(535.902 -19.975)" fill="#21c4fc"/><path d="M342.484,321.776a8.7,8.7,0,0,0,7.867,0c2.173-1.256,2.173-3.289,0-4.543a8.683,8.683,0,0,0-7.867,0C340.311,318.487,340.311,320.52,342.484,321.776Z" transform="translate(336.16 295.903)" fill="#21c4fc"/><path d="M406.661,342.242a8.694,8.694,0,0,0,7.869,0c2.171-1.254,2.173-3.287,0-4.543a8.694,8.694,0,0,0-7.869,0C404.488,338.953,404.488,340.986,406.661,342.242Z" transform="translate(404.574 317.72)" fill="#21c4fc"/><path d="M422.551,356a8.7,8.7,0,0,0,7.869,0c2.171-1.254,2.171-3.289,0-4.543a8.7,8.7,0,0,0-7.869,0C420.378,352.711,420.378,354.746,422.551,356Z" transform="translate(421.513 332.388)" fill="#21c4fc"/><path d="M601.727,256.384a8.7,8.7,0,0,0,7.867,0c2.174-1.256,2.174-3.289,0-4.543a8.7,8.7,0,0,0-7.867,0C599.554,253.1,599.554,255.128,601.727,256.384Z" transform="translate(612.517 226.196)" fill="#21c4fc"/><path d="M553.528,276.8a8.7,8.7,0,0,0,7.869,0c2.173-1.256,2.173-3.289,0-4.543a8.7,8.7,0,0,0-7.867,0C551.357,273.508,551.357,275.541,553.528,276.8Z" transform="translate(561.138 247.956)" fill="#21c4fc"/><path d="M622.349,227.388a8.688,8.688,0,0,0,7.87,0c2.173-1.254,2.173-3.289,0-4.543a8.7,8.7,0,0,0-7.87,0C620.176,224.1,620.176,226.134,622.349,227.388Z" transform="translate(634.5 195.285)" fill="#21c4fc"/><path d="M292.786,287.769a8.7,8.7,0,0,0,7.869,0c2.171-1.254,2.173-3.289,0-4.543a8.7,8.7,0,0,0-7.869,0C290.613,284.48,290.613,286.515,292.786,287.769Z" transform="translate(283.181 259.653)" fill="#21c4fc"/><path d="M184.153,225.05a8.7,8.7,0,0,0,7.869,0c2.173-1.254,2.173-3.289,0-4.543a8.7,8.7,0,0,0-7.869,0C181.98,221.761,181.98,223.8,184.153,225.05Z" transform="translate(167.377 192.793)" fill="#21c4fc"/><path d="M230.137,186.166a8.688,8.688,0,0,0,7.869,0c2.173-1.254,2.173-3.287,0-4.543a8.7,8.7,0,0,0-7.869,0C227.966,182.879,227.966,184.912,230.137,186.166Z" transform="translate(216.399 151.342)" fill="#21c4fc"/><path d="M256.135,199.637a8.7,8.7,0,0,0,7.869,0c2.173-1.254,2.173-3.289,0-4.543a8.7,8.7,0,0,0-7.869,0C253.964,196.348,253.964,198.383,256.135,199.637Z" transform="translate(244.113 165.703)" fill="#21c4fc"/><path d="M281.112,178.558a8.7,8.7,0,0,0,7.867,0c2.173-1.254,2.173-3.289,0-4.543a8.7,8.7,0,0,0-7.867,0C278.939,175.269,278.939,177.3,281.112,178.558Z" transform="translate(270.737 143.232)" fill="#21c4fc"/><path d="M327.009,124.635a8.7,8.7,0,0,0,7.867,0c2.173-1.254,2.173-3.289,0-4.543a8.7,8.7,0,0,0-7.869,0C324.836,121.346,324.836,123.381,327.009,124.635Z" transform="translate(319.664 85.749)" fill="#21c4fc"/><path d="M151,81.479a8.688,8.688,0,0,0,7.869,0c2.173-1.254,2.173-3.287,0-4.543a8.7,8.7,0,0,0-7.867,0C148.833,78.192,148.833,80.225,151,81.479Z" transform="translate(132.042 39.744)" fill="#21c4fc"/><path d="M220.7,74.523a8.688,8.688,0,0,0,7.869,0c2.173-1.254,2.173-3.287,0-4.543a8.7,8.7,0,0,0-7.869,0C218.53,71.236,218.53,73.269,220.7,74.523Z" transform="translate(206.34 32.329)" fill="#21c4fc"/><path d="M359.059,128.34a8.7,8.7,0,0,0,7.87,0c2.173-1.254,2.173-3.289,0-4.543a8.7,8.7,0,0,0-7.87,0C356.886,125.051,356.886,127.086,359.059,128.34Z" transform="translate(353.829 89.699)" fill="#21c4fc"/><path d="M362.6,108.707a8.7,8.7,0,0,0,7.869,0c2.173-1.254,2.173-3.289,0-4.543a8.7,8.7,0,0,0-7.869,0C360.422,105.418,360.422,107.453,362.6,108.707Z" transform="translate(357.599 68.77)" fill="#21c4fc"/><path d="M417.774,85.528a8.7,8.7,0,0,0,7.869,0c2.173-1.254,2.173-3.289,0-4.543a8.7,8.7,0,0,0-7.867,0C415.6,82.239,415.6,84.274,417.774,85.528Z" transform="translate(416.422 44.061)" fill="#21c4fc"/><path d="M398.261,78.031a8.688,8.688,0,0,0,7.869,0c2.173-1.254,2.173-3.289,0-4.543a8.7,8.7,0,0,0-7.869,0C396.088,74.742,396.088,76.777,398.261,78.031Z" transform="translate(395.619 36.069)" fill="#21c4fc"/><path d="M596.672,29.353a8.7,8.7,0,0,0,7.869,0c2.173-1.254,2.173-3.289,0-4.543a8.7,8.7,0,0,0-7.869,0C594.5,26.064,594.5,28.1,596.672,29.353Z" transform="translate(607.128 -15.823)" fill="#21c4fc"/><path d="M409.28,58.383a8.7,8.7,0,0,0,7.869,0c2.171-1.256,2.171-3.289,0-4.543a8.688,8.688,0,0,0-7.869,0C407.107,55.094,407.107,57.127,409.28,58.383Z" transform="translate(407.366 15.122)" fill="#21c4fc"/><path d="M292.059,221.959a8.7,8.7,0,0,0,7.867,0c2.173-1.254,2.173-3.289,0-4.543a8.7,8.7,0,0,0-7.867,0C289.886,218.67,289.886,220.705,292.059,221.959Z" transform="translate(282.406 189.498)" fill="#21c4fc"/><path d="M420.539,156.865a8.7,8.7,0,0,0,7.869,0c2.173-1.254,2.173-3.289,0-4.543a8.7,8.7,0,0,0-7.869,0C418.368,153.576,418.368,155.611,420.539,156.865Z" transform="translate(419.37 120.107)" fill="#21c4fc"/><path d="M531.268,118.507a8.694,8.694,0,0,0,7.87,0c2.171-1.254,2.171-3.287,0-4.543a8.7,8.7,0,0,0-7.87,0C529.095,115.22,529.095,117.253,531.268,118.507Z" transform="translate(537.407 79.217)" fill="#21c4fc"/><path d="M612.25,76.674a8.7,8.7,0,0,0,7.869,0c2.173-1.254,2.173-3.289,0-4.543a8.7,8.7,0,0,0-7.867,0C610.079,73.385,610.079,75.42,612.25,76.674Z" transform="translate(623.737 34.622)" fill="#21c4fc"/><path d="M586.932,69.909a8.7,8.7,0,0,0,7.867,0c2.173-1.254,2.173-3.289,0-4.543a8.7,8.7,0,0,0-7.867,0C584.759,66.62,584.759,68.655,586.932,69.909Z" transform="translate(596.745 27.411)" fill="#21c4fc"/><path d="M246.531,224.721a8.688,8.688,0,0,0,7.869,0c2.174-1.254,2.174-3.289,0-4.543a8.7,8.7,0,0,0-7.869,0C244.36,221.434,244.36,223.467,246.531,224.721Z" transform="translate(233.875 192.442)" fill="#21c4fc"/><path d="M155.394,314.662a8.7,8.7,0,0,0,7.869,0c2.171-1.254,2.171-3.287,0-4.543a8.7,8.7,0,0,0-7.869,0C153.221,311.375,153.221,313.408,155.394,314.662Z" transform="translate(136.72 288.321)" fill="#21c4fc"/><path d="M118.778,218.569a8.7,8.7,0,0,0,7.867,0c2.173-1.256,2.173-3.289,0-4.545a8.7,8.7,0,0,0-7.867,0C116.6,215.279,116.6,217.312,118.778,218.569Z" transform="translate(97.687 185.881)" fill="#21c4fc"/><path d="M163.335,281.013a8.7,8.7,0,0,0,7.869,0c2.173-1.254,2.173-3.289,0-4.543a8.7,8.7,0,0,0-7.869,0C161.164,277.724,161.164,279.759,163.335,281.013Z" transform="translate(145.187 252.45)" fill="#21c4fc"/><path d="M14.793,284.631a8.7,8.7,0,0,0,7.869,0c2.173-1.254,2.173-3.289,0-4.543a8.7,8.7,0,0,0-7.869,0C12.62,281.342,12.62,283.377,14.793,284.631Z" transform="translate(-13.163 256.307)" fill="#21c4fc"/><path d="M310.742,277.06a8.7,8.7,0,0,0,7.869,0c2.171-1.254,2.171-3.289,0-4.543a8.7,8.7,0,0,0-7.869,0C308.569,273.771,308.569,275.806,310.742,277.06Z" transform="translate(302.323 248.237)" fill="#21c4fc"/><rect width="53.87" height="1.244" transform="translate(801.029 564.657) rotate(-29.981)" fill="#21c4fc"/><path d="M343.664,232.53H316.743l-.143-.085-23.935-13.819.621-1.077,23.791,13.734h26.586Z" transform="translate(284.791 190.643)" fill="#21c4fc"/><path d="M231.673,202.532l-.621-1.077,65.38-37.749H340.9l.143.085,57.59,33.246h36.347v1.247H398.3l-.143-.085-57.59-33.246h-43.8Z" transform="translate(219.109 133.245)" fill="#21c4fc"/><path d="M373.68,225.974l-65.289-37.693H286.917L258.2,204.856l-.621-1.077,29-16.744h22.143l.143.085L374.3,224.9Z" transform="translate(247.393 158.114)" fill="#21c4fc"/><path d="M330.677,228.614H329.43v-25.8l-47.405-27.371.622-1.077,48.031,27.73Z" transform="translate(273.448 144.612)" fill="#21c4fc"/><path d="M513.8,243.94H465.291v-1.247h48.178l54.824-31.652.621,1.077Z" transform="translate(468.811 183.705)" fill="#21c4fc"/><path d="M121.509,557.393l-.621-1.077,166.964-96.4,0-61.266.313-.18L581.344,229.206l.621,1.077L289.1,399.371l0,61.266-.313.18Z" transform="translate(101.673 203.069)" fill="#21c4fc"/><path d="M546.29,213.253l-41.512-23.967H488.252l-22.141,12.786H440.755v-1.247h25.02l22.141-12.786h17.2l.143.085,41.655,24.052Z" transform="translate(442.657 159.184)" fill="#21c4fc"/><path d="M403.625,281.911,403,280.834l78.7-45.442,0-51.5-89.446-51.64V112.857l.313-.18,54.279-31.339.621,1.077-53.967,31.16V131.53l89.446,51.64,0,52.94-.313.18Z" transform="translate(390.964 45.44)" fill="#21c4fc"/><path d="M407.531,194.623h-1.247l0-23.854.313-.18,31.027-17.914.621,1.077-30.714,17.735Z" transform="translate(405.909 121.486)" fill="#21c4fc"/><path d="M485.464,254.754l-.621-1.077L671.764,145.756l0-28.2.313-.18,77.653-44.833.621,1.077-77.34,44.653,0,28.2-.313.18Z" transform="translate(489.654 36.069)" fill="#21c4fc"/><path d="M519.021,183.668h-1.247V149.3l.313-.18,144.454-83.4.621,1.077L519.021,150.019Z" transform="translate(524.759 28.79)" fill="#21c4fc"/><path d="M463.566,209.865l-.621-1.077,94.165-54.366,0-11.886.313-.18,48.563-28.039.621,1.077-48.251,27.859,0,11.886-.313.18Z" transform="translate(466.311 80.597)" fill="#21c4fc"/><path d="M242.46,370.2l-.621-1.077,55.446-32.013V301.279l27.068-15.626.621,1.077L298.531,302v35.826l-.313.18Z" transform="translate(230.608 263.242)" fill="#21c4fc"/><path d="M322.961,243.722H285.741l-.143-.085-38.153-22.028.621-1.077,38.009,21.943h36.886Z" transform="translate(236.585 193.822)" fill="#21c4fc"/><path d="M255.772,293.927H255.6l-.143-.085L120.341,215.83l.621-1.077L255.94,292.68l170.251,0v1.247Z" transform="translate(101.091 187.661)" fill="#21c4fc"/><path d="M416.089,222.875h-1.247l0-65.965-54.437-31.43.621-1.077,55.062,31.789Z" transform="translate(357.005 91.346)" fill="#21c4fc"/><path d="M412.471,205.482l-.622-1.077L451.5,181.513V156.4l-87.989-50.8.621-1.077,88.615,51.162v26.551l-.313.18Z" transform="translate(360.31 70.149)" fill="#21c4fc"/><path d="M649.337,303.372,549.97,246.005H465.425v-1.247h84.88l.143.085,99.51,57.451Z" transform="translate(468.955 219.648)" fill="#21c4fc"/><path d="M623.894,236.814l-.143-.085-27.086-15.636H499.975v-1.247H597l.143.085,27.086,15.636,59.725,0v1.247Z" transform="translate(505.786 193.091)" fill="#21c4fc"/><path d="M524.051,232.539,478.944,206.5H445.058v-1.247h34.22l.143.085,45.25,26.126Z" transform="translate(447.243 177.532)" fill="#21c4fc"/><path d="M214.572,466.624l-.621-1.077,66.407-38.341V369.767l.313-.179,89.089-51.437.621,1.078L281.6,370.485v57.439l-.313.179Z" transform="translate(200.88 297.886)" fill="#21c4fc"/></g></g></g></g></g></g><g transform="translate(278 191.625)"><g transform="translate(0 347.398)"><path d="M614.461,361.109,457.373,451.731a16.227,16.227,0,0,1-14.644,0L285.677,361.122c-2.027-1.155-3.04-2.677-3.04-4.225a4.324,4.324,0,0,1,1.6-3.181,7.325,7.325,0,0,1,1.436-1.042l157.089-90.595a16.164,16.164,0,0,1,14.645,0L614.461,352.66C618.489,355,618.489,358.8,614.461,361.109Z" transform="translate(-282.637 -220.957)" fill="#6b99d1" opacity="0.15" style="mix-blend-mode:multiply;isolation:isolate"/><path d="M344.881,386.987l-12.782-7.38c-8.67-5.007-20.646-6.209-26.746-2.686s-4.017,10.436,4.653,15.439l12.784,7.38c8.671,5.007,20.644,6.211,26.746,2.688S353.551,391.992,344.881,386.987Z" transform="translate(-267.017 -127.832)" fill="#6b99d1" opacity="0.15" style="mix-blend-mode:multiply;isolation:isolate"/><path d="M614.461,353.993l-157.087,90.6a14.805,14.805,0,0,1-7.322,1.746,14.992,14.992,0,0,1-7.295-1.719l-157.08-90.61c-2.027-1.184-3.04-2.7-3.04-4.224,0-1.55,1.013-3.071,3.04-4.226l21.293-12.28,135.8-78.344a16.175,16.175,0,0,1,14.645,0l157.049,90.611C618.489,347.854,618.489,351.657,614.461,353.993Z" transform="translate(-282.637 -226.763)" fill="#dceeff"/><path d="M450.051,385.778v30.529a14.992,14.992,0,0,1-7.295-1.719l-157.08-90.61c-2.027-1.184-3.04-2.7-3.04-4.224V293.307a4.324,4.324,0,0,1,1.6-3.181L306.97,303.25Z" transform="translate(-282.637 -196.735)" fill="#a5cbfa"/><path d="M374.99,385.783v30.529a14.993,14.993,0,0,0,7.295-1.718L539.4,323.972c2.03-1.182,3.042-2.7,3.042-4.224V293.3a4.329,4.329,0,0,0-1.6-3.181l-22.73,13.124Z" transform="translate(-207.576 -196.741)" fill="#c8e2ff"/><path d="M614.461,339.391,457.373,430.013a16.227,16.227,0,0,1-14.644,0L285.677,339.4c-2.027-1.155-3.04-2.676-3.04-4.226a4.324,4.324,0,0,1,1.6-3.181,7.328,7.328,0,0,1,1.436-1.042L442.766,240.36a16.175,16.175,0,0,1,14.645,0l157.049,90.582C618.489,333.279,618.489,337.082,614.461,339.391Z" transform="translate(-282.637 -238.607)" fill="#dceeff"/><path d="M344.881,386.987l-12.782-7.38c-8.67-5.007-20.646-6.209-26.746-2.686s-4.017,10.436,4.653,15.439l12.784,7.38c8.671,5.007,20.644,6.211,26.746,2.688S353.551,391.992,344.881,386.987Z" transform="translate(-267.017 -127.832)" fill="#6b99d1" opacity="0.15" style="mix-blend-mode:multiply;isolation:isolate"/><g transform="translate(-282.637 -238.607)" fill="none" stroke-miterlimit="10"><path d="M614.461,339.391,457.373,430.013a16.227,16.227,0,0,1-14.644,0L285.677,339.4c-2.027-1.155-3.04-2.676-3.04-4.226a4.324,4.324,0,0,1,1.6-3.181,7.328,7.328,0,0,1,1.436-1.042L442.766,240.36a16.175,16.175,0,0,1,14.645,0l157.049,90.582C618.489,333.279,618.489,337.082,614.461,339.391Z" stroke="none"/><path d="M 450.0514831542969 430.7591857910156 C 452.6711120605469 430.7591857910156 455.0922546386719 430.1876831054688 456.8689575195312 429.1499938964844 L 456.8735961914062 429.1473388671875 L 613.9632568359375 338.5237731933594 C 615.5841064453125 337.5944519042969 616.4784545898438 336.4081115722656 616.4815673828125 335.1831970214844 C 616.4846801757812 333.9515991210938 615.5887451171875 332.7525634765625 613.9609985351562 331.8082275390625 L 456.9122314453125 241.226318359375 C 455.0995178222656 240.1822814941406 452.672119140625 239.6072845458984 450.0771179199219 239.6072845458984 C 447.4832763671875 239.6072845458984 445.0650634765625 240.1816864013672 443.2655639648438 241.2260589599609 L 286.1600952148438 331.8302307128906 C 285.7213745117188 332.072265625 285.3044738769531 332.3751831054688 284.9210510253906 332.7304992675781 L 284.908203125 332.7422485351562 C 284.0884399414062 333.4758605957031 283.636962890625 334.341064453125 283.636962890625 335.1784057617188 C 283.636962890625 336.4115600585938 284.5372924804688 337.6036376953125 286.172119140625 338.53515625 L 286.1767578125 338.5378112792969 L 443.2340087890625 429.1499938964844 C 445.0108032226562 430.1876831054688 447.4319763183594 430.7591857910156 450.0514831542969 430.7591857910156 M 450.0514831542969 431.7591857910156 C 447.4048461914062 431.7591857910156 444.7564392089844 431.1971740722656 442.7297058105469 430.0135192871094 L 285.677001953125 339.4040222167969 C 283.650390625 338.2492370605469 282.636962890625 336.7283630371094 282.636962890625 335.1784057617188 C 282.636962890625 334.0799255371094 283.1718444824219 332.9541931152344 284.2413330078125 331.9970397949219 C 284.636474609375 331.630859375 285.1150512695312 331.2646789550781 285.677001953125 330.9546508789062 L 442.7659606933594 240.3597869873047 C 446.7921447753906 238.0230560302734 453.3543395996094 238.0230865478516 457.4113464355469 240.3597869873047 L 614.4606323242188 330.9420166015625 C 618.488525390625 333.2786865234375 618.488525390625 337.0818786621094 614.4606323242188 339.3912658691406 L 457.373291015625 430.0135192871094 C 455.3466491699219 431.1971740722656 452.6999206542969 431.7591857910156 450.0514831542969 431.7591857910156 Z" stroke="none" fill="#fff"/></g><path d="M430.451,250.246,302.807,323.863c-2.694,1.555-2.694,4.079,0,5.632L430.417,403.1a10.787,10.787,0,0,0,9.758,0l127.642-73.617c2.694-1.555,2.694-4.077,0-5.634l-127.61-73.6A10.783,10.783,0,0,0,430.451,250.246Z" transform="translate(-267.886 -230.096)" fill="#344593"/><path d="M507.494,323.85l-127.61-73.6a9.972,9.972,0,0,0-4.878-1.167v4.958L506.651,329.97l.843-.486C510.188,327.929,510.188,325.407,507.494,323.85Z" transform="translate(-207.563 -230.096)" fill="#1e3779"/><path d="M435.331,249.08a9.962,9.962,0,0,0-4.88,1.166L302.807,323.862c-2.694,1.555-2.694,4.079,0,5.632l.843.488,131.683-75.946Z" transform="translate(-267.886 -230.095)" fill="#031f60"/></g><path d="M393.643,293.445,431.43,271.7a.647.647,0,0,0,0-1.225l-37.787-21.817a2.346,2.346,0,0,0-2.125,0l-37.726,21.815a.648.648,0,0,0,0,1.227l37.724,21.746A2.357,2.357,0,0,0,393.643,293.445Z" transform="translate(-225.161 116.752)" fill="none" stroke="#fff" stroke-linecap="round" stroke-miterlimit="10" stroke-width="1"/><g transform="translate(74.207 342.114)"><g transform="translate(0 53.835)"><path d="M375.011,265.39v87.394a12.679,12.679,0,0,0,6.2-1.483l80.848-46.679a13.7,13.7,0,0,0,6.2-10.733v-28.5Z" transform="translate(-281.766 -265.39)" fill="#6cffe6"/><path d="M323.573,265.39v28.5a13.693,13.693,0,0,0,6.2,10.732L410.622,351.3a12.666,12.666,0,0,0,6.2,1.483V265.39Z" transform="translate(-323.573 -265.39)" fill="#41e5c9"/></g><path d="M410.591,341.9l-84.453-48.791c-3.421-1.976-3.421-5.179,0-7.155l84.48-48.776a13.694,13.694,0,0,1,12.392,0l84.482,48.776c3.422,1.976,3.422,5.179,0,7.155L422.982,341.9A13.684,13.684,0,0,1,410.591,341.9Z" transform="translate(-323.573 -235.693)" fill="#abffef"/><path d="M335.313,282.448l69.222-39.981a9.13,9.13,0,0,1,8.261,0l69.253,39.984c2.281,1.318,2.281,3.451,0,4.768L412.766,327.2a9.13,9.13,0,0,1-8.261,0l-69.193-39.981C333.031,285.9,333.033,283.766,335.313,282.448Z" transform="translate(-315.422 -230.99)" fill="none" stroke="#fff" stroke-linecap="round" stroke-miterlimit="10" stroke-width="1"/><path d="M402.587,247.759l54.477,31.169a1.259,1.259,0,0,1,0,2.386l-54.477,31.205a4.57,4.57,0,0,1-4.131,0l-54.015-31.194a1.26,1.26,0,0,1,0-2.387l54.015-31.176A4.564,4.564,0,0,1,402.587,247.759Z" transform="translate(-307.308 -226.286)" fill="none" stroke="#fff" stroke-linecap="round" stroke-miterlimit="10" stroke-width="1"/><g transform="translate(0.024 79.101)"><path d="M344.995,284.806a6.482,6.482,0,0,0-2.931-5.079,2.041,2.041,0,0,0-2.1-.189l0,0L328,286.447a9.8,9.8,0,0,0-4.418,7.652v16.433h0a2.061,2.061,0,0,0,1.213,1.693,6.488,6.488,0,0,0,5.861,0,2.054,2.054,0,0,0,1.213-1.693V294.372a1.022,1.022,0,0,1,.509-.883l11.741-6.782.024-.013.029-.018,0,0A2.082,2.082,0,0,0,344.995,284.806Z" transform="translate(-323.586 -279.328)" fill="url(#c)"/><path d="M354.89,290.543a6.482,6.482,0,0,0-2.931-5.078,2.032,2.032,0,0,0-2.1-.187l0,0L337.9,292.184a9.808,9.808,0,0,0-4.418,7.653V316.27h0a2.064,2.064,0,0,0,1.215,1.691,6.479,6.479,0,0,0,5.859,0,2.052,2.052,0,0,0,1.213-1.693V300.109a1.02,1.02,0,0,1,.511-.883l11.739-6.78.024-.013.031-.018,0-.005A2.073,2.073,0,0,0,354.89,290.543Z" transform="translate(-315.544 -274.664)" fill="url(#c)"/><path d="M364.784,296.282a6.485,6.485,0,0,0-2.931-5.079,2.04,2.04,0,0,0-2.1-.185v0l-11.962,6.908a9.808,9.808,0,0,0-4.418,7.654v16.433h0a2.061,2.061,0,0,0,1.213,1.691,6.467,6.467,0,0,0,5.859,0,2.06,2.06,0,0,0,1.215-1.691V305.848a1.02,1.02,0,0,1,.509-.883l11.741-6.78.022-.013.031-.018,0-.005A2.075,2.075,0,0,0,364.784,296.282Z" transform="translate(-307.501 -269.999)" fill="url(#c)"/><path d="M374.681,302.022a6.476,6.476,0,0,0-2.931-5.078,2.037,2.037,0,0,0-2.1-.189l0,0-11.962,6.91a9.8,9.8,0,0,0-4.418,7.65v16.435h0a2.051,2.051,0,0,0,1.213,1.69,6.476,6.476,0,0,0,5.861,0,2.053,2.053,0,0,0,1.213-1.693V311.589a1.021,1.021,0,0,1,.509-.885l11.743-6.782.022-.013.029-.016,0-.005A2.079,2.079,0,0,0,374.681,302.022Z" transform="translate(-299.458 -265.335)" fill="url(#c)"/></g><g transform="translate(111.242 79.101)"><path d="M414.626,284.806a6.482,6.482,0,0,1,2.931-5.079,2.041,2.041,0,0,1,2.1-.189l0,0,11.962,6.91a9.8,9.8,0,0,1,4.416,7.652v16.433h0a2.058,2.058,0,0,1-1.211,1.693,6.488,6.488,0,0,1-5.861,0,2.054,2.054,0,0,1-1.213-1.693V294.372a1.016,1.016,0,0,0-.511-.883L415.5,286.708l-.022-.013-.031-.018,0,0A2.082,2.082,0,0,1,414.626,284.806Z" transform="translate(-360.81 -279.328)" fill="url(#g)"/><path d="M404.73,290.543a6.479,6.479,0,0,1,2.933-5.078,2.032,2.032,0,0,1,2.1-.187l0,0,11.961,6.907a9.808,9.808,0,0,1,4.418,7.653V316.27h0a2.061,2.061,0,0,1-1.213,1.691,6.479,6.479,0,0,1-5.859,0,2.048,2.048,0,0,1-1.213-1.693V300.109a1.018,1.018,0,0,0-.513-.883l-11.74-6.78-.023-.013-.029-.018,0-.005A2.074,2.074,0,0,1,404.73,290.543Z" transform="translate(-368.854 -274.664)" fill="url(#h)"/><path d="M394.835,296.282a6.485,6.485,0,0,1,2.931-5.079,2.04,2.04,0,0,1,2.1-.185l0,0,11.962,6.908a9.806,9.806,0,0,1,4.416,7.654v16.433h0a2.059,2.059,0,0,1-1.211,1.691,6.47,6.47,0,0,1-5.861,0,2.057,2.057,0,0,1-1.213-1.691V305.848a1.02,1.02,0,0,0-.509-.883l-11.743-6.78-.02-.013-.031-.018,0-.005A2.079,2.079,0,0,1,394.835,296.282Z" transform="translate(-376.896 -269.999)" fill="url(#i)"/><path d="M384.939,302.022a6.478,6.478,0,0,1,2.933-5.078,2.037,2.037,0,0,1,2.1-.189l0,0,11.961,6.91a9.8,9.8,0,0,1,4.42,7.65v16.435h0a2.054,2.054,0,0,1-1.215,1.69,6.472,6.472,0,0,1-5.859,0,2.053,2.053,0,0,1-1.213-1.693V311.589a1.023,1.023,0,0,0-.511-.885l-11.741-6.782-.022-.013-.029-.016,0-.005A2.076,2.076,0,0,1,384.939,302.022Z" transform="translate(-384.939 -265.335)" fill="url(#j)"/></g></g><g transform="translate(75.503 111.72)"><path d="M138.343,193.284,57.321,240.063c-4.259,2.457-4.259,6.446,0,8.9l81.022,46.779a17.05,17.05,0,0,0,15.421,0l81.022-46.779c4.259-2.457,4.259-6.446,0-8.9l-81.022-46.779A17.05,17.05,0,0,0,138.343,193.284Z" transform="translate(-54.127 -24.396)" fill="#e9fffb" opacity="0.2"/><path d="M138.343,204.833,57.321,251.612c-4.259,2.457-4.259,6.443,0,8.9l81.022,46.779a17.05,17.05,0,0,0,15.421,0l81.022-46.779c4.259-2.46,4.259-6.446,0-8.9l-81.022-46.779A17.05,17.05,0,0,0,138.343,204.833Z" transform="translate(-54.127 -1.67)" fill="#6b99d1" opacity="0.15" style="mix-blend-mode:multiply;isolation:isolate"/><path d="M138.343,193.284,57.321,240.063c-4.259,2.457-4.259,6.446,0,8.9l81.022,46.779a17.05,17.05,0,0,0,15.421,0l81.022-46.779c4.259-2.457,4.259-6.446,0-8.9l-81.022-46.779A17.05,17.05,0,0,0,138.343,193.284Z" transform="translate(-54.127 -24.396)" fill="none" stroke="#eef7ff" stroke-miterlimit="10" stroke-width="1"/><path d="M237.984,153.035V258.126a17.047,17.047,0,0,1-7.716,13.355l-76.511,44.161a15.944,15.944,0,0,1-7.716,1.84,15.745,15.745,0,0,1-7.687-1.84L61.843,271.482a17.047,17.047,0,0,1-7.716-13.355V153.035Z" transform="translate(-54.126 -99.973)" fill="#c8e2ff"/><path d="M146.041,153.035V317.483a15.745,15.745,0,0,1-7.687-1.84L61.843,271.482a17.047,17.047,0,0,1-7.716-13.355V153.035Z" transform="translate(-54.126 -99.973)" fill="#a5cbfa"/><path d="M138.343,137,57.321,183.778c-4.259,2.457-4.259,6.443,0,8.9l81.022,46.779a17.05,17.05,0,0,0,15.421,0l81.022-46.779c4.259-2.46,4.259-6.446,0-8.9L153.764,137A17.05,17.05,0,0,0,138.343,137Z" transform="translate(-54.127 -135.156)" fill="#dceeff"/><g transform="translate(121.652 104.065)"><path d="M95.117,182.01v30.806c0,3.294,2.315,4.63,5.134,3l.89-.534,25.82-14.9a10.421,10.421,0,0,0,3.65-3.858L96.66,176.935A10.294,10.294,0,0,0,95.117,182.01Z" transform="translate(-95.117 -157.007)" fill="#031f60"/><path d="M131.073,174.894l-.03-1.009c.03-3.265-2.285-4.6-5.134-2.968l-.475.267L99.258,186.29a10.345,10.345,0,0,0-3.621,3.858l33.952,19.588a10.171,10.171,0,0,0,1.484-5.016Z" transform="translate(-94.094 -170.22)" fill="#1e3779"/><path d="M126.487,200.253a10.02,10.02,0,0,1-1.514,5.045,10.574,10.574,0,0,1-3.621,3.858l-25.85,14.9-.386.237V194.585a11.658,11.658,0,0,1,5.164-8.933l26.176-15.106Z" transform="translate(-95.117 -169.581)" fill="#344593"/></g><g transform="translate(25.197 104.065)"><path d="M98.612,182.01v30.806c0,3.294-2.315,4.63-5.134,3l-.89-.534-25.82-14.9a10.421,10.421,0,0,1-3.65-3.858l33.952-19.588A10.294,10.294,0,0,1,98.612,182.01Z" transform="translate(-61.632 -157.007)" fill="#031f60"/><path d="M62.618,174.894l.03-1.009c-.03-3.265,2.285-4.6,5.134-2.968l.475.267L94.433,186.29a10.345,10.345,0,0,1,3.621,3.858L64.1,209.736a10.171,10.171,0,0,1-1.484-5.016Z" transform="translate(-62.617 -170.22)" fill="#1e3779"/><path d="M64.508,200.253a10.02,10.02,0,0,0,1.514,5.045,10.575,10.575,0,0,0,3.621,3.858l25.85,14.9.386.237V194.585a11.658,11.658,0,0,0-5.164-8.933L64.537,170.545Z" transform="translate(-58.897 -169.581)" fill="#344593"/></g><path d="M138.343,137,57.321,183.778c-4.259,2.457-4.259,6.443,0,8.9l81.022,46.779a17.05,17.05,0,0,0,15.421,0l81.022-46.779c4.259-2.46,4.259-6.446,0-8.9L153.764,137A17.05,17.05,0,0,0,138.343,137Z" transform="translate(-54.127 -135.156)" fill="#dceeff"/><g transform="translate(57.959 33.474)"><path d="M139.427,168.991l-.861.5-25.82,14.928a10.153,10.153,0,0,1-5.1,1.217,10.459,10.459,0,0,1-5.164-1.217L76.657,169.5l-.89-.5c-2.819-1.632-2.819-4.3.03-5.936l26.681-15.4a10.459,10.459,0,0,1,5.164-1.217,10.67,10.67,0,0,1,5.134,1.217l26.651,15.4C142.276,164.687,142.276,167.358,139.427,168.991Z" transform="translate(-73.656 -146.435)" fill="#1e3779"/><path d="M107.641,146.435V185.64a10.459,10.459,0,0,1-5.164-1.217L76.657,169.5l-.89-.5c-2.819-1.632-2.819-4.3.03-5.936l26.681-15.4A10.459,10.459,0,0,1,107.641,146.435Z" transform="translate(-73.656 -146.435)" fill="#031f60"/><path d="M136.576,164.883l-25.82,14.928a11.379,11.379,0,0,1-10.269,0l-25.82-14.928,25.82-14.869a11.349,11.349,0,0,1,10.3,0Z" transform="translate(-71.666 -141.823)" fill="#344593"/></g></g><path d="M383.882,119.464a15.11,15.11,0,0,1-8.825,2.1c-.049,0-.094-.005-.141-.005.044,0,.085.005.129.005V568.543a10.746,10.746,0,0,0,5.884-1.784l125.1-72.226c2.328-1.285,3.45-2.418,3.45-3.979V46.973Z" transform="translate(-207.636 -46.964)" opacity="0.3" fill="url(#k)"/><path d="M435.128,121.567a19.61,19.61,0,0,1-2.228-.087c-.045-.005-.089-.016-.136-.022a17.727,17.727,0,0,1-2.11-.352c-.453-.107-.886-.265-1.323-.408-.272-.089-.553-.149-.818-.252a16.023,16.023,0,0,1-2.034-.946L300.833,46.968V490.555a4.151,4.151,0,0,0,2.436,3.4l126.125,72.823a9.831,9.831,0,0,0,5.7,1.755c.054,0,.107.018.161.018V121.573C435.213,121.573,435.172,121.567,435.128,121.567Z" transform="translate(-267.976 -46.968)" opacity="0.5" fill="url(#l)"/></g><g transform="translate(300.694 610.814)"><g transform="translate(0)"><g transform="translate(10.407 161.888)"><path d="M313.524,384.5s-.562.984-3.6-.292-3.892-2.794-3.892-2.794.79-6.1,2.67-4.565S313.524,384.5,313.524,384.5Z" transform="translate(-302.775 -363.158)" fill="#291d51"/><path d="M307.033,369.184c.053,3.2.132,5.645-1.082,7.358a6.629,6.629,0,0,0-1.318,2.88s3.613.509,5.447,2.995,1.731,4.972,3.435,5.382,4.545-1.543,4.545-1.543a2.971,2.971,0,0,1-2.507-2.333c-.7-2.259-2.513-7.09-2.58-8.36s0-6.172,0-6.172Z" transform="translate(-303.914 -369.184)" fill="#ffa8a7"/><path d="M307.32,373.7a6.948,6.948,0,0,1,4.784,3.674c.8,1.82,2.13,4.38,3.152,4.953s2.833-.263,4.378-.272,2.636.705,2.723,1.831l-6.428,3.045c-1.483.7-2.734.723-3.9-2.355s-1.606-4.811-2.529-2.719-1.309,6.805-1.309,6.805a1.493,1.493,0,0,1-1.871-.783,30.743,30.743,0,0,0-.227-4.11c-.265-1.893-1.983-4.276-1.853-6.555S305.614,373.6,307.32,373.7Z" transform="translate(-304.236 -365.515)" fill="#2d2979"/><g transform="translate(23.578 11.618)"><path d="M326.848,391.428s-.58,1.019-3.721-.3-4.024-2.889-4.024-2.889.818-6.307,2.761-4.72S326.848,391.428,326.848,391.428Z" transform="translate(-315.732 -369.361)" fill="#291d51"/><path d="M320.135,375.593c.056,3.306.138,5.839-1.119,7.61a6.852,6.852,0,0,0-1.363,2.978s3.736.528,5.634,3.1,1.791,5.139,3.551,5.567,4.7-1.6,4.7-1.6a3.077,3.077,0,0,1-2.591-2.413c-.729-2.337-2.6-7.331-2.668-8.647s-.312-6.6-.312-6.6Z" transform="translate(-316.91 -375.593)" fill="#ffa8a7"/><path d="M320.43,380.267c1.624.1,4.119,1.918,4.949,3.8s2.2,4.528,3.261,5.119,2.929-.27,4.525-.281,2.728.732,2.819,1.894l-6.649,3.151c-1.534.725-2.828.75-4.032-2.435s-1.66-4.976-2.616-2.814-1.354,7.037-1.354,7.037a1.544,1.544,0,0,1-1.932-.808,32.114,32.114,0,0,0-.234-4.251c-.276-1.958-2.052-4.421-1.916-6.778S318.668,380.158,320.43,380.267Z" transform="translate(-317.243 -371.799)" fill="#2d2979"/></g></g><path d="M310.441,296.833c-2.884.834-4.539,4.032-7.073,10.866s-5.177,16.8-4.844,19.437c.816,6.443,4.818,11.946,11.718,16.512l3.078-5.641s-6.764-5.445-7.412-11.888c-.363-3.62,4.334-15.936,4.334-16.266S310.441,296.833,310.441,296.833Z" transform="translate(-298.495 -266.101)" fill="#ffa8a7"/><path d="M305.9,392.089a33.478,33.478,0,0,1,1.354-9.89s-2.473-12.155-3.381-21.525c-1.342-13.821-3.787-17.131-1.581-25.315,2.03-7.538,5.243-12.8,7.387-18.1l22.558,1.778s1.96,6.4,4.494,19.13,3.685,27.768,3.441,47.832c-.063,5.17-.105,9.785-.408,22.672-.2,8.661-.3,20.327-.3,20.327a5.886,5.886,0,0,1-6.419-.272s-5.339-25.7-6.194-31.593c-.885-6.1.787-9.736.787-9.736s-1.693-8.063-2.949-14.4c-1.534-7.731-5.322-24.44-5.322-24.44s-.112,25.564-.473,30.723-.152,9.28-1.108,16.157c-1.155,8.322-2.19,22.326-2.19,22.326a7.752,7.752,0,0,1-6.169-1.09S305.9,399.365,305.9,392.089Z" transform="translate(-296.129 -249.496)" fill="#7fa8e6"/><path d="M317.067,336.35s-.112,25.562-.473,30.723c-.045.645-.087,1.22-.131,1.751l0,.042c-.007.1-.016.185-.023.277l-2.629-29.9c-7.266-2.09-9.571-6.963-9.571-6.963C309.136,337.205,317.067,336.35,317.067,336.35Z" transform="translate(-293.829 -237.289)" fill="#597bc6"/><path d="M306.51,310.482c4.8-.29,5.266.506,5.65-1.2.138-.611.4-4.84.4-4.84a14.837,14.837,0,0,1-1.2-1.775,12.292,12.292,0,0,1,5.17-22.725c6.372-.665,11.06,3.812,12.312,9.959.673,3.036,1.369,9.238-.515,14.2-1.068,2.813-2.054,4.782-4.6,4.681a15.764,15.764,0,0,1-2.509-.444,23.3,23.3,0,0,0-.138,3.526c.065,1.229-.141,1.847,2.264,3.328s-3.638,4.528-7.586,4.227-8.389-2.679-9.608-5.234C304.8,311.344,304.25,310.617,306.51,310.482Z" transform="translate(-293.229 -279.88)" fill="#ffa8a7"/><path d="M306.155,306.026c-1.358-2.85-1.905-3.577.355-3.713,4.8-.29,5.266.506,5.65-1.2.138-.611.4-4.84.4-4.84a14.834,14.834,0,0,1-1.2-1.775,12.413,12.413,0,0,1-4.209-4.305l.288-.268,10.262,5.293,1.9-.419,1.523-1.713a25.035,25.035,0,0,0,.707,4.314c.462,1.341,3.555,2.884,3.582,2.9a3.521,3.521,0,0,1-1.688.321,15.78,15.78,0,0,1-2.509-.444,23.3,23.3,0,0,0-.138,3.526c.065,1.229-.141,1.847,2.264,3.328s-3.638,4.528-7.586,4.227S307.373,308.581,306.155,306.026Z" transform="translate(-293.229 -271.712)" fill="#f28f8f"/><path d="M309.8,303.087c-3.089-2.826-4.066-5.629-4.479-9.591a12.337,12.337,0,0,1,10.991-13.55,10.627,10.627,0,0,1,10.2,4.815,6.748,6.748,0,0,1-1.153,1.6,2.909,2.909,0,0,1-.439,2.69,3.675,3.675,0,0,0-.765,3,16.456,16.456,0,0,1,.185,3.852,3.5,3.5,0,0,1-1.854,2.6,16.527,16.527,0,0,0-.923-4.207,2.324,2.324,0,0,0-4.2.2,5.38,5.38,0,0,0,.413,5.382,2.629,2.629,0,0,0,3.131,1.38,3.369,3.369,0,0,1-2.7,3.772,9.248,9.248,0,0,1-6.546-.654A12.02,12.02,0,0,1,309.8,303.087Z" transform="translate(-293.004 -279.88)" fill="#543354"/><path d="M315.305,280.9c1.677-.323,6.426.64,6.374,5.576a8.08,8.08,0,0,1-6.174,7.837Z" transform="translate(-284.833 -279.097)" fill="#543354"/><path d="M312.855,296.747c-.885,1.106-.986,2.5,2.445,3.363a10.809,10.809,0,0,0,7.5-.578,50.473,50.473,0,0,1,7.764,4.113c7.666,5.322,9.515,14.569,1.784,17.754-.471,3.473-1.046,12.416-1.193,14.45-6.539,4.568-19.821,3.011-22.8-1.833a39.212,39.212,0,0,0-.453-4.835c-3.122-11.567-5.558-14.638-4.688-23.363.5-4.992.881-7.5,3.535-8.837C308.352,296.48,311.889,296.683,312.855,296.747Z" transform="translate(-294.804 -266.248)" fill="#f5fbfb"/><path d="M320.824,301.216s-.8-2.161-.979-2.676a1,1,0,0,0-.783-.591s-.89,1.1-3.767.8-5.168-1.6-5.072-2.623l.063-.656a1.665,1.665,0,0,0-1.4.475c-.587.618-1.425,1.747-1.425,1.747s-.473,2.371,3.388,3.809A13.045,13.045,0,0,0,320.824,301.216Z" transform="translate(-291.222 -267.217)" fill="#e4f2f2"/><path d="M350.786,354.284c-1.568-.232-2.839-1.021-5.074-1.173a16.476,16.476,0,0,1-4.976-.9c-1.729-.616-3.756-2.8-6.923-7.166a52.658,52.658,0,0,1-7.349-16.289,124.105,124.105,0,0,1-2.362-21.612c.007-4.39-1.987-6.133-4.291-6.992-2.7-1.006-4.586-.069-4.381,5.971s1.222,17.163,3.6,25.052a53.483,53.483,0,0,0,7.993,16.367,45.856,45.856,0,0,0,8.884,9.843c1.169,1.03,1.782,2.083,3.78,4.307a18.535,18.535,0,0,0,7.226,5.074c2.382.761,3.363.658,3.727.245.457-.52.143-1.1-.9-1.57a15.248,15.248,0,0,1-4.7-2.745s2.244,1.147,3.645,1.715a15.027,15.027,0,0,0,3.9,1.008c1.292.131,2.549-1.334,1.506-1.836s-1.992-.607-4.057-1.477a14.966,14.966,0,0,1-3.1-1.744,28.26,28.26,0,0,0,4.336,1.155,6.309,6.309,0,0,0,3.548-.178c.591-.221,1.044-1.283-.335-1.735-1.24-.406-2.978-.386-5.223-1.526-1.631-.827-2.668-1.637-2.328-1.773s1.263.417,2.859.4c1.523-.009,3.011-.928,2.938-1.784S352.354,354.518,350.786,354.284Z" transform="translate(-284.744 -263.689)" fill="#ffa8a7"/></g></g><g transform="translate(599.872 211.36)"><path d="M226.771,435.766c-28.908,16.69-28.908,43.752,0,60.442s75.776,16.69,104.684,0,28.906-43.752,0-60.442S255.677,419.076,226.771,435.766Z" transform="translate(-193.149 -113.691)" fill="#6b99d1" opacity="0.15" style="mix-blend-mode:multiply;isolation:isolate"/><g transform="translate(0 0)"><path d="M339.007,437.83l-1.032-1.908h-1.417a54.823,54.823,0,0,0-5.981-3.945c-28.646-16.526-75.053-16.526-103.7,0a63.537,63.537,0,0,0-6.007,3.945h-1.394l-1.03,1.933c-4.879,8.984-13.019,21.115-13.019,23.978-.053,10.854,7.115,21.735,21.45,30.01,28.646,16.528,75.053,16.528,103.7,0,14.309-8.249,21.475-19.1,21.475-29.933C352.052,458.408,345.195,446.077,339.007,437.83Z" transform="translate(-192.767 -117.839)" fill="url(#m)"/><path d="M322.927,428.713a44.533,44.533,0,0,0-9.767-7.49c-23.136-13.356-60.646-13.356-83.784,0a44.482,44.482,0,0,0-9.767,7.49h-7.586v16.7h0c0,8.752,5.785,17.508,17.353,24.186,23.138,13.356,60.649,13.356,83.784,0,11.568-6.678,17.353-15.434,17.353-24.186v-16.7Z" transform="translate(-185.304 -127.318)" fill="url(#n)"/><path d="M229.375,414.364c-23.136,13.36-23.136,35.017,0,48.373s60.649,13.358,83.784,0,23.136-35.013,0-48.373S252.513,401.005,229.375,414.364Z" transform="translate(-185.304 -135.081)" fill="#dceeff"/><g transform="translate(-185.304 -135.081)" fill="none" stroke-miterlimit="10"><path d="M229.375,414.364c-23.136,13.36-23.136,35.017,0,48.373s60.649,13.358,83.784,0,23.136-35.013,0-48.373S252.513,401.005,229.375,414.364Z" stroke="none"/><path d="M 271.2681884765625 405.3447875976562 C 263.6502990722656 405.3447875976562 256.2262573242188 406.1786193847656 249.2023315429688 407.8231201171875 C 241.9486083984375 409.5214538574219 235.446044921875 412.0133361816406 229.8753356933594 415.2294921875 C 224.3467712402344 418.422119140625 220.0752258300781 422.1317749023438 217.1793518066406 426.2553405761719 C 214.4214477539062 430.1824951171875 213.0232238769531 434.3199768066406 213.0234985351562 438.5528869628906 C 213.0238037109375 442.7853393554688 214.4223022460938 446.922119140625 217.18017578125 450.8482971191406 C 220.0759887695312 454.9708251953125 224.3472290039062 458.6792602539062 229.875244140625 461.8705749511719 C 235.446044921875 465.0867919921875 241.9486083984375 467.5786743164062 249.2023315429688 469.2770080566406 C 256.2262573242188 470.9215087890625 263.6502990722656 471.7553405761719 271.2681884765625 471.7553405761719 C 278.8860778808594 471.7553405761719 286.3099670410156 470.9215087890625 293.3336181640625 469.2770080566406 C 300.5870666503906 467.5787048339844 307.0892333984375 465.0868225097656 312.6595764160156 461.8705749511719 C 318.1878051757812 458.6793823242188 322.459228515625 454.9710998535156 325.3551635742188 450.8487243652344 C 328.1130981445312 446.9227600097656 329.5116577148438 442.7861938476562 329.5120239257812 438.5538330078125 C 329.5123901367188 434.3208312988281 328.1141052246094 430.1831665039062 325.3560180664062 426.2557983398438 C 322.4600219726562 422.132080078125 318.188232421875 418.4223022460938 312.6594848632812 415.2295227050781 C 307.0892333984375 412.0133056640625 300.5870666503906 409.5214538574219 293.3336181640625 407.8231201171875 C 286.3099670410156 406.1786193847656 278.8860778808594 405.3447875976562 271.2681884765625 405.3447875976562 M 271.2681884765625 404.3447875976562 C 286.4300537109375 404.3447875976562 301.5916748046875 407.6843566894531 313.1594848632812 414.363525390625 C 336.295166015625 427.7239074707031 336.2972412109375 449.38037109375 313.1594848632812 462.7366333007812 C 290.0238037109375 476.0949096679688 252.5130310058594 476.0948791503906 229.375244140625 462.7366333007812 C 206.2395935058594 449.38037109375 206.2395935058594 427.7239074707031 229.375244140625 414.363525390625 C 240.9441528320312 407.6843566894531 256.1062927246094 404.3447875976562 271.2681884765625 404.3447875976562 Z" stroke="none" fill="#fff"/></g><path d="M212.019,581.486c0,8.739,5.8,17.506,17.353,24.182,23.153,13.356,60.668,13.356,83.795,0,11.551-6.676,17.351-15.443,17.351-24.182V278.021H212.028Z" transform="translate(-185.309 -278.021)" opacity="0.4" fill="url(#o)"/><path d="M224.653,406.966a64.408,64.408,0,0,1-14.283-10.9c-7.089-7.324-10.726-15.471-10.881-23.62v48.371c.232,12.5,8.637,24.982,25.165,34.522,10.184,5.879,22.3,9.978,35.166,12.273V419.239C246.955,416.943,234.837,412.844,224.653,406.966Z" transform="translate(-199.488 -171.181)" fill="#57f7e0" opacity="0.5"/><path d="M281.237,417.524a64.226,64.226,0,0,0,14.283-10.9C302.612,399.3,306.246,391.149,306.4,383v48.369c-.23,12.5-8.635,24.984-25.163,34.524-10.184,5.877-22.3,9.976-35.168,12.269V429.8C258.935,427.5,271.053,423.4,281.237,417.524Z" transform="translate(-146.78 -159.231)" fill="#57f7e0" opacity="0.5"/><g transform="translate(19.674 204.975)"><path d="M301.431,390.5v58.939a143.533,143.533,0,0,1-51.41.258c-12.531-2.242-24.338-6.239-34.266-11.962a66.465,66.465,0,0,1-7.036-4.642V374.184a70.987,70.987,0,0,0,7.036,4.615c9.929,5.749,21.735,9.72,34.266,11.962A143.535,143.535,0,0,0,301.431,390.5Z" transform="translate(-208.718 -374.184)" fill="#57f7e0" opacity="0.5"/><path d="M231.264,387.634v23.178a144.014,144.014,0,0,0,30.553.62V388.254A144.01,144.01,0,0,1,231.264,387.634Z" transform="translate(-183.206 -358.965)" fill="#6cffe6" opacity="0.7"/></g><g transform="translate(93.18 150.084)"><path d="M297.165,364.34a47.86,47.86,0,0,1-5.6,4.9c-1.185.9-2.447,1.754-3.764,2.577-.746.49-1.494.955-2.293,1.394a88.426,88.426,0,0,1-27.433,9.8,113.093,113.093,0,0,1-14.876,1.831v54.4a113.455,113.455,0,0,0,14.876-1.831,87.747,87.747,0,0,0,27.433-9.771,65.437,65.437,0,0,0,6.058-3.969,48.23,48.23,0,0,0,5.6-4.926c4.822-4.977,7.659-10.391,8.56-15.908v-54.4C304.824,353.951,301.986,359.363,297.165,364.34Z" transform="translate(-243.203 -348.432)" fill="#57f7e0" opacity="0.5"/><g transform="translate(22.275 23.822)" opacity="0.7"><path d="M260.951,368.522v31.121c-2.372.853-4.8,1.6-7.3,2.268V370.792C256.155,370.121,258.579,369.375,260.951,368.522Z" transform="translate(-253.653 -349.521)" fill="#6cffe6" opacity="0.5"/><path d="M267.516,365.439v31.118c-.411.258-.823.516-1.262.748a67.1,67.1,0,0,1-6.032,3.093v-31.12a66.044,66.044,0,0,0,6.032-3.093C266.693,365.953,267.1,365.7,267.516,365.439Z" transform="translate(-246.22 -353.01)" fill="#6cffe6" opacity="0.5"/><path d="M274.075,359.608v31.12a34.349,34.349,0,0,1-3.585,4.306,47.292,47.292,0,0,1-3.713,3.4V367.318a47.3,47.3,0,0,0,3.713-3.4A34.041,34.041,0,0,0,274.075,359.608Z" transform="translate(-238.803 -359.608)" fill="#6cffe6" opacity="0.5"/></g></g><path d="M272.527,343.77V406.5a114.074,114.074,0,0,1-11.885,1.313,118.792,118.792,0,0,1-28.1-1.624c-1.6-.284-3.172-.618-4.745-.98V342.48c1.573.36,3.148.7,4.745.98a118.907,118.907,0,0,0,28.1,1.624A112.89,112.89,0,0,0,272.527,343.77Z" transform="translate(-167.461 -205.083)" fill="#57f7e0" opacity="0.5"/><path d="M300.031,334.682v51.023a61.233,61.233,0,0,0-9.824-6.959c-13.974-8.047-32.048-12.327-50.379-12.764V317.564c19.439,0,38.828,4.278,53.653,12.811A64.4,64.4,0,0,1,300.031,334.682Z" transform="translate(-153.842 -233.277)" fill="#57f7e0" opacity="0.5"/><g transform="translate(9.946 68.262)"><path d="M257.508,351.2c-1.729-.277-3.43-.659-5.133-1.042a93.024,93.024,0,0,1-20.181-6.751c0,.028,0,.028-.026,0-1.989-.9-3.873-1.895-5.732-2.946-.853-.516-1.705-1-2.481-1.518-.8-.486-1.547-.972-2.3-1.488-.541-.384-1.085-.769-1.628-1.181a.17.17,0,0,1-.128-.1,49.9,49.9,0,0,1-6.126-5.3c-6.256-6.452-9.473-13.638-9.622-20.829l.151,54.864,0,1.057c.147,7.194,3.366,14.377,9.622,20.834a49.9,49.9,0,0,0,6.126,5.293c.026.053.077.13.128.13,1.241.9,2.507,1.8,3.928,2.671.774.486,1.626,1,2.479,1.488,1.859,1.051,3.743,2.053,5.732,2.95.026.023.026.023.026,0a93.371,93.371,0,0,0,20.181,6.751c1.7.407,3.4.763,5.133,1.068,4,.71,8.074,1.215,12.173,1.537l-.156-55.921C265.583,352.442,261.507,351.914,257.508,351.2Z" transform="translate(-204.154 -310.046)" fill="#57f7e0" opacity="0.5"/><path d="M221.587,328.974c-5.638-2.225-12.233,3.108-11.952,9.618.279,6.454,1.4,14.575,11.444,20.341,11.082,6.365,16.212-2.272,15.8-9.884C236.433,340.725,231.486,332.879,221.587,328.974Z" transform="translate(-197.961 -289.21)" fill="#6cffe6" opacity="0.7"/></g></g></g><g transform="translate(730.617 466.144)"><path d="M428.493,380.535l12.782-7.38c8.67-5.005,20.644-6.209,26.746-2.685s4.015,10.432-4.655,15.439l-12.784,7.38c-8.67,5.007-20.642,6.209-26.744,2.688S419.823,385.542,428.493,380.535Z" transform="translate(-389.902 -202.723)" fill="#6b99d1" opacity="0.15" style="mix-blend-mode:multiply;isolation:isolate"/><g transform="translate(0 0)"><path d="M454.635,303.468c.348,3.044,3.979,16.177,3.2,20.675s-13.182,12.024-13.182,12.024l-1.72-7.7,6.87-6.731-1.858-12.757Z" transform="translate(-377.594 -258.564)" fill="#ffa8a7"/><path d="M444.094,295.542a5.425,5.425,0,0,1,6.9,2.087c1.827,3.024,3.722,13.395,3.894,15.166,0,0-2.56,3.539-6.4,2.948Z" transform="translate(-376.65 -265.393)" fill="#e4f2f2"/><path d="M450.749,376.279a25.944,25.944,0,0,0,.551,3.04c.321,1.318.39,3.036-1.093,3.511a3.608,3.608,0,0,1-4.126-.963c-1.187-1.6-1.806-3.595-3.524-5.148-1.648-1.492-3.689-3.18-4.282-5.556-.537-2.146-.2-3.488,1.273-3.7,1.853-.27,4.784,1.283,6.287,2.389C446.917,370.645,450.749,376.279,450.749,376.279Z" transform="translate(-381.574 -206.579)" fill="#2d2979"/><path d="M446.486,376.228s.11,1.709.212,3.065.584,3.522.15,4.526-2.672,1.746-5.3,1.724a12.811,12.811,0,0,0-6.174,2.319c-1.671,1.454-5.505,2.034-7.766,1.325s-4.764-1.755-5.143-2.8.8-1.559,6.312-4.084,9.579-4.267,11.718-7.18Z" transform="translate(-394.282 -200.321)" fill="#2d2979"/><path d="M460.62,382.79a63.7,63.7,0,0,0-2.424-11.5s.723-9.923,1.084-19.329c.412-10.679,4.115-20.076,1.193-28.595l-32.942,7.325s1.994,42.566,2.433,47.717a96.926,96.926,0,0,0,1.478,11.952c1.5,8.264,3.948,27.92,3.948,27.92a7.3,7.3,0,0,0,6.925.016s.881-23.97.656-29.923c-.276-7.271-.5-6.716-.5-6.716l1.09-18.11.712-9.006s.912,6.611,1.506,12.517c.517,5.146,1.76,9.805,3.149,19.389,1.2,8.315,4.345,25.442,4.345,25.442a5.6,5.6,0,0,0,6.009.2S461.563,390,460.62,382.79Z" transform="translate(-390.111 -242.391)" fill="#c4d9ff"/><path d="M436.769,346.822s.912,6.611,1.506,12.517c.248,2.48.667,4.853,1.189,7.712,0-.007-.466-11-.288-16.2s.7-10.828.7-10.828c6.919-2.94,8.353-7.155,8.353-7.155a28.563,28.563,0,0,1-10.554,5.728Z" transform="translate(-382.603 -234.67)" fill="#9ebce8"/><path d="M453.461,308.071c-2.509.121-4.376.769-4.69.027a32.472,32.472,0,0,1-.573-3.921c.29-.727.537-1.51.537-1.51a12.293,12.293,0,0,0-5.17-22.727c-6.372-.663-11.06,3.814-12.31,9.961-.672,3.036-1.583,9.479.23,14.473,1.012,2.79,1.893,4.017,3.2,4.45a26.013,26.013,0,0,0,3.769-.051l0,0s.337,1.882.569,3.089.141,1.849-2.264,3.33,3.638,4.528,7.587,4.227,8.389-2.681,9.606-5.233C455.3,311.341,455.183,307.987,453.461,308.071Z" transform="translate(-387.763 -277.74)" fill="#ffa8a7"/><path d="M435.072,305.871a1.33,1.33,0,0,0-.2.165l3.439,1.18,10.19-1.572,2.371-6.078s-.091-.292-.23-.731c-1.918.2-3.288.558-3.551-.063a24.057,24.057,0,0,1-.518-3.406c-1.829.321-4,.707-4.517.725-.937.033-4.191-4.742-4.191-4.742a36.367,36.367,0,0,1-.888,5.11c-.433,1.1-3.4,2.833-4.49,2.81a2.845,2.845,0,0,0,.515.23,26,26,0,0,0,3.769-.051l0,0s.337,1.882.569,3.089S437.478,304.39,435.072,305.871Z" transform="translate(-386.084 -268.414)" fill="#f28f8f"/><path d="M455.018,286.742c-.3-1.474-1.334-3.379-9.267-5.6-7.581-2.126-13.512-3.022-14.966-2.05s-1.813,8.473,5.342,12.03a4.265,4.265,0,0,1,.468,2.043,30.767,30.767,0,0,0,0,3.348,2.25,2.25,0,0,0,2.1,1.918s.011-1.04.011-3.18a2.325,2.325,0,0,1,4.2.2,5.431,5.431,0,0,1-.243,5.031c-.841,1.575-2.241,1.709-2.726,1.149a9.933,9.933,0,0,0,2.362,6.738,7.449,7.449,0,0,0,6.5-1.421,32.467,32.467,0,0,1,2.407-4.164c1.472-2.346,2.995-3.868,3.812-7.65A17.9,17.9,0,0,0,455.018,286.742Z" transform="translate(-388.158 -278.697)" fill="#3a2c6d"/><path d="M452.294,295.9c.694,1.733-1.071,3.852-5.785,5.333s-5.135-.424-5.135-.424a93.072,93.072,0,0,0-9.156,4.717c-2.83,1.978-4.082,7.7-4.463,17.357-.441,11.176-.481,27.755-.109,30.616,0,0,5.284,5.27,12.049,4.713s18.14-6.542,20.9-11.163c-.076-9.8-1.222-11.393.364-17.04,3.631-12.925,5.545-18.215,3.78-26.8-1.456-7.079-3.5-7.96-6.292-7.889A57.956,57.956,0,0,0,452.294,295.9Z" transform="translate(-390.224 -265.194)" fill="#f5fbfb"/><path d="M445.761,295.251a13.4,13.4,0,0,1-9.664,4.077c-1.019-.168-1.577,1.8-2.157,2.779,0,0,2.378,1.94,7.65.6s7.137-5.23,6.687-6.678C448.277,296.032,446.593,294.2,445.761,295.251Z" transform="translate(-384.903 -265.509)" fill="#e4f2f2"/><path d="M433.787,329.6c5.549,1.4,6.854-2.1,7.583-5,1.766-7.015,2.717-13.353,4.033-17.334,1.548-4.7,3.176-5.445,5.456-6.361,2.679-1.075,4.985,1.189,4.093,7.168-1.055,7.072-2.44,12.039-5.085,20.4-.691,2.184-2.241,6.069-4.559,7.943-2.862,2.315-7.177,2.217-13.7.593-2.782-.694-5.833-2.357-11.1-4.811-1.412-.658-2.511-1.1-5.224-2.36a18.488,18.488,0,0,1-6.956-5.431c-1.425-2.059-1.612-3.026-1.322-3.495.364-.589,1.01-.459,1.767.408a15.172,15.172,0,0,0,3.993,3.694s-1.753-1.809-2.7-2.987a15.047,15.047,0,0,1-2.1-3.43c-.5-1.2.533-2.83,1.318-1.976s1.162,1.728,2.6,3.448a14.845,14.845,0,0,0,2.57,2.454,28.127,28.127,0,0,1-2.369-3.812,6.3,6.3,0,0,1-.865-3.446c.04-.629.925-1.372,1.757-.185.749,1.068,1.238,2.739,2.982,4.554,1.267,1.318,2.346,2.074,2.377,1.709s-.769-1.088-1.222-2.618c-.433-1.459.011-3.152.85-3.33s.683-.129,1.363,1.3,1.724,2.493,2.522,4.585a9.43,9.43,0,0,0,2.28,3.93C425.49,326.664,428.508,328.268,433.787,329.6Z" transform="translate(-406.889 -260.859)" fill="#ffa8a7"/><path d="M437.1,300.3c-3.707-.547-6.325,1.122-7.962,6.738s-2.783,10.224-2.783,10.224a10.085,10.085,0,0,0,6.209,4.126c4.436,1.071,6.029-1.044,6.029-1.044s1.231-5.888,2-9.894S441.683,300.98,437.1,300.3Z" transform="translate(-391.07 -261.217)" fill="#e4f2f2"/></g></g></g></svg>