<svg xmlns="http://www.w3.org/2000/svg" xmlns:xlink="http://www.w3.org/1999/xlink" width="814" height="687" viewBox="0 0 814 687">
  <defs>
    <clipPath id="clip-path">
      <rect id="Rectángulo_778" data-name="Rectángulo 778" width="814" height="687" transform="translate(121.333 224.668)" fill="#fff" stroke="#707070" stroke-width="1"/>
    </clipPath>
    <clipPath id="clip-path-2">
      <rect id="Rectángulo_777" data-name="Rectángulo 777" width="1675.952" height="877.89" rx="12.001" fill="none"/>
    </clipPath>
    <radialGradient id="radial-gradient" cx="0.502" cy="0.313" r="0.811" gradientTransform="translate(0.211) scale(0.577 1)" gradientUnits="objectBoundingBox">
      <stop offset="0" stop-color="#03002d"/>
      <stop offset="0.16" stop-color="#403e60"/>
      <stop offset="0.326" stop-color="#797890"/>
      <stop offset="0.488" stop-color="#a9a8b7"/>
      <stop offset="0.64" stop-color="#ceced6"/>
      <stop offset="0.78" stop-color="#e9e8ec"/>
      <stop offset="0.904" stop-color="#f9f9fa"/>
      <stop offset="1" stop-color="#fff"/>
    </radialGradient>
    <linearGradient id="linear-gradient" x1="-0.247" y1="0.5" x2="1.034" y2="0.5" gradientUnits="objectBoundingBox">
      <stop offset="0" stop-color="#706ec4"/>
      <stop offset="0.022" stop-color="#6d6bc1"/>
      <stop offset="0.251" stop-color="#5651ac"/>
      <stop offset="0.486" stop-color="#463e9d"/>
      <stop offset="0.731" stop-color="#3c3393"/>
      <stop offset="1" stop-color="#393091"/>
    </linearGradient>
    <linearGradient id="linear-gradient-2" y1="0.5" x2="1" y2="0.5" gradientUnits="objectBoundingBox">
      <stop offset="0" stop-color="#42e8e0"/>
      <stop offset="0.151" stop-color="#42e3df"/>
      <stop offset="0.328" stop-color="#44d4de"/>
      <stop offset="0.52" stop-color="#48bddd"/>
      <stop offset="0.721" stop-color="#4d9bda"/>
      <stop offset="0.927" stop-color="#5471d8"/>
      <stop offset="1" stop-color="#5761d7"/>
    </linearGradient>
    <linearGradient id="linear-gradient-9" x1="-12.067" y1="40.904" x2="-11.601" y2="40.904" gradientUnits="objectBoundingBox">
      <stop offset="0" stop-color="#bcbeff"/>
      <stop offset="0.166" stop-color="#b5b8fc"/>
      <stop offset="0.396" stop-color="#a3a7f5"/>
      <stop offset="0.662" stop-color="#868ce9"/>
      <stop offset="0.955" stop-color="#5d67d9"/>
      <stop offset="1" stop-color="#5761d7"/>
    </linearGradient>
    <linearGradient id="linear-gradient-10" x1="-12.067" y1="40.904" x2="-11.601" y2="40.904" xlink:href="#linear-gradient"/>
    <linearGradient id="linear-gradient-11" x1="-12.191" y1="45.875" x2="-11.678" y2="45.875" xlink:href="#linear-gradient-9"/>
    <linearGradient id="linear-gradient-12" x1="-12.261" y1="45.875" x2="-11.337" y2="45.875" xlink:href="#linear-gradient"/>
    <linearGradient id="linear-gradient-13" x1="-12.19" y1="41.235" x2="-11.725" y2="41.235" xlink:href="#linear-gradient-9"/>
    <linearGradient id="linear-gradient-14" x1="-12.19" y1="41.235" x2="-11.725" y2="41.235" xlink:href="#linear-gradient"/>
    <linearGradient id="linear-gradient-15" x1="-12.314" y1="46.245" x2="-11.802" y2="46.245" xlink:href="#linear-gradient-9"/>
    <linearGradient id="linear-gradient-16" x1="-12.385" y1="46.245" x2="-11.461" y2="46.245" xlink:href="#linear-gradient"/>
    <linearGradient id="linear-gradient-17" x1="-12.314" y1="41.566" x2="-11.849" y2="41.566" xlink:href="#linear-gradient-9"/>
    <linearGradient id="linear-gradient-18" x1="-12.314" y1="41.566" x2="-11.849" y2="41.566" xlink:href="#linear-gradient"/>
    <linearGradient id="linear-gradient-19" x1="-12.438" y1="46.616" x2="-11.926" y2="46.616" xlink:href="#linear-gradient-9"/>
    <linearGradient id="linear-gradient-20" x1="-12.509" y1="46.616" x2="-11.584" y2="46.616" xlink:href="#linear-gradient"/>
    <linearGradient id="linear-gradient-21" x1="-12.438" y1="41.897" x2="-11.972" y2="41.897" xlink:href="#linear-gradient-9"/>
    <linearGradient id="linear-gradient-22" x1="-12.438" y1="41.897" x2="-11.972" y2="41.897" xlink:href="#linear-gradient"/>
    <linearGradient id="linear-gradient-23" x1="-12.561" y1="46.987" x2="-12.049" y2="46.987" xlink:href="#linear-gradient-9"/>
    <linearGradient id="linear-gradient-24" x1="-12.632" y1="46.987" x2="-11.708" y2="46.987" xlink:href="#linear-gradient"/>
  </defs>
  <g id="Enmascarar_grupo_6" data-name="Enmascarar grupo 6" transform="translate(-121.333 -224.668)" clip-path="url(#clip-path)" style="isolation: isolate">
    <g id="Grupo_7586" data-name="Grupo 7586" transform="translate(-519.817 131.765)">
      <g id="Grupo_7558" data-name="Grupo 7558" transform="translate(0 0)">
        <g id="Grupo_7557" data-name="Grupo 7557" transform="translate(0 0)" clip-path="url(#clip-path-2)">
          <g id="Grupo_7556" data-name="Grupo 7556" transform="translate(-42.473 -113.644)">
            <path id="Trazado_2339" data-name="Trazado 2339" d="M593.224,348.854a12.9,12.9,0,0,0,11.689,0c3.229-1.863,3.229-4.884,0-6.75a12.921,12.921,0,0,0-11.689,0C589.995,343.97,589.995,346.991,593.224,348.854Z" transform="translate(1182.266 643.783)" fill="#42e8e0"/>
            <path id="Trazado_2340" data-name="Trazado 2340" d="M516.493,343.9a12.92,12.92,0,0,0,11.689,0c3.229-1.863,3.229-4.884,0-6.75a12.92,12.92,0,0,0-11.689,0C513.264,339.014,513.264,342.035,516.493,343.9Z" transform="translate(1023.471 633.527)" fill="#42e8e0"/>
            <path id="Trazado_2341" data-name="Trazado 2341" d="M482.172,362.786a12.908,12.908,0,0,0,11.692,0c3.229-1.863,3.229-4.884,0-6.75a12.926,12.926,0,0,0-11.692,0C478.943,357.9,478.943,360.923,482.172,362.786Z" transform="translate(952.443 672.615)" fill="#42e8e0"/>
            <path id="Trazado_2342" data-name="Trazado 2342" d="M636.422,282.7a12.927,12.927,0,0,0,11.692,0c3.226-1.863,3.226-4.887,0-6.75a12.927,12.927,0,0,0-11.692,0C633.193,277.812,633.193,280.836,636.422,282.7Z" transform="translate(1271.665 506.875)" fill="#42e8e0"/>
            <g id="Grupo_7555" data-name="Grupo 7555" transform="translate(0 0)">
              <path id="Trazado_2343" data-name="Trazado 2343" d="M528.318,422.176l-.46-.27L307.666,294.782l1.391-.8,219.267-126.6.463.267L748.979,294.776l-1.39.8ZM311.371,294.782,528.318,420.036,745.274,294.776,528.324,169.524Z" transform="translate(596.314 285.092)" fill="#42e8e0"/>
              <path id="Trazado_2344" data-name="Trazado 2344" d="M406.656,510.242l-.923-1.6,151.506-87.472,0-143.485.464-.267L994.626,25.164l.923,1.6L559.095,278.752l0,143.484-.465.267Z" transform="translate(799.264 -9.236)" fill="#42e8e0"/>
              <path id="Trazado_2345" data-name="Trazado 2345" d="M471.31,261.342h-1.852l0-132.444.464-.267L656.317,21.018l.923,1.6L471.313,129.965Z" transform="translate(931.143 -17.815)" fill="#42e8e0"/>
              <path id="Trazado_2346" data-name="Trazado 2346" d="M415.967,335.262l-.923-1.6,148.176-85.553H820.932L1046.82,117.689h39.655l.213.126,159.777,92.247-.923,1.6-159.563-92.121h-38.66L821.43,249.96H563.717Z" transform="translate(818.532 182.246)" fill="#42e8e0"/>
              <path id="Trazado_2347" data-name="Trazado 2347" d="M739.94,419l-297.751-171.9H264.646l-.213-.126L152.324,182.243V77.229h1.852V181.176L265.143,245.24H442.686l.213.126L740.863,417.4Z" transform="translate(274.832 98.514)" fill="#42e8e0"/>
              <path id="Trazado_2348" data-name="Trazado 2348" d="M632.178,412.692,329.741,238.081l0-103.716L221.616,71.934l.923-1.6L331.6,133.3l0,103.716L633.1,411.091Z" transform="translate(418.232 84.244)" fill="#42e8e0"/>
              <path id="Trazado_2349" data-name="Trazado 2349" d="M487.669,424.535,309.488,321.665l0-89.007.465-.267L618.6,54.192l.923,1.6L311.343,233.726l0,86.872L488.593,422.935Z" transform="translate(600.084 50.838)" fill="#42e8e0"/>
              <path id="Trazado_2350" data-name="Trazado 2350" d="M136.757,468.947h-.249l-.213-.126L15.706,399.2l.923-1.6,120.376,69.5,272.746,0L606.838,353.3H769.831L994.091,223.83l.923,1.6L770.328,355.156H607.336L410.249,468.944Z" transform="translate(-7.901 401.905)" fill="#42e8e0"/>
              <path id="Trazado_2351" data-name="Trazado 2351" d="M165.173,399.628l-.923-1.6L262,341.586H449.057L661.291,219.054l.923,1.6L449.555,343.439H262.5Z" transform="translate(299.512 392.022)" fill="#42e8e0"/>
              <path id="Trazado_2352" data-name="Trazado 2352" d="M523.547,299.745,367.769,209.809H256.7L184.762,251.34l-.923-1.6L256.2,207.957H368.267l.213.126,155.99,90.062Z" transform="translate(340.051 369.056)" fill="#42e8e0"/>
              <path id="Trazado_2353" data-name="Trazado 2353" d="M157.23,374.855l-.923-1.6,86.726-50.074V280.137h1.852v44.109l-.464.267Z" transform="translate(283.075 518.434)" fill="#42e8e0"/>
              <path id="Trazado_2354" data-name="Trazado 2354" d="M405.99,148.613h-70.9V146.76h70.4l126.3-72.919.923,1.6Z" transform="translate(653.071 91.503)" fill="#42e8e0"/>
              <path id="Trazado_2355" data-name="Trazado 2355" d="M417.3,266.5h-1.853l0-45.752L327.77,170.127V120.707h1.852V169.06L417.3,219.683Z" transform="translate(637.919 188.491)" fill="#42e8e0"/>
              <path id="Trazado_2356" data-name="Trazado 2356" d="M731.212,559.282l-152.78-88.206,0-143.481L412.918,232.032l.923-1.6,166.446,96.1,0,143.481,151.851,87.673Z" transform="translate(814.135 415.567)" fill="#42e8e0"/>
              <path id="Trazado_2357" data-name="Trazado 2357" d="M646.347,608.28,585.757,573.3V510.047l-58.788-33.942.006-168.169L404.212,237.058l.923-1.6,123.691,71.411-.006,168.169L587.61,508.98v63.255L647.27,606.68Z" transform="translate(796.117 425.969)" fill="#42e8e0"/>
              <path id="Trazado_2358" data-name="Trazado 2358" d="M1038.078,406.8l-47.736-27.557H888.5l-.213-.126L704.916,273.251H543.506l-.213-.126L442.518,214.942l.923-1.6L544,271.4h161.41l.213.126L889,377.39H990.839l.213.126L1039,405.2Z" transform="translate(875.391 380.2)" fill="#42e8e0"/>
              <path id="Trazado_2359" data-name="Trazado 2359" d="M728.845,278.843l-63.92-36.9H541.656V240.09H665.422l.213.126,64.133,37.026Z" transform="translate(1080.558 435.557)" fill="#42e8e0"/>
              <path id="Trazado_2360" data-name="Trazado 2360" d="M938.314,590.906,701.731,454.316v-71.4L426.653,224.1l.923-1.6L703.583,381.852v71.4L939.237,589.3Z" transform="translate(842.558 399.157)" fill="#42e8e0"/>
              <path id="Trazado_2361" data-name="Trazado 2361" d="M425.591,320.68l-.923-1.6,106.773-61.648,298.606,0,215.564-124.453.924,1.6-215.99,124.7-298.606,0Z" transform="translate(838.449 213.881)" fill="#42e8e0"/>
              <path id="Trazado_2362" data-name="Trazado 2362" d="M545.2,210.549h-.249l-.213-.126-61.072-35.26.923-1.6,60.86,35.135,164.353,0v1.852Z" transform="translate(960.541 297.876)" fill="#42e8e0"/>
              <path id="Trazado_2363" data-name="Trazado 2363" d="M521.385,714.068h-1.852l0-100.182L281.625,476.529l0-110.511.464-.267L507.234,235.767l.923,1.6L283.48,367.085l0,108.377L521.388,612.819Z" transform="translate(542.421 426.61)" fill="#42e8e0"/>
              <path id="Trazado_2364" data-name="Trazado 2364" d="M495.468,382.907l-81.96-47.317-96.827,0v-1.852l97.325,0,.213.126,82.172,47.443Z" transform="translate(614.971 629.361)" fill="#42e8e0"/>
              <rect id="Rectángulo_775" data-name="Rectángulo 775" width="190.928" height="1.848" transform="matrix(0.866, -0.5, 0.5, 0.866, 916.197, 776.221)" fill="#42e8e0"/>
              <path id="Trazado_2365" data-name="Trazado 2365" d="M488.557,577.885H486.7l.006-279.874-94.034-54.292.923-1.6,94.963,54.825Z" transform="translate(772.245 439.753)" fill="#42e8e0"/>
              <path id="Trazado_2366" data-name="Trazado 2366" d="M409.275,423.584h-1.853l0-98.05.465-.267,48.77-28.159.923,1.6L409.278,326.6Z" transform="translate(802.76 553.555)" fill="#42e8e0"/>
              <path id="Trazado_2367" data-name="Trazado 2367" d="M1016.71,312.184,868.5,226.615l-228.909,0-.213-.126-75.695-43.7H527.27l-93.137,53.77-.923-1.6,93.563-54.022h37.407l.213.126,75.695,43.7,228.909,0,.213.126,148.425,85.694Z" transform="translate(856.127 313.141)" fill="#42e8e0"/>
              <path id="Trazado_2368" data-name="Trazado 2368" d="M354.037,359.811H293.849v-1.853H353.54L544.731,247.579l.923,1.6Z" transform="translate(567.72 451.054)" fill="#42e8e0"/>
              <path id="Trazado_2369" data-name="Trazado 2369" d="M347.286,404.629l-.923-1.6L502.728,312.75V276.21l-45.935-26.522.923-1.6,46.864,27.056v38.675l-.465.267Z" transform="translate(676.397 452.105)" fill="#42e8e0"/>
              <path id="Trazado_2370" data-name="Trazado 2370" d="M343.912,318.318l-.923-1.6,70.194-40.53h58.956v1.853H413.681Z" transform="translate(669.415 510.259)" fill="#42e8e0"/>
              <path id="Trazado_2371" data-name="Trazado 2371" d="M344.32,414.59l-.923-1.6,72.02-41.582V337.993l.465-.267,81.5-47.053V271.486h1.852v20.255l-.465.267-81.5,47.053v33.414l-.464.267Z" transform="translate(670.259 500.53)" fill="#42e8e0"/>
              <path id="Trazado_2372" data-name="Trazado 2372" d="M342.868,296.244a12.907,12.907,0,0,0,11.692,0c3.229-1.863,3.229-4.884,0-6.75a12.927,12.927,0,0,0-11.692,0C339.639,291.36,339.639,294.381,342.868,296.244Z" transform="translate(664.152 534.906)" fill="#42e8e0"/>
              <path id="Trazado_2373" data-name="Trazado 2373" d="M346.171,305.378a12.927,12.927,0,0,0,11.692,0c3.229-1.863,3.229-4.887,0-6.75a12.927,12.927,0,0,0-11.692,0C342.945,300.491,342.945,303.515,346.171,305.378Z" transform="translate(670.993 553.809)" fill="#42e8e0"/>
              <path id="Trazado_2374" data-name="Trazado 2374" d="M400.691,300.1a12.927,12.927,0,0,0,11.692,0c3.229-1.863,3.229-4.887,0-6.75a12.927,12.927,0,0,0-11.692,0C397.465,295.213,397.465,298.237,400.691,300.1Z" transform="translate(783.823 542.886)" fill="#42e8e0"/>
              <path id="Trazado_2375" data-name="Trazado 2375" d="M515.023,217.895a12.926,12.926,0,0,0,11.691,0c3.229-1.863,3.229-4.887,0-6.75a12.926,12.926,0,0,0-11.691,0C511.8,213.008,511.8,216.032,515.023,217.895Z" transform="translate(1020.434 372.762)" fill="#42e8e0"/>
              <path id="Trazado_2376" data-name="Trazado 2376" d="M588.751,234.352a12.917,12.917,0,0,0,11.692,0c3.229-1.863,3.229-4.884,0-6.75a12.917,12.917,0,0,0-11.692,0C585.525,229.465,585.525,232.486,588.751,234.352Z" transform="translate(1173.015 406.814)" fill="#42e8e0"/>
              <path id="Trazado_2377" data-name="Trazado 2377" d="M491.66,206.6a12.908,12.908,0,0,0,11.692,0c3.229-1.863,3.229-4.884,0-6.75a12.927,12.927,0,0,0-11.692,0C488.434,201.721,488.434,204.742,491.66,206.6Z" transform="translate(972.084 349.397)" fill="#42e8e0"/>
              <path id="Trazado_2378" data-name="Trazado 2378" d="M483.332,224.885a12.92,12.92,0,0,0,11.689,0c3.229-1.866,3.229-4.887,0-6.75a12.9,12.9,0,0,0-11.689,0C480.1,220,480.1,223.021,483.332,224.885Z" transform="translate(954.844 387.222)" fill="#42e8e0"/>
              <path id="Trazado_2379" data-name="Trazado 2379" d="M359.162,398.183a12.9,12.9,0,0,0,11.689,0c3.229-1.863,3.229-4.884,0-6.75a12.92,12.92,0,0,0-11.689,0C355.933,393.3,355.933,396.32,359.162,398.183Z" transform="translate(697.873 745.87)" fill="#42e8e0"/>
              <path id="Trazado_2380" data-name="Trazado 2380" d="M374.806,356.088a12.926,12.926,0,0,0,11.692,0c3.226-1.863,3.229-4.887,0-6.75a12.926,12.926,0,0,0-11.692,0C371.577,351.2,371.577,354.225,374.806,356.088Z" transform="translate(730.248 658.754)" fill="#42e8e0"/>
              <path id="Trazado_2381" data-name="Trazado 2381" d="M120.764,394.388a12.926,12.926,0,0,0,11.692,0c3.229-1.863,3.229-4.887,0-6.75a12.926,12.926,0,0,0-11.692,0C117.538,389.5,117.538,392.525,120.764,394.388Z" transform="translate(204.512 738.016)" fill="#42e8e0"/>
              <path id="Trazado_2382" data-name="Trazado 2382" d="M213.83,396.347a12.927,12.927,0,0,0,11.692,0c3.226-1.863,3.226-4.887,0-6.75a12.927,12.927,0,0,0-11.692,0C210.6,391.46,210.6,394.484,213.83,396.347Z" transform="translate(397.107 742.07)" fill="#42e8e0"/>
              <path id="Trazado_2383" data-name="Trazado 2383" d="M241.715,332.908a12.927,12.927,0,0,0,11.692,0c3.229-1.866,3.229-4.887,0-6.75a12.908,12.908,0,0,0-11.692,0C238.489,328.021,238.489,331.041,241.715,332.908Z" transform="translate(454.821 610.777)" fill="#42e8e0"/>
              <path id="Trazado_2384" data-name="Trazado 2384" d="M557.061,191.9a12.908,12.908,0,0,0,11.692,0c3.229-1.863,3.229-4.884,0-6.75a12.92,12.92,0,0,0-11.689,0C553.835,187.018,553.835,190.039,557.061,191.9Z" transform="translate(1107.433 318.969)" fill="#42e8e0"/>
              <path id="Trazado_2385" data-name="Trazado 2385" d="M626.838,139.829a12.927,12.927,0,0,0,11.692,0c3.229-1.863,3.229-4.887,0-6.75a12.927,12.927,0,0,0-11.692,0C623.612,134.942,623.612,137.966,626.838,139.829Z" transform="translate(1251.837 211.204)" fill="#42e8e0"/>
              <path id="Trazado_2386" data-name="Trazado 2386" d="M685.486,154.636a12.927,12.927,0,0,0,11.692,0c3.226-1.866,3.226-4.887,0-6.75a12.927,12.927,0,0,0-11.692,0C682.257,149.749,682.257,152.773,685.486,154.636Z" transform="translate(1373.203 241.847)" fill="#42e8e0"/>
              <path id="Trazado_2387" data-name="Trazado 2387" d="M530.648,28.122a12.9,12.9,0,0,0,11.689,0c3.229-1.863,3.229-4.884,0-6.75a12.92,12.92,0,0,0-11.689,0C527.419,23.238,527.419,26.259,530.648,28.122Z" transform="translate(1052.765 -19.975)" fill="#42e8e0"/>
              <path id="Trazado_2388" data-name="Trazado 2388" d="M343.276,324.441a12.92,12.92,0,0,0,11.689,0c3.229-1.866,3.229-4.887,0-6.75a12.9,12.9,0,0,0-11.689,0C340.047,319.554,340.047,322.574,343.276,324.441Z" transform="translate(664.997 593.255)" fill="#42e8e0"/>
              <path id="Trazado_2389" data-name="Trazado 2389" d="M407.453,344.907a12.917,12.917,0,0,0,11.692,0c3.226-1.863,3.229-4.884,0-6.75a12.917,12.917,0,0,0-11.692,0C404.224,340.02,404.224,343.04,407.453,344.907Z" transform="translate(797.811 635.609)" fill="#42e8e0"/>
              <path id="Trazado_2390" data-name="Trazado 2390" d="M423.343,358.664a12.927,12.927,0,0,0,11.692,0c3.226-1.863,3.226-4.887,0-6.75a12.927,12.927,0,0,0-11.692,0C420.114,353.777,420.114,356.8,423.343,358.664Z" transform="translate(830.696 664.085)" fill="#42e8e0"/>
              <path id="Trazado_2391" data-name="Trazado 2391" d="M602.519,259.048a12.919,12.919,0,0,0,11.689,0c3.229-1.866,3.229-4.887,0-6.75a12.92,12.92,0,0,0-11.689,0C599.29,254.161,599.29,257.182,602.519,259.048Z" transform="translate(1201.502 457.929)" fill="#42e8e0"/>
              <path id="Trazado_2392" data-name="Trazado 2392" d="M554.319,279.461a12.926,12.926,0,0,0,11.692,0c3.229-1.866,3.229-4.887,0-6.75a12.92,12.92,0,0,0-11.689,0C551.093,274.574,551.093,277.595,554.319,279.461Z" transform="translate(1101.758 500.174)" fill="#42e8e0"/>
              <path id="Trazado_2393" data-name="Trazado 2393" d="M623.141,230.052a12.908,12.908,0,0,0,11.692,0c3.229-1.863,3.229-4.887,0-6.75a12.927,12.927,0,0,0-11.692,0C619.912,225.165,619.912,228.189,623.141,230.052Z" transform="translate(1244.18 397.921)" fill="#42e8e0"/>
              <path id="Trazado_2394" data-name="Trazado 2394" d="M293.578,290.433a12.927,12.927,0,0,0,11.692,0c3.226-1.863,3.229-4.887,0-6.75a12.927,12.927,0,0,0-11.692,0C290.349,285.546,290.349,288.57,293.578,290.433Z" transform="translate(562.146 522.88)" fill="#42e8e0"/>
              <path id="Trazado_2395" data-name="Trazado 2395" d="M184.945,227.714a12.927,12.927,0,0,0,11.692,0c3.229-1.863,3.229-4.887,0-6.75a12.926,12.926,0,0,0-11.692,0C181.716,222.827,181.716,225.851,184.945,227.714Z" transform="translate(337.329 393.083)" fill="#42e8e0"/>
              <path id="Trazado_2396" data-name="Trazado 2396" d="M230.928,188.83a12.908,12.908,0,0,0,11.692,0c3.229-1.863,3.229-4.884,0-6.75a12.927,12.927,0,0,0-11.692,0C227.7,183.946,227.7,186.967,230.928,188.83Z" transform="translate(432.497 312.612)" fill="#42e8e0"/>
              <path id="Trazado_2397" data-name="Trazado 2397" d="M256.926,202.3a12.927,12.927,0,0,0,11.692,0c3.229-1.863,3.229-4.887,0-6.75a12.927,12.927,0,0,0-11.692,0C253.7,197.414,253.7,200.438,256.926,202.3Z" transform="translate(486.3 340.49)" fill="#42e8e0"/>
              <path id="Trazado_2398" data-name="Trazado 2398" d="M281.9,181.222a12.92,12.92,0,0,0,11.689,0c3.229-1.863,3.229-4.887,0-6.75a12.92,12.92,0,0,0-11.689,0C278.675,176.335,278.675,179.359,281.9,181.222Z" transform="translate(537.987 296.867)" fill="#42e8e0"/>
              <path id="Trazado_2399" data-name="Trazado 2399" d="M327.8,127.3a12.92,12.92,0,0,0,11.689,0c3.229-1.863,3.229-4.887,0-6.75a12.927,12.927,0,0,0-11.692,0C324.572,122.412,324.572,125.436,327.8,127.3Z" transform="translate(632.971 185.273)" fill="#42e8e0"/>
              <path id="Trazado_2400" data-name="Trazado 2400" d="M151.8,84.143a12.908,12.908,0,0,0,11.692,0c3.229-1.863,3.229-4.884,0-6.75a12.92,12.92,0,0,0-11.689,0C148.569,79.259,148.569,82.28,151.8,84.143Z" transform="translate(268.731 95.961)" fill="#42e8e0"/>
              <path id="Trazado_2401" data-name="Trazado 2401" d="M221.492,77.187a12.908,12.908,0,0,0,11.692,0c3.229-1.863,3.229-4.884,0-6.75a12.927,12.927,0,0,0-11.692,0C218.266,72.3,218.266,75.324,221.492,77.187Z" transform="translate(412.969 81.566)" fill="#42e8e0"/>
              <path id="Trazado_2402" data-name="Trazado 2402" d="M359.851,131a12.927,12.927,0,0,0,11.692,0c3.229-1.863,3.229-4.887,0-6.75a12.927,12.927,0,0,0-11.692,0C356.622,126.117,356.622,129.141,359.851,131Z" transform="translate(699.299 192.941)" fill="#42e8e0"/>
              <path id="Trazado_2403" data-name="Trazado 2403" d="M363.387,111.371a12.927,12.927,0,0,0,11.692,0c3.229-1.863,3.229-4.887,0-6.75a12.926,12.926,0,0,0-11.692,0C360.158,106.484,360.158,109.508,363.387,111.371Z" transform="translate(706.617 152.31)" fill="#42e8e0"/>
              <path id="Trazado_2404" data-name="Trazado 2404" d="M418.565,88.192a12.927,12.927,0,0,0,11.692,0c3.229-1.863,3.229-4.887,0-6.75a12.92,12.92,0,0,0-11.689,0C415.339,83.305,415.339,86.329,418.565,88.192Z" transform="translate(820.814 104.341)" fill="#42e8e0"/>
              <path id="Trazado_2405" data-name="Trazado 2405" d="M399.053,80.695a12.908,12.908,0,0,0,11.692,0c3.229-1.863,3.229-4.887,0-6.75a12.927,12.927,0,0,0-11.692,0C395.824,75.808,395.824,78.832,399.053,80.695Z" transform="translate(780.428 88.826)" fill="#42e8e0"/>
              <path id="Trazado_2406" data-name="Trazado 2406" d="M597.464,32.017a12.926,12.926,0,0,0,11.692,0c3.229-1.863,3.229-4.887,0-6.75a12.926,12.926,0,0,0-11.692,0C594.235,27.13,594.235,30.154,597.464,32.017Z" transform="translate(1191.041 -11.914)" fill="#42e8e0"/>
              <path id="Trazado_2407" data-name="Trazado 2407" d="M410.072,61.048a12.927,12.927,0,0,0,11.692,0c3.226-1.866,3.226-4.887,0-6.75a12.908,12.908,0,0,0-11.692,0C406.843,56.161,406.843,59.181,410.072,61.048Z" transform="translate(803.232 48.16)" fill="#42e8e0"/>
              <path id="Trazado_2408" data-name="Trazado 2408" d="M292.851,224.623a12.92,12.92,0,0,0,11.689,0c3.229-1.863,3.229-4.887,0-6.75a12.92,12.92,0,0,0-11.689,0C289.622,219.736,289.622,222.76,292.851,224.623Z" transform="translate(560.642 386.686)" fill="#42e8e0"/>
              <path id="Trazado_2409" data-name="Trazado 2409" d="M421.33,159.529a12.926,12.926,0,0,0,11.692,0c3.229-1.863,3.229-4.887,0-6.75a12.926,12.926,0,0,0-11.692,0C418.1,154.642,418.1,157.666,421.33,159.529Z" transform="translate(826.536 251.973)" fill="#42e8e0"/>
              <path id="Trazado_2410" data-name="Trazado 2410" d="M532.06,121.171a12.917,12.917,0,0,0,11.692,0c3.226-1.863,3.226-4.884,0-6.75a12.927,12.927,0,0,0-11.692,0C528.831,116.287,528.831,119.308,532.06,121.171Z" transform="translate(1055.687 172.591)" fill="#42e8e0"/>
              <path id="Trazado_2411" data-name="Trazado 2411" d="M613.041,79.338a12.927,12.927,0,0,0,11.692,0c3.229-1.863,3.229-4.887,0-6.75a12.92,12.92,0,0,0-11.689,0C609.815,74.451,609.815,77.475,613.041,79.338Z" transform="translate(1223.284 86.017)" fill="#42e8e0"/>
              <path id="Trazado_2412" data-name="Trazado 2412" d="M587.724,72.573a12.92,12.92,0,0,0,11.689,0c3.229-1.863,3.229-4.887,0-6.75a12.92,12.92,0,0,0-11.689,0C584.495,67.686,584.495,70.71,587.724,72.573Z" transform="translate(1170.884 72.017)" fill="#42e8e0"/>
              <path id="Trazado_2413" data-name="Trazado 2413" d="M247.322,227.385a12.908,12.908,0,0,0,11.692,0c3.229-1.863,3.229-4.887,0-6.75a12.927,12.927,0,0,0-11.692,0C244.1,222.5,244.1,225.522,247.322,227.385Z" transform="translate(466.425 392.402)" fill="#42e8e0"/>
              <path id="Trazado_2414" data-name="Trazado 2414" d="M156.186,317.326a12.927,12.927,0,0,0,11.692,0c3.226-1.863,3.226-4.884,0-6.75a12.927,12.927,0,0,0-11.692,0C152.957,312.442,152.957,315.463,156.186,317.326Z" transform="translate(277.812 578.536)" fill="#42e8e0"/>
              <path id="Trazado_2415" data-name="Trazado 2415" d="M119.57,221.233a12.921,12.921,0,0,0,11.689,0c3.229-1.866,3.229-4.887,0-6.753a12.92,12.92,0,0,0-11.689,0C116.341,216.346,116.341,219.367,119.57,221.233Z" transform="translate(202.035 379.664)" fill="#42e8e0"/>
              <path id="Trazado_2416" data-name="Trazado 2416" d="M164.126,283.677a12.927,12.927,0,0,0,11.692,0c3.229-1.863,3.229-4.887,0-6.75a12.927,12.927,0,0,0-11.692,0C160.9,278.79,160.9,281.814,164.126,283.677Z" transform="translate(294.25 508.899)" fill="#42e8e0"/>
              <path id="Trazado_2417" data-name="Trazado 2417" d="M15.585,287.295a12.927,12.927,0,0,0,11.692,0c3.229-1.863,3.229-4.887,0-6.75a12.927,12.927,0,0,0-11.692,0C12.356,282.408,12.356,285.432,15.585,287.295Z" transform="translate(-13.163 516.386)" fill="#42e8e0"/>
              <path id="Trazado_2418" data-name="Trazado 2418" d="M311.534,279.724a12.926,12.926,0,0,0,11.692,0c3.226-1.863,3.226-4.887,0-6.75a12.926,12.926,0,0,0-11.692,0C308.3,274.837,308.3,277.861,311.534,279.724Z" transform="translate(599.306 500.718)" fill="#42e8e0"/>
              <rect id="Rectángulo_776" data-name="Rectángulo 776" width="80.035" height="1.848" transform="translate(1190.102 838.92) rotate(-29.981)" fill="#42e8e0"/>
              <path id="Trazado_2419" data-name="Trazado 2419" d="M368.435,239.807h-40l-.213-.126-35.56-20.531.923-1.6,35.347,20.4h39.5Z" transform="translate(565.27 388.908)" fill="#42e8e0"/>
              <path id="Trazado_2420" data-name="Trazado 2420" d="M231.975,221.391l-.923-1.6,97.136-56.085H394.26l.213.126,85.563,49.394h54v1.852h-54.5l-.213-.126-85.563-49.394H328.685Z" transform="translate(437.759 277.478)" fill="#42e8e0"/>
              <path id="Trazado_2421" data-name="Trazado 2421" d="M430.069,244.888l-97-56h-31.9l-42.658,24.625-.923-1.6,43.084-24.877h32.9l.213.126,97.214,56.126Z" transform="translate(492.668 325.758)" fill="#42e8e0"/>
              <path id="Trazado_2422" data-name="Trazado 2422" d="M354.308,254.961h-1.852V216.635l-70.431-40.665.923-1.6,71.36,41.2Z" transform="translate(543.249 299.545)" fill="#42e8e0"/>
              <path id="Trazado_2423" data-name="Trazado 2423" d="M537.367,259.92H465.291v-1.852h71.579l81.453-47.026.923,1.6Z" transform="translate(922.519 375.44)" fill="#42e8e0"/>
              <path id="Trazado_2424" data-name="Trazado 2424" d="M121.811,716.8l-.923-1.6L368.948,571.981l0-91.024.465-.267L805,229.206l.923,1.6L370.8,482.023l0,91.024-.464.267Z" transform="translate(209.773 413.031)" fill="#42e8e0"/>
              <path id="Trazado_2425" data-name="Trazado 2425" d="M597.549,225.5l-61.675-35.608H511.321l-32.9,19H440.755v-1.852h37.173l32.9-19h25.548l.213.126L598.473,223.9Z" transform="translate(871.743 327.835)" fill="#42e8e0"/>
              <path id="Trazado_2426" data-name="Trazado 2426" d="M409.144,379.333l-.923-1.6,116.932-67.514,0-76.519L392.264,156.976v-28.81l.465-.267,80.644-46.561.923,1.6-80.179,46.294v26.675l132.891,76.723,0,78.653-.465.267Z" transform="translate(771.39 107.018)" fill="#42e8e0"/>
              <path id="Trazado_2427" data-name="Trazado 2427" d="M408.136,215h-1.852l0-35.44.465-.267,46.1-26.615.923,1.6-45.632,26.349Z" transform="translate(800.404 254.651)" fill="#42e8e0"/>
              <path id="Trazado_2428" data-name="Trazado 2428" d="M485.765,343.255l-.923-1.6,277.713-160.34,0-41.891.465-.267,115.37-66.609.923,1.6L764.411,140.49l0,41.891-.465.267Z" transform="translate(962.982 88.825)" fill="#42e8e0"/>
              <path id="Trazado_2429" data-name="Trazado 2429" d="M519.626,240.957h-1.852V189.9l.465-.267L732.855,65.719l.923,1.6L519.626,190.964Z" transform="translate(1031.134 74.694)" fill="#42e8e0"/>
              <path id="Trazado_2430" data-name="Trazado 2430" d="M463.868,256.274l-.923-1.6,139.9-80.773,0-17.659.465-.267,72.151-41.657.923,1.6L604.7,157.309l0,17.659-.464.267Z" transform="translate(917.665 175.27)" fill="#42e8e0"/>
              <path id="Trazado_2431" data-name="Trazado 2431" d="M242.762,411.26l-.923-1.6L324.215,362.1V308.869l40.215-23.216.923,1.6-39.286,22.683v53.228l-.465.267Z" transform="translate(460.083 529.849)" fill="#42e8e0"/>
              <path id="Trazado_2432" data-name="Trazado 2432" d="M359.641,254.986h-55.3l-.213-.126-56.684-32.727.923-1.6,56.471,32.6h54.8Z" transform="translate(471.686 395.08)" fill="#42e8e0"/>
              <path id="Trazado_2433" data-name="Trazado 2433" d="M321.553,332.383H321.3l-.213-.126-200.75-115.9.923-1.6L321.8,330.531l252.944,0v1.852Z" transform="translate(208.644 383.12)" fill="#42e8e0"/>
              <path id="Trazado_2434" data-name="Trazado 2434" d="M443.135,270.7h-1.853l0-98.005L360.408,126l.923-1.6,81.806,47.23Z" transform="translate(705.463 196.139)" fill="#42e8e0"/>
              <path id="Trazado_2435" data-name="Trazado 2435" d="M436.253,254.521l-.923-1.6,58.905-34.011V181.6L363.508,106.118l.923-1.6L496.088,180.53v39.448l-.465.267Z" transform="translate(711.88 154.987)" fill="#42e8e0"/>
              <path id="Trazado_2436" data-name="Trazado 2436" d="M738.665,331.841l-147.63-85.23H465.425v-1.852H591.533l.213.126L739.589,330.24Z" transform="translate(922.798 445.217)" fill="#42e8e0"/>
              <path id="Trazado_2437" data-name="Trazado 2437" d="M684.083,245.056l-.213-.126L643.628,221.7H499.975v-1.852h144.15l.213.126L684.58,243.2l88.734,0v1.852Z" transform="translate(994.299 393.661)" fill="#42e8e0"/>
              <path id="Trazado_2438" data-name="Trazado 2438" d="M562.419,245.793,495.4,207.1H445.058v-1.852H495.9l.213.126,67.229,38.815Z" transform="translate(880.648 363.456)" fill="#42e8e0"/>
              <path id="Trazado_2439" data-name="Trazado 2439" d="M214.874,538.739l-.923-1.6,98.662-56.963V394.838l.465-.267,132.361-76.42.923,1.6L314.465,395.9v85.338l-.464.267Z" transform="translate(402.369 597.104)" fill="#42e8e0"/>
            </g>
          </g>
        </g>
      </g>
      <g id="Grupo_7568" data-name="Grupo 7568" transform="translate(900.965 359.39)">
        <g id="Grupo_7559" data-name="Grupo 7559" transform="translate(0.405)">
          <path id="Trazado_2440" data-name="Trazado 2440" d="M389.933,189.051a6.236,6.236,0,0,1-3.1-.936l-19.421-11.21.921-1.6,19.424,11.213a2.7,2.7,0,0,0,4.509-2.606v-4.684c0-2.164.78-3.806,2.192-4.623s3.232-.669,5.1.414l4.058,2.342-.924,1.6-4.055-2.342a2.7,2.7,0,0,0-4.515,2.606v4.684c0,2.164-.78,3.806-2.192,4.623A3.948,3.948,0,0,1,389.933,189.051Z" transform="translate(-223.885 -174.082)" fill="#42e8e0" style="mix-blend-mode: lighten;isolation: isolate"/>
          <path id="Trazado_2441" data-name="Trazado 2441" d="M387.472,190.467a6.245,6.245,0,0,1-3.1-.936l-19.421-11.213.924-1.6L385.3,187.929c1.277.737,2.428.887,3.244.414a3.287,3.287,0,0,0,1.265-3.017v-4.687c0-2.164.78-3.8,2.192-4.62s3.229-.669,5.1.414l4.058,2.342-.924,1.6-4.055-2.342a3.335,3.335,0,0,0-3.251-.414,3.291,3.291,0,0,0-1.265,3.017v4.687c0,2.164-.78,3.806-2.192,4.623A3.948,3.948,0,0,1,387.472,190.467Z" transform="translate(-228.978 -171.152)" fill="#42e8e0" style="mix-blend-mode: lighten;isolation: isolate"/>
          <path id="Trazado_2442" data-name="Trazado 2442" d="M385.008,191.884a6.3,6.3,0,0,1-3.1-.933L362.49,179.735l.924-1.6,19.421,11.216a2.7,2.7,0,0,0,4.509-2.609v-4.681c0-2.164.78-3.809,2.192-4.623s3.226-.669,5.1.408l4.061,2.348-.93,1.6-4.055-2.345a2.7,2.7,0,0,0-4.512,2.609v4.681c0,2.164-.78,3.8-2.192,4.623A3.955,3.955,0,0,1,385.008,191.884Z" transform="translate(-234.071 -168.222)" fill="#42e8e0" style="mix-blend-mode: lighten;isolation: isolate"/>
          <path id="Trazado_2443" data-name="Trazado 2443" d="M382.55,193.3a6.245,6.245,0,0,1-3.1-.936l-19.421-11.21.924-1.6,19.421,11.213c1.277.734,2.431.884,3.244.411a3.289,3.289,0,0,0,1.268-3.017v-4.684c0-2.164.777-3.806,2.189-4.623s3.232-.669,5.1.417l4.055,2.339-.924,1.6-4.055-2.342a2.7,2.7,0,0,0-4.515,2.606v4.684c0,2.164-.78,3.806-2.192,4.623A3.949,3.949,0,0,1,382.55,193.3Z" transform="translate(-239.164 -165.294)" fill="#42e8e0" style="mix-blend-mode: lighten;isolation: isolate"/>
          <path id="Trazado_2444" data-name="Trazado 2444" d="M380.089,194.715a6.245,6.245,0,0,1-3.1-.936l-19.421-11.213.924-1.6,19.421,11.216c1.277.731,2.431.884,3.247.411a3.291,3.291,0,0,0,1.265-3.017V184.89c0-2.164.78-3.806,2.189-4.623s3.229-.669,5.1.417l4.055,2.339-.924,1.6-4.055-2.342c-1.283-.737-2.434-.884-3.251-.414a3.3,3.3,0,0,0-1.265,3.02v4.684c0,2.164-.78,3.806-2.192,4.623A3.949,3.949,0,0,1,380.089,194.715Z" transform="translate(-244.257 -162.363)" fill="#42e8e0" style="mix-blend-mode: lighten;isolation: isolate"/>
          <path id="Trazado_2445" data-name="Trazado 2445" d="M377.625,196.129a6.31,6.31,0,0,1-3.1-.933L355.107,183.98l.924-1.6,19.421,11.216a2.706,2.706,0,0,0,4.512-2.609V186.3c0-2.164.78-3.809,2.189-4.623s3.22-.666,5.1.411l4.058,2.345-.93,1.6-4.055-2.345c-1.277-.737-2.437-.887-3.248-.411a3.3,3.3,0,0,0-1.265,3.02v4.681c0,2.164-.78,3.8-2.192,4.623A3.955,3.955,0,0,1,377.625,196.129Z" transform="translate(-249.35 -159.431)" fill="#42e8e0" style="mix-blend-mode: lighten;isolation: isolate"/>
          <path id="Trazado_2446" data-name="Trazado 2446" d="M375.167,197.546a6.254,6.254,0,0,1-3.1-.936L352.646,185.4l.924-1.6,19.421,11.216A2.7,2.7,0,0,0,377.5,192.4v-4.684c0-2.164.78-3.809,2.192-4.623s3.226-.669,5.1.417l4.058,2.339-.924,1.605-4.058-2.342a2.7,2.7,0,0,0-4.512,2.6V192.4c0,2.164-.78,3.806-2.192,4.623A3.948,3.948,0,0,1,375.167,197.546Z" transform="translate(-254.443 -156.505)" fill="#42e8e0" style="mix-blend-mode: lighten;isolation: isolate"/>
          <path id="Trazado_2447" data-name="Trazado 2447" d="M372.706,198.962a6.312,6.312,0,0,1-3.1-.933l-19.421-11.216.924-1.6,19.421,11.216c1.283.737,2.431.887,3.251.411a3.3,3.3,0,0,0,1.262-3.017v-4.684c0-2.164.78-3.806,2.192-4.623s3.226-.669,5.1.417l4.058,2.336-.924,1.608-4.058-2.345a2.7,2.7,0,0,0-4.512,2.606v4.684c0,2.164-.78,3.8-2.192,4.62A3.951,3.951,0,0,1,372.706,198.962Z" transform="translate(-259.536 -153.574)" fill="#42e8e0" style="mix-blend-mode: lighten;isolation: isolate"/>
          <path id="Trazado_2448" data-name="Trazado 2448" d="M370.242,200.378a6.31,6.31,0,0,1-3.1-.933l-19.421-11.216.924-1.6,19.421,11.216a2.705,2.705,0,0,0,4.512-2.609v-4.681c0-2.164.78-3.809,2.192-4.623s3.226-.666,5.1.411l4.058,2.345-.924,1.6-4.058-2.345c-1.283-.737-2.44-.887-3.247-.411a3.3,3.3,0,0,0-1.265,3.02v4.681c0,2.164-.777,3.8-2.192,4.623A3.947,3.947,0,0,1,370.242,200.378Z" transform="translate(-264.629 -150.643)" fill="#42e8e0" style="mix-blend-mode: lighten;isolation: isolate"/>
          <path id="Trazado_2449" data-name="Trazado 2449" d="M367.784,201.792a6.254,6.254,0,0,1-3.1-.936l-19.421-11.213.924-1.6,19.421,11.216a2.7,2.7,0,0,0,4.512-2.606v-4.684c0-2.164.78-3.806,2.192-4.623s3.229-.669,5.1.417l4.058,2.336-.924,1.608-4.058-2.345c-1.277-.73-2.431-.884-3.244-.414a3.3,3.3,0,0,0-1.268,3.02v4.684c0,2.164-.777,3.806-2.189,4.623A3.96,3.96,0,0,1,367.784,201.792Z" transform="translate(-269.722 -147.715)" fill="#42e8e0" style="mix-blend-mode: lighten;isolation: isolate"/>
          <path id="Trazado_2450" data-name="Trazado 2450" d="M365.323,203.208a6.311,6.311,0,0,1-3.1-.933L342.8,191.059l.924-1.6,19.421,11.216a3.288,3.288,0,0,0,3.248.408c.816-.47,1.265-1.541,1.265-3.017v-4.681c0-2.164.78-3.806,2.192-4.623s3.229-.669,5.1.417L379,191.516l-.921,1.6-4.058-2.342a2.7,2.7,0,0,0-4.509,2.606v4.681c0,2.164-.78,3.806-2.192,4.623A3.962,3.962,0,0,1,365.323,203.208Z" transform="translate(-274.815 -144.784)" fill="#42e8e0" style="mix-blend-mode: lighten;isolation: isolate"/>
          <path id="Trazado_2451" data-name="Trazado 2451" d="M362.864,204.62a6.254,6.254,0,0,1-3.1-.936l-19.424-11.21.924-1.6,19.424,11.21a2.7,2.7,0,0,0,4.512-2.606V194.8c0-2.164.78-3.806,2.192-4.623s3.229-.663,5.1.411l4.058,2.345-.927,1.6-4.058-2.345c-1.28-.737-2.437-.887-3.241-.411a3.3,3.3,0,0,0-1.268,3.02v4.681c0,2.164-.776,3.806-2.188,4.623A3.96,3.96,0,0,1,362.864,204.62Z" transform="translate(-279.911 -141.853)" fill="#42e8e0" style="mix-blend-mode: lighten;isolation: isolate"/>
          <path id="Trazado_2452" data-name="Trazado 2452" d="M360.4,206.039a6.252,6.252,0,0,1-3.1-.936L337.879,193.89l.924-1.6L358.224,203.5a2.7,2.7,0,0,0,4.515-2.606v-4.684c0-2.164.78-3.806,2.192-4.623s3.229-.669,5.1.417l4.055,2.339-.921,1.6-4.058-2.342c-1.277-.731-2.428-.884-3.245-.414a3.294,3.294,0,0,0-1.265,3.02V200.9c0,2.164-.78,3.8-2.192,4.62A3.958,3.958,0,0,1,360.4,206.039Z" transform="translate(-285.004 -138.925)" fill="#42e8e0" style="mix-blend-mode: lighten;isolation: isolate"/>
          <path id="Trazado_2453" data-name="Trazado 2453" d="M357.939,207.455a6.278,6.278,0,0,1-3.1-.933l-19.424-11.216.924-1.6,19.424,11.213c1.277.734,2.434.884,3.248.411a3.294,3.294,0,0,0,1.265-3.02V197.63c0-2.164.78-3.806,2.192-4.623s3.226-.669,5.1.417l4.055,2.339-.921,1.6-4.058-2.342a2.7,2.7,0,0,0-4.509,2.606v4.681c0,2.164-.78,3.809-2.192,4.623A3.958,3.958,0,0,1,357.939,207.455Z" transform="translate(-290.097 -135.995)" fill="#42e8e0" style="mix-blend-mode: lighten;isolation: isolate"/>
          <path id="Trazado_2454" data-name="Trazado 2454" d="M355.479,208.868a6.205,6.205,0,0,1-3.1-.936l-19.421-11.21.921-1.6,19.424,11.21a2.7,2.7,0,0,0,4.512-2.606v-4.681c0-2.164.78-3.806,2.192-4.623s3.229-.663,5.1.411l4.061,2.345-.93,1.6-4.055-2.345c-1.28-.737-2.437-.89-3.244-.411a3.294,3.294,0,0,0-1.265,3.02v4.681c0,2.164-.78,3.8-2.192,4.623A3.96,3.96,0,0,1,355.479,208.868Z" transform="translate(-295.188 -133.064)" fill="#42e8e0" style="mix-blend-mode: lighten;isolation: isolate"/>
          <path id="Trazado_2455" data-name="Trazado 2455" d="M353.018,210.288a6.237,6.237,0,0,1-3.1-.936L330.5,198.139l.921-1.6,19.424,11.213a2.7,2.7,0,0,0,4.512-2.606v-4.684c0-2.164.78-3.806,2.192-4.623s3.229-.672,5.1.417L366.7,198.6l-.924,1.6-4.058-2.342c-1.274-.73-2.428-.887-3.244-.411s-1.265,1.541-1.265,3.017v4.684c0,2.164-.78,3.806-2.192,4.623A3.96,3.96,0,0,1,353.018,210.288Z" transform="translate(-300.281 -130.138)" fill="#42e8e0" style="mix-blend-mode: lighten;isolation: isolate"/>
          <path id="Trazado_2456" data-name="Trazado 2456" d="M350.557,211.7a6.262,6.262,0,0,1-3.1-.933l-19.421-11.216.921-1.6,19.424,11.213c1.283.734,2.431.887,3.247.411a3.293,3.293,0,0,0,1.265-3.02v-4.681c0-2.164.78-3.806,2.192-4.623s3.226-.672,5.1.417l4.058,2.342-.924,1.6-4.055-2.342c-1.277-.731-2.431-.884-3.248-.411s-1.265,1.541-1.265,3.017v4.681c0,2.164-.78,3.809-2.192,4.623A3.955,3.955,0,0,1,350.557,211.7Z" transform="translate(-305.374 -127.207)" fill="#42e8e0" style="mix-blend-mode: lighten;isolation: isolate"/>
          <path id="Trazado_2457" data-name="Trazado 2457" d="M348.1,213.115a6.245,6.245,0,0,1-3.1-.936l-19.421-11.21.924-1.6,19.421,11.21a2.7,2.7,0,0,0,4.512-2.606v-4.681c0-2.164.78-3.806,2.192-4.623s3.229-.666,5.1.411l4.058,2.345-.924,1.6-4.055-2.342c-1.283-.734-2.44-.887-3.248-.408s-1.265,1.541-1.265,3.017v4.681c0,2.164-.78,3.806-2.192,4.623A3.96,3.96,0,0,1,348.1,213.115Z" transform="translate(-310.467 -124.275)" fill="#42e8e0" style="mix-blend-mode: lighten;isolation: isolate"/>
          <path id="Trazado_2458" data-name="Trazado 2458" d="M345.635,214.533a6.214,6.214,0,0,1-3.1-.936l-19.421-11.213.924-1.6L343.459,212a2.7,2.7,0,0,0,4.509-2.606v-4.684c0-2.164.78-3.8,2.192-4.623s3.232-.666,5.1.417l4.058,2.342-.924,1.6-4.055-2.342a2.705,2.705,0,0,0-4.515,2.606v4.684c0,2.164-.78,3.809-2.192,4.623A3.918,3.918,0,0,1,345.635,214.533Z" transform="translate(-315.56 -121.347)" fill="#42e8e0" style="mix-blend-mode: lighten;isolation: isolate"/>
          <path id="Trazado_2459" data-name="Trazado 2459" d="M343.174,215.949a6.27,6.27,0,0,1-3.1-.933L320.653,203.8l.924-1.6L341,213.413c1.28.734,2.434.881,3.245.411a3.3,3.3,0,0,0,1.268-3.02v-4.681c0-2.164.777-3.8,2.189-4.623s3.229-.666,5.1.417l4.055,2.339-.924,1.6-4.055-2.342c-1.283-.737-2.434-.884-3.251-.411a3.3,3.3,0,0,0-1.265,3.017V210.8c0,2.164-.78,3.809-2.192,4.623A3.92,3.92,0,0,1,343.174,215.949Z" transform="translate(-320.653 -118.416)" fill="#42e8e0" style="mix-blend-mode: lighten;isolation: isolate"/>
        </g>
        <g id="Grupo_7560" data-name="Grupo 7560" transform="translate(183.719 0.356)">
          <path id="Trazado_2460" data-name="Trazado 2460" d="M394.061,189.167a3.965,3.965,0,0,1-2-.522c-1.412-.82-2.192-2.459-2.192-4.623v-4.681a2.7,2.7,0,0,0-4.512-2.606l-4.055,2.342-.927-1.6,4.055-2.342c1.875-1.084,3.69-1.231,5.1-.414s2.192,2.459,2.192,4.623v4.681a2.7,2.7,0,0,0,4.512,2.606l19.421-11.213.921,1.6-19.421,11.213A6.265,6.265,0,0,1,394.061,189.167Z" transform="translate(-380.374 -174.198)" fill="#42e8e0" style="mix-blend-mode: lighten;isolation: isolate"/>
          <path id="Trazado_2461" data-name="Trazado 2461" d="M396.514,190.583a3.949,3.949,0,0,1-2-.519c-1.412-.817-2.192-2.459-2.192-4.623v-4.684a3.293,3.293,0,0,0-1.265-3.02c-.813-.47-1.968-.316-3.244.414l-4.061,2.345-.921-1.605,4.058-2.342c1.866-1.08,3.677-1.234,5.1-.414s2.192,2.459,2.192,4.623v4.684c0,1.476.448,2.548,1.265,3.017s1.971.319,3.248-.411l19.421-11.213.921,1.6-19.421,11.21A6.236,6.236,0,0,1,396.514,190.583Z" transform="translate(-375.279 -171.27)" fill="#42e8e0" style="mix-blend-mode: lighten;isolation: isolate"/>
          <path id="Trazado_2462" data-name="Trazado 2462" d="M398.978,192a3.952,3.952,0,0,1-2-.519c-1.412-.816-2.192-2.459-2.192-4.623v-4.684a3.293,3.293,0,0,0-1.265-3.02c-.816-.47-1.968-.316-3.244.414l-4.061,2.345-.921-1.605,4.058-2.342c1.866-1.08,3.68-1.234,5.1-.414s2.192,2.459,2.192,4.623v4.684a2.7,2.7,0,0,0,4.509,2.606l19.424-11.213.921,1.6-19.421,11.213A6.235,6.235,0,0,1,398.978,192Z" transform="translate(-370.186 -168.34)" fill="#42e8e0" style="mix-blend-mode: lighten;isolation: isolate"/>
          <path id="Trazado_2463" data-name="Trazado 2463" d="M401.441,193.414a3.955,3.955,0,0,1-2-.522c-1.412-.816-2.192-2.459-2.192-4.623v-4.681a2.7,2.7,0,0,0-4.512-2.606l-4.058,2.342-.924-1.6,4.061-2.342c1.872-1.087,3.683-1.228,5.1-.414s2.192,2.459,2.192,4.623v4.681a2.7,2.7,0,0,0,4.509,2.606l19.424-11.213.921,1.6-19.421,11.213A6.266,6.266,0,0,1,401.441,193.414Z" transform="translate(-365.095 -165.409)" fill="#42e8e0" style="mix-blend-mode: lighten;isolation: isolate"/>
          <path id="Trazado_2464" data-name="Trazado 2464" d="M403.9,194.83a3.949,3.949,0,0,1-2-.519c-1.412-.813-2.192-2.459-2.192-4.623V185c0-1.476-.448-2.548-1.265-3.017s-1.971-.319-3.248.411l-4.058,2.345-.924-1.605,4.061-2.339c1.866-1.087,3.677-1.237,5.1-.417s2.192,2.459,2.192,4.623v4.684a3.294,3.294,0,0,0,1.265,3.02c.814.47,1.968.316,3.245-.414l19.421-11.21.924,1.6L407,193.894A6.205,6.205,0,0,1,403.9,194.83Z" transform="translate(-360.002 -162.481)" fill="#42e8e0" style="mix-blend-mode: lighten;isolation: isolate"/>
          <path id="Trazado_2465" data-name="Trazado 2465" d="M406.358,196.245a3.949,3.949,0,0,1-2-.519c-1.412-.816-2.192-2.459-2.192-4.623V186.42a2.7,2.7,0,0,0-4.512-2.606l-4.055,2.342-.924-1.6,4.058-2.339c1.866-1.087,3.68-1.234,5.1-.417s2.192,2.459,2.192,4.623V191.1a2.7,2.7,0,0,0,4.509,2.606l19.421-11.216.924,1.6-19.421,11.213A6.2,6.2,0,0,1,406.358,196.245Z" transform="translate(-354.907 -159.55)" fill="#42e8e0" style="mix-blend-mode: lighten;isolation: isolate"/>
          <path id="Trazado_2466" data-name="Trazado 2466" d="M408.824,197.661a3.955,3.955,0,0,1-2-.522c-1.412-.817-2.192-2.459-2.192-4.623v-4.681a3.291,3.291,0,0,0-1.265-3.017c-.813-.482-1.968-.332-3.248.411l-4.052,2.342-.93-1.6,4.055-2.345c1.875-1.08,3.686-1.231,5.1-.414s2.189,2.459,2.189,4.623v4.681A2.7,2.7,0,0,0,411,195.122l19.424-11.21.924,1.6-19.424,11.213A6.244,6.244,0,0,1,408.824,197.661Z" transform="translate(-349.816 -156.619)" fill="#42e8e0" style="mix-blend-mode: lighten;isolation: isolate"/>
          <path id="Trazado_2467" data-name="Trazado 2467" d="M411.283,199.076a3.924,3.924,0,0,1-2-.522c-1.412-.816-2.192-2.456-2.192-4.62v-4.684a3.3,3.3,0,0,0-1.265-3.017c-.817-.473-1.971-.319-3.248.411l-4.055,2.342-.924-1.6,4.055-2.342c1.869-1.087,3.68-1.234,5.1-.417s2.189,2.459,2.189,4.623v4.684a2.705,2.705,0,0,0,4.515,2.606l19.421-11.21.924,1.6-19.421,11.21A6.232,6.232,0,0,1,411.283,199.076Z" transform="translate(-344.72 -153.691)" fill="#42e8e0" style="mix-blend-mode: lighten;isolation: isolate"/>
          <path id="Trazado_2468" data-name="Trazado 2468" d="M413.744,200.491a3.924,3.924,0,0,1-2-.522c-1.412-.813-2.192-2.456-2.192-4.62v-4.684a2.7,2.7,0,0,0-4.512-2.606l-4.055,2.342-.924-1.6,4.055-2.342c1.869-1.087,3.683-1.231,5.1-.417s2.189,2.459,2.189,4.623v4.684a3.3,3.3,0,0,0,1.268,3.02c.8.467,1.961.319,3.248-.414l19.421-11.213.924,1.6-19.421,11.213A6.263,6.263,0,0,1,413.744,200.491Z" transform="translate(-339.627 -150.76)" fill="#42e8e0" style="mix-blend-mode: lighten;isolation: isolate"/>
          <path id="Trazado_2469" data-name="Trazado 2469" d="M416.21,201.908a3.935,3.935,0,0,1-2-.522c-1.412-.816-2.192-2.459-2.192-4.623v-4.681a3.3,3.3,0,0,0-1.265-3.017c-.814-.479-1.968-.332-3.248.411l-4.052,2.342-.93-1.6,4.055-2.345c1.875-1.084,3.687-1.231,5.1-.414s2.192,2.459,2.192,4.623v4.681a2.7,2.7,0,0,0,4.515,2.606L437.8,188.16l.924,1.6-19.421,11.213A6.252,6.252,0,0,1,416.21,201.908Z" transform="translate(-334.536 -147.831)" fill="#42e8e0" style="mix-blend-mode: lighten;isolation: isolate"/>
          <path id="Trazado_2470" data-name="Trazado 2470" d="M418.666,203.324a3.922,3.922,0,0,1-2-.519c-1.412-.816-2.192-2.459-2.192-4.623V193.5a3.3,3.3,0,0,0-1.265-3.017c-.817-.476-1.971-.319-3.248.411l-4.055,2.342-.924-1.6,4.055-2.342c1.869-1.09,3.677-1.234,5.1-.417s2.192,2.459,2.192,4.623v4.684a2.7,2.7,0,0,0,4.515,2.606l19.421-11.21.924,1.6-19.421,11.213A6.248,6.248,0,0,1,418.666,203.324Z" transform="translate(-329.441 -144.903)" fill="#42e8e0" style="mix-blend-mode: lighten;isolation: isolate"/>
          <path id="Trazado_2471" data-name="Trazado 2471" d="M421.127,204.741a3.915,3.915,0,0,1-2-.522c-1.412-.813-2.192-2.456-2.192-4.62v-4.684a2.7,2.7,0,0,0-4.512-2.606l-4.055,2.342-.924-1.6,4.055-2.342c1.869-1.09,3.677-1.237,5.1-.417s2.192,2.459,2.192,4.623V199.6a3.291,3.291,0,0,0,1.265,3.017c.82.476,1.971.325,3.251-.414l19.421-11.21.924,1.6L424.227,203.8A6.255,6.255,0,0,1,421.127,204.741Z" transform="translate(-324.348 -141.973)" fill="#42e8e0" style="mix-blend-mode: lighten;isolation: isolate"/>
          <path id="Trazado_2472" data-name="Trazado 2472" d="M423.593,206.155a3.946,3.946,0,0,1-2-.522c-1.409-.817-2.189-2.459-2.189-4.623v-4.681a3.289,3.289,0,0,0-1.268-3.017c-.81-.479-1.964-.328-3.244.411l-4.052,2.342-.93-1.6,4.055-2.345c1.872-1.08,3.683-1.231,5.1-.414s2.192,2.459,2.192,4.623v4.681a2.7,2.7,0,0,0,4.515,2.606l19.421-11.21.924,1.6L426.69,205.222A6.279,6.279,0,0,1,423.593,206.155Z" transform="translate(-319.257 -139.041)" fill="#42e8e0" style="mix-blend-mode: lighten;isolation: isolate"/>
          <path id="Trazado_2473" data-name="Trazado 2473" d="M426.049,207.569a3.929,3.929,0,0,1-2-.519c-1.412-.813-2.189-2.456-2.189-4.623v-4.684a2.706,2.706,0,0,0-4.515-2.606l-4.058,2.342-.921-1.6,4.055-2.342c1.869-1.087,3.683-1.231,5.1-.417s2.192,2.459,2.192,4.623v4.684a2.7,2.7,0,0,0,4.512,2.606l19.421-11.213.924,1.6-19.421,11.213A6.223,6.223,0,0,1,426.049,207.569Z" transform="translate(-314.162 -136.112)" fill="#42e8e0" style="mix-blend-mode: lighten;isolation: isolate"/>
          <path id="Trazado_2474" data-name="Trazado 2474" d="M428.51,208.985a3.932,3.932,0,0,1-2-.522c-1.412-.813-2.189-2.459-2.189-4.623V199.16a2.706,2.706,0,0,0-4.515-2.606L415.75,198.9l-.921-1.6,4.055-2.342c1.869-1.087,3.687-1.231,5.1-.417s2.192,2.459,2.192,4.623v4.681a3.3,3.3,0,0,0,1.265,3.02c.807.47,1.964.325,3.247-.414l19.421-11.21.924,1.6L431.61,208.052A6.279,6.279,0,0,1,428.51,208.985Z" transform="translate(-309.069 -133.182)" fill="#42e8e0" style="mix-blend-mode: lighten;isolation: isolate"/>
          <path id="Trazado_2475" data-name="Trazado 2475" d="M430.973,210.4a3.921,3.921,0,0,1-2-.519c-1.412-.813-2.192-2.456-2.192-4.62v-4.684a3.288,3.288,0,0,0-1.265-3.017c-.817-.479-1.971-.328-3.248.414l-4.055,2.339-.927-1.6,4.055-2.345c1.876-1.08,3.69-1.228,5.1-.414s2.192,2.459,2.192,4.623v4.684a2.7,2.7,0,0,0,4.512,2.6l19.421-11.21.924,1.6L434.07,209.465A6.229,6.229,0,0,1,430.973,210.4Z" transform="translate(-303.978 -130.251)" fill="#42e8e0" style="mix-blend-mode: lighten;isolation: isolate"/>
          <path id="Trazado_2476" data-name="Trazado 2476" d="M433.432,211.816a3.929,3.929,0,0,1-2-.519c-1.412-.813-2.192-2.456-2.192-4.62v-4.687a2.7,2.7,0,0,0-4.512-2.6l-4.058,2.339-.921-1.6,4.055-2.342c1.869-1.087,3.686-1.231,5.1-.417s2.192,2.459,2.192,4.623v4.687a2.7,2.7,0,0,0,4.512,2.6l19.421-11.213.924,1.6-19.424,11.216A6.229,6.229,0,0,1,433.432,211.816Z" transform="translate(-298.883 -127.323)" fill="#42e8e0" style="mix-blend-mode: lighten;isolation: isolate"/>
          <path id="Trazado_2477" data-name="Trazado 2477" d="M435.892,213.232a3.92,3.92,0,0,1-2-.522c-1.412-.813-2.192-2.456-2.192-4.623v-4.681a2.7,2.7,0,0,0-4.512-2.6l-4.058,2.339-.924-1.6,4.058-2.342c1.872-1.084,3.687-1.231,5.1-.417s2.192,2.459,2.192,4.623v4.681c0,1.476.448,2.551,1.265,3.02s1.964.325,3.248-.414l19.421-11.21.921,1.6L438.992,212.3A6.262,6.262,0,0,1,435.892,213.232Z" transform="translate(-293.792 -124.392)" fill="#42e8e0" style="mix-blend-mode: lighten;isolation: isolate"/>
          <path id="Trazado_2478" data-name="Trazado 2478" d="M438.353,214.645a3.917,3.917,0,0,1-2-.519c-1.412-.813-2.192-2.456-2.192-4.62v-4.684a3.288,3.288,0,0,0-1.265-3.017c-.813-.479-1.971-.332-3.247.414l-4.055,2.339-.927-1.6,4.055-2.345c1.885-1.08,3.689-1.228,5.1-.414s2.192,2.459,2.192,4.623v4.684a2.7,2.7,0,0,0,4.509,2.6l19.424-11.21.921,1.6-19.421,11.213A6.23,6.23,0,0,1,438.353,214.645Z" transform="translate(-288.699 -121.462)" fill="#42e8e0" style="mix-blend-mode: lighten;isolation: isolate"/>
          <path id="Trazado_2479" data-name="Trazado 2479" d="M440.814,216.063a3.917,3.917,0,0,1-2-.519c-1.412-.813-2.192-2.456-2.192-4.62v-4.687a2.7,2.7,0,0,0-4.512-2.6l-4.058,2.342-.924-1.6,4.061-2.345c1.866-1.08,3.677-1.228,5.1-.414s2.192,2.459,2.192,4.623v4.687a2.7,2.7,0,0,0,4.509,2.6l19.424-11.213.921,1.6L443.914,215.13A6.23,6.23,0,0,1,440.814,216.063Z" transform="translate(-283.606 -118.533)" fill="#42e8e0" style="mix-blend-mode: lighten;isolation: isolate"/>
        </g>
        <g id="Grupo_7565" data-name="Grupo 7565" transform="translate(32.747 2.513)">
          <g id="Grupo_7561" data-name="Grupo 7561">
            <path id="Trazado_2480" data-name="Trazado 2480" d="M480.434,359.239,331.19,273.073l149.24-86.164,149.245,86.166Z" transform="translate(-331.19 -150.05)" opacity="0.8" fill="url(#radial-gradient)" style="mix-blend-mode: multiply;isolation: isolate"/>
            <path id="Trazado_2481" data-name="Trazado 2481" d="M629.674,202.974v17.246l-149.24,86.164L331.19,220.218V202.972Z" transform="translate(-331.19 -116.808)" fill="url(#linear-gradient)"/>
            <path id="Trazado_2482" data-name="Trazado 2482" d="M480.434,347.231,331.19,261.065,480.43,174.9l149.245,86.166Z" transform="translate(-331.19 -174.901)" fill="#bcbeff"/>
            <path id="Trazado_2483" data-name="Trazado 2483" d="M480.434,287.8l-147.5-85.159-1.745,1.007,149.244,86.166,149.24-86.164-1.745-1.007Z" transform="translate(-331.19 -117.487)" fill="#fff"/>
          </g>
          <g id="Grupo_7564" data-name="Grupo 7564" transform="translate(34.453 3.199)">
            <path id="Trazado_2484" data-name="Trazado 2484" d="M457.2,313.933,342.414,247.659,457.2,181.388l114.789,66.274Z" transform="translate(-342.412 -164.676)" fill="#0f054c"/>
            <g id="Grupo_7563" data-name="Grupo 7563">
              <path id="Trazado_2485" data-name="Trazado 2485" d="M457.2,313.935,342.414,247.66,457.2,181.388l114.791,66.275Z" transform="translate(-342.414 -164.676)" opacity="0.5" fill="url(#linear-gradient-2)"/>
              <g id="Grupo_7562" data-name="Grupo 7562">
                <path id="Trazado_2486" data-name="Trazado 2486" d="M379.81,175.943,494.6,242.218v16.711L379.81,192.655Z" transform="translate(-265.022 -175.943)" opacity="0.5" fill="url(#linear-gradient-2)"/>
                <path id="Trazado_2487" data-name="Trazado 2487" d="M457.2,192.655,342.414,258.927V242.216L457.2,175.943Z" transform="translate(-342.414 -175.943)" opacity="0.5" fill="url(#linear-gradient-2)"/>
                <path id="Trazado_2488" data-name="Trazado 2488" d="M457.2,308.491,342.414,242.216,457.2,175.943l114.791,66.275Z" transform="translate(-342.414 -175.943)" opacity="0.5" fill="url(#linear-gradient-2)"/>
                <path id="Trazado_2489" data-name="Trazado 2489" d="M410.736,241.87l-45.868-26.482,45.866-26.481L456.6,215.389Z" transform="translate(-295.945 -149.115)" fill="#42e8e0" opacity="0.5"/>
                <path id="Trazado_2490" data-name="Trazado 2490" d="M410.734,191.344l43.758,25.264,2.11-1.218-45.868-26.482-45.867,26.482,2.11,1.218Z" transform="translate(-295.945 -149.115)" fill="#42e8e0" opacity="0.5"/>
                <path id="Trazado_2491" data-name="Trazado 2491" d="M379.811,263.808v16.711L494.6,214.246V197.535Z" transform="translate(-265.02 -131.26)" opacity="0.5" fill="url(#linear-gradient-2)"/>
              </g>
              <path id="Trazado_2492" data-name="Trazado 2492" d="M342.414,197.534v16.711L457.2,280.52V263.809Z" transform="translate(-342.414 -131.261)" opacity="0.5" fill="url(#linear-gradient-2)"/>
            </g>
            <path id="Trazado_2493" data-name="Trazado 2493" d="M457.2,262.6,343.994,197.237l-1.58.912L457.2,264.424l114.788-66.273-1.579-.912Z" transform="translate(-342.414 -131.876)" fill="#42e8e0" opacity="0.8"/>
          </g>
        </g>
        <g id="Grupo_7566" data-name="Grupo 7566" transform="translate(183.719 89.911)">
          <path id="Trazado_2494" data-name="Trazado 2494" d="M415.655,270.6l-19.421-11.213a13.87,13.87,0,0,1-6.366-11.02v-4.681a12.03,12.03,0,0,0-5.436-9.417l-4.058-2.348.927-1.6,4.058,2.345a13.868,13.868,0,0,1,6.363,11.02v4.681a12.2,12.2,0,0,0,5.433,9.414L416.576,269Z" transform="translate(-380.374 -147.611)" fill="#42e8e0" style="mix-blend-mode: lighten;isolation: isolate"/>
          <path id="Trazado_2495" data-name="Trazado 2495" d="M418.114,269.179l-19.421-11.213a13.863,13.863,0,0,1-6.366-11.02v-4.681a12.052,12.052,0,0,0-5.433-9.423l-4.058-2.339.921-1.6,4.061,2.339a13.88,13.88,0,0,1,6.363,11.026v4.681a12.2,12.2,0,0,0,5.433,9.414l19.421,11.219Z" transform="translate(-375.279 -150.546)" fill="#42e8e0" style="mix-blend-mode: lighten;isolation: isolate"/>
          <path id="Trazado_2496" data-name="Trazado 2496" d="M420.575,267.761l-19.424-11.213a13.869,13.869,0,0,1-6.363-11.02v-4.684a12.225,12.225,0,0,0-5.433-9.42l-4.058-2.336.921-1.605,4.061,2.339a13.879,13.879,0,0,1,6.363,11.023v4.684a12.219,12.219,0,0,0,5.433,9.417L421.5,266.162Z" transform="translate(-370.186 -153.48)" fill="#42e8e0" style="mix-blend-mode: lighten;isolation: isolate"/>
          <path id="Trazado_2497" data-name="Trazado 2497" d="M423.038,266.343,403.614,255.13a13.869,13.869,0,0,1-6.363-11.02v-4.684a12.224,12.224,0,0,0-5.433-9.42l-4.061-2.336.924-1.605,4.058,2.339a13.882,13.882,0,0,1,6.366,11.023v4.684a12.214,12.214,0,0,0,5.433,9.417l19.421,11.216Z" transform="translate(-365.095 -156.415)" fill="#42e8e0" style="mix-blend-mode: lighten;isolation: isolate"/>
          <path id="Trazado_2498" data-name="Trazado 2498" d="M425.5,264.924l-19.421-11.21a13.869,13.869,0,0,1-6.363-11.023v-4.681a12.209,12.209,0,0,0-5.433-9.417l-4.061-2.345.924-1.6,4.058,2.345a13.862,13.862,0,0,1,6.366,11.02v4.681a12.042,12.042,0,0,0,5.433,9.42l19.421,11.213Z" transform="translate(-360.002 -159.351)" fill="#42e8e0" style="mix-blend-mode: lighten;isolation: isolate"/>
          <path id="Trazado_2499" data-name="Trazado 2499" d="M427.957,263.506l-19.421-11.213a13.868,13.868,0,0,1-6.363-11.02v-4.681a12.218,12.218,0,0,0-5.433-9.417l-4.061-2.345.93-1.6,4.055,2.345a13.875,13.875,0,0,1,6.363,11.02v4.681a12.214,12.214,0,0,0,5.433,9.417l19.421,11.216Z" transform="translate(-354.909 -162.286)" fill="#42e8e0" style="mix-blend-mode: lighten;isolation: isolate"/>
          <path id="Trazado_2500" data-name="Trazado 2500" d="M430.419,262.088,411,250.875a13.868,13.868,0,0,1-6.363-11.02v-4.681a12.047,12.047,0,0,0-5.436-9.423l-4.055-2.339.924-1.6,4.055,2.342a13.87,13.87,0,0,1,6.363,11.023v4.681a12.217,12.217,0,0,0,5.436,9.417l19.424,11.216Z" transform="translate(-349.814 -165.221)" fill="#42e8e0" style="mix-blend-mode: lighten;isolation: isolate"/>
          <path id="Trazado_2501" data-name="Trazado 2501" d="M432.88,260.67l-19.421-11.213a13.872,13.872,0,0,1-6.366-11.02v-4.684a12.217,12.217,0,0,0-5.436-9.417l-4.055-2.342.924-1.6,4.055,2.342a13.869,13.869,0,0,1,6.363,11.02v4.684a12.045,12.045,0,0,0,5.439,9.42L433.8,259.071Z" transform="translate(-344.72 -168.155)" fill="#42e8e0" style="mix-blend-mode: lighten;isolation: isolate"/>
          <path id="Trazado_2502" data-name="Trazado 2502" d="M435.341,259.252,415.92,248.039a13.872,13.872,0,0,1-6.366-11.02v-4.684a12.217,12.217,0,0,0-5.436-9.417l-4.055-2.342.924-1.6,4.055,2.342a13.869,13.869,0,0,1,6.363,11.02v4.684a12.045,12.045,0,0,0,5.439,9.42l19.421,11.213Z" transform="translate(-339.627 -171.09)" fill="#42e8e0" style="mix-blend-mode: lighten;isolation: isolate"/>
          <path id="Trazado_2503" data-name="Trazado 2503" d="M437.8,257.836l-19.421-11.213a13.877,13.877,0,0,1-6.366-11.023V230.92a12.228,12.228,0,0,0-5.436-9.42l-4.058-2.342.93-1.6,4.055,2.345a13.872,13.872,0,0,1,6.36,11.02V235.6a12.05,12.05,0,0,0,5.439,9.423l19.421,11.21Z" transform="translate(-334.536 -174.026)" fill="#42e8e0" style="mix-blend-mode: lighten;isolation: isolate"/>
          <path id="Trazado_2504" data-name="Trazado 2504" d="M440.265,256.418,420.844,245.2a13.863,13.863,0,0,1-6.366-11.02V229.5a12.217,12.217,0,0,0-5.436-9.417l-4.058-2.345.93-1.6,4.055,2.345a13.872,13.872,0,0,1,6.36,11.02v4.681a12.216,12.216,0,0,0,5.439,9.417l19.421,11.216Z" transform="translate(-329.443 -176.961)" fill="#42e8e0" style="mix-blend-mode: lighten;isolation: isolate"/>
          <path id="Trazado_2505" data-name="Trazado 2505" d="M442.724,255,423.3,243.784a13.863,13.863,0,0,1-6.366-11.02v-4.681a12.037,12.037,0,0,0-5.436-9.42l-4.055-2.342.924-1.6,4.055,2.342a13.87,13.87,0,0,1,6.363,11.023v4.681a12.216,12.216,0,0,0,5.439,9.417L443.648,253.4Z" transform="translate(-324.348 -179.895)" fill="#42e8e0" style="mix-blend-mode: lighten;isolation: isolate"/>
          <path id="Trazado_2506" data-name="Trazado 2506" d="M445.185,253.577l-19.421-11.213a13.872,13.872,0,0,1-6.366-11.02V226.66a12.222,12.222,0,0,0-5.436-9.417l-4.055-2.342.924-1.6,4.055,2.339a13.869,13.869,0,0,1,6.363,11.02v4.684a12.236,12.236,0,0,0,5.439,9.42l19.421,11.213Z" transform="translate(-319.255 -182.828)" fill="#42e8e0" style="mix-blend-mode: lighten;isolation: isolate"/>
          <path id="Trazado_2507" data-name="Trazado 2507" d="M447.646,252.162l-19.421-11.216a13.869,13.869,0,0,1-6.363-11.02v-4.684a12.23,12.23,0,0,0-5.439-9.417l-4.055-2.342.921-1.6,4.058,2.339a13.872,13.872,0,0,1,6.366,11.02v4.684a12.228,12.228,0,0,0,5.436,9.42L448.57,250.56Z" transform="translate(-314.162 -185.762)" fill="#42e8e0" style="mix-blend-mode: lighten;isolation: isolate"/>
          <path id="Trazado_2508" data-name="Trazado 2508" d="M450.107,250.743,430.686,239.53a13.869,13.869,0,0,1-6.363-11.02v-4.684a12.221,12.221,0,0,0-5.439-9.417l-4.055-2.342.921-1.6,4.058,2.342a13.862,13.862,0,0,1,6.366,11.02v4.684a12.228,12.228,0,0,0,5.436,9.42l19.421,11.21Z" transform="translate(-309.069 -188.699)" fill="#42e8e0" style="mix-blend-mode: lighten;isolation: isolate"/>
          <path id="Trazado_2509" data-name="Trazado 2509" d="M452.57,249.325l-19.421-11.213a13.864,13.864,0,0,1-6.366-11.02v-4.684a12.206,12.206,0,0,0-5.436-9.414l-4.058-2.348.927-1.6,4.058,2.342a13.867,13.867,0,0,1,6.363,11.02v4.684a12.051,12.051,0,0,0,5.433,9.42l19.424,11.21Z" transform="translate(-303.978 -191.634)" fill="#42e8e0" style="mix-blend-mode: lighten;isolation: isolate"/>
          <path id="Trazado_2510" data-name="Trazado 2510" d="M455.029,247.907l-19.421-11.216a13.857,13.857,0,0,1-6.366-11.017v-4.684a12.045,12.045,0,0,0-5.436-9.42l-4.055-2.342.921-1.6,4.058,2.339a13.877,13.877,0,0,1,6.366,11.023v4.684a12.208,12.208,0,0,0,5.433,9.414L455.953,246.3Z" transform="translate(-298.883 -194.568)" fill="#42e8e0" style="mix-blend-mode: lighten;isolation: isolate"/>
          <path id="Trazado_2511" data-name="Trazado 2511" d="M457.492,246.489l-19.421-11.216a13.857,13.857,0,0,1-6.366-11.016V219.57a12.232,12.232,0,0,0-5.436-9.417l-4.058-2.342.924-1.6,4.058,2.339a13.872,13.872,0,0,1,6.366,11.02v4.687a12.208,12.208,0,0,0,5.433,9.414l19.421,11.216Z" transform="translate(-293.792 -197.503)" fill="#42e8e0" style="mix-blend-mode: lighten;isolation: isolate"/>
          <path id="Trazado_2512" data-name="Trazado 2512" d="M459.953,245.071l-19.424-11.216a13.867,13.867,0,0,1-6.363-11.016v-4.687a12.04,12.04,0,0,0-5.436-9.417l-4.058-2.342.924-1.6,4.058,2.339a13.872,13.872,0,0,1,6.366,11.02v4.687a12.224,12.224,0,0,0,5.433,9.417l19.421,11.213Z" transform="translate(-288.699 -200.437)" fill="#42e8e0" style="mix-blend-mode: lighten;isolation: isolate"/>
          <path id="Trazado_2513" data-name="Trazado 2513" d="M462.414,243.652,442.99,232.439a13.863,13.863,0,0,1-6.363-11.016v-4.687a12.219,12.219,0,0,0-5.433-9.417l-4.061-2.339.924-1.605,4.058,2.339a13.885,13.885,0,0,1,6.366,11.023v4.687a12.224,12.224,0,0,0,5.433,9.417l19.421,11.21Z" transform="translate(-283.606 -203.374)" fill="#42e8e0" style="mix-blend-mode: lighten;isolation: isolate"/>
        </g>
        <g id="Grupo_7567" data-name="Grupo 7567" transform="translate(0 89.914)">
          <path id="Trazado_2514" data-name="Trazado 2514" d="M368.2,270.6l-.924-1.6L386.7,257.782a12.221,12.221,0,0,0,5.439-9.417v-4.681a13.877,13.877,0,0,1,6.363-11.023l4.052-2.342.93,1.6-4.055,2.345a12.209,12.209,0,0,0-5.439,9.42v4.681a13.872,13.872,0,0,1-6.366,11.023Z" transform="translate(-223.753 -147.614)" fill="#42e8e0" style="mix-blend-mode: lighten;isolation: isolate"/>
          <path id="Trazado_2515" data-name="Trazado 2515" d="M365.743,269.179l-.924-1.6,19.421-11.216a12.217,12.217,0,0,0,5.436-9.417v-4.681a13.873,13.873,0,0,1,6.366-11.023L400.1,228.9l.924,1.6-4.055,2.339a12.047,12.047,0,0,0-5.436,9.423v4.681a13.873,13.873,0,0,1-6.366,11.023Z" transform="translate(-228.846 -150.549)" fill="#42e8e0" style="mix-blend-mode: lighten;isolation: isolate"/>
          <path id="Trazado_2516" data-name="Trazado 2516" d="M363.282,267.761l-.924-1.6,19.421-11.216a12.231,12.231,0,0,0,5.439-9.417v-4.684a13.869,13.869,0,0,1,6.363-11.02l4.055-2.342.924,1.6-4.055,2.339a12.228,12.228,0,0,0-5.436,9.42v4.684a13.872,13.872,0,0,1-6.366,11.02Z" transform="translate(-233.939 -153.483)" fill="#42e8e0" style="mix-blend-mode: lighten;isolation: isolate"/>
          <path id="Trazado_2517" data-name="Trazado 2517" d="M360.821,266.343l-.924-1.6,19.421-11.216a12.217,12.217,0,0,0,5.436-9.417v-4.684a13.872,13.872,0,0,1,6.366-11.02l4.055-2.342.924,1.6-4.055,2.339a12.236,12.236,0,0,0-5.439,9.42v4.684a13.869,13.869,0,0,1-6.363,11.02Z" transform="translate(-239.032 -156.418)" fill="#42e8e0" style="mix-blend-mode: lighten;isolation: isolate"/>
          <path id="Trazado_2518" data-name="Trazado 2518" d="M358.36,264.924l-.924-1.6,19.421-11.213a12.037,12.037,0,0,0,5.436-9.42v-4.681a13.863,13.863,0,0,1,6.366-11.02l4.052-2.345.93,1.6-4.055,2.342a12.221,12.221,0,0,0-5.442,9.42v4.681a13.869,13.869,0,0,1-6.363,11.023Z" transform="translate(-244.125 -159.354)" fill="#42e8e0" style="mix-blend-mode: lighten;isolation: isolate"/>
          <path id="Trazado_2519" data-name="Trazado 2519" d="M355.9,263.506l-.924-1.6L374.4,250.694a12.228,12.228,0,0,0,5.436-9.42v-4.681a13.863,13.863,0,0,1,6.366-11.02l4.052-2.345.93,1.6-4.055,2.342a12.221,12.221,0,0,0-5.442,9.42v4.681a13.867,13.867,0,0,1-6.363,11.02Z" transform="translate(-249.218 -162.289)" fill="#42e8e0" style="mix-blend-mode: lighten;isolation: isolate"/>
          <path id="Trazado_2520" data-name="Trazado 2520" d="M353.438,262.088l-.924-1.6,19.421-11.213a12.228,12.228,0,0,0,5.436-9.42v-4.681a13.877,13.877,0,0,1,6.366-11.023l4.055-2.342.924,1.6-4.055,2.339a12.05,12.05,0,0,0-5.439,9.423v4.681a13.868,13.868,0,0,1-6.363,11.02Z" transform="translate(-254.311 -165.224)" fill="#42e8e0" style="mix-blend-mode: lighten;isolation: isolate"/>
          <path id="Trazado_2521" data-name="Trazado 2521" d="M350.977,260.67l-.924-1.6,19.421-11.213a12.228,12.228,0,0,0,5.436-9.42v-4.684a13.872,13.872,0,0,1,6.366-11.02l4.058-2.342.921,1.6-4.055,2.342a12.034,12.034,0,0,0-5.439,9.417v4.684a13.869,13.869,0,0,1-6.363,11.02Z" transform="translate(-259.404 -168.158)" fill="#42e8e0" style="mix-blend-mode: lighten;isolation: isolate"/>
          <path id="Trazado_2522" data-name="Trazado 2522" d="M348.516,259.254l-.924-1.6,19.424-11.213a12.233,12.233,0,0,0,5.433-9.42v-4.684a13.869,13.869,0,0,1,6.363-11.02l4.061-2.345.921,1.608-4.058,2.339a12.217,12.217,0,0,0-5.436,9.417v4.684a13.869,13.869,0,0,1-6.363,11.02Z" transform="translate(-264.497 -171.095)" fill="#42e8e0" style="mix-blend-mode: lighten;isolation: isolate"/>
          <path id="Trazado_2523" data-name="Trazado 2523" d="M346.055,257.836l-.924-1.6,19.424-11.21a12.052,12.052,0,0,0,5.433-9.423V230.92a13.878,13.878,0,0,1,6.363-11.023l4.061-2.342.921,1.6-4.058,2.342a12.225,12.225,0,0,0-5.433,9.42V235.6a13.873,13.873,0,0,1-6.366,11.023Z" transform="translate(-269.59 -174.029)" fill="#42e8e0" style="mix-blend-mode: lighten;isolation: isolate"/>
          <path id="Trazado_2524" data-name="Trazado 2524" d="M343.592,256.418l-.921-1.6L362.092,243.6a12.22,12.22,0,0,0,5.433-9.42V229.5a13.878,13.878,0,0,1,6.363-11.023l4.061-2.342.921,1.6-4.058,2.345a12.214,12.214,0,0,0-5.433,9.417v4.681a13.873,13.873,0,0,1-6.366,11.023Z" transform="translate(-274.681 -176.964)" fill="#42e8e0" style="mix-blend-mode: lighten;isolation: isolate"/>
          <path id="Trazado_2525" data-name="Trazado 2525" d="M341.131,255l-.921-1.6,19.421-11.213a12.219,12.219,0,0,0,5.433-9.42v-4.681a13.87,13.87,0,0,1,6.363-11.023l4.061-2.342.924,1.605-4.061,2.342a12.031,12.031,0,0,0-5.433,9.417v4.681a13.873,13.873,0,0,1-6.366,11.023Z" transform="translate(-279.774 -179.898)" fill="#42e8e0" style="mix-blend-mode: lighten;isolation: isolate"/>
          <path id="Trazado_2526" data-name="Trazado 2526" d="M338.67,253.577l-.921-1.6,19.421-11.213a12.224,12.224,0,0,0,5.433-9.42V226.66a13.864,13.864,0,0,1,6.366-11.02l4.055-2.339.924,1.6-4.058,2.342a12.219,12.219,0,0,0-5.433,9.417v4.684a13.869,13.869,0,0,1-6.363,11.02Z" transform="translate(-284.867 -182.831)" fill="#42e8e0" style="mix-blend-mode: lighten;isolation: isolate"/>
          <path id="Trazado_2527" data-name="Trazado 2527" d="M336.208,252.162l-.921-1.6,19.424-11.213a12.225,12.225,0,0,0,5.433-9.42v-4.684a13.871,13.871,0,0,1,6.366-11.02l4.055-2.339.924,1.6-4.058,2.342A12.219,12.219,0,0,0,362,225.243v4.684a13.868,13.868,0,0,1-6.363,11.02Z" transform="translate(-289.963 -185.766)" fill="#42e8e0" style="mix-blend-mode: lighten;isolation: isolate"/>
          <path id="Trazado_2528" data-name="Trazado 2528" d="M333.75,250.743l-.924-1.6,19.421-11.21a12.05,12.05,0,0,0,5.436-9.42v-4.684a13.881,13.881,0,0,1,6.366-11.023l4.055-2.339.924,1.6-4.058,2.342a12.214,12.214,0,0,0-5.433,9.417v4.684a13.872,13.872,0,0,1-6.366,11.02Z" transform="translate(-295.056 -188.702)" fill="#42e8e0" style="mix-blend-mode: lighten;isolation: isolate"/>
          <path id="Trazado_2529" data-name="Trazado 2529" d="M331.289,249.325l-.924-1.6,19.421-11.21a12.054,12.054,0,0,0,5.436-9.42v-4.684a13.871,13.871,0,0,1,6.366-11.02l4.052-2.342.93,1.6-4.058,2.345a12.217,12.217,0,0,0-5.436,9.417v4.684a13.872,13.872,0,0,1-6.366,11.02Z" transform="translate(-300.149 -191.637)" fill="#42e8e0" style="mix-blend-mode: lighten;isolation: isolate"/>
          <path id="Trazado_2530" data-name="Trazado 2530" d="M328.828,247.907l-.924-1.6,19.421-11.213a12.225,12.225,0,0,0,5.439-9.417v-4.684a13.87,13.87,0,0,1,6.363-11.023l4.055-2.339.924,1.6-4.055,2.342a12.037,12.037,0,0,0-5.436,9.42v4.684a13.857,13.857,0,0,1-6.366,11.017Z" transform="translate(-305.242 -194.571)" fill="#42e8e0" style="mix-blend-mode: lighten;isolation: isolate"/>
          <path id="Trazado_2531" data-name="Trazado 2531" d="M326.367,246.489l-.924-1.6,19.421-11.213a12.225,12.225,0,0,0,5.439-9.417V219.57a13.869,13.869,0,0,1,6.363-11.02l4.055-2.339.924,1.6-4.055,2.342a12.228,12.228,0,0,0-5.436,9.417v4.687a13.857,13.857,0,0,1-6.366,11.016Z" transform="translate(-310.335 -197.506)" fill="#42e8e0" style="mix-blend-mode: lighten;isolation: isolate"/>
          <path id="Trazado_2532" data-name="Trazado 2532" d="M323.906,245.071l-.924-1.6L342.4,232.256a12.235,12.235,0,0,0,5.439-9.417v-4.687a13.869,13.869,0,0,1,6.363-11.02l4.055-2.339.924,1.6-4.055,2.342a12.227,12.227,0,0,0-5.436,9.417v4.687a13.87,13.87,0,0,1-6.366,11.016Z" transform="translate(-315.428 -200.44)" fill="#42e8e0" style="mix-blend-mode: lighten;isolation: isolate"/>
          <path id="Trazado_2533" data-name="Trazado 2533" d="M321.445,243.65l-.924-1.6,19.421-11.21a12.235,12.235,0,0,0,5.439-9.417v-4.687a13.882,13.882,0,0,1,6.363-11.023l4.055-2.336.924,1.6-4.055,2.342a12.222,12.222,0,0,0-5.436,9.417v4.687a13.866,13.866,0,0,1-6.366,11.016Z" transform="translate(-320.521 -203.375)" fill="#42e8e0" style="mix-blend-mode: lighten;isolation: isolate"/>
        </g>
      </g>
      <path id="Trazado_2534" data-name="Trazado 2534" d="M457.2,300.327,342.414,234.052V182.588l114.214,63.4,115.365-66.1v54.165Z" transform="translate(625.752 197.324)" opacity="0.5" fill="url(#linear-gradient-2)"/>
      <path id="Trazado_2535" data-name="Trazado 2535" d="M571.992,192.878v-12.99l-115.365,66.1-114.213-63.4v10.768l107.347,61.961c3.806,2.2,10.458,1.934,14.86-.6Z" transform="translate(625.752 197.323)" fill="#42e8e0" opacity="0.7"/>
      <g id="Grupo_7585" data-name="Grupo 7585" transform="translate(962.607 182.775)">
        <g id="Grupo_7581" data-name="Grupo 7581">
          <g id="Grupo_7571" data-name="Grupo 7571" transform="translate(0 103.656)">
            <g id="Grupo_7570" data-name="Grupo 7570">
              <path id="Trazado_2536" data-name="Trazado 2536" d="M468.368,305.776l110.806-63.818c2.431-1.4,3.659-3.2,3.637-4.9l.006.006,0-19.995-3.8,3.386-3.266-1.891c.356-.414.6-.773.534-.89l-1.621-2.812L496.5,168.716l-24.848-14.47-9.709-2.8-113.75,65.365.328,2.628-3.036,1.75-4.862-2.176-.021,19.878.012-.012c-.037,1.427.8,2.8,2.554,3.812l110.34,63.689C457.315,308.578,463.97,308.311,468.368,305.776Zm44.981-49.3-50.174,27.4-4.316-.212-83.794-46.884-23.215-11.99,109.342-62.977a3.769,3.769,0,0,1,3.395-.138l106.408,61.412Z" transform="translate(-340.603 -147.972)" fill="url(#linear-gradient-9)"/>
              <path id="Trazado_2537" data-name="Trazado 2537" d="M468.368,305.776l110.806-63.818c2.431-1.4,3.659-3.2,3.637-4.9l.006.006,0-19.995-3.8,3.386-3.266-1.891c.356-.414.6-.773.534-.89l-1.621-2.812L496.5,168.716l-24.848-14.47-9.709-2.8-113.75,65.365.328,2.628-3.036,1.75-4.862-2.176-.021,19.878.012-.012c-.037,1.427.8,2.8,2.554,3.812l110.34,63.689C457.315,308.578,463.97,308.311,468.368,305.776Zm44.981-49.3-50.174,27.4-4.316-.212-83.794-46.884-23.215-11.99,109.342-62.977a3.769,3.769,0,0,1,3.395-.138l106.408,61.412Z" transform="translate(-340.603 -147.972)" fill="url(#linear-gradient-10)"/>
              <path id="Trazado_2538" data-name="Trazado 2538" d="M379.623,263.609l.012-24.114,2.787.135,50.174-27.4,57.645-33.39-1.912-1.105c1.783-1.028,11.885-3.843,13.739-4.911l0,18.54v1.455l-.006-.006c.021,1.7-1.206,3.5-3.637,4.9L387.616,261.528A17.085,17.085,0,0,1,379.623,263.609Z" transform="translate(-259.851 -103.724)" fill="#0f054c" opacity="0.6"/>
              <path id="Trazado_2539" data-name="Trazado 2539" d="M468.372,287.888,579.178,224.07c4.4-2.535,4.884-6.375,1.077-8.579L469.916,151.8c-3.806-2.2-10.461-1.934-14.86.6L344.25,216.225c-4.4,2.532-4.884,6.372-1.078,8.576l110.34,63.689C457.319,290.691,463.973,290.421,468.372,287.888Zm-6.142-3.732a3.783,3.783,0,0,1-3.392.138L350.454,221.737c-.869-.5-.758-1.381.246-1.958l110.5-63.643a3.772,3.772,0,0,1,3.392-.135l108.388,62.557c.869.5.758,1.378-.246,1.958Z" transform="translate(-340.597 -150.313)" fill="url(#linear-gradient-11)"/>
              <path id="Trazado_2540" data-name="Trazado 2540" d="M468.372,287.888,579.178,224.07c4.4-2.535,4.884-6.375,1.077-8.579L469.916,151.8c-3.806-2.2-10.461-1.934-14.86.6L344.25,216.225c-4.4,2.532-4.884,6.372-1.078,8.576l110.34,63.689C457.319,290.691,463.973,290.421,468.372,287.888Zm-6.142-3.732a3.783,3.783,0,0,1-3.392.138L350.454,221.737c-.869-.5-.758-1.381.246-1.958l110.5-63.643a3.772,3.772,0,0,1,3.392-.135l108.388,62.557c.869.5.758,1.378-.246,1.958Z" transform="translate(-340.597 -150.313)" fill="url(#linear-gradient-12)"/>
              <g id="Grupo_7569" data-name="Grupo 7569" transform="translate(0.017 4.26)">
                <path id="Trazado_2541" data-name="Trazado 2541" d="M566.724,214.6,458.337,152.042a3.772,3.772,0,0,0-3.392.135l-110.5,63.643c-.813.467-1.028,1.127-.623,1.63a1.94,1.94,0,0,1,.623-.543l110.5-63.643a3.772,3.772,0,0,1,3.392-.135l108.387,62.557a1.288,1.288,0,0,1,.377.325A.911.911,0,0,0,566.724,214.6Z" transform="translate(-334.364 -151.701)" fill="#42e8e0"/>
                <path id="Trazado_2542" data-name="Trazado 2542" d="M579.172,176.882,468.366,240.7c-4.4,2.535-11.053,2.8-14.859.6l-110.34-63.686a4.643,4.643,0,0,1-2.514-3.2c-.252,1.593.565,3.152,2.514,4.282l110.34,63.689c3.806,2.2,10.461,1.931,14.859-.6l110.806-63.818c2.664-1.535,3.88-3.545,3.591-5.384C582.524,174.1,581.318,175.648,579.172,176.882Z" transform="translate(-340.609 -108.475)" fill="#42e8e0"/>
              </g>
              <path id="Trazado_2543" data-name="Trazado 2543" d="M458.336,160.413a3.769,3.769,0,0,0-3.395.138L349.574,221.236l-5.366-3.1c-.869-.5-.758-1.381.246-1.958l110.5-63.643a3.772,3.772,0,0,1,3.392-.135L566.73,214.953c.869.5.758,1.378-.246,1.958l-5.129,2.953Z" transform="translate(-334.353 -146.708)" fill="#251c72"/>
              <path id="Trazado_2544" data-name="Trazado 2544" d="M566.484,216.911c1-.58,1.114-1.458.246-1.958L458.342,152.4a3.772,3.772,0,0,0-3.392.135l-110.5,63.643c-1,.577-1.114,1.455-.246,1.958l108.384,62.557a3.783,3.783,0,0,0,3.392-.138Z" transform="translate(-334.353 -146.708)" fill="#42e8e0" opacity="0.7"/>
            </g>
          </g>
          <g id="Grupo_7574" data-name="Grupo 7574" transform="translate(0 69.104)">
            <g id="Grupo_7573" data-name="Grupo 7573">
              <path id="Trazado_2545" data-name="Trazado 2545" d="M468.368,294.52,579.174,230.7c2.431-1.4,3.659-3.2,3.637-4.9l.006.009,0-19.995-3.8,3.386-3.266-1.891c.356-.414.6-.777.534-.89-.193-.338-1.621-2.815-1.621-2.815L496.5,157.46l-24.848-14.47-9.709-2.8L348.194,205.55l.328,2.631-3.036,1.75-4.862-2.179-.021,19.878.012-.009c-.037,1.427.8,2.793,2.554,3.812l110.34,63.689C457.315,297.322,463.97,297.055,468.368,294.52Zm44.981-49.3-50.174,27.4-4.316-.212-83.794-46.884L351.85,213.534l109.342-62.977a3.779,3.779,0,0,1,3.395-.135l106.408,61.412Z" transform="translate(-340.603 -136.715)" fill="url(#linear-gradient-13)"/>
              <path id="Trazado_2546" data-name="Trazado 2546" d="M468.368,294.52,579.174,230.7c2.431-1.4,3.659-3.2,3.637-4.9l.006.009,0-19.995-3.8,3.386-3.266-1.891c.356-.414.6-.777.534-.89-.193-.338-1.621-2.815-1.621-2.815L496.5,157.46l-24.848-14.47-9.709-2.8L348.194,205.55l.328,2.631-3.036,1.75-4.862-2.179-.021,19.878.012-.009c-.037,1.427.8,2.793,2.554,3.812l110.34,63.689C457.315,297.322,463.97,297.055,468.368,294.52Zm44.981-49.3-50.174,27.4-4.316-.212-83.794-46.884L351.85,213.534l109.342-62.977a3.779,3.779,0,0,1,3.395-.135l106.408,61.412Z" transform="translate(-340.603 -136.715)" fill="url(#linear-gradient-14)"/>
              <path id="Trazado_2547" data-name="Trazado 2547" d="M379.623,252.353l.012-24.117,2.787.138,50.174-27.4,57.645-33.39-1.912-1.108c1.783-1.025,11.885-3.84,13.739-4.908l0,18.537v1.458l-.006-.009c.021,1.7-1.206,3.5-3.637,4.9L387.616,250.272A17.158,17.158,0,0,1,379.623,252.353Z" transform="translate(-259.851 -92.467)" fill="#0f054c" opacity="0.6"/>
              <path id="Trazado_2548" data-name="Trazado 2548" d="M468.372,276.633l110.806-63.821c4.4-2.535,4.884-6.375,1.077-8.576l-110.34-63.689c-3.806-2.2-10.461-1.934-14.86.6L344.25,204.967c-4.4,2.535-4.884,6.375-1.078,8.579l110.34,63.686C457.319,279.436,463.973,279.166,468.372,276.633ZM462.23,272.9a3.763,3.763,0,0,1-3.392.138L350.454,210.479c-.869-.5-.758-1.378.246-1.958l110.5-63.64a3.763,3.763,0,0,1,3.392-.138L572.975,207.3c.869.5.758,1.381-.246,1.958Z" transform="translate(-340.597 -139.057)" fill="url(#linear-gradient-15)"/>
              <path id="Trazado_2549" data-name="Trazado 2549" d="M468.372,276.633l110.806-63.821c4.4-2.535,4.884-6.375,1.077-8.576l-110.34-63.689c-3.806-2.2-10.461-1.934-14.86.6L344.25,204.967c-4.4,2.535-4.884,6.375-1.078,8.579l110.34,63.686C457.319,279.436,463.973,279.166,468.372,276.633ZM462.23,272.9a3.763,3.763,0,0,1-3.392.138L350.454,210.479c-.869-.5-.758-1.378.246-1.958l110.5-63.64a3.763,3.763,0,0,1,3.392-.138L572.975,207.3c.869.5.758,1.381-.246,1.958Z" transform="translate(-340.597 -139.057)" fill="url(#linear-gradient-16)"/>
              <g id="Grupo_7572" data-name="Grupo 7572" transform="translate(0.017 4.259)">
                <path id="Trazado_2550" data-name="Trazado 2550" d="M566.724,203.341,458.337,140.785a3.764,3.764,0,0,0-3.392.138l-110.5,63.64c-.813.47-1.028,1.13-.623,1.633a1.909,1.909,0,0,1,.623-.546l110.5-63.64a3.764,3.764,0,0,1,3.392-.138l108.387,62.557a1.3,1.3,0,0,1,.377.328A.911.911,0,0,0,566.724,203.341Z" transform="translate(-334.364 -140.444)" fill="#42e8e0"/>
                <path id="Trazado_2551" data-name="Trazado 2551" d="M579.172,165.626,468.366,229.444c-4.4,2.535-11.053,2.806-14.859.6L343.167,166.36a4.655,4.655,0,0,1-2.514-3.2c-.252,1.593.565,3.152,2.514,4.282l110.34,63.686c3.806,2.2,10.461,1.934,14.859-.6l110.806-63.821c2.664-1.535,3.88-3.545,3.591-5.381C582.524,162.845,581.318,164.392,579.172,165.626Z" transform="translate(-340.609 -97.216)" fill="#42e8e0"/>
              </g>
              <path id="Trazado_2552" data-name="Trazado 2552" d="M458.336,149.159a3.778,3.778,0,0,0-3.395.135L349.574,209.982l-5.366-3.106c-.869-.5-.758-1.378.246-1.958l110.5-63.64a3.763,3.763,0,0,1,3.392-.138L566.73,203.7c.869.5.758,1.381-.246,1.958l-5.129,2.956Z" transform="translate(-334.353 -135.452)" fill="#251c72"/>
              <path id="Trazado_2553" data-name="Trazado 2553" d="M566.484,205.654c1-.577,1.114-1.455.246-1.958L458.342,141.139a3.763,3.763,0,0,0-3.392.138l-110.5,63.64c-1,.58-1.114,1.455-.246,1.958l108.384,62.557a3.763,3.763,0,0,0,3.392-.138Z" transform="translate(-334.353 -135.452)" fill="#42e8e0" opacity="0.7"/>
            </g>
          </g>
          <g id="Grupo_7577" data-name="Grupo 7577" transform="translate(0 34.552)">
            <g id="Grupo_7576" data-name="Grupo 7576">
              <path id="Trazado_2554" data-name="Trazado 2554" d="M468.368,283.264l110.806-63.821c2.431-1.4,3.659-3.2,3.637-4.9l.006.006,0-19.995-3.8,3.389-3.266-1.894c.356-.414.6-.773.534-.887-.193-.338-1.621-2.815-1.621-2.815L496.5,146.2l-24.848-14.467-9.709-2.8-113.75,65.362.328,2.631-3.036,1.747-4.862-2.176-.021,19.878.012-.012c-.037,1.427.8,2.8,2.554,3.815l110.34,63.686C457.315,286.066,463.97,285.8,468.368,283.264Zm44.981-49.3-50.174,27.4-4.316-.209L375.064,214.27,351.85,202.278,461.192,139.3a3.77,3.77,0,0,1,3.395-.138l106.408,61.412Z" transform="translate(-340.603 -125.458)" fill="url(#linear-gradient-17)"/>
              <path id="Trazado_2555" data-name="Trazado 2555" d="M468.368,283.264l110.806-63.821c2.431-1.4,3.659-3.2,3.637-4.9l.006.006,0-19.995-3.8,3.389-3.266-1.894c.356-.414.6-.773.534-.887-.193-.338-1.621-2.815-1.621-2.815L496.5,146.2l-24.848-14.467-9.709-2.8-113.75,65.362.328,2.631-3.036,1.747-4.862-2.176-.021,19.878.012-.012c-.037,1.427.8,2.8,2.554,3.815l110.34,63.686C457.315,286.066,463.97,285.8,468.368,283.264Zm44.981-49.3-50.174,27.4-4.316-.209L375.064,214.27,351.85,202.278,461.192,139.3a3.77,3.77,0,0,1,3.395-.138l106.408,61.412Z" transform="translate(-340.603 -125.458)" fill="url(#linear-gradient-18)"/>
              <path id="Trazado_2556" data-name="Trazado 2556" d="M379.623,241.1l.012-24.114,2.787.135,50.174-27.4,57.645-33.39-1.912-1.105c1.783-1.028,11.885-3.843,13.739-4.911l0,18.54v1.455l-.006-.006c.021,1.7-1.206,3.5-3.637,4.9L387.616,239.018A17.118,17.118,0,0,1,379.623,241.1Z" transform="translate(-259.851 -81.212)" fill="#0f054c" opacity="0.6"/>
              <path id="Trazado_2557" data-name="Trazado 2557" d="M468.372,265.375l110.806-63.818c4.4-2.535,4.884-6.375,1.077-8.579l-110.34-63.686c-3.806-2.2-10.461-1.934-14.86.6L344.25,193.711c-4.4,2.535-4.884,6.375-1.078,8.576l110.34,63.689C457.319,268.178,463.973,267.911,468.372,265.375Zm-6.142-3.732a3.763,3.763,0,0,1-3.392.138L350.454,199.224c-.869-.5-.758-1.381.246-1.958l110.5-63.64a3.764,3.764,0,0,1,3.392-.138l108.388,62.557c.869.5.758,1.378-.246,1.958Z" transform="translate(-340.597 -127.8)" fill="url(#linear-gradient-19)"/>
              <path id="Trazado_2558" data-name="Trazado 2558" d="M468.372,265.375l110.806-63.818c4.4-2.535,4.884-6.375,1.077-8.579l-110.34-63.686c-3.806-2.2-10.461-1.934-14.86.6L344.25,193.711c-4.4,2.535-4.884,6.375-1.078,8.576l110.34,63.689C457.319,268.178,463.973,267.911,468.372,265.375Zm-6.142-3.732a3.763,3.763,0,0,1-3.392.138L350.454,199.224c-.869-.5-.758-1.381.246-1.958l110.5-63.64a3.764,3.764,0,0,1,3.392-.138l108.388,62.557c.869.5.758,1.378-.246,1.958Z" transform="translate(-340.597 -127.8)" fill="url(#linear-gradient-20)"/>
              <g id="Grupo_7575" data-name="Grupo 7575" transform="translate(0.017 4.26)">
                <path id="Trazado_2559" data-name="Trazado 2559" d="M566.724,192.085,458.337,129.529a3.772,3.772,0,0,0-3.392.135l-110.5,63.643c-.813.467-1.028,1.13-.623,1.63a1.94,1.94,0,0,1,.623-.543l110.5-63.64a3.764,3.764,0,0,1,3.392-.138l108.387,62.557a1.333,1.333,0,0,1,.377.325A.908.908,0,0,0,566.724,192.085Z" transform="translate(-334.364 -129.188)" fill="#42e8e0"/>
                <path id="Trazado_2560" data-name="Trazado 2560" d="M579.172,154.372,468.366,218.19c-4.4,2.535-11.053,2.8-14.859.6L343.167,155.1a4.643,4.643,0,0,1-2.514-3.2c-.252,1.593.565,3.152,2.514,4.282l110.34,63.689c3.806,2.2,10.461,1.934,14.859-.6l110.806-63.818c2.664-1.535,3.88-3.545,3.591-5.384C582.524,151.591,581.318,153.135,579.172,154.372Z" transform="translate(-340.609 -85.962)" fill="#42e8e0"/>
              </g>
              <path id="Trazado_2561" data-name="Trazado 2561" d="M458.336,137.9a3.77,3.77,0,0,0-3.395.138L349.574,198.726l-5.366-3.106c-.869-.5-.758-1.381.246-1.958l110.5-63.64a3.764,3.764,0,0,1,3.392-.138L566.73,192.439c.869.5.758,1.378-.246,1.958l-5.129,2.953Z" transform="translate(-334.353 -124.195)" fill="#251c72"/>
              <path id="Trazado_2562" data-name="Trazado 2562" d="M566.484,194.4c1-.58,1.114-1.455.246-1.958L458.342,129.883a3.764,3.764,0,0,0-3.392.138l-110.5,63.64c-1,.577-1.114,1.455-.246,1.958l108.384,62.557a3.763,3.763,0,0,0,3.392-.138Z" transform="translate(-334.353 -124.195)" fill="#42e8e0" opacity="0.7"/>
            </g>
          </g>
          <g id="Grupo_7580" data-name="Grupo 7580">
            <g id="Grupo_7579" data-name="Grupo 7579">
              <path id="Trazado_2563" data-name="Trazado 2563" d="M468.368,272.007l110.806-63.818c2.431-1.4,3.659-3.2,3.637-4.9l.006.006,0-19.995-3.8,3.386-3.266-1.891c.356-.414.6-.777.534-.89-.193-.338-1.621-2.815-1.621-2.815L496.5,134.947l-24.848-14.47-9.709-2.8L348.194,183.04l.328,2.627-3.036,1.75-4.862-2.176-.021,19.878.012-.012c-.037,1.427.8,2.8,2.554,3.812l110.34,63.689C457.315,274.809,463.97,274.542,468.368,272.007Zm44.981-49.3-50.174,27.4-4.316-.212-83.794-46.884L351.85,191.024l109.342-62.98a3.778,3.778,0,0,1,3.395-.135L570.994,189.32Z" transform="translate(-340.603 -114.202)" fill="url(#linear-gradient-21)"/>
              <path id="Trazado_2564" data-name="Trazado 2564" d="M468.368,272.007l110.806-63.818c2.431-1.4,3.659-3.2,3.637-4.9l.006.006,0-19.995-3.8,3.386-3.266-1.891c.356-.414.6-.777.534-.89-.193-.338-1.621-2.815-1.621-2.815L496.5,134.947l-24.848-14.47-9.709-2.8L348.194,183.04l.328,2.627-3.036,1.75-4.862-2.176-.021,19.878.012-.012c-.037,1.427.8,2.8,2.554,3.812l110.34,63.689C457.315,274.809,463.97,274.542,468.368,272.007Zm44.981-49.3-50.174,27.4-4.316-.212-83.794-46.884L351.85,191.024l109.342-62.98a3.778,3.778,0,0,1,3.395-.135L570.994,189.32Z" transform="translate(-340.603 -114.202)" fill="url(#linear-gradient-22)"/>
              <path id="Trazado_2565" data-name="Trazado 2565" d="M379.623,229.84l.012-24.114,2.787.135,50.174-27.4,57.645-33.39-1.912-1.108c1.783-1.025,11.885-3.84,13.739-4.908l0,18.537v1.458l-.006-.006c.021,1.7-1.206,3.5-3.637,4.9L387.616,227.759A17.121,17.121,0,0,1,379.623,229.84Z" transform="translate(-259.851 -69.954)" fill="#0f054c" opacity="0.6"/>
              <path id="Trazado_2566" data-name="Trazado 2566" d="M468.372,254.12,579.178,190.3c4.4-2.532,4.884-6.372,1.077-8.576l-110.34-63.689c-3.806-2.2-10.461-1.934-14.86.6L344.25,182.457c-4.4,2.532-4.884,6.372-1.078,8.576l110.34,63.686C457.319,256.923,463.973,256.653,468.372,254.12Zm-6.142-3.733a3.772,3.772,0,0,1-3.392.135L350.454,187.966c-.869-.5-.758-1.378.246-1.958l110.5-63.64a3.783,3.783,0,0,1,3.392-.138l108.388,62.557c.869.5.758,1.381-.246,1.958Z" transform="translate(-340.597 -116.544)" fill="url(#linear-gradient-23)"/>
              <path id="Trazado_2567" data-name="Trazado 2567" d="M468.372,254.12,579.178,190.3c4.4-2.532,4.884-6.372,1.077-8.576l-110.34-63.689c-3.806-2.2-10.461-1.934-14.86.6L344.25,182.457c-4.4,2.532-4.884,6.372-1.078,8.576l110.34,63.686C457.319,256.923,463.973,256.653,468.372,254.12Zm-6.142-3.733a3.772,3.772,0,0,1-3.392.135L350.454,187.966c-.869-.5-.758-1.378.246-1.958l110.5-63.64a3.783,3.783,0,0,1,3.392-.138l108.388,62.557c.869.5.758,1.381-.246,1.958Z" transform="translate(-340.597 -116.544)" fill="url(#linear-gradient-24)"/>
              <g id="Grupo_7578" data-name="Grupo 7578" transform="translate(0.017 4.26)">
                <path id="Trazado_2568" data-name="Trazado 2568" d="M566.724,180.828,458.337,118.271a3.773,3.773,0,0,0-3.392.138l-110.5,63.64c-.813.47-1.028,1.13-.623,1.633a1.909,1.909,0,0,1,.623-.546l110.5-63.64a3.783,3.783,0,0,1,3.392-.138l108.387,62.557a1.341,1.341,0,0,1,.377.328A.911.911,0,0,0,566.724,180.828Z" transform="translate(-334.364 -117.931)" fill="#42e8e0"/>
                <path id="Trazado_2569" data-name="Trazado 2569" d="M579.172,143.113,468.366,206.934c-4.4,2.532-11.053,2.8-14.859.6l-110.34-63.686a4.649,4.649,0,0,1-2.514-3.2c-.252,1.593.565,3.152,2.514,4.282l110.34,63.686c3.806,2.2,10.461,1.934,14.859-.6L579.172,144.2c2.664-1.532,3.88-3.545,3.591-5.381C582.524,140.332,581.318,141.879,579.172,143.113Z" transform="translate(-340.609 -74.704)" fill="#42e8e0"/>
              </g>
              <path id="Trazado_2570" data-name="Trazado 2570" d="M458.336,126.645a3.778,3.778,0,0,0-3.395.135L349.574,187.467l-5.366-3.106c-.869-.5-.758-1.378.246-1.958l110.5-63.64a3.783,3.783,0,0,1,3.392-.138L566.73,181.181c.869.5.758,1.381-.246,1.958l-5.129,2.956Z" transform="translate(-334.353 -112.938)" fill="#251c72"/>
              <path id="Trazado_2571" data-name="Trazado 2571" d="M566.484,183.139c1-.577,1.114-1.455.246-1.958L458.342,118.624a3.783,3.783,0,0,0-3.392.138l-110.5,63.64c-1,.58-1.114,1.458-.246,1.958l108.384,62.557a3.772,3.772,0,0,0,3.392-.135Z" transform="translate(-334.353 -112.938)" fill="#42e8e0" opacity="0.7"/>
            </g>
          </g>
        </g>
        <g id="Grupo_7582" data-name="Grupo 7582" transform="translate(214.279 87.751)">
          <path id="Trazado_2572" data-name="Trazado 2572" d="M414.025,148.788a4,4,0,0,1-1.808,3.131c-1,.574-1.8.107-1.8-1.044a3.988,3.988,0,0,1,1.8-3.128C413.215,147.171,414.025,147.637,414.025,148.788Z" transform="translate(-410.412 -140.229)" fill="#42e8e0"/>
          <path id="Trazado_2573" data-name="Trazado 2573" d="M416.076,147.605a3.988,3.988,0,0,1-1.8,3.128c-1,.577-1.808.11-1.808-1.041a4,4,0,0,1,1.808-3.131C415.269,145.988,416.076,146.454,416.076,147.605Z" transform="translate(-406.167 -142.68)" fill="#42e8e0"/>
          <path id="Trazado_2574" data-name="Trazado 2574" d="M418.128,146.422a4,4,0,0,1-1.808,3.128c-1,.577-1.8.111-1.8-1.044a3.993,3.993,0,0,1,1.8-3.128C417.317,144.8,418.128,145.268,418.128,146.422Z" transform="translate(-401.921 -145.131)" fill="#42e8e0"/>
        </g>
        <g id="Grupo_7583" data-name="Grupo 7583" transform="translate(214.279 123.031)">
          <path id="Trazado_2575" data-name="Trazado 2575" d="M414.025,160.284a4,4,0,0,1-1.808,3.128c-1,.577-1.8.11-1.8-1.044a3.993,3.993,0,0,1,1.8-3.128C413.215,158.664,414.025,159.13,414.025,160.284Z" transform="translate(-410.412 -151.724)" fill="#42e8e0"/>
          <path id="Trazado_2576" data-name="Trazado 2576" d="M416.076,159.1a3.993,3.993,0,0,1-1.8,3.131c-1,.574-1.808.107-1.808-1.044a3.991,3.991,0,0,1,1.808-3.128C415.269,157.48,416.076,157.946,416.076,159.1Z" transform="translate(-406.167 -154.174)" fill="#42e8e0"/>
          <path id="Trazado_2577" data-name="Trazado 2577" d="M418.128,157.914a3.991,3.991,0,0,1-1.808,3.128c-1,.577-1.8.111-1.8-1.041a3.993,3.993,0,0,1,1.8-3.131C417.317,156.3,418.128,156.763,418.128,157.914Z" transform="translate(-401.921 -156.625)" fill="#42e8e0"/>
        </g>
        <g id="Grupo_7584" data-name="Grupo 7584" transform="translate(214.279 191.089)">
          <path id="Trazado_2578" data-name="Trazado 2578" d="M414.025,182.454a4,4,0,0,1-1.808,3.131c-1,.574-1.8.107-1.8-1.044a3.988,3.988,0,0,1,1.8-3.128C413.215,180.837,414.025,181.3,414.025,182.454Z" transform="translate(-410.412 -173.895)" fill="#706ec4"/>
          <path id="Trazado_2579" data-name="Trazado 2579" d="M416.076,181.271a3.988,3.988,0,0,1-1.8,3.128c-1,.577-1.808.11-1.808-1.041a4,4,0,0,1,1.808-3.131C415.269,179.654,416.076,180.12,416.076,181.271Z" transform="translate(-406.167 -176.346)" fill="#706ec4"/>
          <path id="Trazado_2580" data-name="Trazado 2580" d="M418.128,180.085a4,4,0,0,1-1.808,3.131c-1,.577-1.8.107-1.8-1.044a3.988,3.988,0,0,1,1.8-3.128C417.317,178.468,418.128,178.934,418.128,180.085Z" transform="translate(-401.921 -178.797)" fill="#706ec4"/>
        </g>
      </g>
    </g>
  </g>
</svg>
