<svg xmlns="http://www.w3.org/2000/svg" xmlns:xlink="http://www.w3.org/1999/xlink" width="262" height="651.943" viewBox="0 0 262 651.943"><defs><clipPath id="a"><rect width="262" height="651.943" transform="translate(0 0)" fill="#fff" stroke="#707070" stroke-width="1"/></clipPath><clipPath id="b"><rect width="1244.603" height="651.943" rx="12.001" fill="none"/></clipPath></defs><g opacity="0.3" clip-path="url(#a)"><g transform="translate(-982.603 0)"><g transform="translate(0)"><g clip-path="url(#b)"><g transform="translate(-31.541 -114.304)"><path d="M1.8,1.039a9.581,9.581,0,0,1,8.68,0c2.4,1.384,2.4,3.627,0,5.013a9.6,9.6,0,0,1-8.68,0C-.6,4.666-.6,2.423,1.8,1.039Z" transform="translate(1316.724 112.445)" fill="#42e8e0"/><path d="M1.8,1.038a9.6,9.6,0,0,1,8.68,0c2.4,1.384,2.4,3.627,0,5.013a9.6,9.6,0,0,1-8.68,0C-.6,4.664-.6,2.421,1.8,1.038Z" transform="translate(1141.816 123.744)" fill="#42e8e0"/><path d="M1.8,1.039a9.586,9.586,0,0,1,8.683,0c2.4,1.384,2.4,3.627,0,5.013a9.6,9.6,0,0,1-8.683,0C-.6,4.666-.6,2.423,1.8,1.039Z" transform="translate(1063.582 80.687)" fill="#42e8e0"/><path d="M1.8,1.038a9.6,9.6,0,0,1,8.683,0c2.4,1.384,2.4,3.629,0,5.013a9.6,9.6,0,0,1-8.683,0C-.6,4.667-.6,2.421,1.8,1.038Z" transform="translate(1415.194 263.247)" fill="#42e8e0"/><g transform="translate(0)"><path d="M163.861,0l-.342.2L0,94.606l1.033.593,162.833,94.015.344-.2L327.73,94.61l-1.033-.595ZM2.751,94.606,163.861,1.589,324.978,94.61,163.866,187.625Z" transform="translate(671.317 325.407)" fill="#21c4fc"/><path d="M.686,0,0,1.189,112.512,66.147l0,106.555.345.2,324.467,187.33.686-1.189L113.89,171.91l0-106.555-.345-.2Z" transform="translate(894.861 478.582)" fill="#21c4fc"/><path d="M1.376,0H0L0,98.356l.345.2L138.767,178.47l.685-1.189L1.378,97.564Z" transform="translate(1040.12 669.792)" fill="#21c4fc"/><path d="M.686,0,0,1.189,110.039,64.723H301.423l167.75,96.852h29.448l.158-.093,118.654-68.5-.686-1.189L498.252,160.2h-28.71L301.793,63.347H110.409Z" transform="translate(916.084 466.327)" fill="#21c4fc"/><path d="M436.378,0,215.261,127.661H83.413l-.158.093L0,175.819v77.986H1.376V176.612l82.407-47.576H215.63l.158-.093L437.064,1.189Z" transform="translate(317.216 466.325)" fill="#21c4fc"/><path d="M304.893,0,80.3,129.671l0,77.022L0,253.055l.686,1.189,80.989-46.759,0-77.022L305.579,1.189Z" transform="translate(475.167 481.605)" fill="#21c4fc"/><path d="M132.322,0,0,76.394l0,66.1.345.2L229.556,275.026l.686-1.189L1.378,141.7l0-64.513,131.632-76Z" transform="translate(675.471 497.617)" fill="#21c4fc"/><path d="M89.9,0h-.185l-.158.094L0,51.8l.686,1.189L90.08,1.376l202.548,0,146.362,84.5H560.032L726.573,182.03l.686-1.189L560.4,84.5H439.359L293,0Z" transform="translate(5.796 203.925)" fill="#21c4fc"/><path d="M.686,0,0,1.189,72.592,43.1H211.505l157.61,91,.686-1.189L211.875,41.728H72.962Z" transform="translate(344.401 262.742)" fill="#21c4fc"/><path d="M252.276,0,136.592,66.789H54.109L.686,35.947,0,37.135,53.74,68.164h83.222l.158-.093L252.961,1.189Z" transform="translate(389.053 353.973)" fill="#21c4fc"/><path d="M.686,0,0,1.189,64.4,38.375V70.339H65.78V37.583l-.345-.2Z" transform="translate(326.296 187.263)" fill="#21c4fc"/><path d="M52.651,0H0V1.376H52.281l93.8,54.151.686-1.189Z" transform="translate(733.833 672.325)" fill="#21c4fc"/><path d="M66.488,0H65.112l0,33.977L0,71.57v36.7H1.376V72.363L66.49,34.769Z" transform="translate(717.145 512.752)" fill="#21c4fc"/><path d="M236.373,0,122.915,65.5l0,106.553L0,243.024l.686,1.189L124.293,172.85l0-106.553L237.058,1.189Z" transform="translate(911.24 126.694)" fill="#21c4fc"/><path d="M179.815,0l-45,25.976V72.95L91.162,98.156l0,124.887L0,275.678l.686,1.189,91.856-53.032,0-124.887L136.2,73.743V26.768L180.5,1.189Z" transform="translate(891.395 82.582)" fill="#21c4fc"/><path d="M442.277,0l-35.45,20.464H331.2l-.158.093L194.863,99.176H75l-.158.093L0,142.477l.686,1.189,74.68-43.115H195.233l.158-.093L331.566,21.84H407.2l.158-.093L442.963,1.189Z" transform="translate(978.712 266.197)" fill="#21c4fc"/><path d="M139.011,0,91.542,27.4H0v1.376H91.912l.158-.094L139.7,1.189Z" transform="translate(1204.696 320.11)" fill="#21c4fc"/><path d="M379.972,0,204.28,101.435v53.021L0,272.4l.686,1.189,204.97-118.338V102.228l175-101.039Z" transform="translate(942.547 115.397)" fill="#21c4fc"/><path d="M.686,0,0,1.189,79.293,46.97l221.752,0,160.083,92.422.686-1.189L301.414,45.6l-221.752,0Z" transform="translate(938.022 453.663)" fill="#21c4fc"/><path d="M45.7,0h-.185l-.158.093L0,26.279l.685,1.189,45.2-26.092,122.053,0V0Z" transform="translate(1072.501 473.072)" fill="#21c4fc"/><path d="M178.052,0h-1.376l0,74.4L0,176.4l0,82.068.345.2,167.2,96.529.686-1.189L1.378,257.679l0-80.484,176.679-102Z" transform="translate(611.956 3.546)" fill="#21c4fc"/><path d="M132.772,0,71.906,35.139,0,35.136v1.376l72.276,0,.158-.093L133.457,1.189Z" transform="translate(691.868 98.906)" fill="#21c4fc"/><rect width="141.788" height="1.372" transform="translate(681.076 273.012) rotate(29.968)" fill="#21c4fc"/><path d="M71.2,0H69.827l0,207.841L0,248.16l.686,1.189,70.522-40.715Z" transform="translate(865.1 94.919)" fill="#21c4fc"/><path d="M1.376,0H0L0,72.814l.345.2L36.565,93.924l.686-1.189L1.378,72.022Z" transform="translate(898.712 124.993)" fill="#21c4fc"/><path d="M433.322,0,323.256,63.545l-169.994,0-.158.093L96.892,96.09H69.852L.686,56.159,0,57.348,69.482,97.466H97.261l.158-.093,56.213-32.454,169.994,0,.158-.094L434.007,1.189Z" transform="translate(957.493 386.26)" fill="#21c4fc"/><path d="M44.7,0H0V1.376H44.328L186.311,83.346,187,82.158Z" transform="translate(639.822 248.473)" fill="#21c4fc"/><path d="M.685,0,0,1.189,116.121,68.231V95.367l-34.112,19.7.686,1.189L117.5,96.16V67.439l-.345-.2Z" transform="translate(759.527 214.41)" fill="#21c4fc"/><path d="M.686,0,0,1.189l52.128,30.1H95.91V29.912H52.5Z" transform="translate(751.836 235.319)" fill="#21c4fc"/><path d="M.686,0,0,1.189l53.483,30.88V56.883l.345.2,60.525,34.943v14.249h1.376V91.231l-.345-.2L54.859,56.09V31.276l-.345-.2Z" transform="translate(752.766 171.051)" fill="#21c4fc"/><path d="M1.8,1.039a9.585,9.585,0,0,1,8.683,0c2.4,1.384,2.4,3.627,0,5.013a9.6,9.6,0,0,1-8.683,0C-.6,4.666-.6,2.423,1.8,1.039Z" transform="translate(746.039 232.369)" fill="#21c4fc"/><path d="M1.8,1.038a9.6,9.6,0,0,1,8.683,0c2.4,1.384,2.4,3.629,0,5.013a9.6,9.6,0,0,1-8.683,0C-.6,4.667-.6,2.421,1.8,1.038Z" transform="translate(753.575 211.55)" fill="#21c4fc"/><path d="M1.8,1.038a9.6,9.6,0,0,1,8.683,0c2.4,1.384,2.4,3.629,0,5.013a9.6,9.6,0,0,1-8.683,0C-.6,4.667-.6,2.421,1.8,1.038Z" transform="translate(877.853 223.581)" fill="#21c4fc"/><path d="M1.8,1.038a9.6,9.6,0,0,1,8.682,0c2.4,1.384,2.4,3.629,0,5.013a9.6,9.6,0,0,1-8.682,0C-.6,4.667-.6,2.421,1.8,1.038Z" transform="translate(1138.472 410.967)" fill="#21c4fc"/><path d="M1.8,1.037a9.593,9.593,0,0,1,8.683,0c2.4,1.384,2.4,3.627,0,5.013a9.593,9.593,0,0,1-8.683,0C-.6,4.666-.6,2.423,1.8,1.037Z" transform="translate(1306.534 373.458)" fill="#21c4fc"/><path d="M1.8,1.039a9.585,9.585,0,0,1,8.683,0c2.4,1.384,2.4,3.627,0,5.013a9.6,9.6,0,0,1-8.683,0C-.6,4.666-.6,2.423,1.8,1.039Z" transform="translate(1085.216 436.701)" fill="#21c4fc"/><path d="M1.8,1.038a9.6,9.6,0,0,1,8.68,0c2.4,1.386,2.4,3.629,0,5.013a9.581,9.581,0,0,1-8.68,0C-.6,4.667-.6,2.421,1.8,1.038Z" transform="translate(1066.226 395.038)" fill="#21c4fc"/><path d="M1.8,1.039a9.581,9.581,0,0,1,8.68,0c2.4,1.384,2.4,3.627,0,5.013a9.6,9.6,0,0,1-8.68,0C-.6,4.666-.6,2.423,1.8,1.039Z" transform="translate(783.181 0)" fill="#21c4fc"/><path d="M1.8,1.038a9.6,9.6,0,0,1,8.682,0c2.4,1.384,2.4,3.629,0,5.013a9.6,9.6,0,0,1-8.682,0C-.6,4.667-.6,2.421,1.8,1.038Z" transform="translate(818.842 95.957)" fill="#21c4fc"/><path d="M1.8,1.038a9.6,9.6,0,0,1,8.683,0c2.4,1.384,2.4,3.629,0,5.013a9.6,9.6,0,0,1-8.683,0C-.6,4.667-.6,2.421,1.8,1.038Z" transform="translate(239.761 8.652)" fill="#21c4fc"/><path d="M1.8,1.038a9.6,9.6,0,0,1,8.683,0c2.4,1.384,2.4,3.629,0,5.013a9.6,9.6,0,0,1-8.683,0C-.6,4.667-.6,2.421,1.8,1.038Z" transform="translate(451.898 4.187)" fill="#21c4fc"/><path d="M1.8,1.038a9.6,9.6,0,0,1,8.683,0c2.4,1.386,2.4,3.629,0,5.013a9.586,9.586,0,0,1-8.683,0C-.6,4.667-.6,2.424,1.8,1.038Z" transform="translate(515.468 148.8)" fill="#21c4fc"/><path d="M1.8,1.039a9.585,9.585,0,0,1,8.682,0c2.4,1.384,2.4,3.627,0,5.013a9.594,9.594,0,0,1-8.68,0C-.6,4.666-.6,2.423,1.8,1.039Z" transform="translate(1234.297 470.216)" fill="#21c4fc"/><path d="M1.8,1.038a9.6,9.6,0,0,1,8.683,0c2.4,1.384,2.4,3.629,0,5.013a9.6,9.6,0,0,1-8.683,0C-.6,4.667-.6,2.421,1.8,1.038Z" transform="translate(1393.353 588.918)" fill="#21c4fc"/><path d="M1.8,1.038a9.6,9.6,0,0,1,8.683,0c2.4,1.386,2.4,3.629,0,5.013a9.6,9.6,0,0,1-8.683,0C-.6,4.667-.6,2.421,1.8,1.038Z" transform="translate(1527.035 555.165)" fill="#21c4fc"/><path d="M1.8,1.039a9.581,9.581,0,0,1,8.68,0c2.4,1.384,2.4,3.627,0,5.013a9.6,9.6,0,0,1-8.68,0C-.6,4.666-.6,2.423,1.8,1.039Z" transform="translate(1174.083 843.551)" fill="#21c4fc"/><path d="M1.8,1.038a9.6,9.6,0,0,1,8.68,0c2.4,1.386,2.4,3.629,0,5.013a9.581,9.581,0,0,1-8.68,0C-.6,4.667-.6,2.424,1.8,1.038Z" transform="translate(746.969 168.101)" fill="#21c4fc"/><path d="M1.8,1.038a9.592,9.592,0,0,1,8.683,0c2.4,1.384,2.4,3.627,0,5.013a9.592,9.592,0,0,1-8.683,0C-.6,4.666-.6,2.423,1.8,1.038Z" transform="translate(893.26 121.449)" fill="#21c4fc"/><path d="M1.8,1.038a9.6,9.6,0,0,1,8.683,0c2.4,1.384,2.4,3.629,0,5.013a9.6,9.6,0,0,1-8.683,0C-.6,4.667-.6,2.421,1.8,1.038Z" transform="translate(929.482 90.085)" fill="#21c4fc"/><path d="M1.8,1.038a9.594,9.594,0,0,1,8.68,0c2.4,1.386,2.4,3.629,0,5.013a9.6,9.6,0,0,1-8.68,0C-.6,4.667-.6,2.424,1.8,1.038Z" transform="translate(1337.912 317.159)" fill="#21c4fc"/><path d="M1.8,1.038a9.6,9.6,0,0,1,8.683,0c2.4,1.386,2.4,3.629,0,5.013a9.6,9.6,0,0,1-8.68,0C-.6,4.667-.6,2.424,1.8,1.038Z" transform="translate(1228.047 270.628)" fill="#21c4fc"/><path d="M1.8,1.039a9.586,9.586,0,0,1,8.683,0c2.4,1.384,2.4,3.629,0,5.013a9.6,9.6,0,0,1-8.683,0C-.6,4.668-.6,2.423,1.8,1.039Z" transform="translate(1384.92 383.253)" fill="#21c4fc"/><path d="M1.8,1.038a9.6,9.6,0,0,1,8.683,0c2.4,1.384,2.4,3.629,0,5.013a9.6,9.6,0,0,1-8.683,0C-.6,4.667-.6,2.421,1.8,1.038Z" transform="translate(633.683 245.617)" fill="#21c4fc"/><path d="M1.8,1.038a9.6,9.6,0,0,1,8.683,0c2.4,1.384,2.4,3.629,0,5.013a9.6,9.6,0,0,1-8.683,0C-.6,4.667-.6,2.421,1.8,1.038Z" transform="translate(386.055 388.585)" fill="#21c4fc"/><path d="M1.8,1.039a9.585,9.585,0,0,1,8.683,0c2.4,1.384,2.4,3.627,0,5.013a9.6,9.6,0,0,1-8.683,0C-.6,4.666-.6,2.423,1.8,1.039Z" transform="translate(490.879 477.219)" fill="#21c4fc"/><path d="M1.8,1.038a9.6,9.6,0,0,1,8.683,0c2.4,1.384,2.4,3.629,0,5.013a9.6,9.6,0,0,1-8.683,0C-.6,4.667-.6,2.421,1.8,1.038Z" transform="translate(550.141 446.513)" fill="#21c4fc"/><path d="M1.8,1.038a9.6,9.6,0,0,1,8.68,0c2.4,1.384,2.4,3.629,0,5.013a9.6,9.6,0,0,1-8.68,0C-.6,4.667-.6,2.421,1.8,1.038Z" transform="translate(607.072 494.563)" fill="#21c4fc"/><path d="M1.8,1.038a9.6,9.6,0,0,1,8.68,0c2.4,1.384,2.4,3.629,0,5.013a9.6,9.6,0,0,1-8.683,0C-.6,4.667-.6,2.421,1.8,1.038Z" transform="translate(711.694 617.48)" fill="#21c4fc"/><path d="M1.8,1.039a9.586,9.586,0,0,1,8.683,0c2.4,1.384,2.4,3.627,0,5.013a9.6,9.6,0,0,1-8.68,0C-.6,4.666-.6,2.423,1.8,1.039Z" transform="translate(310.496 715.852)" fill="#21c4fc"/><path d="M1.8,1.039a9.586,9.586,0,0,1,8.683,0c2.4,1.384,2.4,3.627,0,5.013a9.6,9.6,0,0,1-8.683,0C-.6,4.666-.6,2.423,1.8,1.039Z" transform="translate(469.37 731.708)" fill="#21c4fc"/><path d="M1.8,1.038a9.6,9.6,0,0,1,8.683,0c2.4,1.384,2.4,3.629,0,5.013a9.6,9.6,0,0,1-8.683,0C-.6,4.667-.6,2.421,1.8,1.038Z" transform="translate(784.752 609.034)" fill="#21c4fc"/><path d="M1.8,1.038a9.6,9.6,0,0,1,8.683,0c2.4,1.384,2.4,3.629,0,5.013a9.6,9.6,0,0,1-8.683,0C-.6,4.667-.6,2.421,1.8,1.038Z" transform="translate(792.812 653.788)" fill="#21c4fc"/><path d="M1.8,1.038a9.6,9.6,0,0,1,8.683,0c2.4,1.384,2.4,3.629,0,5.013a9.6,9.6,0,0,1-8.68,0C-.6,4.667-.6,2.421,1.8,1.038Z" transform="translate(918.597 706.624)" fill="#21c4fc"/><path d="M1.8,1.039a9.586,9.586,0,0,1,8.683,0c2.4,1.384,2.4,3.629,0,5.013a9.6,9.6,0,0,1-8.683,0C-.6,4.668-.6,2.423,1.8,1.039Z" transform="translate(874.113 723.712)" fill="#21c4fc"/><path d="M1.8,1.038a9.6,9.6,0,0,1,8.682,0c2.4,1.384,2.4,3.629,0,5.013a9.6,9.6,0,0,1-8.682,0C-.6,4.667-.6,2.421,1.8,1.038Z" transform="translate(1326.389 834.674)" fill="#21c4fc"/><path d="M1.8,1.038a9.6,9.6,0,0,1,8.683,0c2.4,1.386,2.4,3.629,0,5.013a9.585,9.585,0,0,1-8.683,0C-.6,4.667-.6,2.424,1.8,1.038Z" transform="translate(899.23 768.503)" fill="#21c4fc"/><path d="M1.8,1.038a9.6,9.6,0,0,1,8.68,0c2.4,1.384,2.4,3.629,0,5.013a9.6,9.6,0,0,1-8.68,0C-.6,4.667-.6,2.421,1.8,1.038Z" transform="translate(632.026 395.631)" fill="#21c4fc"/><path d="M1.8,1.038a9.6,9.6,0,0,1,8.683,0c2.4,1.384,2.4,3.629,0,5.013a9.6,9.6,0,0,1-8.683,0C-.6,4.667-.6,2.421,1.8,1.038Z" transform="translate(924.899 544.012)" fill="#21c4fc"/><path d="M1.8,1.039a9.593,9.593,0,0,1,8.683,0c2.4,1.384,2.4,3.627,0,5.013a9.6,9.6,0,0,1-8.683,0C-.6,4.665-.6,2.422,1.8,1.039Z" transform="translate(1177.301 631.448)" fill="#21c4fc"/><path d="M1.8,1.038a9.6,9.6,0,0,1,8.683,0c2.4,1.384,2.4,3.629,0,5.013a9.6,9.6,0,0,1-8.68,0C-.6,4.667-.6,2.421,1.8,1.038Z" transform="translate(1361.903 726.807)" fill="#21c4fc"/><path d="M1.8,1.038a9.6,9.6,0,0,1,8.68,0c2.4,1.384,2.4,3.629,0,5.013a9.6,9.6,0,0,1-8.68,0C-.6,4.667-.6,2.421,1.8,1.038Z" transform="translate(1304.187 742.227)" fill="#21c4fc"/><path d="M1.8,1.039a9.586,9.586,0,0,1,8.683,0c2.4,1.384,2.4,3.629,0,5.013a9.6,9.6,0,0,1-8.683,0C-.6,4.666-.6,2.423,1.8,1.039Z" transform="translate(528.249 389.333)" fill="#21c4fc"/><path d="M1.8,1.038a9.6,9.6,0,0,1,8.683,0c2.4,1.384,2.4,3.627,0,5.013a9.6,9.6,0,0,1-8.683,0C-.6,4.664-.6,2.421,1.8,1.038Z" transform="translate(320.499 184.315)" fill="#21c4fc"/><path d="M1.8,1.038a9.6,9.6,0,0,1,8.68,0c2.4,1.386,2.4,3.629,0,5.015a9.6,9.6,0,0,1-8.68,0C-.6,4.667-.6,2.424,1.8,1.038Z" transform="translate(237.033 403.363)" fill="#21c4fc"/><path d="M1.8,1.038a9.6,9.6,0,0,1,8.683,0c2.4,1.384,2.4,3.629,0,5.013a9.6,9.6,0,0,1-8.683,0C-.6,4.667-.6,2.421,1.8,1.038Z" transform="translate(338.604 261.017)" fill="#21c4fc"/><path d="M1.8,1.038a9.6,9.6,0,0,1,8.683,0c2.4,1.384,2.4,3.629,0,5.013a9.6,9.6,0,0,1-8.683,0C-.6,4.667-.6,2.421,1.8,1.038Z" transform="translate(0 252.77)" fill="#21c4fc"/><path d="M1.8,1.038a9.6,9.6,0,0,1,8.682,0c2.4,1.384,2.4,3.629,0,5.013a9.6,9.6,0,0,1-8.682,0C-.6,4.667-.6,2.421,1.8,1.038Z" transform="translate(674.614 270.028)" fill="#21c4fc"/><rect width="59.436" height="1.372" transform="translate(884.484 226.45) rotate(29.981)" fill="#21c4fc"/><path d="M56.268,0h-29.7l-.158.093L0,15.34l.686,1.189L26.935,1.376H56.268Z" transform="translate(637.124 383.742)" fill="#21c4fc"/><path d="M.686,0,0,1.189l72.136,41.65H121.2l.158-.093L184.9,6.064H225V4.688H184.532l-.158.093L120.833,41.463H72.505Z" transform="translate(496.675 480.169)" fill="#21c4fc"/><path d="M128.092,0,56.057,41.587H32.365L.685,23.3,0,24.489,32,42.963H56.426l.158-.093L128.778,1.189Z" transform="translate(557.155 426.866)" fill="#21c4fc"/><path d="M53.679,0H52.3V28.462L0,58.661.686,59.85,53.679,29.255Z" transform="translate(612.869 438.851)" fill="#21c4fc"/><path d="M53.526,0H0V1.376H53.156L113.645,36.3l.685-1.189Z" transform="translate(1030.622 378.807)" fill="#21c4fc"/><path d="M.686,0,0,1.189,184.216,107.546l0,67.6.345.2L508.035,362.1l.686-1.189L185.594,174.35l0-67.6-.345-.2Z" transform="translate(245.557 11.602)" fill="#21c4fc"/><path d="M116.439,0l-45.8,26.444H52.4L27.975,12.337H0v1.376H27.606L52.034,27.819H71.007l.158-.093L117.125,1.189Z" transform="translate(974.694 439.721)" fill="#21c4fc"/><path d="M12.535,0l-.686,1.189L98.686,51.326l0,56.825L0,165.127v21.395l.345.2L60.233,221.3l.685-1.189L1.376,185.73V165.92l98.688-56.976,0-58.41-.345-.2Z" transform="translate(864.158 489.465)" fill="#21c4fc"/><path d="M1.376,0H0L0,26.319l.345.2L34.58,46.282l.686-1.189L1.378,25.526Z" transform="translate(896.116 501.869)" fill="#21c4fc"/><path d="M.685,0,0,1.189,206.236,120.261l0,31.109.345.2,85.677,49.465.686-1.189-85.332-49.267,0-31.109-.345-.2Z" transform="translate(1075.19 529.768)" fill="#21c4fc"/><path d="M1.376,0H0V37.919l.345.2,159.38,92.019.686-1.189L1.376,37.126Z" transform="translate(1150.257 616.231)" fill="#21c4fc"/><path d="M.686,0,0,1.189,103.895,61.172l0,13.114.345.2,53.581,30.936.686-1.189L105.273,73.494l0-13.114-.345-.2Z" transform="translate(1025.275 530.167)" fill="#21c4fc"/><path d="M.686,0,0,1.189,61.175,36.51V76.038L91.04,93.279l.686-1.189L62.55,75.245V35.717l-.345-.2Z" transform="translate(521.264 151.751)" fill="#21c4fc"/><path d="M83.319,0H42.253l-.158.094L0,24.4l.686,1.189L42.622,1.376h40.7Z" transform="translate(534.044 367.886)" fill="#21c4fc"/><path d="M149.425,0h-.185l-.158.093L0,86.167l.686,1.189L149.609,1.376l187.842,0V0Z" transform="translate(244.312 319.291)" fill="#21c4fc"/><path d="M61.435,0H60.059l0,72.781L0,107.459l.686,1.189L61.437,73.574Z" transform="translate(791.542 503.952)" fill="#21c4fc"/><path d="M54.022,0l-.686,1.188L97.081,26.446v27.71L0,110.208.686,111.4,98.457,54.948V25.653l-.345-.2Z" transform="translate(798.61 546.53)" fill="#21c4fc"/><path d="M202.915,0,93.281,63.294H0v1.376H93.65l.158-.094L203.6,1.189Z" transform="translate(1030.929 273.579)" fill="#21c4fc"/><path d="M136.723,0l-.158.093L106.68,17.346H0v1.376H107.049l.158-.093L137.092,1.376l65.9,0V0Z" transform="translate(1109.685 376.314)" fill="#21c4fc"/><path d="M87.155,0,37.387,28.732H0v1.376H37.756l.158-.093L87.84,1.189Z" transform="translate(984.502 398.198)" fill="#21c4fc"/><path d="M.685,0,0,1.188l73.269,42.3v63.374l.345.2,98.294,56.751.686-1.189L74.644,106.072V42.7l-.345-.2Z" transform="translate(457.694 7.136)" fill="#21c4fc"/></g></g></g></g></g></g></svg>