<svg xmlns="http://www.w3.org/2000/svg" width="69.172" height="49.286" viewBox="0 0 69.172 49.286"><g transform="translate(-4150.89 402.322)"><path d="M4570.187-362.941c0-.079.054-.156.051-.234l-21.109,20.34,21.084,19.69c.012-.141-.025-.283-.025-.426v-39.369Z" transform="translate(-350.175 -34.422)" fill="#00b0b6"/><path d="M4219.838-168.711l-8.617,8.291a2.247,2.247,0,0,1-1.562.63,2.247,2.247,0,0,1-1.537-.6l-8.593-8.008-21.222,20.455a4.891,4.891,0,0,0,1.65.329h59.4a4.886,4.886,0,0,0,2.371-.654Z" transform="translate(-24.107 -205.417)" fill="#00b0b6"/><path d="M4198.947-370.565l32.216-31.033a4.885,4.885,0,0,0-2.488-.725h-59.4a4.9,4.9,0,0,0-3.117,1.162Z" transform="translate(-13.422 0)" fill="#00b0b6"/><path d="M4150.89-354.972v38.613a4.912,4.912,0,0,0,.212,1.279l20.958-20.182Z" transform="translate(0 -41.635)" fill="#00b0b6"/></g></svg>