<svg xmlns="http://www.w3.org/2000/svg" xmlns:xlink="http://www.w3.org/1999/xlink" width="760.398" height="590.887" viewBox="0 0 760.398 590.887"><defs><clipPath id="a"><rect width="402.464" height="590.887" transform="translate(1850.148 3407.939)" fill="#fff" stroke="#707070" stroke-width="1"/></clipPath><clipPath id="b"><rect width="1128.044" height="590.887" rx="12.001" fill="none"/></clipPath></defs><g transform="translate(0 -285.556)"><g transform="translate(-1850.148 -3122.383)" opacity="0.3" clip-path="url(#a)"><g transform="translate(1124.569 3407.939)"><g transform="translate(0 0)"><g transform="translate(0 0)" clip-path="url(#b)"><g transform="translate(-28.587 -76.491)"><path d="M592.432,346.19a8.683,8.683,0,0,0,7.867,0c2.173-1.254,2.173-3.287,0-4.543a8.7,8.7,0,0,0-7.867,0C590.259,342.9,590.259,344.936,592.432,346.19Z" transform="translate(602.609 321.93)" fill="#42e8e0"/><path d="M515.7,341.234a8.7,8.7,0,0,0,7.867,0c2.173-1.254,2.173-3.287,0-4.543a8.7,8.7,0,0,0-7.867,0C513.528,337.947,513.528,339.98,515.7,341.234Z" transform="translate(520.812 316.647)" fill="#42e8e0"/><path d="M481.38,360.122a8.688,8.688,0,0,0,7.869,0c2.173-1.254,2.173-3.287,0-4.543a8.7,8.7,0,0,0-7.869,0C479.207,356.835,479.207,358.868,481.38,360.122Z" transform="translate(484.225 336.782)" fill="#42e8e0"/><path d="M635.63,280.035a8.7,8.7,0,0,0,7.87,0c2.171-1.254,2.171-3.289,0-4.543a8.7,8.7,0,0,0-7.87,0C633.457,276.746,633.457,278.781,635.63,280.035Z" transform="translate(648.658 251.408)" fill="#42e8e0"/><g transform="translate(0 0)"><path d="M456.181,338.879l-.31-.182L307.666,253.133l.936-.537,147.584-85.211.312.18L604.7,253.129l-.936.539ZM310.16,253.133l146.022,84.306,146.028-84.31-146.024-84.3Z" transform="translate(300.781 137.167)" fill="#21c4fc"/><path d="M406.354,351.659l-.621-1.077,101.975-58.875,0-96.576.313-.18L802.1,25.164l.621,1.077L508.957,195.848l0,96.576-.313.18Z" transform="translate(405.322 -14.443)" fill="#21c4fc"/><path d="M470.7,182.775h-1.247l0-89.145.313-.18L595.228,21.018l.621,1.077L470.706,94.348Z" transform="translate(473.254 -18.862)" fill="#21c4fc"/><path d="M415.665,264.132l-.621-1.077,99.734-57.584h173.46l152.04-87.781h26.691l.143.085,107.542,62.089-.621,1.077-107.4-62H840.612l-152.04,87.781H515.112Z" transform="translate(415.247 84.19)" fill="#21c4fc"/><path d="M547.834,307.265,347.425,191.56h-119.5l-.143-.085-75.458-43.564V77.229h1.247v69.964l74.689,43.12h119.5l.143.085,200.553,115.79Z" transform="translate(135.184 41.059)" fill="#21c4fc"/><path d="M497.955,300.767,294.392,183.24l0-69.809-72.779-42.02.621-1.077,73.4,42.38,0,69.809L498.577,299.69Z" transform="translate(209.051 33.709)" fill="#21c4fc"/><path d="M429.418,303.461l-119.93-69.24,0-59.908.313-.18L517.546,54.192l.621,1.077L310.737,175.032l0,58.472,119.3,68.881Z" transform="translate(302.724 16.501)" fill="#21c4fc"/><path d="M97.182,388.812h-.168l-.143-.085L15.706,341.867l.621-1.077L97.35,387.566l183.579,0,132.655-76.588H523.29L674.234,223.83l.621,1.077L523.625,312.223H413.918L281.263,388.81Z" transform="translate(-10.453 197.338)" fill="#21c4fc"/><path d="M164.871,340.594l-.621-1.077,65.794-37.989h125.9L498.8,219.054l.621,1.077L356.282,302.774h-125.9Z" transform="translate(147.898 192.247)" fill="#21c4fc"/><path d="M412.488,269.737,307.638,209.2H232.88l-48.42,27.954-.621-1.077,48.707-28.123h75.428l.143.085L413.11,268.66Z" transform="translate(168.779 180.417)" fill="#21c4fc"/><path d="M156.929,343.889l-.621-1.077,58.373-33.7V280.137h1.247v29.689l-.313.179Z" transform="translate(139.431 257.362)" fill="#21c4fc"/><path d="M382.811,124.168h-47.72v-1.247h47.385l85.011-49.08.621,1.077Z" transform="translate(330.017 37.448)" fill="#21c4fc"/><path d="M388.032,218.838h-1.247l0-30.795L327.77,153.971V120.707h1.247v32.546l59.016,34.073Z" transform="translate(322.213 87.407)" fill="#21c4fc"/><path d="M627.154,451.773,524.322,392.4l0-96.574L412.918,231.509l.622-1.077,112.031,64.68,0,96.574L627.776,450.7Z" transform="translate(412.982 204.375)" fill="#21c4fc"/><path d="M567.188,486.4l-40.782-23.543V420.277l-39.569-22.845,0-113.191-82.628-47.706.621-1.077,83.254,48.065,0,113.191,39.569,22.845v42.575l40.156,23.184Z" transform="translate(403.701 209.733)" fill="#21c4fc"/><path d="M843.375,343.553l-32.13-18.548H742.7l-.143-.085L619.132,253.665H510.491l-.143-.085-67.829-39.162.622-1.077,67.686,39.077H619.467l.143.085,123.422,71.255H811.58l.143.085L844,342.476Z" transform="translate(444.536 186.157)" fill="#21c4fc"/><path d="M667.648,266.174l-43.023-24.836H541.656V240.09h83.3l.143.085L668.27,265.1Z" transform="translate(550.218 214.672)" fill="#21c4fc"/><path d="M771.04,470.466,611.8,378.53V330.475l-185.148-106.9.622-1.077L613.048,329.757v48.055l158.613,91.577Z" transform="translate(427.623 195.922)" fill="#21c4fc"/><path d="M425.289,259.315l-.621-1.077,71.867-41.494,200.985,0L842.61,132.975l.622,1.077L697.854,217.989l-200.985,0Z" transform="translate(425.507 100.485)" fill="#21c4fc"/><path d="M525.08,198.457h-.167l-.143-.085L483.663,174.64l.621-1.077,40.963,23.648,110.622,0v1.247Z" transform="translate(488.396 143.752)" fill="#21c4fc"/><path d="M443,557.7h-1.247l0-67.43L281.625,397.818l0-74.382.313-.18,151.537-87.489.621,1.077L282.874,324.154l0,72.946L443,489.552Z" transform="translate(273.021 210.063)" fill="#21c4fc"/><path d="M437.018,366.833l-55.165-31.848-65.172,0V333.74l65.507,0,.143.085,55.308,31.933Z" transform="translate(310.392 314.501)" fill="#21c4fc"/><rect width="128.509" height="1.244" transform="matrix(0.866, -0.5, 0.5, 0.866, 616.671, 522.456)" fill="#21c4fc"/><path d="M457.212,468.114h-1.247l0-188.376L392.677,243.2l.621-1.077,63.917,36.9Z" transform="translate(391.405 216.833)" fill="#21c4fc"/><path d="M408.669,382.236h-1.247l0-66,.313-.18,32.826-18.953.621,1.077-32.513,18.774Z" transform="translate(407.123 275.453)" fill="#21c4fc"/><path d="M825.95,269.276l-99.758-57.594-154.073,0-.143-.085-50.948-29.414H496.52l-62.689,36.192-.621-1.077,62.975-36.361h25.177l.143.085,50.948,29.414,154.073,0,.143.085,99.9,57.679Z" transform="translate(434.612 151.615)" fill="#21c4fc"/><path d="M334.36,323.12H293.849v-1.247h40.176l128.686-74.294.621,1.077Z" transform="translate(286.053 222.654)" fill="#21c4fc"/><path d="M346.984,353.451l-.621-1.077L451.609,291.61V267.016l-30.918-17.852.622-1.077L452.855,266.3v26.031l-.313.18Z" transform="translate(342.033 223.196)" fill="#21c4fc"/><path d="M343.61,304.544l-.621-1.077,47.246-27.28h39.682v1.247H390.57Z" transform="translate(338.436 253.151)" fill="#21c4fc"/><path d="M344.018,367.806l-.621-1.077,48.475-27.988V316.25l.313-.18,54.856-31.67V271.486h1.247v13.633l-.313.18-54.856,31.67v22.49l-.313.18Z" transform="translate(338.871 248.14)" fill="#21c4fc"/><path d="M342.076,293.58a8.687,8.687,0,0,0,7.87,0c2.173-1.254,2.173-3.287,0-4.543a8.7,8.7,0,0,0-7.87,0C339.9,290.293,339.9,292.326,342.076,293.58Z" transform="translate(335.725 265.847)" fill="#21c4fc"/><path d="M345.38,302.714a8.7,8.7,0,0,0,7.869,0c2.173-1.254,2.173-3.289,0-4.543a8.7,8.7,0,0,0-7.869,0C343.209,299.425,343.209,301.46,345.38,302.714Z" transform="translate(339.249 275.584)" fill="#21c4fc"/><path d="M399.9,297.436a8.7,8.7,0,0,0,7.869,0c2.173-1.254,2.173-3.289,0-4.543a8.7,8.7,0,0,0-7.869,0C397.729,294.147,397.729,296.182,399.9,297.436Z" transform="translate(397.368 269.958)" fill="#21c4fc"/><path d="M514.232,215.231a8.7,8.7,0,0,0,7.869,0c2.174-1.254,2.174-3.289,0-4.543a8.7,8.7,0,0,0-7.869,0C512.061,211.942,512.061,213.977,514.232,215.231Z" transform="translate(519.248 182.326)" fill="#21c4fc"/><path d="M587.96,231.687a8.694,8.694,0,0,0,7.87,0c2.173-1.254,2.173-3.287,0-4.543a8.694,8.694,0,0,0-7.87,0C585.789,228.4,585.789,230.431,587.96,231.687Z" transform="translate(597.843 199.866)" fill="#21c4fc"/><path d="M490.869,203.941a8.688,8.688,0,0,0,7.87,0c2.173-1.254,2.173-3.287,0-4.543a8.7,8.7,0,0,0-7.87,0C488.7,200.654,488.7,202.687,490.869,203.941Z" transform="translate(494.343 170.291)" fill="#21c4fc"/><path d="M482.54,222.22a8.7,8.7,0,0,0,7.867,0c2.173-1.256,2.173-3.289,0-4.543a8.684,8.684,0,0,0-7.867,0C480.367,218.931,480.367,220.966,482.54,222.22Z" transform="translate(485.462 189.774)" fill="#21c4fc"/><path d="M358.37,395.519a8.684,8.684,0,0,0,7.867,0c2.173-1.254,2.173-3.287,0-4.543a8.7,8.7,0,0,0-7.867,0C356.2,392.232,356.2,394.265,358.37,395.519Z" transform="translate(353.095 374.516)" fill="#21c4fc"/><path d="M374.014,353.424a8.7,8.7,0,0,0,7.869,0c2.171-1.254,2.173-3.289,0-4.543a8.7,8.7,0,0,0-7.869,0C371.841,350.135,371.841,352.17,374.014,353.424Z" transform="translate(369.772 329.642)" fill="#21c4fc"/><path d="M119.973,391.724a8.7,8.7,0,0,0,7.869,0c2.173-1.254,2.173-3.289,0-4.543a8.7,8.7,0,0,0-7.869,0C117.8,388.435,117.8,390.47,119.973,391.724Z" transform="translate(98.962 370.47)" fill="#21c4fc"/><path d="M213.038,393.683a8.7,8.7,0,0,0,7.869,0c2.171-1.254,2.171-3.289,0-4.543a8.7,8.7,0,0,0-7.869,0C210.865,390.394,210.865,392.429,213.038,393.683Z" transform="translate(198.169 372.558)" fill="#21c4fc"/><path d="M240.924,330.243a8.7,8.7,0,0,0,7.869,0c2.173-1.256,2.173-3.289,0-4.543a8.688,8.688,0,0,0-7.869,0C238.753,326.954,238.753,328.987,240.924,330.243Z" transform="translate(227.898 304.928)" fill="#21c4fc"/><path d="M556.27,189.238a8.688,8.688,0,0,0,7.869,0c2.173-1.254,2.173-3.287,0-4.543a8.7,8.7,0,0,0-7.867,0C554.1,185.951,554.1,187.984,556.27,189.238Z" transform="translate(564.061 154.617)" fill="#21c4fc"/><path d="M626.047,137.165a8.7,8.7,0,0,0,7.869,0c2.173-1.254,2.173-3.289,0-4.543a8.7,8.7,0,0,0-7.869,0C623.876,133.876,623.876,135.911,626.047,137.165Z" transform="translate(638.444 99.107)" fill="#21c4fc"/><path d="M684.694,151.972a8.7,8.7,0,0,0,7.869,0c2.171-1.256,2.171-3.289,0-4.543a8.7,8.7,0,0,0-7.869,0C682.521,148.683,682.521,150.718,684.694,151.972Z" transform="translate(700.961 114.891)" fill="#21c4fc"/><path d="M529.856,25.458a8.683,8.683,0,0,0,7.867,0c2.173-1.254,2.173-3.287,0-4.543a8.7,8.7,0,0,0-7.867,0C527.683,22.171,527.683,24.2,529.856,25.458Z" transform="translate(535.902 -19.975)" fill="#21c4fc"/><path d="M342.484,321.776a8.7,8.7,0,0,0,7.867,0c2.173-1.256,2.173-3.289,0-4.543a8.683,8.683,0,0,0-7.867,0C340.311,318.487,340.311,320.52,342.484,321.776Z" transform="translate(336.16 295.903)" fill="#21c4fc"/><path d="M406.661,342.242a8.694,8.694,0,0,0,7.869,0c2.171-1.254,2.173-3.287,0-4.543a8.694,8.694,0,0,0-7.869,0C404.488,338.953,404.488,340.986,406.661,342.242Z" transform="translate(404.574 317.72)" fill="#21c4fc"/><path d="M422.551,356a8.7,8.7,0,0,0,7.869,0c2.171-1.254,2.171-3.289,0-4.543a8.7,8.7,0,0,0-7.869,0C420.378,352.711,420.378,354.746,422.551,356Z" transform="translate(421.513 332.388)" fill="#21c4fc"/><path d="M601.727,256.384a8.7,8.7,0,0,0,7.867,0c2.174-1.256,2.174-3.289,0-4.543a8.7,8.7,0,0,0-7.867,0C599.554,253.1,599.554,255.128,601.727,256.384Z" transform="translate(612.517 226.196)" fill="#21c4fc"/><path d="M553.528,276.8a8.7,8.7,0,0,0,7.869,0c2.173-1.256,2.173-3.289,0-4.543a8.7,8.7,0,0,0-7.867,0C551.357,273.508,551.357,275.541,553.528,276.8Z" transform="translate(561.138 247.956)" fill="#21c4fc"/><path d="M622.349,227.388a8.688,8.688,0,0,0,7.87,0c2.173-1.254,2.173-3.289,0-4.543a8.7,8.7,0,0,0-7.87,0C620.176,224.1,620.176,226.134,622.349,227.388Z" transform="translate(634.5 195.285)" fill="#21c4fc"/><path d="M292.786,287.769a8.7,8.7,0,0,0,7.869,0c2.171-1.254,2.173-3.289,0-4.543a8.7,8.7,0,0,0-7.869,0C290.613,284.48,290.613,286.515,292.786,287.769Z" transform="translate(283.181 259.653)" fill="#21c4fc"/><path d="M184.153,225.05a8.7,8.7,0,0,0,7.869,0c2.173-1.254,2.173-3.289,0-4.543a8.7,8.7,0,0,0-7.869,0C181.98,221.761,181.98,223.8,184.153,225.05Z" transform="translate(167.377 192.793)" fill="#21c4fc"/><path d="M230.137,186.166a8.688,8.688,0,0,0,7.869,0c2.173-1.254,2.173-3.287,0-4.543a8.7,8.7,0,0,0-7.869,0C227.966,182.879,227.966,184.912,230.137,186.166Z" transform="translate(216.399 151.342)" fill="#21c4fc"/><path d="M256.135,199.637a8.7,8.7,0,0,0,7.869,0c2.173-1.254,2.173-3.289,0-4.543a8.7,8.7,0,0,0-7.869,0C253.964,196.348,253.964,198.383,256.135,199.637Z" transform="translate(244.113 165.703)" fill="#21c4fc"/><path d="M281.112,178.558a8.7,8.7,0,0,0,7.867,0c2.173-1.254,2.173-3.289,0-4.543a8.7,8.7,0,0,0-7.867,0C278.939,175.269,278.939,177.3,281.112,178.558Z" transform="translate(270.737 143.232)" fill="#21c4fc"/><path d="M327.009,124.635a8.7,8.7,0,0,0,7.867,0c2.173-1.254,2.173-3.289,0-4.543a8.7,8.7,0,0,0-7.869,0C324.836,121.346,324.836,123.381,327.009,124.635Z" transform="translate(319.664 85.749)" fill="#21c4fc"/><path d="M151,81.479a8.688,8.688,0,0,0,7.869,0c2.173-1.254,2.173-3.287,0-4.543a8.7,8.7,0,0,0-7.867,0C148.833,78.192,148.833,80.225,151,81.479Z" transform="translate(132.042 39.744)" fill="#21c4fc"/><path d="M220.7,74.523a8.688,8.688,0,0,0,7.869,0c2.173-1.254,2.173-3.287,0-4.543a8.7,8.7,0,0,0-7.869,0C218.53,71.236,218.53,73.269,220.7,74.523Z" transform="translate(206.34 32.329)" fill="#21c4fc"/><path d="M359.059,128.34a8.7,8.7,0,0,0,7.87,0c2.173-1.254,2.173-3.289,0-4.543a8.7,8.7,0,0,0-7.87,0C356.886,125.051,356.886,127.086,359.059,128.34Z" transform="translate(353.829 89.699)" fill="#21c4fc"/><path d="M362.6,108.707a8.7,8.7,0,0,0,7.869,0c2.173-1.254,2.173-3.289,0-4.543a8.7,8.7,0,0,0-7.869,0C360.422,105.418,360.422,107.453,362.6,108.707Z" transform="translate(357.599 68.77)" fill="#21c4fc"/><path d="M417.774,85.528a8.7,8.7,0,0,0,7.869,0c2.173-1.254,2.173-3.289,0-4.543a8.7,8.7,0,0,0-7.867,0C415.6,82.239,415.6,84.274,417.774,85.528Z" transform="translate(416.422 44.061)" fill="#21c4fc"/><path d="M398.261,78.031a8.688,8.688,0,0,0,7.869,0c2.173-1.254,2.173-3.289,0-4.543a8.7,8.7,0,0,0-7.869,0C396.088,74.742,396.088,76.777,398.261,78.031Z" transform="translate(395.619 36.069)" fill="#21c4fc"/><path d="M596.672,29.353a8.7,8.7,0,0,0,7.869,0c2.173-1.254,2.173-3.289,0-4.543a8.7,8.7,0,0,0-7.869,0C594.5,26.064,594.5,28.1,596.672,29.353Z" transform="translate(607.128 -15.823)" fill="#21c4fc"/><path d="M409.28,58.383a8.7,8.7,0,0,0,7.869,0c2.171-1.256,2.171-3.289,0-4.543a8.688,8.688,0,0,0-7.869,0C407.107,55.094,407.107,57.127,409.28,58.383Z" transform="translate(407.366 15.122)" fill="#21c4fc"/><path d="M292.059,221.959a8.7,8.7,0,0,0,7.867,0c2.173-1.254,2.173-3.289,0-4.543a8.7,8.7,0,0,0-7.867,0C289.886,218.67,289.886,220.705,292.059,221.959Z" transform="translate(282.406 189.498)" fill="#21c4fc"/><path d="M420.539,156.865a8.7,8.7,0,0,0,7.869,0c2.173-1.254,2.173-3.289,0-4.543a8.7,8.7,0,0,0-7.869,0C418.368,153.576,418.368,155.611,420.539,156.865Z" transform="translate(419.37 120.107)" fill="#21c4fc"/><path d="M531.268,118.507a8.694,8.694,0,0,0,7.87,0c2.171-1.254,2.171-3.287,0-4.543a8.7,8.7,0,0,0-7.87,0C529.095,115.22,529.095,117.253,531.268,118.507Z" transform="translate(537.407 79.217)" fill="#21c4fc"/><path d="M612.25,76.674a8.7,8.7,0,0,0,7.869,0c2.173-1.254,2.173-3.289,0-4.543a8.7,8.7,0,0,0-7.867,0C610.079,73.385,610.079,75.42,612.25,76.674Z" transform="translate(623.737 34.622)" fill="#21c4fc"/><path d="M586.932,69.909a8.7,8.7,0,0,0,7.867,0c2.173-1.254,2.173-3.289,0-4.543a8.7,8.7,0,0,0-7.867,0C584.759,66.62,584.759,68.655,586.932,69.909Z" transform="translate(596.745 27.411)" fill="#21c4fc"/><path d="M246.531,224.721a8.688,8.688,0,0,0,7.869,0c2.174-1.254,2.174-3.289,0-4.543a8.7,8.7,0,0,0-7.869,0C244.36,221.434,244.36,223.467,246.531,224.721Z" transform="translate(233.875 192.442)" fill="#21c4fc"/><path d="M155.394,314.662a8.7,8.7,0,0,0,7.869,0c2.171-1.254,2.171-3.287,0-4.543a8.7,8.7,0,0,0-7.869,0C153.221,311.375,153.221,313.408,155.394,314.662Z" transform="translate(136.72 288.321)" fill="#21c4fc"/><path d="M118.778,218.569a8.7,8.7,0,0,0,7.867,0c2.173-1.256,2.173-3.289,0-4.545a8.7,8.7,0,0,0-7.867,0C116.6,215.279,116.6,217.312,118.778,218.569Z" transform="translate(97.687 185.881)" fill="#21c4fc"/><path d="M163.335,281.013a8.7,8.7,0,0,0,7.869,0c2.173-1.254,2.173-3.289,0-4.543a8.7,8.7,0,0,0-7.869,0C161.164,277.724,161.164,279.759,163.335,281.013Z" transform="translate(145.187 252.45)" fill="#21c4fc"/><path d="M14.793,284.631a8.7,8.7,0,0,0,7.869,0c2.173-1.254,2.173-3.289,0-4.543a8.7,8.7,0,0,0-7.869,0C12.62,281.342,12.62,283.377,14.793,284.631Z" transform="translate(-13.163 256.307)" fill="#21c4fc"/><path d="M310.742,277.06a8.7,8.7,0,0,0,7.869,0c2.171-1.254,2.171-3.289,0-4.543a8.7,8.7,0,0,0-7.869,0C308.569,273.771,308.569,275.806,310.742,277.06Z" transform="translate(302.323 248.237)" fill="#21c4fc"/><rect width="53.87" height="1.244" transform="translate(801.029 564.657) rotate(-29.981)" fill="#21c4fc"/><path d="M343.664,232.53H316.743l-.143-.085-23.935-13.819.621-1.077,23.791,13.734h26.586Z" transform="translate(284.791 190.643)" fill="#21c4fc"/><path d="M231.673,202.532l-.621-1.077,65.38-37.749H340.9l.143.085,57.59,33.246h36.347v1.247H398.3l-.143-.085-57.59-33.246h-43.8Z" transform="translate(219.109 133.245)" fill="#21c4fc"/><path d="M373.68,225.974l-65.289-37.693H286.917L258.2,204.856l-.621-1.077,29-16.744h22.143l.143.085L374.3,224.9Z" transform="translate(247.393 158.114)" fill="#21c4fc"/><path d="M330.677,228.614H329.43v-25.8l-47.405-27.371.622-1.077,48.031,27.73Z" transform="translate(273.448 144.612)" fill="#21c4fc"/><path d="M513.8,243.94H465.291v-1.247h48.178l54.824-31.652.621,1.077Z" transform="translate(468.811 183.705)" fill="#21c4fc"/><path d="M121.509,557.393l-.621-1.077,166.964-96.4,0-61.266.313-.18L581.344,229.206l.621,1.077L289.1,399.371l0,61.266-.313.18Z" transform="translate(101.673 203.069)" fill="#21c4fc"/><path d="M546.29,213.253l-41.512-23.967H488.252l-22.141,12.786H440.755v-1.247h25.02l22.141-12.786h17.2l.143.085,41.655,24.052Z" transform="translate(442.657 159.184)" fill="#21c4fc"/><path d="M403.625,281.911,403,280.834l78.7-45.442,0-51.5-89.446-51.64V112.857l.313-.18,54.279-31.339.621,1.077-53.967,31.16V131.53l89.446,51.64,0,52.94-.313.18Z" transform="translate(390.964 45.44)" fill="#21c4fc"/><path d="M407.531,194.623h-1.247l0-23.854.313-.18,31.027-17.914.621,1.077-30.714,17.735Z" transform="translate(405.909 121.486)" fill="#21c4fc"/><path d="M485.464,254.754l-.621-1.077L671.764,145.756l0-28.2.313-.18,77.653-44.833.621,1.077-77.34,44.653,0,28.2-.313.18Z" transform="translate(489.654 36.069)" fill="#21c4fc"/><path d="M519.021,183.668h-1.247V149.3l.313-.18,144.454-83.4.621,1.077L519.021,150.019Z" transform="translate(524.759 28.79)" fill="#21c4fc"/><path d="M463.566,209.865l-.621-1.077,94.165-54.366,0-11.886.313-.18,48.563-28.039.621,1.077-48.251,27.859,0,11.886-.313.18Z" transform="translate(466.311 80.597)" fill="#21c4fc"/><path d="M242.46,370.2l-.621-1.077,55.446-32.013V301.279l27.068-15.626.621,1.077L298.531,302v35.826l-.313.18Z" transform="translate(230.608 263.242)" fill="#21c4fc"/><path d="M322.961,243.722H285.741l-.143-.085-38.153-22.028.621-1.077,38.009,21.943h36.886Z" transform="translate(236.585 193.822)" fill="#21c4fc"/><path d="M255.772,293.927H255.6l-.143-.085L120.341,215.83l.621-1.077L255.94,292.68l170.251,0v1.247Z" transform="translate(101.091 187.661)" fill="#21c4fc"/><path d="M416.089,222.875h-1.247l0-65.965-54.437-31.43.621-1.077,55.062,31.789Z" transform="translate(357.005 91.346)" fill="#21c4fc"/><path d="M412.471,205.482l-.622-1.077L451.5,181.513V156.4l-87.989-50.8.621-1.077,88.615,51.162v26.551l-.313.18Z" transform="translate(360.31 70.149)" fill="#21c4fc"/><path d="M649.337,303.372,549.97,246.005H465.425v-1.247h84.88l.143.085,99.51,57.451Z" transform="translate(468.955 219.648)" fill="#21c4fc"/><path d="M623.894,236.814l-.143-.085-27.086-15.636H499.975v-1.247H597l.143.085,27.086,15.636,59.725,0v1.247Z" transform="translate(505.786 193.091)" fill="#21c4fc"/><path d="M524.051,232.539,478.944,206.5H445.058v-1.247h34.22l.143.085,45.25,26.126Z" transform="translate(447.243 177.532)" fill="#21c4fc"/><path d="M214.572,466.624l-.621-1.077,66.407-38.341V369.767l.313-.179,89.089-51.437.621,1.078L281.6,370.485v57.439l-.313.179Z" transform="translate(200.88 297.886)" fill="#21c4fc"/></g></g></g></g></g></g><g transform="translate(-10153.535 1212.08)"><g transform="translate(10431.535 -895.824)"><g transform="translate(0 122.901)"><path d="M192.732,294.024l78.673-45.42c4.858-2.807,12.736-2.807,17.595,0l78.673,45.42c4.858,2.807,4.858,7.354,0,10.157L289,349.6c-4.858,2.8-12.736,2.8-17.591,0l-78.676-45.424C187.874,301.378,187.874,296.828,192.732,294.024Z" transform="translate(-189.089 -155.16)" fill="#6b99d1" opacity="0.15" style="mix-blend-mode:multiply;isolation:isolate"/><path d="M192.732,267.046l78.673-45.424c4.858-2.8,12.736-2.8,17.595,0l78.673,45.424c4.858,2.807,4.858,7.353,0,10.157L289,322.626c-4.858,2.8-12.736,2.8-17.591,0L192.732,277.2C187.874,274.4,187.874,269.849,192.732,267.046Z" transform="translate(-189.089 -219.52)" fill="#dceeff"/><g transform="translate(-189.089 -219.52)" fill="none" stroke-miterlimit="10"><path d="M192.732,267.046l78.673-45.424c4.858-2.8,12.736-2.8,17.595,0l78.673,45.424c4.858,2.807,4.858,7.353,0,10.157L289,322.626c-4.858,2.8-12.736,2.8-17.591,0L192.732,277.2C187.874,274.4,187.874,269.849,192.732,267.046Z" stroke="none"/><path d="M 280.2024536132812 220.5199584960938 C 277.0517883300781 220.5199584960938 274.1050109863281 221.2190856933594 271.9051818847656 222.4884033203125 L 193.2321166992188 267.9120788574219 C 191.2050476074219 269.0817260742188 190.0887145996094 270.57763671875 190.0887145996094 272.1242065429688 C 190.0887145996094 273.6708068847656 191.2050476074219 275.1667175292969 193.2323608398438 276.3364868164062 L 271.9086608886719 321.7601013183594 C 274.1070251464844 323.0294189453125 277.0526428222656 323.7284545898438 280.2029113769531 323.7284545898438 C 283.3532409667969 323.7284545898438 286.2998962402344 323.0293579101562 288.4998168945312 321.7600708007812 L 367.1727905273438 276.3363647460938 C 369.199462890625 275.1669616699219 370.3157958984375 273.6717834472656 370.3162231445312 272.1263122558594 C 370.3165893554688 270.5799865722656 369.2000732421875 269.083251953125 367.1725463867188 267.9119567871094 L 288.5000610351562 222.488525390625 C 286.2999267578125 221.2190856933594 283.3531188964844 220.5199584960938 280.2024536132812 220.5199584960938 M 280.2024536132812 219.5199584960938 C 283.3865661621094 219.5199584960938 286.5706481933594 220.2207641601562 288.9998168945312 221.6223754882812 L 367.6725463867188 267.0459289550781 C 372.53076171875 269.8525085449219 372.53076171875 274.3992919921875 367.6725463867188 277.2025146484375 L 288.9998168945312 322.6260986328125 C 284.1414489746094 325.4292297363281 276.2633972167969 325.42919921875 271.4086303710938 322.6260986328125 L 192.7323608398438 277.2025146484375 C 187.8741455078125 274.3992919921875 187.8741455078125 269.8491516113281 192.7323608398438 267.0459289550781 L 271.4051513671875 221.6223754882812 C 273.8342895507812 220.2207641601562 277.0183715820312 219.5199584960938 280.2024536132812 219.5199584960938 Z" stroke="none" fill="#fff"/></g><path d="M189.089,314.455c.044,2.1,1.408,3.741,3.643,5.082l78.676,45.42a17.85,17.85,0,0,0,8.8,2.1v-79.4a17.851,17.851,0,0,1-8.8-2.1l-78.676-45.424c-1.953-1.121-3.643-2.79-3.643-5.078Z" transform="translate(-189.088 -182.454)" fill="#a5cbfa"/><path d="M307.117,314.455c-.044,2.1-1.412,3.741-3.646,5.082L224.8,364.957a17.851,17.851,0,0,1-8.8,2.1v-79.4a17.861,17.861,0,0,0,8.8-2.1l78.673-45.424c1.957-1.121,3.646-2.79,3.646-5.078Z" transform="translate(-124.887 -182.454)" fill="#c8e2ff"/></g><g transform="translate(52.837)"><path d="M236.961,290.945l25.246-14.578c17.124-9.886,40.772-12.262,52.821-5.305s7.932,20.611-9.192,30.5L280.59,316.137c-17.127,9.882-40.775,12.259-52.824,5.305S219.837,300.831,236.961,290.945Z" transform="translate(-166.134 16.819)" fill="#6b99d1" opacity="0.15" style="mix-blend-mode:multiply;isolation:isolate"/><path d="M335.038,240.39c-2.427,1.517-5.1,1.92-8.339,4.327a29.762,29.762,0,0,1-7.885,4.581c-3.094,1.175-13.451.284-22.906-2.008-11.159-2.705-24.007-9.889-29.139-13.759-11.071-8.342-22.267-21.143-26.542-26.174-5.126-6.03-11.88-6.818-16.044-5.3-4.892,1.781-6.382,5.271.968,13.322S246.9,237.5,259.388,245.557A96.7,96.7,0,0,0,289.5,258.669a120.813,120.813,0,0,0,28.733,3.386c2.807.044,4.882.772,10.228,1.49s11.687.257,15.848-1.486,5.386-3.03,5.4-4.025c.017-1.249-1.09-1.676-3.081-1.1a27.454,27.454,0,0,1-9.659,1.73s4.421-1.046,7.008-1.909a27.216,27.216,0,0,0,6.527-3.172c1.926-1.334,1.936-4.814-.081-4.279-2.035.535-3.443,1.493-7.3,2.712a26.875,26.875,0,0,1-6.287,1.229,50.57,50.57,0,0,0,7.3-3.487c3.193-1.943,4.11-3.4,4.662-4.394s-.068-2.983-2.488-1.987c-2.177.894-4.54,2.956-8.955,4.015-3.206.772-5.576.873-5.268.291s2.221-.911,4.394-2.79c2.079-1.8,3.047-4.8,1.947-5.884S337.462,238.877,335.038,240.39Z" transform="translate(-168.011 -139.871)" fill="#ffa8a7"/><path d="M224.231,201.708c4.57-1.9,11.944-.393,19.311,8.724s21.5,22.121,30.341,26.928,19.948,10.868,36.533,13.207c0,0,3.768,4.851-.609,12.1a96.47,96.47,0,0,1-36.723-8.21c-19.2-8.511-36.5-25.415-44.3-32.992S215.645,205.28,224.231,201.708Z" transform="translate(-168.568 -140.833)" fill="#e4f2f2"/><g transform="translate(71.805 255.692)"><path d="M226.4,270.441c-1.324,3.832.308,6.967,1.391,10.234,2.106,6.355,1.584,14.873,1.584,14.873.427.748,3.108.972,3.853-.2,0,0-.3-14.013,3.423-12.889Z" transform="translate(-225.905 -230.837)" fill="#2d2979"/><path d="M257.1,320.183c-3.87-5.559-9.1-23.8-10.312-28.008a29.38,29.38,0,0,1-.775-8.274c.183-6.182.223-22.111.223-22.111l-15.848-3.047,2.566,24.443a12.856,12.856,0,0,1-2.028,6.876,63.3,63.3,0,0,0-3.893,8.244c-.735,2.614-2.021,5.41,2.228,8.84s6.791,5.417,9.561,8.86,2.556,8.017,7.022,12.09,12.943.985,14.568-.41C262.7,325.726,261.924,323.972,257.1,320.183Z" transform="translate(-225.048 -258.743)" fill="#ffa8a7"/><path d="M257.245,303.432c-9.435,2.289-11.325,1.036-14.016-9.6-2.065-8.159-3.893-14-7.465-17.141-4.286-3.765-4.594-6.141-3.548-8.961-.931-.078-2.035.366-2.644,2.431-1.391,4.713-3.562,5.5-3.633,8.87s2.191,6.307,4.7,7.956c4.134,2.722,5.264,3.931,7.174,7.919,2.251,4.7,1.784,9.9,3.3,14.273,6.554,5.112,13.583,8.471,24.186,3.6,2.035-5.359,3.744-7.8-7.414-14C259.923,301.136,260.82,302.561,257.245,303.432Z" transform="translate(-225.827 -237.329)" fill="#2d2979"/></g><g transform="translate(94.543 238.642)"><path d="M233.122,265.12c-1.324,3.832.278,7.052,1.358,10.316,2.109,6.355,1.584,14.876,1.584,14.876.43.745,3.108.968,3.856-.207,0,0-.3-14.009,3.423-12.885Z" transform="translate(-232.621 -226.481)" fill="#2d2979"/><path d="M263.812,314.267c-3.87-5.562-9.1-23.8-10.312-28.008a29.378,29.378,0,0,1-.775-8.274c.179-6.185,2.644-21.65,2.644-21.65l-13.674-2.627-2.028,23.563a12.853,12.853,0,0,1-2.028,6.873,63.126,63.126,0,0,0-3.893,8.247c-.735,2.614-2.021,5.41,2.228,8.84s6.791,5.413,9.561,8.86,2.556,8.014,7.022,12.086,12.943.989,14.568-.41C269.408,319.809,268.633,318.056,263.812,314.267Z" transform="translate(-231.782 -253.707)" fill="#ffa8a7"/><path d="M263.954,298.135c-9.439,2.292-11.325,1.036-14.016-9.6-2.065-8.162-3.893-14-7.468-17.141-4.283-3.768-4.591-6.141-3.545-8.965-.931-.078-2.035.369-2.644,2.434-1.395,4.709-3.562,5.5-3.633,8.87s2.19,6.307,4.7,7.956c4.13,2.722,5.264,3.931,7.174,7.915,2.248,4.7,1.784,9.9,3.3,14.277,6.554,5.109,13.583,8.47,24.183,3.592,2.038-5.356,3.748-7.8-7.411-14C266.629,295.843,267.529,297.264,263.954,298.135Z" transform="translate(-232.561 -232.916)" fill="#2d2979"/></g><path d="M215.177,186.915c9.791-4.885,19.45-4.973,27.568,0s13.065,18.942,3.348,25.32S215.177,186.915,215.177,186.915Z" transform="translate(-179.691 -183.218)" fill="#543354"/><path d="M230.193,186.629c-2.8-2.241-8.515-3.1-12.523-1.226-5.014,2.346-9.632,4.645-9.374,20.892.227,14.351-4.452,55.181,7.435,56.41,16.84,1.737,19.209-7.313,19.209-32.965S230.193,186.629,230.193,186.629Z" transform="translate(-197.829 -180.453)" fill="#543354"/><path d="M212.642,239.774c-6.107,16.542-5.153,30.168,16.555,42.248,11.531,6.416,38.6,20.614,38.6,20.614a34.089,34.089,0,0,0-1.293,14.328c2.021,13.437,6.27,50,6.27,50s7.4,5.071,13.755,1.029c0,0,2.63-27.667,3.531-46.3,1.242-25.6,2.16-30.4-.843-35.281-2.377-3.856-25.388-19.125-32.267-26.41l1.131-.4,40.67,19.978s-3.165,2.732-3.785,15.919c-.982,20.919.376,52.631.376,52.631s7.841,5.579,14.063.406c2.861-11.4,16.433-76.063,15.022-81.835-2.668-10.9-57.425-37.322-60.012-42.573Z" transform="translate(-193.485 -85.638)" fill="#7fa8e6"/><path d="M220.255,196.259s1.006,18.028.674,19.348-7.086,2.587-8.982,4.154,9.74,19.89,15.682,22.612,24.366-4.134,25.676-13.285c1.205-8.433-5.224-15.008-7.7-17.3-1.659-.355-4.333-.037-5.082-.142l-.515-8.741C231.955,200.311,220.255,196.259,220.255,196.259Z" transform="translate(-187.891 -152.108)" fill="#ffa8a7"/><path d="M222.653,206.557c-5.065.765-10.864,3.45-11.67,6.223-.938,3.23-2.989,18.475,1.358,30.087a214.668,214.668,0,0,0,11.274,24.494s19.853,5.992,37.556-4.912a117.184,117.184,0,0,0,1.9-16.088c15.756-13.667,3.43-30.493-9.821-43.934a5.54,5.54,0,0,0-3.914-1.642c-.941-.007-1.879.024-2.549.068,0,0,8.1,20.926,3.687,22.873C244.059,226.552,228.51,209.858,222.653,206.557Z" transform="translate(-192.824 -141.315)" fill="#f5fbfb"/><path d="M234.426,209.98l-.416-7.079-5.735-1.882-14.019-4.76s.159,3.26.264,5.657c0,0,.572,6.168,10.746,10.973C227.062,213.738,233.854,214.385,234.426,209.98Z" transform="translate(-181.891 -152.108)" fill="#f28f8f"/><path d="M254.558,202.679h0c-1.777-11.585-9.578-19.44-21.518-18.776a22.948,22.948,0,0,0-11.677,41.926,25.356,25.356,0,0,0,1.818,4.073c4.486,6.04,14.449,8.42,20.469,8.416,3.206,0,6.761-1.314,8.813-6.754C256.637,220.493,255.54,208.4,254.558,202.679Z" transform="translate(-188.999 -181.678)" fill="#ffa8a7"/><path d="M253.775,198.1c-1.981-11.291-14.493-15.959-24.362-13.908-9.727,2.025-17.317,10.854-18.221,20.75-.809,8.9,4.029,16.718,10.58,21.217-.254-.782-6.3-9.784-.095-11.775.985,1.144,1.022,3.741,1.066,5.566,0,0,3.074-.1,3.074-3.775,0-1.876-.626-4.252.965-6.615,1.286-1.909,4.547-2.424,5.075-7.062,0,0,6.988-9.821,13.088-.955C245.7,197.08,251.307,194.242,253.775,198.1Z" transform="translate(-189.408 -182.01)" fill="#543354"/><path d="M241.924,322.228c-2.377-1.584-3.846-3.853-7.374-5.816a29.7,29.7,0,0,1-7.421-5.3c-2.346-2.336-5.8-12.14-7.6-21.7-2.126-11.281-.867-25.947.545-32.217,3.044-13.525,10.1-29,12.923-34.966,3.389-7.154,1.324-13.637-1.771-16.806-3.636-3.724-7.431-3.643-11.741,6.368s-11.206,28.929-13.407,43.626a96.579,96.579,0,0,0,.45,32.84,120.6,120.6,0,0,0,8.741,27.578c1.114,2.58,1.3,4.77,2.851,9.933S222.694,336.525,226,339.6s4.98,3.663,5.891,3.267c1.148-.5,1.08-1.683-.267-3.26a27.393,27.393,0,0,1-5.552-8.088s2.773,3.6,4.625,5.6a27.182,27.182,0,0,0,5.576,4.642c2.011,1.209,5.187-.217,3.87-1.835-1.327-1.635-2.78-2.526-5.478-5.535a27.054,27.054,0,0,1-3.711-5.224,51.126,51.126,0,0,0,6.185,5.22c3.088,2.109,4.794,2.343,5.925,2.441s2.691-1.293.789-3.088c-1.713-1.615-4.567-2.922-7.35-6.507-2.021-2.6-3.088-4.726-2.431-4.686s1.743,1.652,4.354,2.861c2.492,1.154,5.627.8,6.162-.65S244.3,323.812,241.924,322.228Z" transform="translate(-204.248 -135.648)" fill="#ffa8a7"/><path d="M232.655,205.082c3.616,3.382,5.275,10.722,0,21.193s-11.311,28.7-12.049,38.73-1.693,22.656,3.006,38.734c0,0-2.871,5.43-11.281,4.428A96.421,96.421,0,0,1,204.7,271.32c-.149-21,8.132-43.727,11.829-53.952S225.864,198.728,232.655,205.082Z" transform="translate(-204.695 -136.312)" fill="#e4f2f2"/><path d="M221.048,205.9s-.555,1.151-2.8,1.259c-4.188.21-9.094-7.577-5.715-12.862,2.109-3.3,6.876-2.146,8.42-.173Z" transform="translate(-188.684 -161.751)" fill="#ffa8a7"/><path d="M221.868,223.462c1.232,2.346.616,5.532-2.014,10.874-3.2,6.51-6.839,13.176-9.967,23.651.339,1.442,3.832,4.818,18.177,6.463,17.513,2.011,39.326-9.158,37.4-23.032-1.175-7.4-3.937-13.22-4.8-20.523S221.868,223.462,221.868,223.462Z" transform="translate(-192.311 -99.762)" fill="#f5fbfb"/></g></g><g transform="translate(10698.717 -903.319)"><path d="M684.273,280.006,605.6,234.582c-4.855-2.8-12.737-2.8-17.591,0l-78.673,45.424c-4.858,2.8-4.858,7.353,0,10.157l78.673,45.423c4.855,2.8,12.733,2.8,17.591,0l78.673-45.423C689.131,287.356,689.131,282.809,684.273,280.006Z" transform="translate(-472.7 -4.395)" fill="#6b99d1" opacity="0.15" style="mix-blend-mode:multiply;isolation:isolate"/><path d="M589.044,277.9l-27.66-15.969c-18.762-10.83-44.669-13.434-57.865-5.813s-8.694,22.578,10.065,33.408l27.66,15.969c18.763,10.834,44.669,13.437,57.872,5.816S607.806,288.727,589.044,277.9Z" transform="translate(-495.948 41.561)" fill="#6b99d1" opacity="0.15" style="mix-blend-mode:multiply;isolation:isolate"/><g transform="translate(31.202 139.761)"><path d="M508.806,253.917l78.673-45.424c4.862-2.8,12.736-2.8,17.594,0l78.673,45.424c4.862,2.807,4.862,7.353,0,10.157L605.073,309.5c-4.858,2.8-12.733,2.8-17.594,0l-78.673-45.423C503.951,261.27,503.951,256.72,508.806,253.917Z" transform="translate(-505.163 -206.391)" fill="#dceeff"/><g transform="translate(-505.163 -206.391)" fill="none" stroke-miterlimit="10"><path d="M508.806,253.917l78.673-45.424c4.862-2.8,12.736-2.8,17.594,0l78.673,45.424c4.862,2.807,4.862,7.353,0,10.157L605.073,309.5c-4.858,2.8-12.733,2.8-17.594,0l-78.673-45.423C503.951,261.27,503.951,256.72,508.806,253.917Z" stroke="none"/><path d="M 596.2769165039062 207.3909606933594 C 593.126953125 207.3909606933594 590.1796875 208.0901184082031 587.9784545898438 209.359375 L 509.3056030273438 254.7828979492188 C 507.280029296875 255.9525146484375 506.1644897460938 257.448486328125 506.1644897460938 258.9952087402344 C 506.1644897460938 260.5419311523438 507.280029296875 262.0379028320312 509.3055419921875 263.20751953125 L 587.9779052734375 308.6307067871094 C 590.1796875 309.9002685546875 593.126953125 310.5994567871094 596.2769165039062 310.5994567871094 C 599.4266967773438 310.5994567871094 602.3729858398438 309.9003295898438 604.5728759765625 308.6309814453125 L 683.2462158203125 263.2072448730469 C 685.2743530273438 262.0377807617188 686.3915405273438 260.5426025390625 686.3919067382812 258.9972534179688 C 686.392333984375 257.4510498046875 685.2749633789062 255.9543762207031 683.2457275390625 254.7829284667969 L 604.5731201171875 209.3594970703125 C 602.3729858398438 208.0900573730469 599.4266967773438 207.3909606933594 596.2769165039062 207.3909606933594 M 596.2769165039062 206.3909912109375 C 599.4605102539062 206.3909912109375 602.6437377929688 207.0917663574219 605.0728759765625 208.4933471679688 L 683.7457275390625 253.9169006347656 C 688.6072998046875 256.7234497070312 688.6072998046875 261.2702331542969 683.7457275390625 264.0735473632812 L 605.0728759765625 309.4970092773438 C 600.214599609375 312.3003540039062 592.3399658203125 312.30029296875 587.4783935546875 309.4970092773438 L 508.8055419921875 264.0735473632812 C 503.9508056640625 261.2702331542969 503.9508056640625 256.7201843261719 508.8055419921875 253.9169006347656 L 587.4783935546875 208.4933471679688 C 589.9091796875 207.0917663574219 593.09326171875 206.3909912109375 596.2769165039062 206.3909912109375 Z" stroke="none" fill="#fff"/></g><path d="M505.164,301.326c.047,2.1,1.408,3.741,3.643,5.078l78.673,45.424a17.91,17.91,0,0,0,8.8,2.1v-79.4a17.882,17.882,0,0,1-8.8-2.1l-78.673-45.424c-1.954-1.121-3.643-2.79-3.643-5.078Z" transform="translate(-505.164 -169.325)" fill="#a5cbfa"/><path d="M623.191,301.326c-.044,2.1-1.408,3.741-3.643,5.078l-78.673,45.424a17.912,17.912,0,0,1-8.8,2.1v-79.4a17.875,17.875,0,0,0,8.8-2.1l78.673-45.424c1.953-1.121,3.643-2.79,3.643-5.078Z" transform="translate(-440.962 -169.325)" fill="#c8e2ff"/></g><g transform="translate(3.837)"><path d="M507.468,273.474c2.962.047,5.545-1.016,9.71-.616a30.837,30.837,0,0,0,9.442-.146c3.379-.613,12.327-8.207,19.494-15.293,8.457-8.359,15.841-20.716,17.848-27.06,3.392-10.742,8.322-32.772,10.783-40.206s6.111-9.022,10.617-9.9c5.292-1.033,8.843.9,6.626,11.964s-7.225,32.24-14.006,46.057A104.739,104.739,0,0,1,557.7,265.992c-7.56,7.533-14.7,12.08-23.749,17.73-2.471,1.54-3.924,3.294-8.281,6.785s-10.234,6.47-14.856,7.143-6.4.186-6.944-.684c-.684-1.1.068-2.072,2.147-2.62a28.357,28.357,0,0,0,9.493-3.623s-4.482,1.432-7.238,2.052a28.115,28.115,0,0,1-7.482.667c-2.427-.156-4.293-3.237-2.218-3.843,2.092-.609,3.856-.511,7.926-1.486a28.053,28.053,0,0,0,6.236-2.268,52.639,52.639,0,0,1-8.342.806c-3.87-.02-5.464-.823-6.487-1.412s-1.53-2.685,1.151-3.094c2.407-.366,5.606.2,10.089-1.215,3.257-1.029,5.413-2.2,4.828-2.559s-2.454.383-5.39-.125c-2.8-.484-5.264-2.63-4.868-4.181S504.509,273.423,507.468,273.474Z" transform="translate(-497.081 -129.573)" fill="#ffa8a7"/><path d="M539.932,179.845c-5.308-1.033-9.9,3.8-12.449,11.463s-6.074,24.278-8.261,30.026a56.3,56.3,0,0,0-2.888,10.448s9.009,7.712,19.111,5.718c0,0,6.6-17.3,9.615-31.9S549.476,181.693,539.932,179.845Z" transform="translate(-451.15 -130.288)" fill="#e4f2f2"/><path d="M527.809,201.115a19.776,19.776,0,0,1-8.583-5.488l.481-1.93s-1.043,0-2.7,4.455-2.011,7.431-1.31,8.433c4.168,5.979,16.582,8.647,18.976,5.4,1.689-2.3,5.691-8.687,4.469-11.592l-.8,2.109S534.5,203.2,527.809,201.115Z" transform="translate(-453.48 -96.912)" fill="#f5fbfb"/><path d="M539.216,249.445a44.286,44.286,0,0,0,1.019,5.457c.664,2.451,1.236,6.51.792,8.508s-6.118,4.824-9.273,5.241-8.027,3.775-9.815,6.047c-2.553,3.253-9.378,5.667-13.776,5.163s-9.354-1.54-10.414-3.318.416-3.768,9.639-10.339,15.4-10.563,18.3-16.657Z" transform="translate(-496.189 36.076)" fill="#2d2979"/><path d="M535.314,291.761c-2.34,3.355-6.294,4.912-10.3,5.488a40.632,40.632,0,0,1-6.389.247c-2.251-.027-5.708-1.347-5.5-4.154a4.657,4.657,0,0,1,1.181-2.363c3.609-4.675,7.5-9.151,10.8-14.06,3.724-5.522,7.421-10.742,8.765-19.061l13.843.159c.051,1.161.369,2.793.579,4.327s.623,3.05.968,4.567c.687,3,1.155,6.155-.393,8.982-1.161,2.119-3.46,3.3-5.322,4.841C539.992,283.662,537.944,287.982,535.314,291.761Z" transform="translate(-458.845 56.145)" fill="#2d2979"/><path d="M627.869,223.073c5.011,31.323-11.1,40.467-26.367,52.222a242.287,242.287,0,0,1-24.63,16.518s1.4,7.36,1.544,22.788c.129,13.59-3.463,57.774-3.463,57.774s-7.492,3.88-13.843-.159c0,0-4.676-33.473-6.859-50.543-3.067-23.98-5.742-34.817-4.553-39.817,1.046-4.408,20.861-26.407,25.666-33.794L531.08,273.788a151.417,151.417,0,0,1,1.29,19.667c-.487,18.444-3.257,50.278-3.257,50.278s-7.3,5.275-13.525.1c0,0-13.9-75.037-13.9-81.649,0-10.048,40.552-35.22,49.581-41.171,7.306-4.818,15.488-11.094,15.488-11.094Z" transform="translate(-486.086 -58.212)" fill="#7fa8e6"/><path d="M554.654,231.353a31.917,31.917,0,0,1-10.116-14.429,72.294,72.294,0,0,0,1.578,10.976c1.195,4.79-35.744,29.18-35.744,29.18Z" transform="translate(-465.377 -41.504)" fill="#597bc6"/><path d="M556.846,178.436s-.765,14.923-.433,16.244,6.845,5.695,8.745,7.259-10.312,13.616-16.254,16.338-24.755-4.455-25.083-13.694,3.22-17,6.1-17.412S556.846,178.436,556.846,178.436Z" transform="translate(-433.345 -133.318)" fill="#ffa8a7"/><path d="M527.613,195.557c-1.937-1.8,2.322-7.516,3.68-10.241,6.162-1.862,17.639-6.879,17.639-6.879s-.162,3.44-.271,5.837h0a9.86,9.86,0,0,1-3.988,7.357,27.154,27.154,0,0,1-6.653,3.873C535.565,196.454,530.622,198.36,527.613,195.557Z" transform="translate(-425.431 -133.318)" fill="#f28f8f"/><path d="M568.879,192.848s-10.824,16.129-25.93,17.645c-4.76-4.692-5.2-21.4,1.395-26.735,0,0-6.057-4.889-10.2-3.941a21.385,21.385,0,0,0-9.327,11.9,96.861,96.861,0,0,0-5.325,34.529c.311,17.476,2,64.819,1.71,56.44,0,0-1.909,8.413,11.744,16.024s26.245,11.128,35.5,8.968c7.648-1.784,15.8-6.453,17-12.5-.684-11.094-3.047-29.616-1.2-43.568s1.686-25.527,2.448-36.8-1.483-11.05-7.14-15.072C571.953,194.324,568.879,192.848,568.879,192.848Z" transform="translate(-443.668 -130.314)" fill="#f5fbfb"/><path d="M532.213,207.91a85.656,85.656,0,0,1-1.3-11.027c.352-5.173,4.2-11.92,4.2-11.92v-4.185a9.917,9.917,0,0,0-5.522,3.606c-2.539,3.118-6.433,9.845-5.471,16.42C524.121,200.8,526.044,204.643,532.213,207.91Z" transform="translate(-432.932 -127.731)" fill="#e4f2f2"/><path d="M532.107,196.151c-1.1-2.13-3.193-9.307-4.215-10.37-1.991-.657-3.877,3.264-3.877,3.264s.061,4.168,2.566,6.531A4.757,4.757,0,0,0,532.107,196.151Z" transform="translate(-432.827 -115.972)" fill="#f5fbfb"/><path d="M527.892,185.781c1.022,1.063,3.118,8.24,4.215,10.37a35.537,35.537,0,0,0-2.289-3.45c-1.127-1.442-2.478-4.191-5.8-3.656C524.016,189.045,525.9,185.124,527.892,185.781Z" transform="translate(-432.827 -115.972)" fill="#c8dbda"/><path d="M568.343,177.655s1.429-4.557-4.438-9.005c-6.978-5.292-16.8-4.113-27.139,0-6.619,2.631-16.877-.593-14.886,6.988,2.911,11.111,24.372,12.066,33.709,4.323C556.257,179.751,563.028,176.464,568.343,177.655Z" transform="translate(-438.522 -165.109)" fill="#543354"/><path d="M550.138,184.163c-.278,2.3-12.418,11.331-15.316,12.5s-8.416,10.35-8.416,10.35c4.33-.728,7.909,1.036,11.037,4.31,0,0,17.256-7.259,20.046-18.854,0,0-3.213-6.219-3.7-7.807s-1.778-3.43-3.582-3.511Z" transform="translate(-427.125 -126.836)" fill="#e4f2f2"/><path d="M537.443,196.953s-1.28-8.894-3.128-9.7-7.909,5.393-7.909,5.393A16.561,16.561,0,0,0,537.443,196.953Z" transform="translate(-427.125 -112.465)" fill="#f5fbfb"/><path d="M534.315,187.25c1.849.809,3.128,9.7,3.128,9.7s-4.841-4.438-6.334-4.885-4.7.576-4.7.576S532.463,186.441,534.315,187.25Z" transform="translate(-427.125 -112.465)" fill="#c8dbda"/><path d="M524.285,185.769h0c1.777-11.585,10.119-20.357,22.063-19.694A22.959,22.959,0,0,1,558.046,208s-1.094,4.185-1.845,5.065c-4.222,4.943-17,7.993-20.669,7.468-4.709-.674-7.262-2.641-9.506-7.79C522.061,203.652,523.3,191.494,524.285,185.769Z" transform="translate(-434.545 -162.887)" fill="#ffa8a7"/><path d="M524.1,176.432a22.748,22.748,0,0,1,23.858-9.889,23.158,23.158,0,0,1,18.133,20.347A22.865,22.865,0,0,1,556.125,208c.257-.782,6.277-9.784.074-11.771-.985,1.141-1.242,2.895-1.29,4.719,0,0-3.074-.288-2.383-3.893.2-1.005.372-1.926.535-2.756a10.608,10.608,0,0,0-1.761-7.986,9.285,9.285,0,0,1-1.628-7.519,30.858,30.858,0,0,1-17.483,1.354C528.055,179.272,525.245,177.718,524.1,176.432Z" transform="translate(-432.624 -162.887)" fill="#543354"/><path d="M537.832,310.829c2.322-1.838,3.812-4.184,7.289-6.514,3.061-2.048,4.286-2.949,6.189-5.8,2.065-3.1,4.272-13.617,5.325-23.638,1.242-11.826-1.32-27-3.325-33.344-4.076-12.885-12.713-30.287-15.516-37.6s-1-10.854,1.93-14.388c3.44-4.151,9.456-3.914,14.754,6.053a209.424,209.424,0,0,1,16.315,43.5,104.823,104.823,0,0,1,1.883,34.3c-1.073,10.62-3.714,18.658-7.133,28.77-.934,2.752-.944,5.027-2.1,10.492s-3.815,11.494-6.967,14.944-4.831,4.2-5.8,3.87c-1.225-.416-1.256-1.645,0-3.386a28.362,28.362,0,0,0,5.048-8.819s-2.56,3.948-4.3,6.175a28.237,28.237,0,0,1-5.363,5.261c-1.974,1.415-5.373.217-4.151-1.571s2.658-2.837,5.187-6.172a27.848,27.848,0,0,0,3.386-5.708,52.692,52.692,0,0,1-5.942,5.911c-3.006,2.438-4.75,2.827-5.908,3.02s-2.888-1.107-1.076-3.121c1.632-1.811,4.465-3.4,7.035-7.336,1.865-2.861,2.793-5.139,2.112-5.041s-1.659,1.852-4.249,3.321c-2.475,1.4-5.742,1.3-6.419-.149S535.512,312.667,537.832,310.829Z" transform="translate(-404.997 -112.878)" fill="#ffa8a7"/><path d="M540.261,187.764c-4.882,2.319-5.722,8.928-3.227,16.613s9.5,23.154,11.145,29.082a56.081,56.081,0,0,0,3.87,10.126s11.826.867,18.78-6.724c0,0-4.939-17.848-11.165-31.391S549.05,183.6,540.261,187.764Z" transform="translate(-405.027 -113.638)" fill="#e4f2f2"/><path d="M551.041,207.681a19.749,19.749,0,0,1-10.167.667l-.755-1.838s-.843.616.464,5.187,2.79,7.177,3.947,7.57c6.9,2.339,18.478-2.867,18.478-6.9,0-2.851-.565-10.37-3.27-11.985l.6,2.173S557.663,205.4,551.041,207.681Z" transform="translate(-395.05 -80.975)" fill="#f5fbfb"/><path d="M533.56,188s.535,1.229,2.779,1.344c4.185.207,9.094-7.58,5.715-12.865-2.112-3.3-6.876-2.146-8.42-.169Z" transform="translate(-410.059 -142.962)" fill="#ffa8a7"/><g transform="translate(10.84 137.736)"><path d="M503.059,233.5l35.761-20.648a2.062,2.062,0,0,1,2.055,0l62.737,36.222-36.787,21.244Z" transform="translate(-493.661 -189.607)" fill="#eff6fe"/><path d="M561.807,259.523,581.095,248.4l-56.4-32.567L505.3,226.9Z" transform="translate(-488.313 -181.849)" fill="#aad1fc"/><path d="M543.8,226.576l-.354.205-9.455,5.457-16.815-9.707-.351-.2,9.813-5.663Z" transform="translate(-460.826 -179.852)" fill="#aeb5b7"/><path d="M543.2,226.5l-9.455,5.457-16.815-9.707,9.462-5.459Z" transform="translate(-460.579 -179.566)" fill="#aad1fc"/><path d="M603.612,234.331v.84a3.464,3.464,0,0,1-1.723,2.989l-33.341,19.247a3.449,3.449,0,0,1-3.443,0l-60.323-34.824a3.449,3.449,0,0,1-1.723-2.989v-.836l63.766,36.814Z" transform="translate(-493.661 -174.865)" fill="#c8e2ff"/><path d="M566.825,255.572v2.3a3.387,3.387,0,0,1-1.72-.46l-60.323-34.824a3.449,3.449,0,0,1-1.723-2.989v-.836Z" transform="translate(-493.661 -174.865)" fill="#aad1fc"/><path d="M572.472,286.563a4.094,4.094,0,0,1-3.521-.271L508.9,251.618a4.1,4.1,0,0,1-1.987-2.857l-6.571-39.2a4.068,4.068,0,0,1,1.151-3.575L563.9,242.02a3.017,3.017,0,0,1,1.47,2.109Z" transform="translate(-500.283 -205.344)" fill="#eff6fe"/><path d="M572.6,286.5l-.413.237a4.787,4.787,0,0,1-.562.271l-7.1-42.434a3.017,3.017,0,0,0-1.469-2.109L500.64,206.429a4.232,4.232,0,0,1,.833-.637L564.007,241.9a3.032,3.032,0,0,1,1.469,2.113Z" transform="translate(-499.431 -205.793)" fill="#c8e2ff"/><path d="M519.066,225.2c-.44-2.627-3.152-6.111-6.053-7.787s-4.9-.907-4.459,1.716,3.149,6.114,6.053,7.79S519.506,227.827,519.066,225.2Z" transform="translate(-480.698 -180.18)" fill="#aad1fc"/></g></g></g><g transform="translate(10698.717 -778.617)"><path d="M580.956,184.627c2.366-2.556,4.763-14.236,4.763-14.236s1.307-4.364,1.1-6.2-2.075-14.219-2.075-14.219l12.107-1.178s-.667,10.194-.728,13.468a34.619,34.619,0,0,0,1.449,11.006c-.6,1.73-7.255,13.762-7.245,13.8s-7.188,1.842-7.188,1.842l-3.49-1.442Z" transform="translate(-446.193 158.148)" fill="#ffa8a7"/><path d="M582.9,174.123c-1.672-.386-7.1-4.144-3.782-5.84a6.928,6.928,0,0,1,5.193-.565s-.7,1.317.427,1.209c2.167-.2,3.839-9.706,3.839-12.9L594.6,158.2l-2.4,13.126-2.773,1.791-4.621,1Z" transform="translate(-449.982 175.393)" fill="#2d2979"/><path d="M586.965,160.222c-.132,7.485-1.378,8.494-2.2,10.16-1.185,2.421-3.175,2.851-5.075,2.922,2.353,1.192,14.206.9,16.67-.894,1.371-1,.47-3.744.433-7.038-.037-3.342,1-6.994.931-8.765S586.965,160.222,586.965,160.222Z" transform="translate(-446.098 175.925)" fill="#291d51"/><path d="M587.49,154.135c-3.687.139-6.131,3.572-6.324,6.808-.186,3.145,3,3.511,5.478,9.537,1.3,3.159,1.669,7.969,1.72,12.422a1.5,1.5,0,0,0,2.089-.085s-.024-3.579.216-7.038a55.83,55.83,0,0,1,.9-7.191c.961-3.253,2.935-4.733,2.654-8.017a9.979,9.979,0,0,0-1.916-5.146A7.286,7.286,0,0,0,587.49,154.135Z" transform="translate(-442.603 170.863)" fill="#2d2979"/><g transform="translate(106.796 326.328)"><path d="M575.982,177.69s1.086,1.9,6.95-.562a14.026,14.026,0,0,0,4.875-3.06,54.089,54.089,0,0,1,2.275-6.436s-1.158-7.675-4.791-4.713S575.982,177.69,575.982,177.69Z" transform="translate(-561.746 -136.116)" fill="#291d51"/><path d="M594.168,154.523c.687,4.306,1.029,7.309,1.5,9.994a11.027,11.027,0,0,0,1.767,4.584,12.831,12.831,0,0,1,2.546,5.559s-6.978.985-10.522,5.786-3.345,9.6-6.632,10.4-8.779-2.983-8.779-2.983,3.48-.139,4.841-4.5,4.906-13.83,5.214-16.271c.43-3.389-2.62-10.407-2.62-10.407Z" transform="translate(-566.366 -154.523)" fill="#ffa8a7"/><path d="M600.764,158.895c-3.033.186-7.631,4.994-9.181,8.508s-4.117,8.457-6.091,9.564-5.471-.5-8.454-.525-5.092,1.364-5.261,3.538c0,0,9.554,4.523,12.415,5.881s5.282,1.4,7.53-4.547,4.33-11.081,7.167-6.91c2.485,3.653,3.511,10.827,3.511,10.827s1.151.917,2.5-.548a28.485,28.485,0,0,1-.7-6.256c-.115-7.976,2.746-9.913,2.031-13.058C605.178,160.754,604.054,158.688,600.764,158.895Z" transform="translate(-571.777 -144.127)" fill="#2d2979"/></g><path d="M575.532,87.318s-7.922-4.6-7.13-11.467,11.308-23.692,30.057-15.533C616.043,64.141,575.532,87.318,575.532,87.318Z" transform="translate(-473.165 -58.134)" fill="#543354"/><path d="M587.523,75.733c5.39,1.554,8.477,7.526,13.214,20.293s9.666,31.38,9.046,36.3c-1.527,12.032-9,22.307-21.884,30.835l-5.755-10.536s12.638-10.167,13.847-22.2c.68-6.761-8.091-29.762-8.091-30.378S587.523,75.733,587.523,75.733Z" transform="translate(-440.25 -16.15)" fill="#ffa8a7"/><path d="M628.969,234.782c-1.754-13.471-1.466-19.639-1.466-19.639s2.109-20.408,3.809-37.908c2.5-25.811,7.424-31.661,4.594-47.235-2.451-13.481-11.436-23.946-15.441-33.838l-42.129,3.321s-3.656,11.944-8.39,35.727-2.952,56.051.64,89.263c1.043,9.6,7.113,22.493,13.935,38.8,6.25,14.927,15.712,39.5,15.712,39.5,6.507,3.782,11.731-2.712,11.731-2.712s-4.841-32.352-6.8-43.3c-3.324-18.6-12.012-27.677-12.012-27.677s1.964-13.549,3.348-25.544c1.5-13,5.884-34.59,5.884-34.59s.206,33.4.88,43.04,1.046,10.857,4.384,29.5c2.769,15.445,8.874,45.992,8.874,45.992,5.765,1.981,9.7-.328,9.7-.328S630.726,248.257,628.969,234.782Z" transform="translate(-476.191 32.584)" fill="#7fa8e6"/><path d="M602.725,110.684c-8.339,8.6-23.154,10.407-23.154,10.407L577.6,134.3c-.569,10.824.836,23.614.565,35.985,0,0,3.017-32.291,7.032-37.637S600.031,118.1,602.725,110.684Z" transform="translate(-451.413 67.226)" fill="#597bc6"/><path d="M613.313,115.93c-8.968-.542-9.832.945-10.549-2.238-.257-1.138-.758-9.036-.758-9.036a27.33,27.33,0,0,0,2.241-3.311A22.959,22.959,0,0,0,594.594,58.9c-11.9-1.239-20.655,7.12-22.994,18.6-1.256,5.667-2.559,17.253.961,26.526,1.991,5.254,3.836,8.931,8.589,8.741a28.831,28.831,0,0,0,4.686-.826,42.983,42.983,0,0,1,.26,6.585c-.125,2.292.264,3.446-4.232,6.216s6.8,8.457,14.172,7.9,15.665-5.007,17.94-9.777C616.512,117.545,617.538,116.184,613.313,115.93Z" transform="translate(-468.535 -56.594)" fill="#ffa8a7"/><path d="M600.876,72.723l-7.739.413L584.71,73l-2.6-3.03s-.545,9.723-3.192,12.093a22.947,22.947,0,0,1-6.1,3.714,6.949,6.949,0,0,0,2.309.308,28.827,28.827,0,0,0,4.686-.826,42.99,42.99,0,0,1,.26,6.585c-.125,2.292.264,3.446-4.232,6.216s6.8,8.457,14.172,7.9,15.665-5.007,17.94-9.777c2.535-5.319,3.562-6.68-.664-6.934-8.968-.542-9.832.945-10.549-2.238-.257-1.138-.758-9.036-.758-9.036a27.335,27.335,0,0,0,2.241-3.311A23.673,23.673,0,0,0,600.876,72.723Z" transform="translate(-462.507 -29.905)" fill="#f28f8f"/><path d="M604.368,102.133c5.769-5.275,7.59-10.509,8.362-17.913a23.038,23.038,0,0,0-20.523-25.307c-8.2-.853-16.8,2.079-20.919,12.3a3.637,3.637,0,0,0,2.783,1.781,5.833,5.833,0,0,0,1.253,4.784,11.6,11.6,0,0,1,2.854,6.568c.169,2.174-.2,5.366.42,7.658.789,2.884,3.934,2.675,3.934,2.675s.21-4.774.68-9.337c1.419-3.22,7.167-3.934,8.23.21.965,3.761.04,6.087-1.3,8.816-1,2.025-2.78,3.094-4.388,2.306,0,5.654,2.116,8.237,7.116,9.642s5.468-.44,8.03-1.771A22.4,22.4,0,0,0,604.368,102.133Z" transform="translate(-466.148 -56.607)" fill="#543354"/><path d="M612.544,75.73c1.652,2.062,1.842,4.665-4.563,6.277-8.362,2.1-14.009-1.077-14.009-1.077a94.147,94.147,0,0,0-14.5,7.678c-14.318,9.943-17.771,27.209-3.335,33.158.88,6.487,1.954,23.191,2.228,26.989,12.212,8.528,37.017,5.62,42.58-3.426a73.042,73.042,0,0,1,.85-9.026c5.826-21.6,10.38-27.341,8.755-43.636-.934-9.324-1.649-14.009-6.605-16.5C620.957,75.229,614.349,75.608,612.544,75.73Z" transform="translate(-476.673 -16.584)" fill="#f5fbfb"/><path d="M575.56,80.695v56.663s5.874,4.046,16.115-.846,10.989-7.875,10.989-13.3l0-57.743s-11.683,13.847-20.086,16.7C576.061,84.456,575.56,80.695,575.56,80.695Z" transform="translate(-455.957 -40.633)" fill="#543354"/><path d="M555.266,139.3c2.776,1.029,5.566.877,9.361,2.641a30.863,30.863,0,0,0,8.958,2.993c3.385.545,8.664-1.2,17.774-5.508,10.753-5.078,22.277-15.059,26.675-20.059,9.479-10.78,20.012-27.26,23.3-33.259,3.934-7.191,8.941-9.012,13.305-7.587,5.2,1.7,5.837,6.873.068,16.579s-15.689,24.132-26.668,34.918a100.009,100.009,0,0,1-27.8,19.606c-9.635,4.6-12.977,5.8-23.394,8.129-2.84.633-4.79,1.808-10.062,3.653s-11.8,2.708-16.386,1.811-6.1-1.947-6.321-2.949c-.281-1.263.752-1.93,2.895-1.757a28.426,28.426,0,0,0,10.157-.271s-4.7-.135-7.509-.467a28.039,28.039,0,0,1-7.282-1.852c-2.235-.948-2.972-4.476-.816-4.357,2.177.115,3.809.8,7.973,1.226a28.016,28.016,0,0,0,6.636-.071,52.815,52.815,0,0,1-8.139-2.008c-3.646-1.3-4.882-2.59-5.65-3.48s-.555-3.044,2.109-2.539c2.393.45,5.224,2.048,9.923,2.2,3.416.112,5.84-.284,5.407-.813s-2.448-.454-5.044-1.906c-2.485-1.385-4.093-4.229-3.209-5.559S552.491,138.273,555.266,139.3Z" transform="translate(-540.232 -10.567)" fill="#ffa8a7"/></g><g transform="translate(10431.535 -691.169)"><g transform="translate(131.801 135.261)"><g transform="translate(0 83.023)"><path d="M655.763,408.888c2.431,3.054,7.939,4.614,11.707,3.754,2.776-.633,4.6-1.124,6.71-1.788,2.746-.87,6.92-.928,9.8-1.1,3.46-.2,6.192.058,9.622-.447a36.187,36.187,0,0,0,8.7-2.461c3.663-1.557,9.913-9.036,5.332-11.866a2.947,2.947,0,0,0-1.148-.339c-12.29-1.849-28.158-1.124-32.051-5.85,0,0-16.525-.819-16.681-.829.5.027-2.7,15.079-2.973,16.294a6.5,6.5,0,0,0-.23,2.052A5.084,5.084,0,0,0,655.763,408.888Z" transform="translate(-654.536 -387.962)" fill="#2d2979"/></g><g transform="translate(0.331)"><path d="M674.293,371.324l-6.961-5.847s-4.418,11.494-4.313,15.617,2.955,65.432,2.955,65.432,9.337,7.069,16.613.765c0,0,4.97-72.511,6.1-83.853l-14.392,7.885" transform="translate(-663.018 -363.439)" fill="#6f89d1"/></g><g transform="translate(36.628 100.983)"><path d="M645.5,414.982c2.7,2.82,8.328,3.87,12,2.671,2.708-.884,4.485-1.54,6.517-2.4,2.654-1.117,6.808-1.554,9.659-1.987,3.423-.521,6.172-.514,9.54-1.33a36.212,36.212,0,0,0,8.44-3.247c3.508-1.882,9.046-9.9,4.225-12.3a2.983,2.983,0,0,0-1.171-.237c-12.408-.718-28.144,1.463-32.454-2.888l-16.687.7c.5-.02-1.314,15.262-1.469,16.5a6.663,6.663,0,0,0-.041,2.058A5.071,5.071,0,0,0,645.5,414.982Z" transform="translate(-643.995 -393.267)" fill="#2d2979"/></g><path d="M652.7,386.592c.105,4.12,2.959,65.429,2.959,65.429s9.412,5.6,16.687-.7c0,0,4.9-71.052,6.023-82.393" transform="translate(-617.46 -350.34)" fill="#7fa8e6"/></g><g transform="translate(0 132.719)"><path d="M834.383,438.1l-78.67-45.424c-4.862-2.8-12.736-2.8-17.591,0L659.446,438.1c-4.858,2.807-4.858,7.353,0,10.157l78.677,45.42c4.855,2.807,12.73,2.807,17.588,0l78.673-45.42C839.245,445.448,839.245,440.9,834.383,438.1Z" transform="translate(-655.799 -296.171)" fill="#6b99d1" opacity="0.15" style="mix-blend-mode:multiply;isolation:isolate"/><path d="M834.383,410.217l-78.67-45.423c-4.862-2.807-12.736-2.807-17.591,0l-78.677,45.423c-4.858,2.8-4.858,7.35,0,10.157l78.677,45.42c4.855,2.8,12.73,2.8,17.588,0l78.673-45.42C839.245,417.563,839.245,413.02,834.383,410.217Z" transform="translate(-655.799 -362.688)" fill="#dceeff"/><g transform="translate(-655.799 -362.688)" fill="none" stroke-miterlimit="10"><path d="M834.383,410.217l-78.67-45.423c-4.862-2.807-12.736-2.807-17.591,0l-78.677,45.423c-4.858,2.8-4.858,7.35,0,10.157l78.677,45.42c4.855,2.8,12.73,2.8,17.588,0l78.673-45.42C839.245,417.563,839.245,413.02,834.383,410.217Z" stroke="none"/><path d="M 746.9151611328125 363.6882019042969 C 743.765869140625 363.6882019042969 740.8208618164062 364.3880920410156 738.6220703125 365.6592407226562 L 659.9453735351562 411.082763671875 C 657.918701171875 412.2522888183594 656.8023681640625 413.7474975585938 656.802001953125 415.2929992675781 C 656.8015747070312 416.8392944335938 657.9180908203125 418.3359985351562 659.945556640625 419.5072631835938 L 738.6221313476562 464.9275207519531 C 740.8204956054688 466.1968383789062 743.7655639648438 466.8959045410156 746.9147338867188 466.8959045410156 C 750.0640258789062 466.8959045410156 753.0101318359375 466.1968078613281 755.2100830078125 464.927490234375 L 833.8824462890625 419.5075073242188 C 835.9124755859375 418.3342590332031 837.030029296875 416.8367614746094 837.0292358398438 415.2908935546875 C 837.0284423828125 413.7466430664062 835.9112548828125 412.2522583007812 833.8828735351562 411.0826416015625 L 755.21337890625 365.6592407226562 C 753.0116577148438 364.3882141113281 750.0646362304688 363.6882019042969 746.9151611328125 363.6882019042969 M 746.9151611328125 362.6882019042969 C 750.098388671875 362.6882019042969 753.2825317382812 363.3898620605469 755.7133178710938 364.793212890625 L 834.3828735351562 410.2166442871094 C 839.2446899414062 413.02001953125 839.2446899414062 417.5633544921875 834.3828735351562 420.373291015625 L 755.7100830078125 465.7935180664062 C 750.8516845703125 468.5966796875 742.9769287109375 468.5966796875 738.1220703125 465.7935180664062 L 659.445556640625 420.373291015625 C 654.5874633789062 417.5667419433594 654.5874633789062 413.02001953125 659.445556640625 410.2166442871094 L 738.1220703125 364.793212890625 C 740.5494995117188 363.3898620605469 743.7318725585938 362.6882019042969 746.9151611328125 362.6882019042969 Z" stroke="none" fill="#fff"/></g><path d="M746.915,457.621c-.041,2.1-1.409,3.741-3.643,5.082L664.6,508.126a17.924,17.924,0,0,1-8.8,2.1V430.821a17.851,17.851,0,0,0,8.8-2.1l78.673-45.42c1.957-1.121,3.643-2.793,3.643-5.078Z" transform="translate(-564.688 -325.62)" fill="#a5cbfa"/><path d="M682.715,457.621c.044,2.1,1.409,3.741,3.643,5.082l78.677,45.424a17.924,17.924,0,0,0,8.8,2.1V430.821a17.851,17.851,0,0,1-8.8-2.1l-78.677-45.42c-1.953-1.121-3.643-2.793-3.643-5.078Z" transform="translate(-682.715 -325.62)" fill="#c8e2ff"/></g><g transform="translate(51.143)"><g transform="translate(1.525 118.617)"><path d="M726.328,359.376c-8.173,2.976-63.333,23.675-63.333,23.675s2.18,39.143,13.962,32.819L733.8,383.051l14.392-7.885C749.464,362.4,735.293,356.109,726.328,359.376Z" transform="translate(-643.063 -358.523)" fill="#6f89d1"/><path d="M792.728,380.656c1.269-12.767-12.906-19.057-21.87-15.787-8.169,2.976-63.33,23.675-63.33,23.675l-54.754-4.621C651.443,404.412,664.714,413.188,680,419.9s29.708,7.78,41.49,1.456l56.84-32.816-6.957-5.847s-4.415,11.494-4.313,15.621" transform="translate(-652.681 -345.423)" fill="#7fa8e6"/></g><path d="M724.084,345.065c-1.188-11.656-9.073-20.845-21.034-20.791a22.959,22.959,0,0,0-13.816,41.276s.315,1.5.715,2.9c0,0-1.226,6.158-1.784,7.181-.725,1.317-4.195.041-8.833-.647-3.183-.474-3.907,5.464-1.913,11.01,1.791,4.973,9.6,10.217,16.884,11.507s19.081-3.253,14.883-6.453-4.249-4.4-3.6-6.6,1.926-6.4,1.926-6.4a26.221,26.221,0,0,0,6.223.694c4.74-.433,7.089-1.388,8.6-6.8C725.126,361.985,724.771,350.83,724.084,345.065Z" transform="translate(-662.905 -321.607)" fill="#ffa8a7"/><path d="M690.885,356.877s3.883-.088,7.042-.132c.03-.129.058-.251.1-.383.657-2.207,1.926-6.4,1.926-6.4a26.227,26.227,0,0,0,6.222.694A12.742,12.742,0,0,0,711,349.51c-2.844.525-7.441-1.872-8.5-4.042s-1.073-9.418-1.073-9.418a13.278,13.278,0,0,1-.894,2.471,1.919,1.919,0,0,1-2,1l-4.489-.545-13.322-2.326c.315.271.616.559.951.809,0,0,.315,1.5.714,2.9,0,0-1.226,6.158-1.784,7.181-.325.592-1.229.647-2.519.481l1.761,2.3Z" transform="translate(-655.341 -293.517)" fill="#f28f8f"/><path d="M721.472,324.725c-7.286,2.272-34.309-8.122-39.181,7.946,0,0-5.346,1.954-6.988,9.811s-1.646,13.661,2.8,21.515a116.782,116.782,0,0,1,5.9,11.436,18.156,18.156,0,0,0,7.645,3.477,9.614,9.614,0,0,0,11.155-6.568,32.616,32.616,0,0,0,1.378-6.324c-1.039,1.649-4.171.745-5.843-2.637-1.48-2.99-2.052-6.839-.142-9.747,2.451-3.731,6.991-2.681,7.871.227a21.082,21.082,0,0,1,.386,6.348A3.415,3.415,0,0,0,710.2,357.3a30.612,30.612,0,0,0,.376-7.191,6.862,6.862,0,0,1,1.974-5.434c2.055-1.892,1.314-4.916,1.314-4.916a12.771,12.771,0,0,0,9.8-6.5C727.052,327.115,728.761,322.446,721.472,324.725Z" transform="translate(-658.093 -323.486)" fill="#3a2c6d"/><path d="M697.926,340.453c-.5,1.7.931,4.455,6.947,7.665,8.139,4.347,12.984,3.782,12.984,3.782s9.648,5.227,13.853,8.159c5.278,3.694,7.624,14.375,8.335,32.413.626,15.966.819,41.3.565,54.72a16.3,16.3,0,0,1-9.2,14.4,26.648,26.648,0,0,1-13.664,2.783c-12.635-1.033-35.812-12.564-40.972-21.193.142-18.3,1.682-29.417,1.043-40.349-1.134-19.287-5.353-34.573-.034-50.058,4.635-13.488,10-14.128,15.174-13.4A32.215,32.215,0,0,1,697.926,340.453Z" transform="translate(-675.156 -286.062)" fill="#f5fbfb"/><path d="M685.1,339c-2.086-.254-2.675.515-4.1,1.757,0,0-1.835,5.1,4.973,9.537s17.408,2.9,17.408,2.9l2.461,1.368s-1.168-6.981-3.176-7.435a27.529,27.529,0,0,1-12.079-2.661C684.477,341.508,685.1,339,685.1,339Z" transform="translate(-659.303 -286.602)" fill="#e4f2f2"/><path d="M742.029,347.539c-1.253,2.685-3.193,4.675-4.655,8.592-1.287,3.453-1.879,4.855-4.218,7.363-2.536,2.722-9.889,6.937-20.557,12.3-10.624,5.342-19.081,5.153-25.3,2.78-13.617-5.193-21.092-17.219-29.81-24.2-6.111-4.9-12.107-2.681-13.136,1.791-.8,3.49,2.207,13.275,12.7,23.394,8.122,7.841,22.023,16.5,33.676,16.809a57.386,57.386,0,0,0,22.8-4.77c10.146-4.557,17.425-9.435,26.471-15.1,2.465-1.544,4.679-2.075,9.727-4.465s10.3-6.361,12.933-10.224,2.972-5.667,2.427-6.537c-.687-1.1-1.892-.846-3.294.779A28.365,28.365,0,0,1,754.366,363s3.254-3.4,5.014-5.61a28.111,28.111,0,0,0,3.883-6.432c.924-2.248-1.029-5.275-2.482-3.677-1.466,1.615-2.15,3.24-4.811,6.47a27.7,27.7,0,0,1-4.774,4.615,52.649,52.649,0,0,0,4.381-7.147c1.683-3.487,1.656-5.268,1.574-6.446s-1.74-2.553-3.281-.325c-1.391,2-2.278,5.129-5.518,8.538-2.353,2.475-4.354,3.9-4.418,3.22s1.422-2.041,2.252-4.9c.792-2.732-.058-5.884-1.625-6.209S743.286,344.857,742.029,347.539Z" transform="translate(-595.027 -276.322)" fill="#ffa8a7"/><path d="M672.4,347.408c-1.994,1.909-2.932,5.569-1.646,9.8s6.023,11.165,10.245,16.362c2.627,3.233,9.8,9.625,9.8,9.625s10.546-7.218,13.255-16.071c0,0-13.512-12.967-17.1-16.318S677.479,342.546,672.4,347.408Z" transform="translate(-621.591 -271.295)" fill="#e4f2f2"/></g></g></g></g></svg>