<svg xmlns="http://www.w3.org/2000/svg" width="33.631" height="33.631" viewBox="0 0 33.631 33.631"><defs><style>.a{fill:#fff;}</style></defs><path class="a" d="M2129.679,1097.325a16.86,16.86,0,1,1,13.966-7.481.684.684,0,0,1-1.136-.76,15.349,15.349,0,1,0-4.837,4.648.683.683,0,1,1,.708,1.169A16.787,16.787,0,0,1,2129.679,1097.325Zm-6.425-8.955a.684.684,0,0,1-.684-.683v-7.792a2.745,2.745,0,0,1,2.35-2.706l.588-.083v-2.492a4.1,4.1,0,0,1,8.2,0v2.492l.588.083a2.745,2.745,0,0,1,2.352,2.707v7.792a.684.684,0,0,1-.683.683Zm2.051-9.843a1.368,1.368,0,0,0-1.367,1.367V1087h11.347v-7.109a1.368,1.368,0,0,0-1.367-1.367Zm4.305-6.562a2.7,2.7,0,0,0-2.734,2.648v2.547h5.468v-2.547A2.7,2.7,0,0,0,2129.61,1071.965Zm0,11.851a1.051,1.051,0,1,1,1.051-1.051A1.053,1.053,0,0,1,2129.611,1083.816Z" transform="translate(-2112.864 -1063.694)"/></svg>