<svg xmlns="http://www.w3.org/2000/svg" width="34.75" height="34.75" viewBox="0 0 34.75 34.75"><defs><style>.a{fill:#fff;}</style></defs><path class="a" d="M244.078,253.49a9.411,9.411,0,1,1,9.411-9.411A9.422,9.422,0,0,1,244.078,253.49Zm0-17.375a7.963,7.963,0,1,0,7.964,7.963A7.973,7.973,0,0,0,244.078,236.115Z" transform="translate(-218.74 -218.74)"/><path class="a" d="M302.281,327.236a.732.732,0,0,1-.513-.211l-2.9-2.9A.724.724,0,0,1,299.9,323.1l2.348,2.348,4.558-5.21a.724.724,0,0,1,1.09.953l-5.068,5.792a.73.73,0,0,1-.521.248Z" transform="translate(-278.391 -298.277)"/><path class="a" d="M20.994,4.344H18.822V3.62A.724.724,0,0,0,18.1,2.9H15.855a3.62,3.62,0,0,0-7.094,0H6.516a.724.724,0,0,0-.724.723v.724H3.62A3.624,3.624,0,0,0,0,7.963V26.786a3.624,3.624,0,0,0,3.62,3.62H13.755a.724.724,0,0,0,0-1.448H3.62a2.175,2.175,0,0,1-2.172-2.172V7.963A2.175,2.175,0,0,1,3.62,5.791H5.791v.724A2.175,2.175,0,0,0,7.963,8.687h8.687a2.174,2.174,0,0,0,2.172-2.172V5.791h2.172a2.174,2.174,0,0,1,2.172,2.172v4.344a.724.724,0,0,0,1.448,0V7.963A3.624,3.624,0,0,0,20.994,4.344Zm-3.62,2.172a.725.725,0,0,1-.724.724H7.963a.725.725,0,0,1-.723-.724V4.344H9.412a.724.724,0,0,0,.723-.724,2.172,2.172,0,1,1,4.344,0,.724.724,0,0,0,.724.724h2.172Z" transform="translate(0 0)"/><path class="a" d="M79.2,172.115H64.724a.724.724,0,1,1,0-1.448H79.2a.724.724,0,1,1,0,1.448Z" transform="translate(-59.656 -159.084)"/><path class="a" d="M74.859,236.115H64.724a.724.724,0,1,1,0-1.448H74.859a.724.724,0,1,1,0,1.448Z" transform="translate(-59.656 -218.74)"/><path class="a" d="M71.963,300.115H64.724a.724.724,0,1,1,0-1.448h7.239a.724.724,0,1,1,0,1.448Z" transform="translate(-59.656 -278.396)"/></svg>