<svg xmlns="http://www.w3.org/2000/svg" xmlns:xlink="http://www.w3.org/1999/xlink" width="432.488" height="973.797" viewBox="0 0 432.488 973.797"><defs><clipPath id="a"><rect width="391.345" height="973.797" transform="translate(0)" fill="#fff" stroke="#707070" stroke-width="1"/></clipPath><clipPath id="b"><rect width="1859.042" height="973.797" rx="12.001" fill="none"/></clipPath></defs><g transform="translate(0)" opacity="0.3" clip-path="url(#a)"><g transform="translate(0)"><g transform="translate(0 0)"><g transform="translate(0 0)"><g clip-path="url(#b)"><g transform="translate(-393.09 -126.059)"><path d="M606.454,349.744a14.31,14.31,0,0,1-12.966,0c-3.582-2.067-3.582-5.417,0-7.487a14.332,14.332,0,0,1,12.966,0C610.036,344.327,610.036,347.677,606.454,349.744Z" transform="translate(-276.664 751.336)" fill="#42e8e0"/><path d="M529.723,344.788a14.332,14.332,0,0,1-12.966,0c-3.582-2.067-3.582-5.417,0-7.487a14.332,14.332,0,0,1,12.966,0C533.305,339.371,533.305,342.721,529.723,344.788Z" transform="translate(61.324 739.417)" fill="#42e8e0"/><path d="M495.405,363.676a14.318,14.318,0,0,1-12.969,0c-3.582-2.067-3.582-5.417,0-7.487a14.339,14.339,0,0,1,12.969,0C498.987,358.259,498.987,361.609,495.405,363.676Z" transform="translate(212.499 784.84)" fill="#42e8e0"/><path d="M649.653,283.589a14.339,14.339,0,0,1-12.969,0c-3.578-2.067-3.578-5.42,0-7.487a14.339,14.339,0,0,1,12.969,0C653.235,278.169,653.235,281.522,649.653,283.589Z" transform="translate(-466.945 592.243)" fill="#42e8e0"/><g transform="translate(0 0)"><path d="M552.433,450.011l.511-.3L797.19,308.7l-1.542-.885L552.426,167.385l-.514.3L307.666,308.693l1.542.889ZM793.08,308.7,552.433,447.638,311.776,308.693,552.426,169.758Z" transform="translate(499.319 334.524)" fill="#21c4fc"/><path d="M1058.96,563.235l1.024-1.776L891.927,464.432l0-159.16-.515-.3L406.757,25.164l-1.024,1.776L889.868,306.456l0,159.16.515.3Z" transform="translate(-97.377 -7.496)" fill="#21c4fc"/><path d="M675.7,287.6h2.055l0-146.914-.515-.3L470.481,21.018l-1.024,1.776L675.7,141.867Z" transform="translate(67.88 -17.465)" fill="#21c4fc"/><path d="M1336.269,359.031l1.024-1.776-164.364-94.9H887.063L636.5,117.689H592.511l-.236.14L415.043,220.154l1.024,1.776,177-102.185h42.883L886.51,264.41h285.867Z" transform="translate(-406.386 215.013)" fill="#21c4fc"/><path d="M153.348,456.334,483.627,265.65H680.566l.236-.14,124.356-71.795V77.229H803.1v115.3l-123.09,71.063H483.075l-.236.14L152.324,454.558Z" transform="translate(1020.266 117.713)" fill="#21c4fc"/><path d="M222.64,450.094,558.116,256.406l0-115.046L678.054,72.109l-1.024-1.776L556.058,140.176l0,115.047-334.446,193.1Z" transform="translate(911.442 101.131)" fill="#21c4fc"/><path d="M455.75,464.994,653.4,350.886l0-98.731-.516-.3L310.512,54.192l-1.024,1.776,341.85,197.371,0,96.363L454.725,463.219Z" transform="translate(636.91 62.313)" fill="#21c4fc"/><path d="M967.724,495.725H968l.236-.14L1102,418.358l-1.024-1.776L967.448,493.671l-302.542,0L446.288,367.448h-180.8L16.73,223.83l-1.024,1.776L264.937,369.5h180.8L664.354,495.722Z" transform="translate(1188.588 470.265)" fill="#21c4fc"/><path d="M715.591,419.355l1.024-1.776L608.185,354.972H400.693L165.274,219.054l-1.024,1.776,235.892,136.2H607.634Z" transform="translate(1068.204 458.781)" fill="#21c4fc"/><path d="M184.862,309.773l172.8-99.761h123.2l79.8,46.068,1.024-1.775-80.27-46.348H357.106l-.236.14L183.838,308Z" transform="translate(1156.44 432.093)" fill="#21c4fc"/><path d="M253.538,385.2l1.024-1.775-96.2-55.545V280.137h-2.055v48.928l.515.3Z" transform="translate(1557.3 605.676)" fill="#21c4fc"/><path d="M475.664,156.781h78.644v-2.055H476.216l-140.1-80.885-1.024,1.776Z" transform="translate(648.822 109.566)" fill="#21c4fc"/><path d="M327.773,282.43h2.055l0-50.75,97.261-56.153v-54.82h-2.055v53.636L327.77,230.5Z" transform="translate(800.973 222.27)" fill="#21c4fc"/><path d="M413.943,595.208l169.47-97.843,0-159.156,183.6-106-1.024-1.775L581.355,337.026l0,159.156-168.44,97.251Z" transform="translate(171.133 486.141)" fill="#21c4fc"/><path d="M405.236,649.01l67.209-38.8V540.045l65.21-37.65-.006-186.541,136.174-78.621-1.024-1.776-137.2,79.213.006,186.541-65.21,37.649v70.165l-66.178,38.208Z" transform="translate(293.961 498.228)" fill="#21c4fc"/><path d="M443.542,427.933l52.951-30.567H609.462l.236-.14L813.1,279.8H992.144l.236-.14,111.785-64.539-1.024-1.776-111.548,64.4H812.548l-.236.14L608.91,395.311H495.941l-.236.14-53.187,30.707Z" transform="translate(-266.805 445.042)" fill="#21c4fc"/><path d="M542.68,283.077l70.9-40.931H750.319V240.09H613.031l-.236.14L541.656,281.3Z" transform="translate(-250.507 509.369)" fill="#21c4fc"/><path d="M427.677,631.153,690.106,479.641v-79.2L995.234,224.277,994.21,222.5,688.051,399.261v79.2l-261.4,150.92Z" transform="translate(-103.856 467.071)" fill="#21c4fc"/><path d="M1113.446,341.186l1.024-1.776L996.032,271.028l-331.227,0L425.692,132.975l-1.025,1.776L664.253,273.079l331.227,0Z" transform="translate(-216.333 251.774)" fill="#21c4fc"/><path d="M666.247,214.59h.276l.236-.14L734.5,175.338l-1.024-1.776-67.508,38.973-182.308,0v2.055Z" transform="translate(-37.234 349.379)" fill="#21c4fc"/><path d="M281.628,766.321h2.055l0-111.127,263.9-152.363,0-122.584-.515-.3L297.325,235.767l-1.024,1.776L545.523,381.431l0,120.217-263.9,152.363Z" transform="translate(837.595 498.973)" fill="#21c4fc"/><path d="M317.705,388.279l90.913-52.486,107.405,0v-2.055l-107.958,0-.236.14L316.681,386.5Z" transform="translate(749.79 734.577)" fill="#21c4fc"/><rect width="211.786" height="2.05" transform="translate(1281.933 862.796) rotate(-150.032)" fill="#21c4fc"/><path d="M392.684,614.566h2.055l-.007-310.449,104.306-60.223-1.024-1.776L392.677,302.933Z" transform="translate(508.021 514.245)" fill="#21c4fc"/><path d="M461.009,437.4h2.055l0-108.762-.515-.3-54.1-31.235-1.024,1.776,53.583,30.939Z" transform="translate(493.791 646.488)" fill="#21c4fc"/><path d="M434.234,326.522l164.4-94.917,253.916,0,.236-.14,83.964-48.476h40.389l103.312,59.645,1.024-1.776L977.694,180.938H936.2l-.236.14L852,229.554l-253.917,0-.236.14L433.209,324.746Z" transform="translate(-212.425 367.117)" fill="#21c4fc"/><path d="M506.4,372.072h66.763v-2.055H506.951L294.873,247.579l-1.024,1.776Z" transform="translate(770.391 527.378)" fill="#21c4fc"/><path d="M520.841,421.731l1.024-1.776L348.418,319.815V279.282l50.953-29.42-1.024-1.776L346.363,278.1V321l.515.3Z" transform="translate(642.887 528.599)" fill="#21c4fc"/><path d="M485.224,322.921l1.024-1.776-77.862-44.958h-65.4v2.055h64.845Z" transform="translate(689.993 596.176)" fill="#21c4fc"/><path d="M515.235,430.224l1.024-1.775-79.887-46.125V345.259l-.515-.3-90.4-52.193V271.486H343.4v22.468l.516.3,90.4,52.193v37.064l.515.3Z" transform="translate(658.591 584.871)" fill="#21c4fc"/><path d="M356.1,297.134a14.317,14.317,0,0,1-12.969,0c-3.582-2.067-3.582-5.417,0-7.487a14.339,14.339,0,0,1,12.969,0C359.683,291.717,359.683,295.067,356.1,297.134Z" transform="translate(826.111 624.817)" fill="#21c4fc"/><path d="M359.407,306.268a14.339,14.339,0,0,1-12.969,0c-3.582-2.067-3.582-5.421,0-7.487a14.339,14.339,0,0,1,12.969,0C362.986,300.848,362.986,304.2,359.407,306.268Z" transform="translate(811.552 646.783)" fill="#21c4fc"/><path d="M413.927,300.99a14.339,14.339,0,0,1-12.969,0c-3.582-2.067-3.582-5.42,0-7.487a14.339,14.339,0,0,1,12.969,0C417.506,295.57,417.506,298.923,413.927,300.99Z" transform="translate(571.4 634.09)" fill="#21c4fc"/><path d="M528.259,218.785a14.338,14.338,0,0,1-12.969,0c-3.582-2.067-3.582-5.42,0-7.487a14.338,14.338,0,0,1,12.969,0C531.838,213.365,531.838,216.718,528.259,218.785Z" transform="translate(67.786 436.4)" fill="#21c4fc"/><path d="M601.987,235.242a14.328,14.328,0,0,1-12.969,0c-3.582-2.067-3.582-5.417,0-7.487a14.328,14.328,0,0,1,12.969,0C605.566,229.822,605.566,233.172,601.987,235.242Z" transform="translate(-256.974 475.969)" fill="#21c4fc"/><path d="M504.9,207.5a14.318,14.318,0,0,1-12.969,0c-3.582-2.067-3.582-5.417,0-7.487a14.339,14.339,0,0,1,12.969,0C508.475,202.078,508.475,205.428,504.9,207.5Z" transform="translate(170.696 409.249)" fill="#21c4fc"/><path d="M496.562,225.775a14.331,14.331,0,0,1-12.966,0c-3.582-2.07-3.582-5.421,0-7.487a14.31,14.31,0,0,1,12.966,0C500.144,220.354,500.144,223.708,496.562,225.775Z" transform="translate(207.393 453.203)" fill="#21c4fc"/><path d="M372.392,399.073a14.311,14.311,0,0,1-12.966,0c-3.582-2.067-3.582-5.417,0-7.487a14.332,14.332,0,0,1,12.966,0C375.974,393.656,375.974,397.006,372.392,399.073Z" transform="translate(754.342 869.964)" fill="#21c4fc"/><path d="M388.038,356.978a14.339,14.339,0,0,1-12.969,0c-3.579-2.067-3.582-5.421,0-7.487a14.339,14.339,0,0,1,12.969,0C391.62,351.558,391.62,354.911,388.038,356.978Z" transform="translate(685.43 768.732)" fill="#21c4fc"/><path d="M134,395.278a14.338,14.338,0,0,1-12.969,0c-3.582-2.067-3.582-5.421,0-7.487a14.338,14.338,0,0,1,12.969,0C137.579,389.857,137.579,393.211,134,395.278Z" transform="translate(1804.433 860.838)" fill="#21c4fc"/><path d="M227.061,397.237a14.339,14.339,0,0,1-12.969,0c-3.578-2.067-3.578-5.421,0-7.487a14.339,14.339,0,0,1,12.969,0C230.643,391.816,230.643,395.17,227.061,397.237Z" transform="translate(1394.505 865.549)" fill="#21c4fc"/><path d="M254.951,333.8a14.339,14.339,0,0,1-12.969,0c-3.582-2.07-3.582-5.42,0-7.487a14.318,14.318,0,0,1,12.969,0C258.53,328.377,258.53,331.728,254.951,333.8Z" transform="translate(1271.664 712.982)" fill="#21c4fc"/><path d="M570.3,192.792a14.318,14.318,0,0,1-12.969,0c-3.582-2.067-3.582-5.417,0-7.487a14.331,14.331,0,0,1,12.966,0C573.876,187.375,573.876,190.725,570.3,192.792Z" transform="translate(-117.385 373.891)" fill="#21c4fc"/><path d="M640.074,140.719a14.339,14.339,0,0,1-12.969,0c-3.582-2.067-3.582-5.42,0-7.487a14.339,14.339,0,0,1,12.969,0C643.653,135.3,643.653,138.652,640.074,140.719Z" transform="translate(-424.741 248.663)" fill="#21c4fc"/><path d="M698.717,155.526a14.339,14.339,0,0,1-12.969,0c-3.578-2.07-3.578-5.421,0-7.487a14.339,14.339,0,0,1,12.969,0C702.3,150.106,702.3,153.459,698.717,155.526Z" transform="translate(-683.064 284.272)" fill="#21c4fc"/><path d="M543.878,29.012a14.311,14.311,0,0,1-12.966,0c-3.582-2.067-3.582-5.417,0-7.487a14.332,14.332,0,0,1,12.966,0C547.46,23.595,547.46,26.945,543.878,29.012Z" transform="translate(-1.026 -19.975)" fill="#21c4fc"/><path d="M356.506,325.331a14.332,14.332,0,0,1-12.966,0c-3.582-2.07-3.582-5.421,0-7.487a14.31,14.31,0,0,1,12.966,0C360.088,319.91,360.088,323.261,356.506,325.331Z" transform="translate(824.317 692.62)" fill="#21c4fc"/><path d="M420.685,345.8a14.328,14.328,0,0,1-12.969,0c-3.578-2.067-3.582-5.417,0-7.487a14.328,14.328,0,0,1,12.969,0C424.267,340.377,424.267,343.727,420.685,345.8Z" transform="translate(541.625 741.837)" fill="#21c4fc"/><path d="M436.574,359.554a14.338,14.338,0,0,1-12.969,0c-3.578-2.067-3.578-5.42,0-7.487a14.338,14.338,0,0,1,12.969,0C440.156,354.134,440.156,357.487,436.574,359.554Z" transform="translate(471.634 774.927)" fill="#21c4fc"/><path d="M615.749,259.938a14.331,14.331,0,0,1-12.965,0c-3.582-2.07-3.582-5.421,0-7.487a14.331,14.331,0,0,1,12.965,0C619.331,254.518,619.331,257.868,615.749,259.938Z" transform="translate(-317.606 535.366)" fill="#21c4fc"/><path d="M567.555,280.351a14.338,14.338,0,0,1-12.969,0c-3.582-2.07-3.582-5.42,0-7.487a14.331,14.331,0,0,1,12.966,0C571.134,274.931,571.134,278.281,567.555,280.351Z" transform="translate(-105.307 584.456)" fill="#21c4fc"/><path d="M636.375,230.942a14.318,14.318,0,0,1-12.969,0c-3.582-2.067-3.582-5.421,0-7.487a14.339,14.339,0,0,1,12.969,0C639.956,225.522,639.956,228.875,636.375,230.942Z" transform="translate(-408.447 465.635)" fill="#21c4fc"/><path d="M306.81,291.323a14.339,14.339,0,0,1-12.969,0c-3.578-2.067-3.582-5.421,0-7.487a14.339,14.339,0,0,1,12.969,0C310.392,285.9,310.392,289.256,306.81,291.323Z" transform="translate(1043.227 610.842)" fill="#21c4fc"/><path d="M198.178,228.6a14.339,14.339,0,0,1-12.969,0c-3.582-2.067-3.582-5.421,0-7.487a14.338,14.338,0,0,1,12.969,0C201.76,223.184,201.76,226.537,198.178,228.6Z" transform="translate(1521.736 460.013)" fill="#21c4fc"/><path d="M244.164,189.72a14.317,14.317,0,0,1-12.969,0c-3.582-2.067-3.582-5.417,0-7.487a14.339,14.339,0,0,1,12.969,0C247.743,184.3,247.743,187.653,244.164,189.72Z" transform="translate(1319.179 366.503)" fill="#21c4fc"/><path d="M270.162,203.191a14.339,14.339,0,0,1-12.969,0c-3.582-2.067-3.582-5.421,0-7.487a14.339,14.339,0,0,1,12.969,0C273.741,197.771,273.741,201.124,270.162,203.191Z" transform="translate(1204.662 398.899)" fill="#21c4fc"/><path d="M295.134,182.112a14.332,14.332,0,0,1-12.966,0c-3.582-2.067-3.582-5.421,0-7.487a14.332,14.332,0,0,1,12.966,0C298.716,176.692,298.716,180.045,295.134,182.112Z" transform="translate(1094.651 348.207)" fill="#21c4fc"/><path d="M341.032,128.189a14.332,14.332,0,0,1-12.966,0c-3.582-2.067-3.582-5.421,0-7.487a14.339,14.339,0,0,1,12.969,0C344.613,122.769,344.613,126.122,341.032,128.189Z" transform="translate(892.481 218.531)" fill="#21c4fc"/><path d="M165.031,85.033a14.318,14.318,0,0,1-12.969,0c-3.582-2.067-3.582-5.417,0-7.487a14.332,14.332,0,0,1,12.966,0C168.61,79.616,168.61,82.966,165.031,85.033Z" transform="translate(1667.747 114.747)" fill="#21c4fc"/><path d="M234.728,78.077a14.318,14.318,0,0,1-12.969,0c-3.582-2.067-3.582-5.417,0-7.487a14.339,14.339,0,0,1,12.969,0C238.307,72.66,238.307,76.01,234.728,78.077Z" transform="translate(1360.743 98.019)" fill="#21c4fc"/><path d="M373.085,131.894a14.339,14.339,0,0,1-12.969,0c-3.582-2.067-3.582-5.421,0-7.487a14.339,14.339,0,0,1,12.969,0C376.666,126.474,376.666,129.827,373.085,131.894Z" transform="translate(751.303 227.44)" fill="#21c4fc"/><path d="M376.62,112.261a14.339,14.339,0,0,1-12.969,0c-3.582-2.067-3.582-5.421,0-7.487a14.339,14.339,0,0,1,12.969,0C380.2,106.841,380.2,110.194,376.62,112.261Z" transform="translate(735.728 180.226)" fill="#21c4fc"/><path d="M431.8,89.082a14.339,14.339,0,0,1-12.969,0c-3.582-2.067-3.582-5.42,0-7.487a14.332,14.332,0,0,1,12.966,0C435.38,83.662,435.38,87.015,431.8,89.082Z" transform="translate(492.668 124.484)" fill="#21c4fc"/><path d="M412.286,81.585a14.318,14.318,0,0,1-12.969,0c-3.582-2.067-3.582-5.421,0-7.487a14.339,14.339,0,0,1,12.969,0C415.868,76.165,415.868,79.518,412.286,81.585Z" transform="translate(578.625 106.455)" fill="#21c4fc"/><path d="M610.7,32.907a14.339,14.339,0,0,1-12.969,0c-3.582-2.067-3.582-5.421,0-7.487a14.338,14.338,0,0,1,12.969,0C614.279,27.487,614.279,30.84,610.7,32.907Z" transform="translate(-295.344 -10.608)" fill="#21c4fc"/><path d="M423.3,61.938a14.339,14.339,0,0,1-12.969,0c-3.579-2.07-3.579-5.421,0-7.487a14.318,14.318,0,0,1,12.969,0C426.885,56.517,426.885,59.868,423.3,61.938Z" transform="translate(530.09 59.201)" fill="#21c4fc"/><path d="M306.081,225.513a14.332,14.332,0,0,1-12.966,0c-3.582-2.067-3.582-5.421,0-7.487a14.332,14.332,0,0,1,12.966,0C309.663,220.092,309.663,223.446,306.081,225.513Z" transform="translate(1046.431 452.58)" fill="#21c4fc"/><path d="M434.566,160.419a14.339,14.339,0,0,1-12.969,0c-3.582-2.067-3.582-5.421,0-7.487a14.338,14.338,0,0,1,12.969,0C438.145,155,438.145,158.352,434.566,160.419Z" transform="translate(480.489 296.039)" fill="#21c4fc"/><path d="M545.291,122.061a14.329,14.329,0,0,1-12.969,0c-3.578-2.067-3.578-5.417,0-7.487a14.339,14.339,0,0,1,12.969,0C548.873,116.644,548.873,119.994,545.291,122.061Z" transform="translate(-7.247 203.794)" fill="#21c4fc"/><path d="M626.277,80.228a14.339,14.339,0,0,1-12.969,0c-3.582-2.067-3.582-5.421,0-7.487a14.331,14.331,0,0,1,12.966,0C629.856,74.808,629.856,78.161,626.277,80.228Z" transform="translate(-363.968 103.192)" fill="#21c4fc"/><path d="M600.954,73.463a14.332,14.332,0,0,1-12.966,0c-3.582-2.067-3.582-5.421,0-7.487a14.332,14.332,0,0,1,12.966,0C604.536,68.043,604.536,71.4,600.954,73.463Z" transform="translate(-252.437 86.923)" fill="#21c4fc"/><path d="M260.558,228.275a14.318,14.318,0,0,1-12.969,0c-3.582-2.067-3.582-5.421,0-7.487a14.339,14.339,0,0,1,12.969,0C264.137,222.858,264.137,226.208,260.558,228.275Z" transform="translate(1246.966 459.222)" fill="#21c4fc"/><path d="M169.417,318.216a14.339,14.339,0,0,1-12.969,0c-3.578-2.067-3.578-5.417,0-7.487a14.339,14.339,0,0,1,12.969,0C173,312.8,173,316.149,169.417,318.216Z" transform="translate(1648.417 675.516)" fill="#21c4fc"/><path d="M132.8,222.124a14.332,14.332,0,0,1-12.966,0c-3.582-2.07-3.582-5.421,0-7.491a14.332,14.332,0,0,1,12.966,0C136.382,216.7,136.382,220.053,132.8,222.124Z" transform="translate(1809.706 444.42)" fill="#21c4fc"/><path d="M177.362,284.567a14.339,14.339,0,0,1-12.969,0c-3.582-2.067-3.582-5.42,0-7.487a14.339,14.339,0,0,1,12.969,0C180.941,279.147,180.941,282.5,177.362,284.567Z" transform="translate(1613.431 594.595)" fill="#21c4fc"/><path d="M28.818,288.185a14.339,14.339,0,0,1-12.969,0c-3.582-2.067-3.582-5.421,0-7.487a14.339,14.339,0,0,1,12.969,0C32.4,282.764,32.4,286.118,28.818,288.185Z" transform="translate(2267.74 603.296)" fill="#21c4fc"/><path d="M324.765,280.614a14.338,14.338,0,0,1-12.969,0c-3.579-2.067-3.579-5.42,0-7.487a14.338,14.338,0,0,1,12.969,0C328.347,275.194,328.347,278.547,324.765,280.614Z" transform="translate(964.135 585.089)" fill="#21c4fc"/><rect width="88.779" height="2.05" transform="translate(978.105 932.345) rotate(-150.019)" fill="#21c4fc"/><path d="M292.666,242.238h44.366l.236-.14,39.445-22.773-1.024-1.776L336.48,240.183H292.666Z" transform="translate(970.87 455.162)" fill="#21c4fc"/><path d="M566.112,227.693l1.024-1.775L459.388,163.706H386.1l-.236.14-94.91,54.79h-59.9v2.055H291.5l.236-.14,94.91-54.79h72.186Z" transform="translate(990.234 325.676)" fill="#21c4fc"/><path d="M258.608,251.208l107.6-62.118h35.389l47.319,27.315,1.024-1.776-47.791-27.595H365.654l-.236.14L257.584,249.432Z" transform="translate(1017.095 381.779)" fill="#21c4fc"/><path d="M282.025,263.766h2.055V221.252L362.2,176.144l-1.024-1.775-79.156,45.7Z" transform="translate(1021.608 351.319)" fill="#21c4fc"/><path d="M556.114,265.26h79.95V263.2h-79.4l-90.352-52.163-1.024,1.776Z" transform="translate(123.758 439.512)" fill="#21c4fc"/><path d="M879.731,770.067l1.024-1.776L605.595,609.428l0-100.968-.516-.3L121.911,229.206l-1.024,1.776L603.536,509.643l0,100.968.515.3Z" transform="translate(1051.706 483.193)" fill="#21c4fc"/><path d="M441.78,229.592l68.413-39.5h27.235l36.489,21.071H615.7V209.11H574.469L537.98,188.039H509.641l-.236.14-68.649,39.638Z" transform="translate(227.659 384.193)" fill="#21c4fc"/><path d="M523,411.888l1.024-1.776-129.706-74.89,0-84.878,147.409-85.1V133.282l-.515-.3L451.759,81.339l-1.024,1.776,88.938,51.352v29.589l-147.409,85.1,0,87.246.515.3Z" transform="translate(466.738 127.596)" fill="#21c4fc"/><path d="M456.9,221.806h2.055l0-39.312-.515-.3-51.133-29.523-1.024,1.776L456.9,183.678Z" transform="translate(501.772 299.15)" fill="#21c4fc"/><path d="M921.386,372.829l1.024-1.776L614.359,193.2l0-46.467-.516-.3L485.867,72.548l-1.024,1.776L612.3,147.913l0,46.468.515.3Z" transform="translate(-229.158 106.455)" fill="#21c4fc"/><path d="M755.321,260.1h2.055V203.463l-.515-.3L518.8,65.719,517.774,67.5,755.321,204.647Z" transform="translate(-176.251 90.034)" fill="#21c4fc"/><path d="M698.683,271.782l1.024-1.775-155.186-89.6,0-19.588-.516-.3-80.034-46.208-1.024,1.776,79.518,45.912,0,19.588.515.3Z" transform="translate(68.102 206.906)" fill="#21c4fc"/><path d="M377.822,424.982l1.024-1.775-91.376-52.759V311.406l-44.608-25.753-1.024,1.776,43.578,25.161v59.043l.515.3Z" transform="translate(1141.795 618.94)" fill="#21c4fc"/><path d="M247.445,258.75h61.34l.236-.14,62.876-36.3-1.024-1.776L308.233,256.7H247.445Z" transform="translate(1129.655 462.334)" fill="#21c4fc"/><path d="M401.194,345.234h.276l.236-.139L624.387,216.528l-1.024-1.776L400.918,343.179l-280.577,0v2.055Z" transform="translate(1309.932 448.436)" fill="#21c4fc"/><path d="M360.411,286.687h2.055l0-108.712,89.713-51.8-1.024-1.775-90.743,52.389Z" transform="translate(664.757 231.157)" fill="#21c4fc"/><path d="M429.879,270.909l1.024-1.775-65.34-37.726v-41.39l145.008-83.724-1.024-1.776L363.508,188.834v43.757l.515.3Z" transform="translate(595.803 183.337)" fill="#21c4fc"/><path d="M466.45,341.354l163.758-94.541H769.54v-2.055H629.656l-.236.14-163.994,94.68Z" transform="translate(-10.176 520.595)" fill="#21c4fc"/><path d="M598.955,247.81l.236-.14L643.829,221.9H803.176v-2.055h-159.9l-.236.14L598.4,245.755l-98.428,0v2.055Z" transform="translate(-161.448 460.685)" fill="#21c4fc"/><path d="M446.082,250.222l74.338-42.916h55.844v-2.055h-56.4l-.236.14-74.574,43.056Z" transform="translate(252.447 425.585)" fill="#21c4fc"/><path d="M470.727,562.838l1.024-1.775-109.44-63.186v-94.66l-.516-.3-146.82-84.769-1.024,1.776L360.256,404.4V499.06l.515.3Z" transform="translate(1143.843 697.093)" fill="#21c4fc"/></g></g></g></g></g></g></g><g transform="translate(225.47 163.347)"><g transform="translate(0 282.494)" opacity="0.1"><path d="M280.809,357.3l103.509-59.762V417.06L280.809,476.82,177.3,417.06V297.541Z" transform="translate(-177.299 -237.782)" fill="#42e8e0"/><path d="M177.3,476.821,280.809,417.06V297.541L177.3,357.3Z" transform="translate(-73.791 -237.782)" fill="#42e8e0"/><path d="M192.367,417.06l103.509,59.761V357.3L192.367,297.541Z" transform="translate(-192.367 -237.782)" fill="#2fd3c7"/><path d="M280.8,408.362,384.314,348.6,280.808,288.842,177.3,348.6Z" transform="translate(-177.296 -288.842)" fill="#42e8e0"/><path d="M280.809,357.3l103.509-59.762v5.183L280.809,362.486,177.3,302.726l0-5.185Z" transform="translate(-177.299 -237.782)" fill="#fff"/></g><path d="M280.8,397.816l103.509-59.761L280.808,278.3,177.3,338.057Z" transform="translate(-177.296 -68.251)" fill="#03002d" opacity="0.4"/><path d="M280.809,316.18l103.509-59.761V375.937L280.809,435.7,177.3,375.937V256.419Z" transform="translate(-177.299 -196.66)" fill="#42e8e0"/><path d="M177.3,435.7l103.509-59.761V256.419L177.3,316.18Z" transform="translate(-73.791 -196.66)" fill="#00b0b6"/><path d="M192.367,375.937,295.876,435.7V316.18L192.367,256.419Z" transform="translate(-192.367 -196.66)" fill="#2fd3c7"/><path d="M280.8,367.24l103.509-59.761L280.808,247.72,177.3,307.481Z" transform="translate(-177.296 -247.72)" fill="#00b0b6"/><path d="M280.809,316.18l103.509-59.761V261.6L280.809,321.364,177.3,261.6l0-5.185Z" transform="translate(-177.299 -196.66)" fill="#fff"/></g></svg>