<svg xmlns="http://www.w3.org/2000/svg" xmlns:xlink="http://www.w3.org/1999/xlink" width="609.744" height="594.19" viewBox="0 0 609.744 594.19"><defs><style>.a{fill:#f7f9fc;}.b,.c,.d,.f{fill:#1a1a63;}.b{font-size:25px;font-family:Poppins-Medium, Poppins;font-weight:500;letter-spacing:0.02em;}.c,.i{font-size:16px;}.c,.d,.i{font-family:WorkSans-Regular, Work Sans;}.d{font-size:20px;}.e{fill:url(#a);}.g{fill:#fd5e49;}.h{fill:#fff;}.i{fill:#a0abce;}.j{filter:url(#b);}</style><radialGradient id="a" cx="-0.036" cy="0.846" r="2.013" gradientTransform="matrix(0.668, -0.744, 0.322, 0.289, -0.284, 0.575)" gradientUnits="objectBoundingBox"><stop offset="0" stop-color="#00b0b6"/><stop offset="0.046" stop-color="#01abb6"/><stop offset="1" stop-color="#212bbe"/><stop offset="1" stop-color="#212abe"/></radialGradient><filter id="b" x="6.485" y="504.897" width="583.672" height="76.921" filterUnits="userSpaceOnUse"><feOffset dy="5" input="SourceAlpha"/><feGaussianBlur stdDeviation="5" result="c"/><feFlood flood-color="#0c3462" flood-opacity="0.082"/><feComposite operator="in" in2="c"/><feComposite in="SourceGraphic"/></filter></defs><g transform="translate(-137.096 -2422.059)"><rect class="a" width="609.744" height="594.19" rx="20" transform="translate(137.096 2422.059)"/><text class="b" transform="translate(252.435 2472.968)"><tspan x="0" y="0">.web3</tspan></text><text class="c" transform="translate(251.834 2496.968)"><tspan x="0" y="0">954 subBFLY to register</tspan></text><text class="d" transform="translate(251.022 2603.009)"><tspan x="0" y="0">0/0.1 (0.00%) ETH</tspan></text><text class="d" transform="translate(251.022 2672.534)"><tspan x="0" y="0">0/0.12 (0.00%) ETH</tspan></text><text class="d" transform="translate(251.022 2811.585)"><tspan x="0" y="0">0/0.25 (0.00%) ETH</tspan></text><text class="d" transform="translate(252.342 2881.11)"><tspan x="0" y="0">0/0 (0.00%) ETH</tspan></text><text class="d" transform="translate(252.522 2742.059)"><tspan x="0" y="0">0/0.31 (0.00%) ETH</tspan></text><path class="e" d="M2379.616,5063.44a33.81,33.81,0,1,0,33.81,33.809A33.808,33.808,0,0,0,2379.616,5063.44Zm0,53.382a19.573,19.573,0,1,1,19.576-19.573A19.572,19.572,0,0,1,2379.616,5116.822Z" transform="translate(-2187.229 -2616.46)"/><rect class="f" width="38.728" height="31.806" rx="7.678" transform="translate(183.609 2580.106)"/><rect class="f" width="38.728" height="31.806" rx="7.678" transform="translate(183.609 2649.631)"/><rect class="f" width="38.728" height="31.806" rx="7.678" transform="translate(183.609 2719.156)"/><rect class="f" width="38.728" height="31.806" rx="7.678" transform="translate(183.609 2788.682)"/><rect class="f" width="38.728" height="31.806" rx="7.678" transform="translate(183.609 2858.207)"/><g transform="translate(-125)"><g transform="translate(779.732 2590.225)"><path class="g" d="M4185.16,5497.388l-3.712-4.177a.332.332,0,0,1,.027-.468l1.022-.908a.332.332,0,0,1,.468.027l2.282,2.567a.331.331,0,0,0,.482.015l7.606-7.606a.333.333,0,0,1,.469,0l.967.967a.332.332,0,0,1,0,.469l-9.129,9.129A.332.332,0,0,1,4185.16,5497.388Z" transform="translate(-4181.364 -5486.741)"/></g><g transform="translate(779.732 2659.498)"><path class="g" d="M4185.16,5702.094l-3.712-4.177a.331.331,0,0,1,.027-.468l1.022-.909a.331.331,0,0,1,.468.027l2.282,2.567a.332.332,0,0,0,.482.014l7.606-7.605a.332.332,0,0,1,.469,0l.967.966a.334.334,0,0,1,0,.47l-9.129,9.129A.332.332,0,0,1,4185.16,5702.094Z" transform="translate(-4181.364 -5691.446)"/></g><g transform="translate(779.732 2728.77)"><path class="g" d="M4185.16,5906.8l-3.712-4.177a.332.332,0,0,1,.027-.468l1.022-.909a.332.332,0,0,1,.468.028l2.282,2.567a.332.332,0,0,0,.482.014l7.606-7.606a.332.332,0,0,1,.469,0l.967.967a.332.332,0,0,1,0,.469l-9.129,9.128A.332.332,0,0,1,4185.16,5906.8Z" transform="translate(-4181.364 -5896.152)"/></g><g transform="translate(779.732 2798.042)"><path class="g" d="M4185.16,6111.5l-3.712-4.177a.332.332,0,0,1,.027-.468l1.022-.908a.332.332,0,0,1,.468.027l2.282,2.567a.332.332,0,0,0,.482.014l7.606-7.606a.332.332,0,0,1,.469,0l.967.967a.332.332,0,0,1,0,.469l-9.129,9.129A.332.332,0,0,1,4185.16,6111.5Z" transform="translate(-4181.364 -6100.856)"/></g><g transform="translate(779.732 2867.314)"><path class="g" d="M4185.16,6316.209l-3.712-4.176a.332.332,0,0,1,.027-.468l1.022-.908a.332.332,0,0,1,.468.027l2.282,2.567a.331.331,0,0,0,.482.015l7.606-7.606a.331.331,0,0,1,.469,0l.967.966a.333.333,0,0,1,0,.469l-9.129,9.128A.332.332,0,0,1,4185.16,6316.209Z" transform="translate(-4181.364 -6305.562)"/></g></g><g transform="translate(0 -12)"><g class="j" transform="matrix(1, 0, 0, 1, 137.1, 2434.06)"><rect class="h" width="553.672" height="46.921" rx="23.461" transform="translate(21.49 514.9)"/></g><text class="c" transform="translate(183.609 2979.217)"><tspan x="0" y="0">0X862261E067F169B8D687C3CA7D58A03D41E3D792</tspan></text><g transform="translate(652.298 2962.924)"><g transform="translate(6.903 0)"><path class="f" d="M4205.789,6588.1h-6.9a.863.863,0,0,0,0,1.726h4.82l-8.881,8.882a.863.863,0,0,0,1.22,1.22l8.882-8.882v4.82a.863.863,0,0,0,1.726,0v-6.9A.863.863,0,0,0,4205.789,6588.1Z" transform="translate(-4194.571 -6588.097)"/></g><g transform="translate(0 3.452)"><path class="f" d="M4188.84,6603.475a.863.863,0,0,0-.863.863v7.767H4175.9v-12.082h7.767a.863.863,0,0,0,0-1.726h-8.629a.863.863,0,0,0-.863.863v13.807a.863.863,0,0,0,.863.863h13.807a.863.863,0,0,0,.863-.863v-8.629A.863.863,0,0,0,4188.84,6603.475Z" transform="translate(-4174.171 -6598.297)"/></g></g></g><text class="i" transform="translate(199.473 2601.509)"><tspan x="0" y="0">1</tspan></text><text class="i" transform="translate(198.473 2671.034)"><tspan x="0" y="0">2</tspan></text><text class="i" transform="translate(198.473 2740.559)"><tspan x="0" y="0">3</tspan></text><text class="i" transform="translate(197.973 2810.085)"><tspan x="0" y="0">4</tspan></text><text class="i" transform="translate(198.473 2879.61)"><tspan x="0" y="0">5</tspan></text></g></svg>