<svg xmlns="http://www.w3.org/2000/svg" width="60.66" height="49.286" viewBox="0 0 60.66 49.286"><path d="M3550.529-404.832a25.919,25.919,0,0,1-7.166,1.964,12.368,12.368,0,0,0,5.471-6.873,24.855,24.855,0,0,1-7.885,3.01,12.462,12.462,0,0,0-9.084-3.935,12.431,12.431,0,0,0-12.427,12.439,12.842,12.842,0,0,0,.287,2.836,35.2,35.2,0,0,1-25.632-13.008,12.525,12.525,0,0,0-1.7,6.286,12.456,12.456,0,0,0,5.523,10.335,12.277,12.277,0,0,1-5.618-1.532v.137a12.493,12.493,0,0,0,9.964,12.219,12.415,12.415,0,0,1-3.261.409,11,11,0,0,1-2.354-.212,12.554,12.554,0,0,0,11.619,8.663,24.98,24.98,0,0,1-15.417,5.3,23.319,23.319,0,0,1-2.977-.171,35.012,35.012,0,0,0,19.078,5.581c22.884,0,35.4-18.956,35.4-35.387,0-.55-.019-1.081-.044-1.607A24.815,24.815,0,0,0,3550.529-404.832Z" transform="translate(-3489.868 410.667)" fill="#00b0b6"/></svg>