<svg xmlns="http://www.w3.org/2000/svg" width="23.583" height="36.273" viewBox="0 0 23.583 36.273"><defs><style>.a{fill:#fff;stroke:#fff;stroke-width:0.2px;}</style></defs><g transform="translate(0.103 0.1)"><path class="a" d="M110.423,15.15a.983.983,0,0,1-.095-.509l.508-6.14a2.274,2.274,0,0,0-2.575-2.44,4.262,4.262,0,0,0-1.5.5c-.037-.05-.074-.1-.115-.148a2.7,2.7,0,0,0-3.8-.335L98.709,9.541V8.767a.284.284,0,0,1,.05-.161l.857-1.254a.528.528,0,0,0-.871-.6l-.857,1.254a1.335,1.335,0,0,0-.234.756v1.657l-3.288,2.752V8.206a2.8,2.8,0,0,1,.491-1.587L97.874,2.2a1.644,1.644,0,0,1,2.715,1.855l-.554.811a.528.528,0,1,0,.871.6l.554-.811A2.7,2.7,0,0,0,97,1.607L93.985,6.024a3.854,3.854,0,0,0-.675,2.183v5.853l-1.582,1.324A4.6,4.6,0,0,0,90.1,19.265l.336,4.271a.528.528,0,0,0,.525.486l.042,0a.528.528,0,0,0,.485-.567l-.336-4.271a3.543,3.543,0,0,1,1.256-2.99l11.114-9.3a1.644,1.644,0,1,1,2.112,2.52L99.846,14.26a2.372,2.372,0,0,0-1,.519l-2.828,2.461a.528.528,0,0,0,.693.8l2.828-2.461a1.3,1.3,0,0,1,1.706-.01L105.52,19.2a1.642,1.642,0,0,1-.6,2.828l-2.992-2.545a2.349,2.349,0,0,0-3.083.018l-2.828,2.461a.528.528,0,0,0,.693.8L99.537,20.3a1.3,1.3,0,0,1,1.706-.01l4.277,3.638a1.644,1.644,0,1,1-2.13,2.5l-2.647-2.252a.528.528,0,0,0-.715.029l-.786.786a.528.528,0,0,0,.746.746l.441-.441,2.276,1.936a2.679,2.679,0,0,0,1.745.643c.073,0,.148,0,.222-.009a2.7,2.7,0,0,0,1.532-4.747l-.393-.335a2.7,2.7,0,0,0,.393-4.39l-1.9-1.613,1.146-5.849.855-.717A2.7,2.7,0,0,0,107.2,7.53a3.2,3.2,0,0,1,1.2-.423,1.218,1.218,0,0,1,1.38,1.308l-.508,6.14a2.04,2.04,0,0,0,.2,1.055l.94,1.943a9.16,9.16,0,0,1,.11,7.757l-.6,1.345a.528.528,0,1,0,.963.432l.6-1.345a10.212,10.212,0,0,0-.122-8.648ZM103.386,16l-1.459-1.241a2.392,2.392,0,0,0-.594-.371l2.834-2.375Z" transform="translate(-90.083 -0.399)"/><path class="a" d="M340.729,397.548a.528.528,0,0,0-.7.265l-1.351,3.009a.527.527,0,0,0-.046.216v4a.528.528,0,0,0,1.055,0v-3.889l1.3-2.906A.528.528,0,0,0,340.729,397.548Z" transform="translate(-321.123 -369.496)"/><path class="a" d="M317.929,3.284a.528.528,0,0,0,.528-.528V.528a.528.528,0,0,0-1.055,0V2.756A.528.528,0,0,0,317.929,3.284Z" transform="translate(-301.385)"/><path class="a" d="M353.287,15.325a.528.528,0,0,0,.718-.2l1.084-1.947a.528.528,0,0,0-.922-.513l-1.084,1.947A.528.528,0,0,0,353.287,15.325Z" transform="translate(-334.491 -11.517)"/><path class="a" d="M382.917,48.283a.528.528,0,0,0-.726-.171L380.3,49.286a.528.528,0,1,0,.556.9l1.895-1.173a.527.527,0,0,0,.171-.726Z" transform="translate(-359.617 -44.649)"/><path class="a" d="M100.283,356.331a7.313,7.313,0,0,1-1.528-3.608.528.528,0,1,0-1.046.136,8.368,8.368,0,0,0,1.749,4.129l2.177,2.736v3.231a.528.528,0,0,0,1.055,0V359.54a.528.528,0,0,0-.115-.328Z" transform="translate(-97.167 -327.445)"/></g></svg>