<svg xmlns="http://www.w3.org/2000/svg" xmlns:xlink="http://www.w3.org/1999/xlink" width="1140" height="949.928" viewBox="0 0 1140 949.928"><defs><style>.a,.g,.o,.p,.t,.u{fill:#42e8e0;}.b{opacity:0.1;}.c{fill:#2fd3c7;}.d{fill:#fff;}.e{fill:#18b2a3;}.e,.x{opacity:0.7;}.f,.u{opacity:0.2;}.g,.j,.y{mix-blend-mode:lighten;isolation:isolate;}.h{fill:url(#a);}.i{fill:#bcbeff;}.j,.l{fill:#00c3ff;}.k{fill:url(#b);}.m{fill:#0f054c;}.n,.o{opacity:0.5;}.n{fill:url(#c);}.p{opacity:0.8;}.q{fill:#03002d;}.q,.t{opacity:0.4;}.r{fill:#00b0b6;}.s,.w,.x{fill:#1a1a63;}.s,.v{opacity:0.15;}.y{fill:url(#i);}</style><linearGradient id="a" x1="-0.247" y1="0.5" x2="1.034" y2="0.5" gradientUnits="objectBoundingBox"><stop offset="0" stop-color="#5761d7"/><stop offset="0.164" stop-color="#5e67d9"/><stop offset="0.405" stop-color="#7179e1"/><stop offset="0.692" stop-color="#9197ee"/><stop offset="1" stop-color="#bcbeff"/></linearGradient><linearGradient id="b" x1="-0.247" y1="0.5" x2="1.034" y2="0.5" gradientUnits="objectBoundingBox"><stop offset="0.003" stop-color="#00b0b6"/><stop offset="0.217" stop-color="#00adbd"/><stop offset="0.531" stop-color="#00a4d0"/><stop offset="0.904" stop-color="#0097f0"/><stop offset="0.991" stop-color="#0094f9"/></linearGradient><linearGradient id="c" y1="0.5" x2="1" y2="0.5" gradientUnits="objectBoundingBox"><stop offset="0" stop-color="#42e8e0"/><stop offset="0.151" stop-color="#42e3df"/><stop offset="0.328" stop-color="#44d4de"/><stop offset="0.52" stop-color="#48bddd"/><stop offset="0.721" stop-color="#4d9bda"/><stop offset="0.927" stop-color="#5471d8"/><stop offset="1" stop-color="#5761d7"/></linearGradient><linearGradient id="i" x1="0.5" y1="1" x2="0.5" gradientUnits="objectBoundingBox"><stop offset="0" stop-color="#00b0b6"/><stop offset="0.063" stop-color="#039baa"/><stop offset="0.204" stop-color="#0a7494"/><stop offset="0.349" stop-color="#105382"/><stop offset="0.498" stop-color="#143a74"/><stop offset="0.652" stop-color="#17286a"/><stop offset="0.814" stop-color="#191d64"/><stop offset="1" stop-color="#1a1a63"/></linearGradient></defs><g transform="translate(-46.04 -55.2)"><path class="a" d="M230.24,193.777l-.563-.967,123.314-71.732.278.152,127.407,69.914-.539.981L353.008,122.364Z" transform="translate(466.2 167.246)"/><g class="b" transform="translate(377.228 477.036)"><g transform="translate(138.519 163.411)"><path class="a" d="M232.094,260.067l-53.32-30.785V290.85l53.32,30.784,53.32-30.784V229.283Z" transform="translate(-178.774 -198.499)"/><path class="a" d="M232.094,321.634l-53.32-30.784V229.283l53.32,30.784Z" transform="translate(-178.774 -198.499)"/><path class="c" d="M247.162,290.85l-53.32,30.784V260.067l53.32-30.784Z" transform="translate(-140.521 -198.499)"/><path class="a" d="M232.094,282.151l-53.32-30.784,53.319-30.783,53.32,30.784Z" transform="translate(-178.774 -220.584)"/><path class="d" d="M232.094,259.11l-51.007-29.45L178.774,231l53.32,30.784L285.412,231l-2.312-1.335Z" transform="translate(-178.774 -197.542)"/></g><g transform="translate(207.778 202.928)"><path class="a" d="M251.666,271.235l-53.32-30.785v61.567l53.32,30.784,53.32-30.784V240.45Z" transform="translate(-198.346 -209.667)"/><path class="a" d="M251.666,332.8l-53.32-30.784V240.45l53.32,30.785Z" transform="translate(-198.346 -209.667)"/><path class="c" d="M266.733,302.017,213.413,332.8V271.234l53.32-30.785Z" transform="translate(-160.093 -209.667)"/><path class="a" d="M251.666,293.319l-53.32-30.784,53.319-30.783,53.32,30.784Z" transform="translate(-198.346 -231.751)"/><path class="d" d="M251.666,270.277l-51.008-29.45-2.312,1.335,53.32,30.784,53.319-30.784-2.312-1.335Z" transform="translate(-198.346 -208.709)"/></g><g transform="translate(277.037 242.446)"><path class="a" d="M271.238,282.4l-53.32-30.785v61.567l53.32,30.784,53.32-30.784V251.617Z" transform="translate(-217.917 -220.834)"/><path class="a" d="M271.238,343.969l-53.32-30.784V251.617l53.32,30.784Z" transform="translate(-217.917 -220.834)"/><path class="c" d="M286.305,313.184l-53.32,30.784V282.4l53.32-30.784Z" transform="translate(-179.665 -220.834)"/><path class="a" d="M271.238,304.486,217.918,273.7l53.318-30.783,53.32,30.784Z" transform="translate(-217.917 -242.918)"/><path class="d" d="M271.238,282.4,220.23,252.952l-2.313,1.335,53.32,30.784,53.319-30.784v-2.671Z" transform="translate(-217.917 -220.834)"/></g><g transform="translate(69.259 205.599)"><path class="a" d="M212.522,271.989,159.2,241.2v61.567l53.32,30.784,53.32-30.784V241.2Z" transform="translate(-159.202 -210.421)"/><path class="a" d="M212.522,333.556,159.2,302.771V241.2l53.32,30.784Z" transform="translate(-159.202 -210.421)"/><path class="c" d="M227.59,302.771l-53.32,30.784V271.989L227.59,241.2Z" transform="translate(-120.949 -210.421)"/><path class="a" d="M212.522,294.074,159.2,263.289l53.319-30.784,53.32,30.784Z" transform="translate(-159.202 -232.506)"/><path class="d" d="M212.522,271.031l-51.007-29.449-2.313,1.335,53.32,30.785,53.319-30.784-2.313-1.335Z" transform="translate(-159.202 -209.464)"/></g><g transform="translate(138.519 245.117)"><path class="a" d="M232.094,283.157l-53.32-30.785v61.567l53.32,30.784,53.32-30.784V252.372Z" transform="translate(-178.774 -221.589)"/><path class="a" d="M232.094,344.723l-53.32-30.784V252.372l53.32,30.784Z" transform="translate(-178.774 -221.588)"/><path class="c" d="M247.162,313.939l-53.32,30.784V283.156l53.32-30.784Z" transform="translate(-140.521 -221.588)"/><path class="a" d="M232.094,305.241l-53.32-30.784,53.319-30.784,53.32,30.785Z" transform="translate(-178.774 -243.673)"/><path class="d" d="M232.094,282.2l-51.007-29.449-2.313,1.335,53.32,30.785,53.319-30.784L283.1,252.75Z" transform="translate(-178.774 -220.631)"/></g><g transform="translate(207.778 284.634)"><path class="a" d="M251.666,294.324l-53.32-30.785v61.567l53.32,30.785,53.32-30.785V263.539Z" transform="translate(-198.346 -232.756)"/><path class="a" d="M251.666,355.89l-53.32-30.784V263.539l53.32,30.784Z" transform="translate(-198.346 -232.755)"/><path class="c" d="M266.733,325.106l-53.32,30.784V294.323l53.32-30.784Z" transform="translate(-160.093 -232.755)"/><path class="a" d="M251.666,316.408l-53.32-30.784,53.319-30.784,53.32,30.784Z" transform="translate(-198.346 -254.84)"/><path class="d" d="M251.666,294.324l-51.008-29.449-2.312,1.335,53.32,30.785,53.319-30.784v-2.671Z" transform="translate(-198.346 -232.756)"/></g><g transform="translate(0 247.788)"><path class="a" d="M192.95,283.911l-53.32-30.784v61.567l53.32,30.784,53.32-30.784V253.127Z" transform="translate(-139.63 -222.343)"/><path class="a" d="M192.95,345.478l-53.32-30.784V253.127l53.32,30.784Z" transform="translate(-139.63 -222.343)"/><path class="c" d="M208.018,314.694,154.7,345.478V283.911l53.32-30.784Z" transform="translate(-101.377 -222.343)"/><path class="a" d="M192.95,306l-53.32-30.784,53.319-30.783,53.32,30.784Z" transform="translate(-139.63 -244.428)"/><path class="d" d="M192.95,283.911l-53.32-30.785V255.8l53.32,30.785L246.269,255.8l-2.313-1.335Z" transform="translate(-139.63 -222.344)"/></g><g transform="translate(69.259 287.305)"><path class="a" d="M212.522,295.078,159.2,264.294v61.567l53.32,30.784,53.32-30.784V264.294Z" transform="translate(-159.202 -233.511)"/><path class="a" d="M212.522,356.645,159.2,325.861V264.294l53.32,30.784Z" transform="translate(-159.202 -233.511)"/><path class="c" d="M227.59,325.861l-53.32,30.784V295.078l53.32-30.784Z" transform="translate(-120.949 -233.511)"/><path class="a" d="M212.522,317.162,159.2,286.378l53.319-30.784,53.32,30.784Z" transform="translate(-159.202 -255.595)"/><path class="d" d="M212.522,295.079,159.2,264.294v2.671l53.32,30.785,53.319-30.784-2.313-1.335Z" transform="translate(-159.202 -233.511)"/></g><g transform="translate(138.519 326.823)"><path class="a" d="M232.094,306.246l-53.32-30.785v61.567l53.32,30.784,53.32-30.784V275.461Z" transform="translate(-178.774 -244.678)"/><path class="a" d="M232.094,367.812l-53.32-30.784V275.461l53.32,30.784Z" transform="translate(-178.774 -244.678)"/><path class="c" d="M247.162,337.028l-53.32,30.784V306.245l53.32-30.784Z" transform="translate(-140.521 -244.678)"/><path class="a" d="M232.094,328.33l-53.32-30.784,53.319-30.783,53.32,30.784Z" transform="translate(-178.774 -266.762)"/><path class="d" d="M232.094,306.246l-53.32-30.785v2.67l53.32,30.785,53.319-30.784v-2.671Z" transform="translate(-178.774 -244.678)"/></g><g transform="translate(138.519 81.705)"><path class="a" d="M232.094,236.978l-53.32-30.785v61.567l53.32,30.784,53.32-30.784V206.194Z" transform="translate(-178.774 -175.41)"/><path class="a" d="M232.094,298.545l-53.32-30.784V206.194l53.32,30.784Z" transform="translate(-178.774 -175.41)"/><path class="c" d="M247.162,267.761l-53.32,30.784V236.978l53.32-30.784Z" transform="translate(-140.521 -175.41)"/><path class="a" d="M232.094,259.062l-53.32-30.784,53.319-30.783,53.32,30.784Z" transform="translate(-178.774 -197.495)"/><path class="d" d="M232.094,236.021l-51.007-29.45-2.313,1.335,53.32,30.785,53.319-30.784-2.312-1.335Z" transform="translate(-178.774 -174.453)"/></g><g transform="translate(16.947 252.471)"><path class="e" d="M219.936,311.458l-36.373-21,36.372-21,36.373,21Z" transform="translate(-45.044 -185.565)"/><path class="e" d="M200.364,300.291l-36.373-21,36.372-21,36.373,21Z" transform="translate(-94.731 -213.916)"/><path class="e" d="M239.507,299.536l-36.373-21,36.372-21,36.373,21Z" transform="translate(4.643 -215.832)"/><path class="e" d="M259.117,287.751l-36.373-21,36.371-21,36.373,21Z" transform="translate(54.426 -245.751)"/><path class="e" d="M180.792,289.123l-36.373-21,36.372-21,36.373,21Z" transform="translate(-144.419 -242.266)"/></g><g transform="translate(207.778 121.223)"><path class="a" d="M251.666,248.146l-53.32-30.785v61.567l53.32,30.784,53.32-30.784V217.361Z" transform="translate(-198.346 -186.578)"/><path class="a" d="M251.666,309.712l-53.32-30.784V217.361l53.32,30.784Z" transform="translate(-198.346 -186.578)"/><path class="c" d="M266.733,278.928l-53.32,30.784V248.145l53.32-30.784Z" transform="translate(-160.093 -186.578)"/><path class="a" d="M251.666,270.23l-53.32-30.784,53.319-30.783,53.32,30.784Z" transform="translate(-198.346 -208.662)"/><path class="d" d="M251.666,247.188l-51.008-29.45-2.312,1.335,53.32,30.785,53.319-30.784-2.312-1.335Z" transform="translate(-198.346 -185.62)"/></g><g transform="translate(277.037 160.74)"><path class="a" d="M271.238,259.313l-53.32-30.785V290.1l53.32,30.784,53.32-30.784V228.528Z" transform="translate(-217.917 -197.745)"/><path class="a" d="M271.238,320.879,217.918,290.1V228.528l53.32,30.784Z" transform="translate(-217.917 -197.745)"/><path class="c" d="M286.305,290.1l-53.32,30.784V259.313l53.32-30.784Z" transform="translate(-179.665 -197.745)"/><path class="a" d="M271.238,281.4l-53.32-30.784,53.318-30.783,53.32,30.784Z" transform="translate(-217.917 -219.829)"/><path class="d" d="M271.238,259.313,220.23,229.863l-2.313,1.335,53.32,30.785L324.556,231.2v-2.671Z" transform="translate(-217.917 -197.745)"/></g><g transform="translate(69.259 123.894)"><path class="a" d="M212.522,248.9,159.2,218.116v61.567l53.32,30.784,53.32-30.784V218.116Z" transform="translate(-159.202 -187.332)"/><path class="a" d="M212.522,310.467,159.2,279.683V218.116l53.32,30.784Z" transform="translate(-159.202 -187.332)"/><path class="c" d="M227.59,279.683l-53.32,30.784V248.9l53.32-30.784Z" transform="translate(-120.949 -187.332)"/><path class="a" d="M212.522,270.984,159.2,240.2l53.319-30.783,53.32,30.784Z" transform="translate(-159.202 -209.417)"/><path class="d" d="M212.522,247.942l-51.007-29.449-2.313,1.335,53.32,30.785,53.319-30.784-2.313-1.335Z" transform="translate(-159.202 -186.375)"/></g><g transform="translate(138.519 163.411)"><path class="a" d="M232.094,260.068l-53.32-30.785V290.85l53.32,30.784,53.32-30.784V229.283Z" transform="translate(-178.774 -198.5)"/><path class="a" d="M232.094,321.634l-53.32-30.784V229.283l53.32,30.784Z" transform="translate(-178.774 -198.5)"/><path class="c" d="M247.162,290.85l-53.32,30.784V260.067l53.32-30.784Z" transform="translate(-140.521 -198.5)"/><path class="a" d="M232.094,282.151l-53.32-30.784,53.319-30.783,53.32,30.784Z" transform="translate(-178.774 -220.584)"/><path class="d" d="M232.094,259.11l-51.007-29.45L178.774,231l53.32,30.785L285.412,231l-2.312-1.335Z" transform="translate(-178.774 -197.542)"/></g><g transform="translate(207.778 202.929)"><path class="a" d="M251.666,271.235l-53.32-30.785v61.567l53.32,30.784,53.32-30.784V240.45Z" transform="translate(-198.346 -209.667)"/><path class="a" d="M251.666,332.8l-53.32-30.784V240.45l53.32,30.784Z" transform="translate(-198.346 -209.667)"/><path class="c" d="M266.733,302.017,213.413,332.8V271.234l53.32-30.784Z" transform="translate(-160.093 -209.667)"/><path class="a" d="M251.666,293.319l-53.32-30.784,53.319-30.784,53.32,30.784Z" transform="translate(-198.346 -231.751)"/><path class="d" d="M251.666,271.235l-51.008-29.45-2.312,1.335,53.32,30.785,53.319-30.784V240.45Z" transform="translate(-198.346 -209.667)"/></g><g transform="translate(0 166.082)"><path class="a" d="M192.95,260.822l-53.32-30.784V291.6l53.32,30.784L246.27,291.6V230.038Z" transform="translate(-139.63 -199.254)"/><path class="a" d="M192.95,322.389,139.63,291.6V230.038l53.32,30.784Z" transform="translate(-139.63 -199.254)"/><path class="c" d="M208.018,291.6,154.7,322.389V260.822l53.32-30.784Z" transform="translate(-101.378 -199.254)"/><path class="a" d="M192.95,282.907l-53.32-30.784,53.319-30.784,53.32,30.784Z" transform="translate(-139.63 -221.339)"/><path class="d" d="M192.95,259.864l-51.008-29.45-2.312,1.335,53.32,30.785,53.318-30.784-2.312-1.335Z" transform="translate(-139.63 -198.296)"/></g><g transform="translate(69.259 205.599)"><path class="a" d="M212.522,271.989,159.2,241.2v61.567l53.32,30.784,53.32-30.784V241.2Z" transform="translate(-159.202 -210.421)"/><path class="a" d="M212.522,333.556,159.2,302.772V241.2l53.32,30.784Z" transform="translate(-159.202 -210.421)"/><path class="c" d="M227.59,302.772l-53.32,30.784V271.989L227.59,241.2Z" transform="translate(-120.949 -210.421)"/><path class="a" d="M212.522,294.074,159.2,263.289l53.319-30.784,53.32,30.784Z" transform="translate(-159.202 -232.506)"/><path class="d" d="M212.522,271.99,159.2,241.2v2.671l53.32,30.785,53.319-30.784-2.313-1.335Z" transform="translate(-159.202 -210.422)"/></g><g transform="translate(138.519 245.117)"><path class="a" d="M232.094,283.156l-53.32-30.784v61.567l53.32,30.784,53.32-30.784V252.372Z" transform="translate(-178.774 -221.588)"/><path class="a" d="M232.094,344.723l-53.32-30.784V252.372l53.32,30.784Z" transform="translate(-178.774 -221.588)"/><path class="c" d="M247.162,313.939l-53.32,30.784V283.156l53.32-30.784Z" transform="translate(-140.521 -221.588)"/><path class="a" d="M232.094,305.241l-53.32-30.784,53.319-30.784,53.32,30.784Z" transform="translate(-178.774 -243.673)"/><path class="d" d="M232.094,283.157l-53.32-30.785v2.671l53.32,30.784,53.319-30.783v-2.671Z" transform="translate(-178.774 -221.589)"/></g><g transform="translate(16.947 171.127)"><path class="e" d="M259.117,264.763l-36.373-21,36.371-21,36.373,21Z" transform="translate(54.426 -222.764)"/><path class="e" d="M180.792,266.136l-36.373-21,36.372-21,36.373,21Z" transform="translate(-144.419 -219.279)"/></g><g transform="translate(138.519)"><path class="a" d="M232.094,213.889,178.774,183.1v61.567l53.32,30.784,53.32-30.784V183.1Z" transform="translate(-178.774 -152.321)"/><path class="a" d="M232.094,275.456l-53.32-30.784V183.1l53.32,30.784Z" transform="translate(-178.774 -152.321)"/><path class="c" d="M247.162,244.672l-53.32,30.784V213.889l53.32-30.784Z" transform="translate(-140.521 -152.321)"/><path class="a" d="M232.094,235.973l-53.32-30.784,53.319-30.783,53.32,30.784Z" transform="translate(-178.774 -174.406)"/><path class="d" d="M232.094,213.889,178.774,183.1v2.67l53.32,30.785,53.319-30.784V183.1Z" transform="translate(-178.774 -152.321)"/></g><g transform="translate(207.778 39.518)"><path class="a" d="M251.666,225.056l-53.32-30.784v61.567l53.32,30.784,53.32-30.784V194.272Z" transform="translate(-198.346 -163.489)"/><path class="a" d="M251.666,286.623l-53.32-30.784V194.272l53.32,30.784Z" transform="translate(-198.346 -163.489)"/><path class="c" d="M266.733,255.839l-53.32,30.784V225.056l53.32-30.784Z" transform="translate(-160.093 -163.489)"/><path class="a" d="M251.666,247.141l-53.32-30.784,53.319-30.783,53.32,30.784Z" transform="translate(-198.346 -185.573)"/><path class="d" d="M251.666,225.057l-53.32-30.785v2.671l53.32,30.785,53.319-30.784v-2.671Z" transform="translate(-198.346 -163.489)"/></g><g transform="translate(277.037 79.035)"><path class="a" d="M271.238,236.224l-53.32-30.785v61.567l53.32,30.784,53.32-30.784V205.439Z" transform="translate(-217.917 -174.656)"/><path class="a" d="M271.238,297.791l-53.32-30.784V205.439l53.32,30.784Z" transform="translate(-217.917 -174.656)"/><path class="c" d="M286.305,267.006l-53.32,30.784V236.224l53.32-30.784Z" transform="translate(-179.665 -174.656)"/><path class="a" d="M271.238,258.308l-53.32-30.784,53.318-30.783,53.32,30.784Z" transform="translate(-217.917 -196.74)"/><path class="d" d="M271.238,236.224l-53.32-30.785v2.67l53.32,30.785,53.319-30.784v-2.671Z" transform="translate(-217.917 -174.656)"/></g><g transform="translate(69.259 42.188)"><path class="a" d="M212.522,225.811,159.2,195.027v61.567l53.32,30.784,53.32-30.784V195.027Z" transform="translate(-159.202 -164.243)"/><path class="a" d="M212.522,287.378,159.2,256.594V195.027l53.32,30.784Z" transform="translate(-159.202 -164.243)"/><path class="c" d="M227.59,256.594l-53.32,30.784V225.811l53.32-30.784Z" transform="translate(-120.949 -164.243)"/><path class="a" d="M212.522,247.9,159.2,217.111l53.319-30.783,53.32,30.784Z" transform="translate(-159.202 -186.328)"/><path class="d" d="M212.522,225.811,159.2,195.027v2.67l53.32,30.784L265.841,197.7v-2.671Z" transform="translate(-159.202 -164.243)"/></g><g transform="translate(0 84.376)"><path class="a" d="M192.95,237.733l-53.32-30.785v61.567L192.95,299.3l53.32-30.784V206.949Z" transform="translate(-139.63 -176.165)"/><path class="a" d="M192.95,299.3l-53.32-30.784V206.949l53.32,30.784Z" transform="translate(-139.63 -176.165)"/><path class="c" d="M208.018,268.516,154.7,299.3V237.733l53.32-30.784Z" transform="translate(-101.378 -176.165)"/><path class="a" d="M192.95,259.818l-53.32-30.784,53.319-30.784,53.32,30.784Z" transform="translate(-139.63 -198.25)"/><path class="d" d="M192.95,237.733l-53.32-30.785v2.67L192.95,240.4l53.318-30.784v-2.671Z" transform="translate(-139.63 -176.165)"/></g></g><g class="f" transform="translate(221.143 395.84)"><g transform="translate(351.844 150.782)"><path class="g" d="M262.51,313.866l-37.2-21.473c-6.384-3.684-11.579-12.679-11.579-20.054v-8.967c0-7.017-4.944-15.581-11.02-19.091l-7.767-4.484.559-.966,7.768,4.484C209.663,247,214.854,256,214.854,263.372v8.967c0,7.017,4.944,15.577,11.023,19.084L263.069,312.9Z" transform="translate(-194.949 -80.435)"/><path class="g" d="M266.6,311.513l-37.2-21.477c-6.384-3.684-11.579-12.679-11.579-20.054v-8.971c0-7.014-4.944-15.574-11.02-19.084l-7.767-4.487.559-.966,7.767,4.484c6.387,3.687,11.582,12.683,11.582,20.054v8.971c0,7.021,4.944,15.581,11.016,19.088l37.2,21.473Z" transform="translate(-184.571 -86.416)"/><path class="g" d="M270.686,309.158l-37.192-21.473C227.107,284,221.912,275,221.912,267.631V258.66c0-7.021-4.944-15.581-11.02-19.088l-7.767-4.487.559-.966,7.771,4.487c6.384,3.684,11.579,12.679,11.579,20.054v8.971c0,7.014,4.944,15.574,11.02,19.084l37.192,21.476Z" transform="translate(-174.192 -92.397)"/><path class="g" d="M274.774,306.8l-37.2-21.477C231.195,281.641,226,272.646,226,265.271V256.3c0-7.014-4.943-15.577-11.023-19.088l-7.767-4.487.559-.966,7.771,4.484c6.384,3.687,11.579,12.686,11.579,20.057v8.967c0,7.021,4.943,15.581,11.02,19.088l37.192,21.473Z" transform="translate(-163.814 -98.378)"/><path class="g" d="M278.862,304.445,241.67,282.973c-6.387-3.684-11.582-12.679-11.582-20.054v-8.971c0-7.017-4.943-15.577-11.016-19.088l-7.771-4.484.563-.97,7.767,4.487c6.384,3.687,11.579,12.683,11.579,20.054v8.971c0,7.017,4.944,15.577,11.02,19.084l37.192,21.477Z" transform="translate(-153.436 -104.359)"/><path class="g" d="M282.954,302.09l-37.2-21.476c-6.384-3.687-11.579-12.683-11.579-20.054v-8.971c0-7.017-4.944-15.577-11.02-19.084l-7.771-4.487.559-.966,7.771,4.484c6.384,3.684,11.579,12.679,11.579,20.054v8.971c0,7.017,4.944,15.577,11.02,19.088l37.2,21.473Z" transform="translate(-143.058 -110.338)"/><path class="g" d="M287.036,299.733,249.844,278.26c-6.384-3.684-11.579-12.679-11.579-20.054v-8.967c0-7.017-4.944-15.581-11.02-19.091l-7.767-4.484.559-.97,7.767,4.487c6.384,3.687,11.579,12.686,11.579,20.057v8.967c0,7.017,4.944,15.577,11.02,19.084l37.2,21.477Z" transform="translate(-132.677 -116.322)"/><path class="g" d="M291.127,297.378l-37.2-21.477c-6.384-3.684-11.579-12.679-11.579-20.054v-8.971c0-7.014-4.944-15.574-11.019-19.084l-7.767-4.487.559-.966,7.767,4.484c6.387,3.687,11.582,12.683,11.582,20.054v8.971c0,7.021,4.94,15.581,11.016,19.088l37.2,21.473Z" transform="translate(-122.299 -122.3)"/><path class="g" d="M295.215,295.023l-37.2-21.473c-6.384-3.687-11.579-12.683-11.579-20.054v-8.971c0-7.021-4.944-15.581-11.02-19.088l-7.767-4.484.559-.97,7.768,4.487c6.387,3.684,11.579,12.679,11.579,20.054V253.5c0,7.014,4.944,15.574,11.023,19.088l37.192,21.473Z" transform="translate(-111.92 -128.282)"/><path class="g" d="M299.3,292.666l-37.2-21.473c-6.384-3.684-11.579-12.679-11.579-20.054v-8.971c0-7.014-4.944-15.577-11.019-19.088l-7.768-4.487.559-.966,7.768,4.484c6.387,3.687,11.582,12.686,11.582,20.057v8.971c0,7.017,4.943,15.577,11.019,19.084L299.862,291.7Z" transform="translate(-101.542 -134.263)"/><path class="g" d="M303.391,290.31,266.2,268.837c-6.387-3.687-11.582-12.683-11.582-20.054v-8.971c0-7.014-4.944-15.574-11.02-19.088l-7.767-4.484.559-.97,7.771,4.487c6.384,3.687,11.579,12.683,11.579,20.054v8.971c0,7.017,4.944,15.574,11.02,19.088l37.192,21.473Z" transform="translate(-91.164 -140.244)"/><path class="g" d="M307.479,287.955l-37.192-21.473c-6.388-3.687-11.579-12.683-11.579-20.057v-8.971c0-7.017-4.944-15.577-11.023-19.084l-7.767-4.487.559-.966,7.771,4.484c6.384,3.684,11.579,12.679,11.579,20.054v8.971c0,7.014,4.943,15.577,11.02,19.088l37.2,21.476Z" transform="translate(-80.786 -146.223)"/><path class="g" d="M311.567,285.6l-37.192-21.477c-6.387-3.684-11.579-12.679-11.579-20.054V235.1c0-7.014-4.943-15.577-11.019-19.091l-7.771-4.484.563-.97,7.768,4.487c6.384,3.687,11.579,12.686,11.579,20.057v8.967c0,7.021,4.944,15.581,11.02,19.088l37.192,21.473Z" transform="translate(-70.407 -152.207)"/><path class="g" d="M315.659,283.244l-37.2-21.473c-6.384-3.687-11.579-12.683-11.579-20.054v-8.971c0-7.017-4.944-15.577-11.02-19.088l-7.771-4.487.563-.966,7.767,4.487C262.811,216.379,268,225.375,268,232.746v8.971c0,7.014,4.944,15.574,11.02,19.084l37.2,21.477Z" transform="translate(-60.029 -158.185)"/><path class="g" d="M319.744,280.888l-37.2-21.476c-6.384-3.687-11.578-12.686-11.578-20.057v-8.967c0-7.017-4.944-15.577-11.02-19.084l-7.767-4.487.559-.966,7.767,4.484c6.384,3.684,11.579,12.679,11.579,20.054v8.967c0,7.017,4.944,15.581,11.019,19.091l37.2,21.473Z" transform="translate(-49.648 -164.164)"/><path class="g" d="M323.832,278.531l-37.2-21.473c-6.384-3.684-11.579-12.679-11.579-20.054v-8.971c0-7.017-4.944-15.577-11.019-19.088l-7.768-4.487.559-.966,7.768,4.487c6.387,3.687,11.582,12.683,11.582,20.054V237c0,7.017,4.944,15.577,11.016,19.084l37.2,21.477Z" transform="translate(-39.27 -170.148)"/><path class="g" d="M327.92,276.177,290.728,254.7c-6.387-3.687-11.582-12.683-11.582-20.054v-8.971c0-7.014-4.944-15.574-11.02-19.084l-7.767-4.487.559-.966,7.771,4.484c6.384,3.687,11.575,12.683,11.575,20.054v8.971c0,7.017,4.944,15.577,11.023,19.088l37.192,21.473Z" transform="translate(-28.892 -176.126)"/><path class="g" d="M332.008,273.82l-37.2-21.473c-6.384-3.687-11.579-12.683-11.579-20.057v-8.967c0-7.021-4.944-15.581-11.02-19.088l-7.768-4.484.559-.97,7.767,4.487c6.388,3.684,11.582,12.679,11.582,20.054v8.967c0,7.014,4.944,15.578,11.02,19.088l37.192,21.476Z" transform="translate(-18.513 -182.108)"/><path class="g" d="M336.1,271.464,298.9,249.988c-6.387-3.684-11.582-12.679-11.582-20.054v-8.971c0-7.014-4.943-15.574-11.016-19.084l-7.771-4.487.559-.966,7.771,4.484c6.384,3.687,11.579,12.683,11.579,20.054v8.971c0,7.021,4.944,15.581,11.02,19.088l37.192,21.473Z" transform="translate(-8.135 -188.089)"/><path class="g" d="M340.184,269.108l-37.192-21.473c-6.387-3.687-11.578-12.683-11.578-20.054v-8.971c0-7.021-4.944-15.581-11.023-19.088l-7.767-4.484.559-.97,7.771,4.487c6.384,3.684,11.579,12.679,11.579,20.054v8.971c0,7.014,4.944,15.574,11.02,19.084l37.2,21.476Z" transform="translate(2.243 -194.07)"/></g><g transform="translate(0 150.782)"><path class="g" d="M173.755,313.866l-.559-.966,37.2-21.476c6.076-3.507,11.02-12.067,11.02-19.084v-8.967c0-7.375,5.195-16.37,11.579-20.058l7.768-4.484.559.966-7.768,4.484c-6.076,3.51-11.02,12.074-11.02,19.091v8.967c0,7.375-5.195,16.37-11.579,20.054Z" transform="translate(101.67 -80.435)"/><path class="g" d="M169.667,311.513l-.559-.97,37.2-21.473c6.076-3.507,11.019-12.067,11.019-19.088v-8.971c0-7.371,5.191-16.367,11.579-20.054l7.767-4.484.563.966-7.771,4.487c-6.076,3.51-11.02,12.071-11.02,19.084v8.971c0,7.374-5.195,16.37-11.579,20.054Z" transform="translate(91.292 -86.416)"/><path class="g" d="M165.579,309.158l-.559-.966,37.192-21.476c6.08-3.511,11.023-12.071,11.023-19.084V258.66c0-7.375,5.191-16.37,11.579-20.054l7.768-4.487.559.966-7.768,4.487c-6.076,3.507-11.019,12.067-11.019,19.088v8.971c0,7.371-5.195,16.367-11.579,20.054Z" transform="translate(80.914 -92.397)"/><path class="g" d="M161.491,306.8l-.559-.97,37.192-21.473c6.076-3.507,11.019-12.067,11.019-19.088V256.3c0-7.371,5.195-16.37,11.582-20.057l7.768-4.484.559.966-7.768,4.487c-6.076,3.51-11.02,12.074-11.02,19.088v8.967c0,7.375-5.195,16.37-11.579,20.054Z" transform="translate(70.535 -98.378)"/><path class="g" d="M157.406,304.445l-.563-.966L194.038,282c6.076-3.507,11.02-12.067,11.02-19.084v-8.971c0-7.371,5.195-16.367,11.579-20.054l7.771-4.487.559.97L217.2,234.86c-6.076,3.51-11.02,12.07-11.02,19.088v8.971c0,7.375-5.195,16.37-11.582,20.054Z" transform="translate(60.155 -104.359)"/><path class="g" d="M153.318,302.09l-.563-.97,37.2-21.473c6.076-3.51,11.02-12.07,11.02-19.088v-8.971c0-7.375,5.195-16.37,11.579-20.054l7.771-4.484.559.966-7.767,4.487c-6.08,3.507-11.023,12.067-11.023,19.084v8.971c0,7.371-5.191,16.367-11.579,20.054Z" transform="translate(49.776 -110.338)"/><path class="g" d="M149.226,299.733l-.559-.966,37.2-21.477c6.076-3.507,11.02-12.067,11.02-19.084v-8.967c0-7.375,5.195-16.37,11.579-20.057l7.768-4.487.563.97-7.771,4.484C202.944,233.659,198,242.222,198,249.239v8.967c0,7.375-5.195,16.37-11.582,20.054Z" transform="translate(39.398 -116.322)"/><path class="g" d="M145.138,297.378l-.559-.97,37.2-21.473c6.076-3.507,11.02-12.067,11.02-19.088v-8.971c0-7.371,5.191-16.367,11.579-20.054l7.767-4.484.563.966-7.771,4.487c-6.076,3.51-11.02,12.07-11.02,19.084v8.971c0,7.375-5.195,16.37-11.579,20.054Z" transform="translate(29.02 -122.3)"/><path class="g" d="M141.05,295.023l-.559-.966,37.2-21.473c6.076-3.514,11.02-12.074,11.02-19.088v-8.971c0-7.375,5.195-16.37,11.579-20.054l7.767-4.487.559.97-7.767,4.484c-6.076,3.507-11.02,12.067-11.02,19.088V253.5c0,7.371-5.195,16.367-11.579,20.054Z" transform="translate(18.642 -128.282)"/><path class="g" d="M136.962,292.666l-.559-.969,37.2-21.473c6.072-3.507,11.016-12.067,11.016-19.084v-8.971c0-7.371,5.195-16.37,11.582-20.057l7.767-4.484.559.966-7.767,4.487c-6.076,3.51-11.02,12.074-11.02,19.088v8.971c0,7.375-5.195,16.37-11.579,20.054Z" transform="translate(8.263 -134.263)"/><path class="g" d="M132.874,290.31l-.559-.966,37.192-21.473c6.08-3.514,11.023-12.071,11.023-19.088v-8.971c0-7.371,5.191-16.367,11.579-20.054l7.767-4.487.559.97-7.768,4.484c-6.076,3.514-11.02,12.074-11.02,19.088v8.971c0,7.371-5.195,16.366-11.579,20.054Z" transform="translate(-2.115 -140.244)"/><path class="g" d="M128.786,287.955l-.559-.966,37.192-21.476c6.076-3.51,11.019-12.074,11.019-19.088v-8.971c0-7.375,5.195-16.37,11.582-20.054l7.768-4.484.559.966-7.767,4.487c-6.076,3.507-11.02,12.067-11.02,19.084v8.971c0,7.371-5.195,16.37-11.579,20.057Z" transform="translate(-12.493 -146.223)"/><path class="g" d="M124.7,285.6l-.559-.97,37.2-21.473c6.076-3.507,11.02-12.067,11.02-19.088V235.1c0-7.371,5.195-16.37,11.579-20.057l7.771-4.487.559.97-7.771,4.484c-6.072,3.514-11.016,12.078-11.016,19.091v8.967c0,7.375-5.195,16.37-11.582,20.054Z" transform="translate(-22.874 -152.207)"/><path class="g" d="M120.613,283.244l-.563-.966,37.2-21.477c6.076-3.51,11.02-12.07,11.02-19.084v-8.971c0-7.371,5.195-16.367,11.579-20.054l7.771-4.487.559.966-7.768,4.487c-6.08,3.51-11.023,12.07-11.023,19.088v8.971c0,7.371-5.191,16.367-11.579,20.054Z" transform="translate(-33.252 -158.185)"/><path class="g" d="M116.521,280.888l-.559-.969,37.2-21.473c6.076-3.51,11.02-12.074,11.02-19.091v-8.967c0-7.375,5.195-16.37,11.579-20.054l7.767-4.484.563.966-7.771,4.487c-6.076,3.507-11.019,12.067-11.019,19.084v8.967c0,7.371-5.191,16.37-11.579,20.057Z" transform="translate(-43.631 -164.164)"/><path class="g" d="M112.433,278.531l-.559-.966,37.2-21.477c6.076-3.507,11.02-12.067,11.02-19.084v-8.971c0-7.371,5.191-16.367,11.579-20.054l7.768-4.487.563.966-7.771,4.487c-6.076,3.51-11.02,12.071-11.02,19.088V237c0,7.375-5.195,16.37-11.579,20.054Z" transform="translate(-54.009 -170.148)"/><path class="g" d="M108.345,276.177l-.559-.97,37.192-21.473c6.08-3.51,11.023-12.071,11.023-19.088v-8.971c0-7.371,5.195-16.366,11.579-20.054l7.768-4.484.559.966-7.767,4.487c-6.076,3.51-11.02,12.07-11.02,19.084v8.971c0,7.371-5.195,16.367-11.579,20.054Z" transform="translate(-64.387 -176.126)"/><path class="g" d="M104.257,273.82l-.559-.966,37.2-21.476c6.072-3.51,11.016-12.074,11.016-19.088v-8.967c0-7.375,5.195-16.37,11.582-20.054l7.768-4.487.559.97-7.768,4.484c-6.076,3.507-11.02,12.067-11.02,19.088v8.967c0,7.371-5.195,16.37-11.579,20.057Z" transform="translate(-74.765 -182.108)"/><path class="g" d="M100.172,271.464l-.563-.969,37.2-21.473c6.079-3.507,11.02-12.067,11.02-19.088v-8.971c0-7.371,5.195-16.367,11.579-20.054l7.771-4.484.559.966-7.768,4.487c-6.076,3.51-11.02,12.071-11.02,19.084v8.971c0,7.375-5.195,16.37-11.582,20.054Z" transform="translate(-85.146 -188.089)"/><path class="g" d="M96.081,269.108l-.559-.966,37.192-21.476c6.076-3.51,11.02-12.07,11.02-19.084v-8.971c0-7.375,5.195-16.37,11.582-20.054l7.768-4.487.559.97-7.767,4.484c-6.08,3.507-11.02,12.067-11.02,19.088v8.971c0,7.371-5.195,16.367-11.579,20.054Z" transform="translate(-95.522 -194.07)"/></g><g transform="translate(62.107)"><path class="h" d="M684.7,198.1v33.028L398.891,396.137,113.073,231.12V198.091Z" transform="translate(-113.073 -33.079)"/><path class="i" d="M398.891,481.49,113.073,316.473l285.81-165.012L684.7,316.478Z" transform="translate(-113.073 -151.461)"/><path class="d" d="M398.891,360.634,116.414,197.546l-3.342,1.929L398.891,364.492,684.7,199.48l-3.341-1.929Z" transform="translate(-113.073 -34.463)"/></g></g><g transform="translate(162.34 322.456)"><g transform="translate(59.574)"><path class="j" d="M215.936,156.958a10.813,10.813,0,0,1-5.329-1.624l-37.192-21.476.559-.966,37.2,21.473c2.838,1.642,5.478,1.914,7.428.793s3.033-3.556,3.033-6.833v-8.967c0-3.694,1.274-6.465,3.588-7.8s5.354-1.058,8.55.8l7.767,4.484-.559.97-7.768-4.487c-2.838-1.638-5.474-1.915-7.428-.793s-3.033,3.556-3.033,6.833v8.967c0,3.694-1.274,6.465-3.592,7.8A6.392,6.392,0,0,1,215.936,156.958Z" transform="translate(101.455 -130.723)"/><path class="j" d="M211.848,159.307a10.765,10.765,0,0,1-5.326-1.624l-37.2-21.473.559-.97,37.2,21.476c2.834,1.635,5.474,1.925,7.428.789s3.029-3.553,3.029-6.83v-8.967c0-3.694,1.274-6.465,3.588-7.8s5.354-1.058,8.553.789l7.767,4.487-.559.966-7.767-4.484c-2.838-1.635-5.478-1.918-7.431-.789s-3.029,3.553-3.029,6.83v8.967c0,3.694-1.278,6.465-3.592,7.8A6.345,6.345,0,0,1,211.848,159.307Z" transform="translate(91.076 -124.753)"/><path class="j" d="M207.76,161.662a10.823,10.823,0,0,1-5.329-1.624l-37.192-21.477.559-.966,37.192,21.473c2.842,1.642,5.485,1.921,7.431.793s3.029-3.553,3.029-6.83V144.06c0-3.694,1.277-6.462,3.592-7.8s5.347-1.058,8.55.793l7.767,4.484-.559.97-7.771-4.487c-2.835-1.631-5.474-1.918-7.428-.789s-3.029,3.553-3.029,6.83v8.971c0,3.694-1.277,6.462-3.588,7.8A6.335,6.335,0,0,1,207.76,161.662Z" transform="translate(80.698 -118.785)"/><path class="j" d="M203.675,164.01a10.786,10.786,0,0,1-5.329-1.624l-37.2-21.473.563-.966L198.9,161.42c2.838,1.638,5.474,1.925,7.431.793s3.029-3.553,3.029-6.83v-8.971c0-3.695,1.274-6.465,3.588-7.8s5.35-1.058,8.553.789l7.767,4.487-.559.966-7.771-4.484c-2.834-1.631-5.474-1.915-7.431-.789s-3.029,3.553-3.029,6.83v8.971c0,3.694-1.274,6.462-3.588,7.8A6.353,6.353,0,0,1,203.675,164.01Z" transform="translate(70.317 -112.814)"/><path class="j" d="M199.584,166.365a10.779,10.779,0,0,1-5.329-1.624l-37.192-21.473.559-.966,37.192,21.473c2.842,1.638,5.481,1.918,7.431.789s3.029-3.553,3.029-6.83v-8.971c0-3.694,1.274-6.462,3.588-7.8s5.351-1.058,8.55.793l7.771,4.483-.563.97-7.768-4.487c-2.838-1.631-5.475-1.918-7.431-.786s-3.026,3.549-3.026,6.826v8.971c0,3.694-1.277,6.465-3.592,7.8A6.322,6.322,0,0,1,199.584,166.365Z" transform="translate(59.942 -106.845)"/><path class="j" d="M195.5,168.716a10.812,10.812,0,0,1-5.326-1.624l-37.2-21.473.559-.966,37.2,21.473c2.842,1.638,5.481,1.921,7.431.789s3.029-3.553,3.029-6.83v-8.971c0-3.694,1.274-6.462,3.588-7.8s5.351-1.058,8.55.793l7.771,4.483-.559.966-7.771-4.48c-2.838-1.638-5.478-1.918-7.431-.793s-3.029,3.553-3.029,6.83v8.971c0,3.694-1.274,6.462-3.588,7.8A6.371,6.371,0,0,1,195.5,168.716Z" transform="translate(49.561 -100.873)"/><path class="j" d="M191.407,171.07a10.8,10.8,0,0,1-5.326-1.624l-37.2-21.473.559-.97,37.2,21.476c2.842,1.631,5.482,1.922,7.431.786s3.029-3.553,3.029-6.826v-8.974c0-3.694,1.274-6.462,3.588-7.8s5.354-1.058,8.549.8l7.768,4.487-.559.966-7.768-4.487c-2.834-1.638-5.474-1.921-7.431-.789s-3.029,3.553-3.029,6.826v8.974c0,3.691-1.274,6.462-3.588,7.8A6.361,6.361,0,0,1,191.407,171.07Z" transform="translate(39.183 -94.904)"/><path class="j" d="M187.319,173.422a10.849,10.849,0,0,1-5.326-1.624l-37.2-21.476.559-.966,37.2,21.473c2.842,1.635,5.478,1.921,7.431.789s3.026-3.553,3.026-6.83v-8.967c0-3.694,1.278-6.465,3.592-7.8s5.351-1.058,8.55.792l7.767,4.487-.559.97-7.767-4.487c-2.838-1.639-5.478-1.925-7.431-.793s-3.029,3.553-3.029,6.833v8.967c0,3.694-1.274,6.462-3.588,7.8A6.374,6.374,0,0,1,187.319,173.422Z" transform="translate(28.804 -88.934)"/><path class="j" d="M183.231,175.769a10.778,10.778,0,0,1-5.329-1.624L140.71,152.672l.559-.97,37.2,21.476c2.838,1.642,5.478,1.914,7.428.789s3.033-3.556,3.033-6.83v-8.971c0-3.691,1.274-6.465,3.588-7.8s5.35-1.055,8.55.8l7.767,4.487-.559.966-7.768-4.487c-2.838-1.638-5.474-1.911-7.431-.789s-3.029,3.556-3.029,6.83v8.971c0,3.694-1.274,6.465-3.592,7.8A6.391,6.391,0,0,1,183.231,175.769Z" transform="translate(18.426 -82.961)"/><path class="j" d="M179.143,178.123a10.825,10.825,0,0,1-5.329-1.624l-37.192-21.477.559-.966,37.2,21.473c2.834,1.638,5.474,1.925,7.428.793s3.029-3.553,3.029-6.833v-8.967c0-3.694,1.274-6.462,3.588-7.8s5.354-1.054,8.553.793L204.742,158l-.559.97-7.768-4.487c-2.838-1.631-5.478-1.915-7.431-.789s-3.029,3.553-3.029,6.83v8.967c0,3.695-1.278,6.465-3.592,7.8A6.321,6.321,0,0,1,179.143,178.123Z" transform="translate(8.048 -76.992)"/><path class="j" d="M175.055,180.472a10.788,10.788,0,0,1-5.329-1.624l-37.192-21.473.559-.97,37.192,21.476c2.842,1.642,5.481,1.925,7.431.789s3.029-3.549,3.029-6.826v-8.971c0-3.694,1.277-6.465,3.588-7.8s5.351-1.054,8.55.793l7.771,4.487-.559.966-7.771-4.484c-2.834-1.631-5.474-1.914-7.428-.789s-3.029,3.553-3.029,6.83v8.971c0,3.694-1.278,6.462-3.588,7.8A6.368,6.368,0,0,1,175.055,180.472Z" transform="translate(-2.33 -71.021)"/><path class="j" d="M170.97,182.827a10.824,10.824,0,0,1-5.329-1.624l-37.2-21.476.563-.966L166.2,180.233c2.838,1.635,5.474,1.925,7.431.793s3.029-3.553,3.029-6.83v-8.971c0-3.694,1.274-6.462,3.588-7.8s5.351-1.058,8.553.793l7.768,4.483-.559.97-7.771-4.487c-2.834-1.635-5.478-1.914-7.431-.789s-3.029,3.553-3.029,6.83V174.2c0,3.694-1.274,6.462-3.588,7.8A6.322,6.322,0,0,1,170.97,182.827Z" transform="translate(-12.711 -65.053)"/><path class="j" d="M166.876,185.179a10.811,10.811,0,0,1-5.326-1.624l-37.192-21.473.559-.966,37.192,21.473c2.842,1.635,5.481,1.921,7.431.789s3.029-3.553,3.029-6.83v-8.971c0-3.694,1.274-6.462,3.588-7.8s5.354-1.058,8.549.793l7.771,4.484-.563.966-7.767-4.48c-2.838-1.635-5.474-1.925-7.431-.793s-3.029,3.553-3.029,6.83v8.971c0,3.694-1.27,6.462-3.588,7.8A6.36,6.36,0,0,1,166.876,185.179Z" transform="translate(-23.087 -59.082)"/><path class="j" d="M162.79,187.533a10.812,10.812,0,0,1-5.326-1.624l-37.2-21.473.559-.97,37.2,21.473c2.842,1.635,5.478,1.921,7.431.789s3.029-3.553,3.029-6.83v-8.971c0-3.694,1.274-6.462,3.588-7.8s5.354-1.058,8.55.8l7.771,4.483-.563.97-7.767-4.487c-2.838-1.642-5.478-1.922-7.431-.789s-3.029,3.549-3.029,6.826V178.9c0,3.694-1.274,6.465-3.588,7.8A6.37,6.37,0,0,1,162.79,187.533Z" transform="translate(-33.468 -53.113)"/><path class="j" d="M158.7,189.885a10.807,10.807,0,0,1-5.326-1.628l-37.2-21.473.559-.966,37.2,21.473c2.838,1.635,5.478,1.922,7.431.789s3.029-3.553,3.029-6.83V172.28c0-3.694,1.274-6.462,3.588-7.8s5.354-1.058,8.549.793l7.767,4.487-.559.966-7.767-4.484c-2.838-1.638-5.474-1.925-7.431-.793s-3.029,3.553-3.029,6.83v8.971c0,3.694-1.274,6.462-3.588,7.8A6.373,6.373,0,0,1,158.7,189.885Z" transform="translate(-43.846 -47.142)"/><path class="j" d="M154.614,192.236a10.765,10.765,0,0,1-5.326-1.624l-37.2-21.473.559-.97,37.2,21.476c2.838,1.635,5.471,1.914,7.428.789s3.029-3.556,3.029-6.83v-8.971c0-3.694,1.277-6.465,3.592-7.8s5.351-1.058,8.55.8l7.767,4.484-.559.97-7.767-4.487c-2.838-1.638-5.482-1.921-7.431-.789s-3.029,3.553-3.029,6.83v8.971c0,3.691-1.278,6.465-3.592,7.8A6.391,6.391,0,0,1,154.614,192.236Z" transform="translate(-54.224 -41.174)"/><path class="j" d="M150.526,194.585a10.813,10.813,0,0,1-5.329-1.624L108,171.484l.559-.966,37.192,21.473c2.842,1.642,5.478,1.918,7.431.793s3.033-3.556,3.033-6.833v-8.967c0-3.694,1.274-6.465,3.588-7.8s5.351-1.058,8.55.793l7.767,4.487-.559.966-7.771-4.484c-2.835-1.638-5.471-1.914-7.428-.793s-3.029,3.556-3.029,6.833v8.967c0,3.694-1.274,6.465-3.592,7.8A6.358,6.358,0,0,1,150.526,194.585Z" transform="translate(-64.603 -35.199)"/><path class="j" d="M146.438,196.936a10.8,10.8,0,0,1-5.329-1.624l-37.192-21.473.559-.97,37.2,21.477c2.835,1.642,5.474,1.922,7.428.789s3.029-3.553,3.029-6.826v-8.974c0-3.691,1.274-6.462,3.588-7.8s5.351-1.054,8.553.793l7.767,4.487-.559.966-7.768-4.487c-2.842-1.631-5.478-1.918-7.435-.786s-3.026,3.553-3.026,6.826v8.974c0,3.694-1.274,6.462-3.592,7.8A6.354,6.354,0,0,1,146.438,196.936Z" transform="translate(-74.981 -29.231)"/><path class="j" d="M142.35,199.289a10.823,10.823,0,0,1-5.329-1.624L99.829,176.188l.559-.966,37.192,21.473c2.842,1.638,5.482,1.925,7.431.793s3.029-3.553,3.029-6.83v-8.971c0-3.694,1.277-6.462,3.588-7.8s5.351-1.058,8.55.793l7.771,4.484-.559.97-7.771-4.487c-2.838-1.631-5.474-1.914-7.428-.789s-3.029,3.553-3.029,6.83v8.971c0,3.695-1.277,6.462-3.592,7.8A6.312,6.312,0,0,1,142.35,199.289Z" transform="translate(-85.359 -23.26)"/><path class="j" d="M138.265,201.636a10.787,10.787,0,0,1-5.329-1.624l-37.2-21.473.563-.97,37.192,21.476c2.838,1.639,5.478,1.922,7.431.789s3.029-3.549,3.029-6.826v-8.971c0-3.694,1.274-6.465,3.588-7.8s5.351-1.054,8.553.789l7.767,4.487-.559.966L155.534,178c-2.835-1.631-5.478-1.918-7.431-.789s-3.029,3.553-3.029,6.83v8.971c0,3.694-1.274,6.462-3.588,7.8A6.355,6.355,0,0,1,138.265,201.636Z" transform="translate(-95.74 -17.289)"/></g><g transform="translate(410.647 0.678)"><path class="j" d="M220.548,157.151a6.37,6.37,0,0,1-3.224-.832c-2.314-1.338-3.588-4.108-3.588-7.8v-8.974c0-3.273-1.076-5.7-3.029-6.826s-4.593-.846-7.431.789l-7.768,4.483-.559-.97,7.767-4.48c3.2-1.854,6.235-2.13,8.55-.8s3.588,4.108,3.588,7.8v8.974c0,3.273,1.079,5.7,3.029,6.826s4.593.846,7.431-.785l37.2-21.476.559.97-37.192,21.473A10.815,10.815,0,0,1,220.548,157.151Z" transform="translate(-194.949 -130.915)"/><path class="j" d="M224.636,159.5a6.372,6.372,0,0,1-3.224-.835c-2.314-1.338-3.588-4.1-3.588-7.8V141.9c0-3.277-1.076-5.7-3.029-6.83s-4.59-.846-7.431.793l-7.767,4.484-.559-.966,7.767-4.487c3.2-1.851,6.239-2.127,8.553-.793s3.588,4.1,3.588,7.8v8.971c0,3.277,1.076,5.7,3.029,6.83s4.593.839,7.428-.789l37.2-21.473.559.966-37.2,21.476A10.839,10.839,0,0,1,224.636,159.5Z" transform="translate(-184.571 -124.944)"/><path class="j" d="M228.724,161.853a6.371,6.371,0,0,1-3.224-.832c-2.314-1.338-3.588-4.1-3.588-7.8v-8.971c0-3.277-1.076-5.7-3.029-6.83s-4.6-.846-7.428.789l-7.771,4.487-.559-.966,7.767-4.487c3.2-1.851,6.239-2.13,8.55-.8s3.592,4.112,3.592,7.8v8.971c0,3.273,1.076,5.7,3.029,6.826s4.59.849,7.431-.786l37.192-21.476.559.97-37.192,21.473A10.814,10.814,0,0,1,228.724,161.853Z" transform="translate(-174.192 -118.975)"/><path class="j" d="M232.812,164.2a6.358,6.358,0,0,1-3.22-.832c-2.314-1.338-3.588-4.108-3.588-7.8V146.6c0-3.277-1.079-5.7-3.033-6.833s-4.59-.849-7.428.793l-7.771,4.487-.559-.97,7.767-4.484c3.2-1.854,6.239-2.123,8.55-.8s3.592,4.108,3.592,7.8v8.967c0,3.277,1.076,5.7,3.029,6.833s4.593.846,7.428-.793l37.2-21.473.559.966-37.192,21.477A10.815,10.815,0,0,1,232.812,164.2Z" transform="translate(-163.814 -113.002)"/><path class="j" d="M236.9,166.552a6.355,6.355,0,0,1-3.22-.828c-2.314-1.338-3.592-4.108-3.592-7.8v-8.967c0-3.277-1.076-5.7-3.025-6.83s-4.59-.842-7.431.789l-7.767,4.484-.563-.966,7.771-4.487c3.2-1.844,6.235-2.127,8.55-.789s3.588,4.1,3.588,7.8v8.967c0,3.28,1.076,5.7,3.029,6.83s4.59.846,7.431-.789l37.192-21.477.559.97-37.192,21.473A10.775,10.775,0,0,1,236.9,166.552Z" transform="translate(-153.436 -107.032)"/><path class="j" d="M240.988,168.907a6.322,6.322,0,0,1-3.22-.832c-2.314-1.334-3.588-4.1-3.588-7.8v-8.971c0-3.277-1.076-5.7-3.029-6.83s-4.59-.842-7.431.789l-7.771,4.487-.559-.969,7.771-4.484c3.2-1.851,6.239-2.13,8.55-.793s3.588,4.1,3.588,7.8v8.971c0,3.277,1.076,5.7,3.029,6.83s4.59.846,7.431-.793l37.2-21.473.559.966-37.2,21.477A10.825,10.825,0,0,1,240.988,168.907Z" transform="translate(-143.058 -101.064)"/><path class="j" d="M245.077,171.256a6.357,6.357,0,0,1-3.224-.828c-2.314-1.338-3.588-4.1-3.588-7.8v-8.971c0-3.277-1.076-5.7-3.029-6.83s-4.59-.842-7.431.789l-7.767,4.484-.559-.966,7.767-4.487c3.2-1.847,6.239-2.127,8.55-.789s3.588,4.1,3.588,7.8v8.971c0,3.277,1.076,5.7,3.029,6.83s4.59.849,7.431-.793l37.192-21.473.563.966-37.2,21.473A10.776,10.776,0,0,1,245.077,171.256Z" transform="translate(-132.677 -95.093)"/><path class="j" d="M249.165,173.613a6.361,6.361,0,0,1-3.224-.832c-2.314-1.338-3.588-4.108-3.588-7.8v-8.971c0-3.273-1.076-5.7-3.029-6.826s-4.59-.849-7.431.789l-7.767,4.484-.559-.97,7.767-4.48c3.2-1.851,6.239-2.134,8.55-.8s3.592,4.1,3.592,7.8v8.971c0,3.277,1.076,5.7,3.026,6.83s4.593.842,7.431-.789l37.2-21.473.559.97-37.2,21.473A10.812,10.812,0,0,1,249.165,173.613Z" transform="translate(-122.299 -89.123)"/><path class="j" d="M253.253,175.962a6.371,6.371,0,0,1-3.224-.832c-2.314-1.338-3.588-4.1-3.588-7.8V158.36c0-3.277-1.076-5.7-3.029-6.83s-4.593-.846-7.431.793l-7.768,4.484-.559-.966,7.767-4.487c3.2-1.847,6.235-2.13,8.55-.793s3.588,4.1,3.588,7.8v8.971c0,3.277,1.079,5.7,3.029,6.83s4.6.846,7.431-.789l37.2-21.473.559.966-37.192,21.473A10.814,10.814,0,0,1,253.253,175.962Z" transform="translate(-111.92 -83.152)"/><path class="j" d="M257.341,178.315a6.358,6.358,0,0,1-3.22-.832c-2.318-1.338-3.592-4.1-3.592-7.8V160.71c0-3.273-1.076-5.7-3.029-6.826s-4.586-.849-7.431.789L232.3,159.16l-.559-.966,7.768-4.487c3.2-1.851,6.239-2.13,8.553-.8s3.588,4.1,3.588,7.8v8.974c0,3.273,1.076,5.7,3.029,6.826s4.593.846,7.428-.786l37.2-21.476.559.969L262.67,176.691A10.813,10.813,0,0,1,257.341,178.315Z" transform="translate(-101.542 -77.182)"/><path class="j" d="M261.433,180.67a6.379,6.379,0,0,1-3.227-.835c-2.314-1.338-3.588-4.1-3.588-7.8v-8.967c0-3.28-1.076-5.7-3.029-6.833s-4.6-.842-7.428.793l-7.771,4.487-.559-.97,7.767-4.487c3.2-1.854,6.239-2.13,8.549-.793s3.592,4.108,3.592,7.8v8.967c0,3.277,1.076,5.7,3.029,6.83s4.593.846,7.431-.789L303.391,156.6l.559.966-37.192,21.477A10.849,10.849,0,0,1,261.433,180.67Z" transform="translate(-91.164 -71.214)"/><path class="j" d="M265.517,183.016a6.39,6.39,0,0,1-3.22-.828c-2.314-1.338-3.588-4.108-3.588-7.8v-8.967c0-3.277-1.079-5.7-3.033-6.833s-4.59-.846-7.428.789l-7.771,4.487-.559-.966,7.767-4.487c3.2-1.851,6.239-2.123,8.549-.8s3.592,4.112,3.592,7.806v8.967c0,3.273,1.076,5.7,3.029,6.83s4.593.849,7.432-.789l37.192-21.476.563.97-37.2,21.473A10.777,10.777,0,0,1,265.517,183.016Z" transform="translate(-80.786 -65.241)"/><path class="j" d="M269.605,185.368a6.323,6.323,0,0,1-3.22-.832c-2.314-1.338-3.588-4.108-3.588-7.8v-8.967c0-3.277-1.079-5.7-3.029-6.83s-4.59-.842-7.431.789l-7.768,4.487-.563-.97,7.771-4.484c3.2-1.851,6.235-2.127,8.549-.793s3.588,4.105,3.588,7.8v8.967c0,3.28,1.076,5.708,3.029,6.833s4.593.846,7.431-.793L311.567,161.3l.559.966-37.192,21.477A10.814,10.814,0,0,1,269.605,185.368Z" transform="translate(-70.407 -59.27)"/><path class="j" d="M273.693,187.716a6.355,6.355,0,0,1-3.22-.828c-2.314-1.338-3.588-4.1-3.588-7.8v-8.971c0-3.277-1.076-5.7-3.029-6.83s-4.59-.846-7.432.789l-7.767,4.484-.563-.966,7.771-4.487c3.2-1.844,6.239-2.123,8.55-.789s3.588,4.1,3.588,7.8v8.971c0,3.277,1.079,5.7,3.029,6.826s4.589.849,7.431-.789l37.2-21.473.559.966-37.2,21.473A10.777,10.777,0,0,1,273.693,187.716Z" transform="translate(-60.029 -53.298)"/><path class="j" d="M277.782,190.071a6.326,6.326,0,0,1-3.224-.832c-2.314-1.334-3.588-4.1-3.588-7.8V172.47c0-3.277-1.076-5.7-3.029-6.826s-4.59-.846-7.431.786l-7.767,4.487-.559-.97,7.767-4.483c3.2-1.851,6.239-2.127,8.55-.793s3.588,4.1,3.588,7.8v8.971c0,3.277,1.076,5.7,3.029,6.83s4.59.846,7.431-.793L319.744,166l.559.97-37.2,21.473A10.774,10.774,0,0,1,277.782,190.071Z" transform="translate(-49.648 -47.331)"/><path class="j" d="M281.87,192.423a6.361,6.361,0,0,1-3.224-.832c-2.314-1.338-3.588-4.1-3.588-7.8v-8.971c0-3.277-1.076-5.7-3.029-6.83s-4.59-.846-7.431.793l-7.768,4.48-.559-.966,7.768-4.484c3.2-1.851,6.239-2.127,8.549-.793s3.592,4.1,3.592,7.8v8.971c0,3.277,1.076,5.7,3.029,6.83s4.59.842,7.428-.789l37.2-21.473.559.966L287.2,190.8A10.8,10.8,0,0,1,281.87,192.423Z" transform="translate(-39.27 -41.359)"/><path class="j" d="M285.958,194.778a6.37,6.37,0,0,1-3.224-.832c-2.314-1.338-3.588-4.1-3.588-7.8v-8.971c0-3.273-1.076-5.7-3.029-6.826s-4.593-.849-7.428.789l-7.771,4.487-.559-.97,7.767-4.483c3.2-1.851,6.239-2.134,8.55-.8s3.588,4.1,3.588,7.8v8.971c0,3.277,1.079,5.7,3.029,6.83s4.6.849,7.435-.786l37.192-21.477.559.97-37.192,21.473A10.813,10.813,0,0,1,285.958,194.778Z" transform="translate(-28.892 -35.391)"/><path class="j" d="M290.046,197.13a6.362,6.362,0,0,1-3.22-.835c-2.318-1.338-3.592-4.1-3.592-7.8v-8.967c0-3.28-1.076-5.7-3.029-6.833s-4.593-.849-7.431.793l-7.767,4.483-.559-.966,7.768-4.487c3.2-1.847,6.235-2.13,8.55-.793s3.592,4.108,3.592,7.8V188.5c0,3.277,1.076,5.7,3.029,6.83s4.59.842,7.428-.789l37.2-21.473.559.966-37.192,21.476A10.852,10.852,0,0,1,290.046,197.13Z" transform="translate(-18.513 -29.42)"/><path class="j" d="M294.137,199.477a6.393,6.393,0,0,1-3.224-.828c-2.314-1.338-3.592-4.108-3.592-7.8v-8.967c0-3.277-1.076-5.7-3.029-6.833s-4.593-.849-7.428.789l-7.771,4.487-.559-.966,7.771-4.487c3.2-1.847,6.232-2.123,8.546-.8s3.592,4.108,3.592,7.806v8.967c0,3.273,1.076,5.7,3.029,6.83s4.593.853,7.431-.789L336.1,175.41l.559.97-37.192,21.473A10.786,10.786,0,0,1,294.137,199.477Z" transform="translate(-8.135 -23.447)"/><path class="j" d="M298.222,201.83A6.358,6.358,0,0,1,295,201c-2.314-1.338-3.588-4.108-3.588-7.8v-8.967c0-3.277-1.076-5.7-3.029-6.83s-4.593-.846-7.431.789l-7.771,4.487-.559-.97,7.767-4.484c3.2-1.844,6.242-2.13,8.553-.793s3.588,4.1,3.588,7.8V193.2c0,3.28,1.076,5.7,3.029,6.833s4.59.842,7.431-.793l37.192-21.473.563.966-37.2,21.476A10.825,10.825,0,0,1,298.222,201.83Z" transform="translate(2.243 -17.477)"/></g><g transform="translate(120.91 3.594)"><path class="k" d="M684.7,178.375V211.4L398.891,376.415,113.073,211.4V178.37Z" transform="translate(-113.073 -13.357)"/><path class="l" d="M398.891,461.769,113.073,296.752l285.81-165.012L684.7,296.757Z" transform="translate(-113.073 -131.739)"/><path class="d" d="M398.891,340.912,116.414,177.825l-3.342,1.929L398.891,344.771,684.7,179.759l-3.341-1.929Z" transform="translate(-113.073 -14.741)"/><g transform="translate(65.981 6.127)"><path class="m" d="M351.551,396.351,131.719,269.431,351.545,142.515l219.832,126.92Z" transform="translate(-131.715 -110.509)"/><path class="n" d="M351.554,396.356,131.718,269.434l219.83-126.919L571.384,269.438Z" transform="translate(-131.718 -110.509)"/><path class="n" d="M193.84,133.471,413.676,260.393v32L193.84,165.474Z" transform="translate(25.99 -133.471)"/><path class="n" d="M351.554,165.474,131.718,292.393v-32l219.83-126.919Z" transform="translate(-131.718 -133.471)"/><path class="n" d="M351.554,387.312,131.718,260.389l219.83-126.919L571.384,260.393Z" transform="translate(-131.718 -133.471)"/><path class="o" d="M256.86,256.435,169.018,205.72l87.839-50.714L344.7,205.721Z" transform="translate(-37.025 -78.8)"/><path class="o" d="M256.857,159.672l83.8,48.382,4.041-2.333-87.842-50.715L169.018,205.72l4.041,2.333Z" transform="translate(-37.025 -78.799)"/><path class="n" d="M193.841,296.256v32l219.83-126.919v-32Z" transform="translate(25.995 -42.415)"/><path class="n" d="M131.718,169.337v32L351.554,328.262v-32Z" transform="translate(-131.718 -42.418)"/><path class="p" d="M351.554,294.019,134.744,168.843l-3.026,1.747L351.554,297.512l219.83-126.919-3.025-1.746Z" transform="translate(-131.718 -43.671)"/></g></g><g transform="translate(410.647 172.022)"><path class="j" d="M262.51,299.134l-37.2-21.477c-6.384-3.684-11.579-12.679-11.579-20.054v-8.97c0-7.014-4.944-15.574-11.02-19.085l-7.767-4.487.559-.966,7.768,4.484c6.387,3.687,11.579,12.683,11.579,20.054v8.97c0,7.021,4.944,15.581,11.023,19.088l37.192,21.473Z" transform="translate(-194.949 -65.702)"/><path class="j" d="M266.6,296.777,229.4,275.3c-6.384-3.687-11.579-12.683-11.579-20.054V246.28c0-7.021-4.944-15.581-11.02-19.088l-7.767-4.484.559-.97,7.767,4.487c6.387,3.684,11.582,12.679,11.582,20.054v8.971c0,7.014,4.944,15.574,11.016,19.084l37.2,21.477Z" transform="translate(-184.571 -71.683)"/><path class="j" d="M270.686,294.422l-37.192-21.477c-6.387-3.687-11.582-12.686-11.582-20.057v-8.967c0-7.014-4.944-15.577-11.02-19.088l-7.767-4.484.559-.966,7.771,4.48c6.384,3.687,11.579,12.686,11.579,20.057v8.967c0,7.017,4.944,15.581,11.02,19.091l37.192,21.473Z" transform="translate(-174.192 -77.662)"/><path class="j" d="M274.774,292.065l-37.2-21.473C231.195,266.909,226,257.913,226,250.539v-8.971c0-7.017-4.943-15.577-11.023-19.088L207.213,218l.559-.97,7.771,4.487c6.384,3.687,11.579,12.683,11.579,20.054v8.971c0,7.017,4.943,15.577,11.02,19.088L275.333,291.1Z" transform="translate(-163.814 -83.646)"/><path class="j" d="M278.862,289.71,241.67,268.234c-6.387-3.687-11.582-12.679-11.582-20.054v-8.971c0-7.017-4.943-15.577-11.016-19.084l-7.771-4.487.563-.966,7.767,4.483c6.384,3.684,11.579,12.679,11.579,20.054v8.971c0,7.017,4.944,15.577,11.02,19.088l37.192,21.473Z" transform="translate(-153.436 -89.624)"/><path class="j" d="M282.954,287.351l-37.2-21.469c-6.384-3.687-11.579-12.683-11.579-20.057v-8.967c0-7.017-4.944-15.578-11.02-19.091l-7.771-4.48.559-.97,7.771,4.483c6.384,3.687,11.579,12.686,11.579,20.058v8.967c0,7.014,4.944,15.577,11.02,19.091l37.2,21.469Z" transform="translate(-143.058 -95.606)"/><path class="j" d="M287.036,285l-37.192-21.473c-6.384-3.684-11.579-12.679-11.579-20.054V234.5c0-7.014-4.944-15.574-11.02-19.084l-7.767-4.487.559-.966,7.767,4.484c6.384,3.687,11.579,12.683,11.579,20.054v8.974c0,7.017,4.944,15.577,11.02,19.084l37.2,21.473Z" transform="translate(-132.677 -101.587)"/><path class="j" d="M291.127,282.642l-37.2-21.473c-6.384-3.687-11.579-12.683-11.579-20.054v-8.971c0-7.017-4.944-15.578-11.019-19.088l-7.767-4.483.559-.97,7.767,4.487c6.387,3.684,11.582,12.679,11.582,20.054v8.971c0,7.017,4.94,15.574,11.016,19.088l37.2,21.473Z" transform="translate(-122.299 -107.568)"/><path class="j" d="M295.215,280.284l-37.2-21.469c-6.384-3.687-11.579-12.686-11.579-20.057v-8.971c0-7.014-4.944-15.577-11.02-19.088l-7.767-4.484.559-.966,7.768,4.484c6.387,3.687,11.579,12.683,11.579,20.054v8.971c0,7.014,4.944,15.577,11.023,19.088l37.192,21.473Z" transform="translate(-111.92 -113.547)"/><path class="j" d="M299.3,277.934l-37.2-21.476c-6.384-3.684-11.579-12.679-11.579-20.054v-8.971c0-7.014-4.944-15.574-11.019-19.088l-7.768-4.484.559-.97,7.768,4.487c6.387,3.687,11.582,12.683,11.582,20.054V236.4c0,7.021,4.943,15.581,11.019,19.088l37.192,21.473Z" transform="translate(-101.542 -119.53)"/><path class="j" d="M303.391,275.576,266.2,254.1c-6.387-3.687-11.582-12.683-11.582-20.054v-8.971c0-7.021-4.944-15.581-11.02-19.088L235.83,201.5l.559-.966,7.771,4.487c6.384,3.684,11.579,12.679,11.579,20.054v8.971c0,7.014,4.944,15.574,11.02,19.084l37.192,21.477Z" transform="translate(-91.164 -125.509)"/><path class="j" d="M307.479,273.217,270.287,251.74c-6.388-3.684-11.579-12.679-11.579-20.054v-8.967c0-7.014-4.944-15.577-11.023-19.088l-7.767-4.484.559-.966,7.771,4.48c6.384,3.687,11.579,12.686,11.579,20.057v8.967c0,7.021,4.943,15.581,11.02,19.088l37.2,21.473Z" transform="translate(-80.786 -131.488)"/><path class="j" d="M311.567,270.863l-37.192-21.473c-6.387-3.684-11.579-12.679-11.579-20.054v-8.971c0-7.017-4.943-15.577-11.019-19.088l-7.771-4.484.563-.969,7.768,4.487c6.384,3.687,11.579,12.683,11.579,20.054v8.971c0,7.017,4.944,15.577,11.02,19.084L312.126,269.9Z" transform="translate(-70.407 -137.472)"/><path class="j" d="M315.659,268.508l-37.2-21.476c-6.384-3.687-11.579-12.683-11.579-20.054v-8.971c0-7.017-4.944-15.578-11.02-19.084l-7.771-4.487.563-.966,7.767,4.484C262.811,201.637,268,210.633,268,218.007v8.971c0,7.017,4.944,15.577,11.02,19.088l37.2,21.473Z" transform="translate(-60.029 -143.45)"/><path class="j" d="M319.744,266.151l-37.2-21.473c-6.384-3.684-11.578-12.679-11.578-20.054v-8.967c0-7.017-4.944-15.581-11.02-19.091l-7.767-4.484.559-.97,7.767,4.487c6.384,3.687,11.579,12.686,11.579,20.057v8.967c0,7.017,4.944,15.578,11.019,19.084l37.2,21.477Z" transform="translate(-49.648 -149.434)"/><path class="j" d="M323.832,263.8l-37.2-21.476c-6.384-3.684-11.579-12.679-11.579-20.054V213.3c0-7.014-4.944-15.574-11.019-19.084l-7.768-4.487.559-.966,7.768,4.484c6.387,3.687,11.582,12.683,11.582,20.054v8.971c0,7.021,4.944,15.581,11.016,19.088l37.2,21.473Z" transform="translate(-39.27 -155.413)"/><path class="j" d="M327.92,261.44l-37.192-21.473c-6.387-3.687-11.582-12.683-11.582-20.054v-8.971c0-7.021-4.944-15.581-11.02-19.088l-7.767-4.484.559-.97,7.771,4.487c6.384,3.684,11.575,12.679,11.575,20.054v8.971c0,7.014,4.944,15.574,11.023,19.088l37.192,21.473Z" transform="translate(-28.892 -161.394)"/><path class="j" d="M332.008,259.085l-37.2-21.473c-6.384-3.687-11.579-12.679-11.579-20.054v-8.971c0-7.014-4.944-15.577-11.02-19.088l-7.768-4.487.559-.966,7.767,4.484c6.388,3.687,11.582,12.686,11.582,20.057v8.971c0,7.017,4.944,15.577,11.02,19.084l37.192,21.473Z" transform="translate(-18.513 -167.375)"/><path class="j" d="M336.1,256.728,298.9,235.255c-6.387-3.687-11.582-12.683-11.582-20.054v-8.971c0-7.017-4.943-15.574-11.016-19.088l-7.771-4.484.559-.97,7.771,4.487c6.384,3.687,11.579,12.683,11.579,20.054V215.2c0,7.014,4.944,15.574,11.02,19.088l37.192,21.473Z" transform="translate(-8.135 -173.356)"/><path class="j" d="M340.184,254.373,302.992,232.9c-6.387-3.687-11.578-12.683-11.578-20.054v-8.974c0-7.017-4.944-15.577-11.023-19.084l-7.767-4.487.559-.966,7.771,4.484c6.384,3.684,11.579,12.679,11.579,20.054v8.974c0,7.014,4.944,15.574,11.02,19.084l37.2,21.473Z" transform="translate(2.243 -179.335)"/></g><g transform="translate(0 172.022)"><path class="j" d="M173.755,299.134l-.559-.97,37.2-21.473c6.076-3.507,11.02-12.067,11.02-19.088v-8.97c0-7.371,5.195-16.367,11.579-20.054l7.768-4.484.559.966-7.768,4.487c-6.076,3.51-11.02,12.071-11.02,19.085v8.97c0,7.375-5.195,16.37-11.579,20.054Z" transform="translate(160.473 -65.702)"/><path class="j" d="M169.667,296.777l-.559-.966,37.2-21.477c6.076-3.51,11.019-12.071,11.019-19.084V246.28c0-7.375,5.191-16.37,11.579-20.054l7.767-4.487.563.97-7.771,4.484c-6.076,3.507-11.02,12.067-11.02,19.088v8.971c0,7.371-5.195,16.366-11.579,20.054Z" transform="translate(150.095 -71.683)"/><path class="j" d="M165.579,294.422l-.559-.97,37.192-21.473c6.08-3.51,11.023-12.074,11.023-19.091v-8.967c0-7.375,5.191-16.37,11.579-20.057l7.768-4.48.559.966-7.768,4.484c-6.076,3.51-11.019,12.074-11.019,19.088v8.967c0,7.371-5.195,16.37-11.579,20.057Z" transform="translate(139.716 -77.662)"/><path class="j" d="M161.491,292.065l-.559-.966,37.192-21.473c6.076-3.51,11.019-12.071,11.019-19.088v-8.971c0-7.371,5.195-16.367,11.582-20.054l7.768-4.487.559.97-7.768,4.484c-6.076,3.51-11.02,12.07-11.02,19.088v8.971c0,7.374-5.195,16.37-11.579,20.054Z" transform="translate(129.338 -83.646)"/><path class="j" d="M157.406,289.71l-.563-.97,37.2-21.473c6.076-3.51,11.02-12.071,11.02-19.088v-8.971c0-7.375,5.195-16.37,11.579-20.054l7.771-4.483.559.966-7.768,4.487c-6.076,3.507-11.02,12.067-11.02,19.084v8.971c0,7.375-5.195,16.367-11.582,20.054Z" transform="translate(118.958 -89.624)"/><path class="j" d="M153.318,287.351l-.563-.966,37.2-21.469c6.076-3.514,11.02-12.078,11.02-19.091v-8.967c0-7.371,5.195-16.37,11.579-20.058l7.771-4.483.559.97-7.767,4.48c-6.08,3.514-11.023,12.074-11.023,19.091v8.967c0,7.371-5.191,16.37-11.579,20.057Z" transform="translate(108.579 -95.606)"/><path class="j" d="M149.226,285l-.559-.97,37.2-21.473c6.076-3.507,11.02-12.067,11.02-19.084V234.5c0-7.371,5.195-16.367,11.579-20.054l7.768-4.484.563.966-7.771,4.487C202.944,218.924,198,227.484,198,234.5v8.974c0,7.375-5.195,16.37-11.582,20.054Z" transform="translate(98.201 -101.587)"/><path class="j" d="M145.138,282.642l-.559-.966,37.2-21.473c6.076-3.514,11.02-12.071,11.02-19.088v-8.971c0-7.375,5.191-16.37,11.579-20.054l7.767-4.487.563.97-7.771,4.483c-6.076,3.51-11.02,12.071-11.02,19.088v8.971c0,7.371-5.195,16.367-11.579,20.054Z" transform="translate(87.823 -107.568)"/><path class="j" d="M237.383,314.111l-.28-.156L78.9,223.137l.559-.977,157.922,90.662,59.457-33.508,37.192-21.47c6.076-3.51,11.019-12.074,11.019-19.088v-8.971c0-7.371,5.195-16.367,11.579-20.054l7.767-4.484.559.966-7.768,4.484c-6.076,3.51-11.02,12.074-11.02,19.088v8.971c0,7.371-5.195,16.37-11.579,20.057l-37.2,21.469Z" transform="translate(-78.905 -113.547)"/><path class="j" d="M136.962,277.934l-.559-.97,37.2-21.473c6.072-3.507,11.016-12.067,11.016-19.088v-8.971c0-7.371,5.195-16.367,11.582-20.054l7.767-4.487.559.97-7.767,4.484c-6.076,3.514-11.02,12.074-11.02,19.088V236.4c0,7.375-5.195,16.37-11.579,20.054Z" transform="translate(67.066 -119.53)"/><path class="j" d="M132.874,275.576l-.559-.966,37.192-21.477c6.08-3.51,11.023-12.071,11.023-19.084v-8.971c0-7.375,5.191-16.37,11.579-20.054l7.767-4.487.559.966-7.768,4.487c-6.076,3.507-11.02,12.067-11.02,19.088v8.971c0,7.371-5.195,16.367-11.579,20.054Z" transform="translate(56.688 -125.509)"/><path class="j" d="M128.786,273.217l-.559-.97,37.192-21.473c6.076-3.507,11.019-12.067,11.019-19.088v-8.967c0-7.371,5.195-16.37,11.582-20.057l7.768-4.48.559.966-7.767,4.484c-6.076,3.51-11.02,12.074-11.02,19.088v8.967c0,7.375-5.195,16.37-11.579,20.054Z" transform="translate(46.31 -131.488)"/><path class="j" d="M124.7,270.863l-.559-.966,37.2-21.476c6.076-3.507,11.02-12.067,11.02-19.084v-8.971c0-7.371,5.195-16.367,11.579-20.054l7.771-4.487.559.969-7.771,4.484c-6.072,3.51-11.016,12.071-11.016,19.088v8.971c0,7.375-5.195,16.37-11.582,20.054Z" transform="translate(35.929 -137.472)"/><path class="j" d="M120.613,268.508l-.563-.97,37.2-21.473c6.076-3.51,11.02-12.07,11.02-19.088v-8.971c0-7.375,5.195-16.37,11.579-20.054l7.771-4.484.559.966-7.768,4.487c-6.08,3.507-11.023,12.067-11.023,19.084v8.971c0,7.371-5.191,16.366-11.579,20.054Z" transform="translate(25.55 -143.45)"/><path class="j" d="M116.521,266.151l-.559-.966,37.2-21.477c6.076-3.507,11.02-12.067,11.02-19.084v-8.967c0-7.371,5.195-16.37,11.579-20.057l7.767-4.487.563.97-7.771,4.484c-6.076,3.51-11.019,12.074-11.019,19.091v8.967c0,7.375-5.191,16.37-11.579,20.054Z" transform="translate(15.172 -149.434)"/><path class="j" d="M112.433,263.8l-.559-.97,37.2-21.473c6.076-3.507,11.02-12.067,11.02-19.088V213.3c0-7.371,5.191-16.367,11.579-20.054l7.768-4.484.563.966-7.771,4.487c-6.076,3.51-11.02,12.071-11.02,19.084v8.971c0,7.375-5.195,16.37-11.579,20.054Z" transform="translate(4.794 -155.413)"/><path class="j" d="M108.345,261.44l-.559-.966L144.978,239c6.08-3.514,11.023-12.074,11.023-19.088v-8.971c0-7.375,5.195-16.37,11.579-20.054l7.768-4.487.559.97-7.767,4.484c-6.076,3.507-11.02,12.067-11.02,19.088v8.971c0,7.371-5.195,16.367-11.579,20.054Z" transform="translate(-5.584 -161.394)"/><path class="j" d="M104.257,259.085l-.559-.97,37.2-21.473c6.072-3.507,11.016-12.067,11.016-19.084v-8.971c0-7.371,5.195-16.37,11.582-20.057l7.768-4.484.559.966-7.768,4.487c-6.076,3.51-11.02,12.074-11.02,19.088v8.971c0,7.375-5.195,16.366-11.579,20.054Z" transform="translate(-15.963 -167.375)"/><path class="j" d="M100.172,256.728l-.563-.966,37.2-21.473c6.079-3.514,11.02-12.074,11.02-19.088v-8.971c0-7.371,5.195-16.367,11.579-20.054l7.771-4.487.559.97-7.768,4.484c-6.076,3.514-11.02,12.071-11.02,19.088V215.2c0,7.371-5.195,16.367-11.582,20.054Z" transform="translate(-26.343 -173.356)"/><path class="j" d="M96.081,254.373l-.559-.97,37.192-21.473c6.076-3.51,11.02-12.071,11.02-19.084v-8.974c0-7.375,5.195-16.37,11.582-20.054l7.768-4.484.559.966-7.767,4.487c-6.08,3.507-11.02,12.067-11.02,19.084v8.974c0,7.371-5.195,16.367-11.579,20.054Z" transform="translate(-36.719 -179.335)"/></g></g><g transform="translate(229.93 113.666)"><g class="b" transform="translate(0 237.871)"><path class="a" d="M151.325,178.425,98.005,147.64v61.567l53.32,30.784,53.32-30.784V147.64Z" transform="translate(-98.005 -116.857)"/><path class="a" d="M151.325,239.992l-53.32-30.784V147.64l53.32,30.784Z" transform="translate(-98.005 -116.857)"/><path class="c" d="M166.393,209.207l-53.32,30.784V178.425l53.32-30.784Z" transform="translate(-59.753 -116.857)"/><path class="a" d="M151.325,200.509l-53.32-30.784,53.319-30.784,53.32,30.784Z" transform="translate(-98.005 -138.941)"/><path class="d" d="M151.325,178.425,98.005,147.64v2.67l53.32,30.785,53.319-30.784V147.64Z" transform="translate(-98.005 -116.857)"/></g><path class="q" d="M151.325,189.963l-53.32-30.784L151.324,128.4l53.32,30.784Z" transform="translate(-98.005 72.156)"/><path class="a" d="M151.325,137.3l-53.32-30.784v61.567l53.32,30.784,53.32-30.784V106.518Z" transform="translate(-98.005 16.617)"/><path class="r" d="M151.325,198.87l-53.32-30.784V106.518l53.32,30.784Z" transform="translate(-98.005 16.617)"/><path class="c" d="M166.393,168.085l-53.32,30.784V137.3l53.32-30.784Z" transform="translate(-59.753 16.617)"/><path class="r" d="M151.325,159.387,98.005,128.6l53.319-30.784,53.32,30.784Z" transform="translate(-98.005 -5.468)"/><path class="s" d="M141.922,146.392l-40.214-23.218,40.213-23.217,40.214,23.218Z" transform="translate(-88.603 -0.039)"/><path class="d" d="M151.325,137.3l-53.32-30.784v2.67l53.32,30.785,53.319-30.784v-2.671Z" transform="translate(-98.005 16.617)"/><path class="a" d="M151.325,111.206,98.005,80.421v61.567l53.32,30.784,53.32-30.784V80.421Z" transform="translate(-98.005 -49.638)"/><path class="r" d="M151.325,172.772l-53.32-30.784V80.421l53.32,30.784Z" transform="translate(-98.005 -49.637)"/><path class="c" d="M166.393,141.988l-53.32,30.784V111.205l53.32-30.784Z" transform="translate(-59.753 -49.637)"/><path class="r" d="M151.325,133.29l-53.32-30.784,53.319-30.784,53.32,30.784Z" transform="translate(-98.005 -71.722)"/><path class="d" d="M151.325,111.206,98.005,80.421v2.67l53.32,30.785,53.319-30.784V80.421Z" transform="translate(-98.005 -49.638)"/></g><g transform="translate(908.146 241.458)"><g class="b" transform="translate(23.608 145.52)"><path class="a" d="M349.652,188.44l-53.32-30.785v61.567l53.32,30.784,53.32-30.784V157.655Z" transform="translate(-296.332 -126.872)"/><path class="a" d="M349.652,250.007l-53.32-30.784V157.655l53.32,30.784Z" transform="translate(-296.332 -126.872)"/><path class="c" d="M364.72,219.222,311.4,250.007V188.44l53.32-30.784Z" transform="translate(-258.08 -126.872)"/><path class="a" d="M349.652,210.524l-53.32-30.784,53.318-30.783,53.32,30.784Z" transform="translate(-296.332 -148.956)"/><path class="d" d="M349.652,188.44l-53.32-30.785v2.67l53.32,30.785,53.318-30.784v-2.671Z" transform="translate(-296.332 -126.872)"/></g><path class="g" d="M367.994,224.782l-.28-.163-78.053-45.066.839-.481,77.494-44.744.28.163,78.057,45.062-.842.485ZM291.9,179.554l76.093,43.933,76.1-43.933-76.1-43.933Z" transform="translate(-289.661 -40.571)"/><path class="q" d="M349.652,199.978l-53.32-30.784,53.318-30.783,53.32,30.784Z" transform="translate(-272.724 -30.211)"/><path class="a" d="M349.652,147.318l-53.32-30.785V178.1l53.32,30.784,53.32-30.784V116.533Z" transform="translate(-272.724 -85.75)"/><path class="r" d="M349.652,208.884,296.332,178.1V116.533l53.32,30.784Z" transform="translate(-272.724 -85.75)"/><path class="c" d="M364.72,178.1,311.4,208.884V147.318l53.32-30.784Z" transform="translate(-234.472 -85.75)"/><path class="r" d="M349.652,169.4l-53.32-30.784,53.318-30.783,53.32,30.784Z" transform="translate(-272.724 -107.834)"/><path class="d" d="M349.652,147.318l-53.32-30.785v2.67l53.32,30.785L402.971,119.2v-2.671Z" transform="translate(-272.724 -85.75)"/></g><g transform="translate(46.04 443.042)"><path class="g" d="M124.377,281.477l-.28-.163L46.04,236.248l.839-.485,77.494-44.744.28.163,78.061,45.069-.842.481Zm-76.1-45.228,76.1,43.937,76.1-43.933-76.1-43.937Z" transform="translate(-46.04 -98.233)"/><g class="b" transform="translate(25.017 145.52)"><path class="a" d="M106.429,245.405l-53.32-30.785v61.567l53.32,30.784,53.32-30.784V214.621Z" transform="translate(-53.109 -183.837)"/><path class="a" d="M106.429,306.972l-53.32-30.784V214.621l53.32,30.784Z" transform="translate(-53.109 -183.837)"/><path class="c" d="M121.5,276.188l-53.32,30.784V245.405l53.32-30.784Z" transform="translate(-14.857 -183.837)"/><path class="a" d="M106.429,267.489l-53.32-30.784,53.319-30.783,53.32,30.784Z" transform="translate(-53.109 -205.922)"/><path class="d" d="M106.429,245.405l-53.32-30.785v2.67l53.32,30.785,53.319-30.784v-2.671Z" transform="translate(-53.109 -183.837)"/></g><path class="q" d="M106.429,256.943l-53.32-30.784,53.319-30.783,53.32,30.784Z" transform="translate(-28.093 -87.176)"/><path class="a" d="M106.429,204.283,53.109,173.5v61.567l53.32,30.784,53.32-30.784V173.5Z" transform="translate(-28.093 -142.715)"/><path class="r" d="M106.429,265.85l-53.32-30.784V173.5l53.32,30.784Z" transform="translate(-28.093 -142.715)"/><path class="c" d="M121.5,235.065,68.177,265.85V204.283L121.5,173.5Z" transform="translate(10.16 -142.715)"/><path class="r" d="M106.429,226.367l-53.32-30.784L106.428,164.8l53.32,30.784Z" transform="translate(-28.093 -164.799)"/><path class="d" d="M106.429,204.283,53.109,173.5v2.67l53.32,30.785,53.319-30.784V173.5Z" transform="translate(-28.093 -142.715)"/></g><g transform="translate(510.53 736.474)"><g class="b" transform="translate(0 145.52)"><path class="a" d="M230.619,328.326,177.3,297.541v61.567l53.32,30.784,53.32-30.784V297.541Z" transform="translate(-177.3 -266.758)"/><path class="a" d="M230.62,389.893,177.3,359.108V297.541l53.32,30.784Z" transform="translate(-177.3 -266.758)"/><path class="c" d="M245.687,359.108l-53.32,30.784V328.326l53.32-30.784Z" transform="translate(-139.047 -266.758)"/><path class="a" d="M230.62,350.41,177.3,319.626l53.319-30.783,53.32,30.784Z" transform="translate(-177.3 -288.842)"/><path class="d" d="M230.619,328.326,177.3,297.541v2.67L230.619,331l53.319-30.784,0-2.671Z" transform="translate(-177.3 -266.758)"/></g><path class="q" d="M230.62,339.864,177.3,309.079,230.618,278.3l53.32,30.784Z" transform="translate(-177.3 -170.097)"/><path class="a" d="M230.619,287.2,177.3,256.419v61.567l53.32,30.784,53.32-30.784V256.419Z" transform="translate(-177.3 -225.636)"/><path class="r" d="M230.62,348.77,177.3,317.986V256.419L230.62,287.2Z" transform="translate(-177.3 -225.636)"/><path class="c" d="M245.687,317.986l-53.32,30.784V287.2l53.32-30.784Z" transform="translate(-139.047 -225.636)"/><path class="r" d="M230.62,309.288,177.3,278.5l53.319-30.783,53.32,30.784Z" transform="translate(-177.3 -247.72)"/><path class="d" d="M230.619,287.2,177.3,256.419v2.67l53.32,30.784,53.319-30.784,0-2.671Z" transform="translate(-177.3 -225.636)"/></g><g transform="translate(837.424 629.728)"><g class="b" transform="translate(106.486 109.326)"><path class="a" d="M358.146,308.785l46.13,40.777,12.248-60.336-46.13-40.776-58.378,19.562-12.248,60.336Z" transform="translate(-299.768 -248.449)"/><path class="a" d="M328.513,248.449l46.13,40.777L362.4,349.562l-46.131-40.776Z" transform="translate(-257.886 -248.449)"/><path class="c" d="M312.016,268.011l58.378-19.562-12.248,60.336-58.378,19.562Z" transform="translate(-299.768 -248.449)"/><path class="a" d="M358.145,265.5l46.131,40.776L345.9,325.837l-46.13-40.776Z" transform="translate(-299.766 -205.163)"/><path class="d" d="M358.146,267.376l46.13,40.777.531-2.617-46.13-40.776L300.3,284.321l-.533,2.617Z" transform="translate(-299.768 -207.04)"/></g><g transform="translate(120.99 84.639)"><path class="q" d="M357.187,303.041l-53.32-30.784,53.319-30.783,53.32,30.784Z" transform="translate(-303.866 -241.473)"/></g><g transform="translate(0 19.334)"><path class="t" d="M417.511,388.074c-35.143,0-70.289-7.722-97.046-23.168-26.027-15.029-40.359-35.04-40.359-56.35s14.332-41.325,40.359-56.351c53.505-30.889,140.572-30.893,194.081,0,26.027,15.025,40.362,35.037,40.362,56.35s-14.332,41.318-40.359,56.347C487.8,380.352,452.654,388.074,417.511,388.074ZM417.5,230.141c-34.941,0-69.876,7.675-96.476,23.03-25.663,14.82-39.8,34.485-39.8,55.384s14.137,40.564,39.8,55.381c53.2,30.716,139.765,30.716,192.963,0,25.663-14.816,39.8-34.485,39.8-55.377s-14.134-40.564-39.8-55.384C487.386,237.817,452.438,230.141,417.5,230.141Z" transform="translate(-243.197 -207.739)"/><path class="u" d="M443.99,424.653c-44.595,0-89.19-9.8-123.14-29.4-33-19.045-51.173-44.411-51.173-71.415s18.175-52.37,51.17-71.418c67.9-39.2,178.38-39.2,246.273,0,33,19.049,51.173,44.414,51.173,71.419S600.121,376.2,567.123,395.25l-.28-.481.28.481C533.176,414.851,488.581,424.653,443.99,424.653Zm-.011-200.532c-44.39,0-88.779,9.756-122.574,29.265C288.771,272.23,270.8,297.245,270.8,323.835s17.973,51.6,50.611,70.449c67.593,39.022,177.569,39.022,245.155,0h0c32.638-18.844,50.611-43.862,50.611-70.445S599.2,272.233,566.56,253.386C532.769,233.877,488.372,224.121,443.979,224.121Z" transform="translate(-269.676 -223.018)"/><path class="a" d="M396.656,359.261c-27.7,0-55.4-6.087-76.489-18.263-20.535-11.854-31.845-27.648-31.845-44.478s11.31-32.627,31.841-44.481c42.171-24.346,110.793-24.346,152.964,0,20.539,11.858,31.849,27.659,31.849,44.489s-11.31,32.62-31.845,44.475C452.048,353.174,424.35,359.261,396.656,359.261Zm-.011-124.379c-27.5,0-54.988,6.041-75.92,18.125-20.174,11.649-31.286,27.1-31.286,43.512s11.112,31.863,31.286,43.512c41.867,24.169,109.983,24.166,151.846,0l.28.481-.28-.481c20.171-11.649,31.282-27.1,31.282-43.508s-11.112-31.87-31.286-43.519C451.637,240.923,424.141,234.882,396.646,234.882Z" transform="translate(-222.339 -195.703)"/></g><g transform="translate(112.058)"><path class="a" d="M357.451,278.82l-6.1-61.266-50,35.919,6.106,61.265,56.109,25.345,50-35.919Z" transform="translate(-301.342 -217.555)"/><path class="r" d="M307.448,314.739l-6.105-61.266,50-35.919,6.105,61.266Z" transform="translate(-301.342 -217.555)"/><path class="c" d="M359.177,296.132l-56.11-25.345,50-35.919,56.11,25.345Z" transform="translate(-296.962 -173.602)"/><path class="r" d="M321.578,278.82l-6.105-61.266L371.581,242.9l6.106,61.265Z" transform="translate(-265.47 -217.555)"/><path class="d" d="M323.134,278.82l-6.105-61.266-2.169,1.558,6.105,61.266,56.108,25.344,2.17-1.557Z" transform="translate(-267.025 -217.555)"/></g><path class="q" d="M310.032,248.164h51.25L341.5,262.376Z" transform="translate(-167.223 -139.847)"/></g><g transform="translate(377.228 122.497)"><g transform="translate(138.519 163.411)"><path class="a" d="M232.094,159.879l-53.32-30.784v61.566l53.32,30.784,53.32-30.784V129.094Z" transform="translate(-178.774 -98.311)"/><path class="a" d="M232.094,221.446l-53.32-30.784V129.094l53.32,30.784Z" transform="translate(-178.774 -98.311)"/><path class="c" d="M247.162,190.661l-53.32,30.784V159.879l53.32-30.784Z" transform="translate(-140.521 -98.311)"/><path class="a" d="M232.094,181.963l-53.32-30.784L232.092,120.4l53.32,30.784Z" transform="translate(-178.774 -120.395)"/><path class="d" d="M232.094,158.921l-51.007-29.45-2.313,1.335,53.32,30.785,53.319-30.784-2.312-1.335Z" transform="translate(-178.774 -97.353)"/></g><g transform="translate(207.778 202.928)"><path class="a" d="M251.666,171.046l-53.32-30.784v61.567l53.32,30.784,53.32-30.784V140.262Z" transform="translate(-198.346 -109.478)"/><path class="a" d="M251.666,232.613l-53.32-30.784V140.262l53.32,30.784Z" transform="translate(-198.346 -109.478)"/><path class="c" d="M266.733,201.829l-53.32,30.784V171.046l53.32-30.784Z" transform="translate(-160.093 -109.478)"/><path class="a" d="M251.666,193.131l-53.32-30.785,53.319-30.783,53.32,30.784Z" transform="translate(-198.346 -131.563)"/><path class="d" d="M251.666,170.088l-51.008-29.45-2.312,1.335,53.32,30.785,53.319-30.784-2.312-1.335Z" transform="translate(-198.346 -108.52)"/></g><g transform="translate(277.037 242.446)"><path class="a" d="M271.238,182.213l-53.32-30.784V213l53.32,30.784L324.558,213V151.429Z" transform="translate(-217.917 -120.645)"/><path class="r" d="M271.238,243.78,217.918,213V151.429l53.32,30.784Z" transform="translate(-217.917 -120.645)"/><path class="c" d="M286.305,213l-53.32,30.784V182.213l53.32-30.784Z" transform="translate(-179.665 -120.645)"/><path class="r" d="M271.238,204.3l-53.32-30.784,53.318-30.784,53.32,30.784Z" transform="translate(-217.917 -142.73)"/><path class="d" d="M271.238,182.213l-51.008-29.45-2.313,1.335,53.32,30.785L324.556,154.1v-2.671Z" transform="translate(-217.917 -120.645)"/></g><g transform="translate(69.259 205.599)"><path class="a" d="M212.522,171.8,159.2,141.016v61.567l53.32,30.784,53.32-30.784V141.016Z" transform="translate(-159.202 -110.233)"/><path class="a" d="M212.522,233.368,159.2,202.583V141.016l53.32,30.784Z" transform="translate(-159.202 -110.233)"/><path class="c" d="M227.59,202.583l-53.32,30.784V171.8l53.32-30.784Z" transform="translate(-120.949 -110.233)"/><path class="a" d="M212.522,193.885,159.2,163.1l53.319-30.783,53.32,30.784Z" transform="translate(-159.202 -132.317)"/><path class="d" d="M212.522,170.843l-51.007-29.45-2.313,1.335,53.32,30.784,53.319-30.784-2.313-1.335Z" transform="translate(-159.202 -109.275)"/></g><g transform="translate(138.519 245.117)"><path class="a" d="M232.094,182.968l-53.32-30.785V213.75l53.32,30.784,53.32-30.784V152.183Z" transform="translate(-178.774 -121.4)"/><path class="a" d="M232.094,244.535l-53.32-30.784V152.183l53.32,30.784Z" transform="translate(-178.774 -121.4)"/><path class="c" d="M247.162,213.75l-53.32,30.784V182.968l53.32-30.784Z" transform="translate(-140.521 -121.4)"/><path class="a" d="M232.094,205.052l-53.32-30.784,53.319-30.783,53.32,30.784Z" transform="translate(-178.774 -143.485)"/><path class="d" d="M232.094,182.01l-51.007-29.449-2.313,1.335,53.32,30.784L285.412,153.9l-2.312-1.335Z" transform="translate(-178.774 -120.442)"/></g><g transform="translate(207.778 284.635)"><path class="a" d="M251.666,194.135l-53.32-30.785v61.567l53.32,30.784,53.32-30.784V163.351Z" transform="translate(-198.346 -132.567)"/><path class="r" d="M251.666,255.7l-53.32-30.784V163.351l53.32,30.784Z" transform="translate(-198.346 -132.567)"/><path class="c" d="M266.733,224.918,213.413,255.7V194.135l53.32-30.784Z" transform="translate(-160.093 -132.567)"/><path class="r" d="M251.666,216.219l-53.32-30.784,53.319-30.783,53.32,30.784Z" transform="translate(-198.346 -154.652)"/><path class="d" d="M251.666,194.135l-51.008-29.45-2.312,1.335,53.32,30.784,53.319-30.784v-2.671Z" transform="translate(-198.346 -132.567)"/></g><g transform="translate(0 247.788)"><path class="a" d="M192.95,183.723l-53.32-30.785v61.567l53.32,30.784,53.32-30.784V152.938Z" transform="translate(-139.63 -122.155)"/><path class="r" d="M192.95,245.289,139.63,214.5V152.938l53.32,30.784Z" transform="translate(-139.63 -122.155)"/><path class="c" d="M208.018,214.5,154.7,245.289V183.723l53.32-30.784Z" transform="translate(-101.377 -122.155)"/><path class="r" d="M192.95,205.807l-53.32-30.784,53.319-30.784,53.32,30.784Z" transform="translate(-139.63 -144.239)"/><path class="d" d="M192.95,183.723l-53.32-30.785v2.671l53.32,30.785,53.319-30.784-2.313-1.335Z" transform="translate(-139.63 -122.155)"/></g><g transform="translate(69.259 287.305)"><path class="a" d="M212.522,194.89,159.2,164.105v61.567l53.32,30.784,53.32-30.784V164.105Z" transform="translate(-159.202 -133.322)"/><path class="r" d="M212.522,256.457,159.2,225.672V164.105l53.32,30.784Z" transform="translate(-159.202 -133.322)"/><path class="c" d="M227.59,225.672l-53.32,30.784V194.89l53.32-30.784Z" transform="translate(-120.949 -133.322)"/><path class="r" d="M212.522,216.974,159.2,186.19l53.319-30.784,53.32,30.784Z" transform="translate(-159.202 -155.406)"/><path class="d" d="M212.522,194.89,159.2,164.105v2.671l53.32,30.785,53.319-30.784-2.313-1.335Z" transform="translate(-159.202 -133.322)"/></g><g transform="translate(138.519 326.823)"><path class="a" d="M232.094,206.057l-53.32-30.785v61.567l53.32,30.784,53.32-30.784V175.273Z" transform="translate(-178.774 -144.489)"/><path class="r" d="M232.094,267.624l-53.32-30.784V175.273l53.32,30.784Z" transform="translate(-178.774 -144.489)"/><path class="c" d="M247.162,236.84l-53.32,30.784V206.057l53.32-30.784Z" transform="translate(-140.521 -144.489)"/><path class="r" d="M232.094,228.142l-53.32-30.784,53.319-30.784,53.32,30.784Z" transform="translate(-178.774 -166.574)"/><path class="d" d="M232.094,206.058l-53.32-30.785v2.671l53.32,30.785,53.319-30.784v-2.671Z" transform="translate(-178.774 -144.49)"/></g><g transform="translate(138.519 81.705)"><path class="a" d="M232.094,136.79l-53.32-30.785v61.567l53.32,30.784,53.32-30.784V106.005Z" transform="translate(-178.774 -75.222)"/><path class="r" d="M232.094,198.357l-53.32-30.784V106.005l53.32,30.784Z" transform="translate(-178.774 -75.222)"/><path class="c" d="M247.162,167.572l-53.32,30.784V136.79l53.32-30.784Z" transform="translate(-140.521 -75.222)"/><path class="r" d="M232.094,158.874l-53.32-30.784,53.319-30.784,53.32,30.784Z" transform="translate(-178.774 -97.306)"/><path class="d" d="M232.094,135.832l-51.007-29.45-2.313,1.335,53.32,30.785,53.319-30.784-2.312-1.335Z" transform="translate(-178.774 -74.264)"/></g><g class="v" transform="translate(16.947 252.472)"><path class="w" d="M219.936,211.269l-36.373-21,36.372-21,36.373,21Z" transform="translate(-45.044 -85.377)"/><path class="w" d="M200.364,200.1l-36.373-21,36.372-21,36.373,21Z" transform="translate(-94.731 -113.727)"/><path class="w" d="M239.507,199.347l-36.373-21,36.372-21,36.373,21Z" transform="translate(4.643 -115.644)"/><path class="w" d="M259.117,187.562l-36.373-21,36.371-21,36.373,21Z" transform="translate(54.426 -145.563)"/><path class="w" d="M180.792,188.935l-36.373-21,36.372-21,36.373,21Z" transform="translate(-144.419 -142.078)"/></g><g transform="translate(207.778 121.223)"><path class="a" d="M251.666,147.957l-53.32-30.784v61.567l53.32,30.784,53.32-30.784V117.173Z" transform="translate(-198.346 -86.389)"/><path class="r" d="M251.666,209.524l-53.32-30.784V117.173l53.32,30.784Z" transform="translate(-198.346 -86.389)"/><path class="c" d="M266.733,178.74l-53.32,30.784V147.957l53.32-30.784Z" transform="translate(-160.093 -86.389)"/><path class="r" d="M251.666,170.041l-53.32-30.784,53.319-30.784,53.32,30.784Z" transform="translate(-198.346 -108.474)"/><path class="d" d="M251.666,147l-51.008-29.45-2.312,1.335,53.32,30.785,53.319-30.784-2.312-1.335Z" transform="translate(-198.346 -85.431)"/></g><g transform="translate(277.037 160.741)"><path class="a" d="M271.238,159.124l-53.32-30.784v61.567l53.32,30.784,53.32-30.784V128.34Z" transform="translate(-217.917 -97.556)"/><path class="r" d="M271.238,220.691l-53.32-30.784V128.34l53.32,30.784Z" transform="translate(-217.917 -97.556)"/><path class="c" d="M286.305,189.907l-53.32,30.784V159.124l53.32-30.784Z" transform="translate(-179.665 -97.556)"/><path class="r" d="M271.238,181.209l-53.32-30.784,53.318-30.784,53.32,30.784Z" transform="translate(-217.917 -119.641)"/><path class="d" d="M271.238,159.124,220.23,129.675l-2.313,1.335,53.32,30.785,53.319-30.784V128.34Z" transform="translate(-217.917 -97.556)"/></g><g transform="translate(69.259 123.894)"><path class="a" d="M212.522,148.712,159.2,117.927v61.567l53.32,30.784,53.32-30.784V117.927Z" transform="translate(-159.202 -87.144)"/><path class="r" d="M212.522,210.279,159.2,179.494V117.927l53.32,30.784Z" transform="translate(-159.202 -87.144)"/><path class="c" d="M227.59,179.494l-53.32,30.784V148.712l53.32-30.784Z" transform="translate(-120.949 -87.144)"/><path class="r" d="M212.522,170.8,159.2,140.012l53.319-30.783,53.32,30.784Z" transform="translate(-159.202 -109.228)"/><path class="d" d="M212.522,147.754,161.514,118.3l-2.313,1.335,53.32,30.785,53.319-30.784-2.313-1.335Z" transform="translate(-159.202 -86.186)"/></g><g transform="translate(138.519 163.412)"><path class="a" d="M232.094,159.879l-53.32-30.785v61.567l53.32,30.784,53.32-30.784V129.094Z" transform="translate(-178.774 -98.311)"/><path class="r" d="M232.094,221.446l-53.32-30.784V129.094l53.32,30.784Z" transform="translate(-178.774 -98.311)"/><path class="c" d="M247.162,190.661l-53.32,30.784V159.879l53.32-30.784Z" transform="translate(-140.521 -98.311)"/><path class="r" d="M232.094,181.963l-53.32-30.784L232.092,120.4l53.32,30.784Z" transform="translate(-178.774 -120.395)"/><path class="d" d="M232.094,158.921l-51.007-29.449-2.313,1.335,53.32,30.785,53.319-30.784-2.312-1.335Z" transform="translate(-178.774 -97.353)"/></g><g transform="translate(207.778 202.929)"><path class="a" d="M251.666,171.046l-53.32-30.785v61.567l53.32,30.784,53.32-30.784V140.262Z" transform="translate(-198.346 -109.478)"/><path class="r" d="M251.666,232.613l-53.32-30.784V140.262l53.32,30.784Z" transform="translate(-198.346 -109.478)"/><path class="c" d="M266.733,201.829l-53.32,30.784V171.046l53.32-30.784Z" transform="translate(-160.093 -109.478)"/><path class="r" d="M251.666,193.13l-53.32-30.784,53.319-30.783,53.32,30.784Z" transform="translate(-198.346 -131.563)"/><path class="d" d="M251.666,171.046,200.658,141.6l-2.312,1.335,53.32,30.785,53.319-30.784v-2.671Z" transform="translate(-198.346 -109.478)"/></g><g transform="translate(0 166.082)"><path class="a" d="M192.95,160.634l-53.32-30.785v61.567L192.95,222.2l53.32-30.784V129.849Z" transform="translate(-139.63 -99.066)"/><path class="r" d="M192.95,222.2l-53.32-30.784V129.849l53.32,30.784Z" transform="translate(-139.63 -99.066)"/><path class="c" d="M208.018,191.416,154.7,222.2V160.634l53.32-30.784Z" transform="translate(-101.378 -99.066)"/><path class="r" d="M192.95,182.718l-53.32-30.784,53.319-30.783,53.32,30.784Z" transform="translate(-139.63 -121.15)"/><path class="d" d="M192.95,159.676l-51.008-29.45-2.312,1.335,53.32,30.785,53.318-30.784-2.312-1.335Z" transform="translate(-139.63 -98.108)"/></g><g transform="translate(69.259 205.6)"><path class="a" d="M212.522,171.8,159.2,141.016v61.567l53.32,30.784,53.32-30.784V141.016Z" transform="translate(-159.202 -110.233)"/><path class="r" d="M212.522,233.368,159.2,202.583V141.016l53.32,30.784Z" transform="translate(-159.202 -110.233)"/><path class="c" d="M227.59,202.583l-53.32,30.784V171.8l53.32-30.784Z" transform="translate(-120.949 -110.233)"/><path class="r" d="M212.522,193.885,159.2,163.1l53.319-30.783,53.32,30.784Z" transform="translate(-159.202 -132.317)"/><path class="d" d="M212.522,171.8,159.2,141.016v2.671l53.32,30.785,53.319-30.784-2.313-1.335Z" transform="translate(-159.202 -110.233)"/></g><g transform="translate(138.519 245.117)"><path class="a" d="M232.094,182.968l-53.32-30.785v61.567l53.32,30.784,53.32-30.784V152.184Z" transform="translate(-178.774 -121.4)"/><path class="r" d="M232.094,244.535l-53.32-30.784V152.184l53.32,30.784Z" transform="translate(-178.774 -121.4)"/><path class="c" d="M247.162,213.75l-53.32,30.784V182.968l53.32-30.784Z" transform="translate(-140.521 -121.4)"/><path class="r" d="M232.094,205.053l-53.32-30.784,53.319-30.784,53.32,30.784Z" transform="translate(-178.774 -143.485)"/><path class="d" d="M232.094,182.969l-53.32-30.785v2.671l53.32,30.785,53.319-30.784v-2.671Z" transform="translate(-178.774 -121.401)"/></g><g class="v" transform="translate(16.947 171.127)"><path class="x" d="M259.117,164.575l-36.373-21,36.371-21,36.373,21Z" transform="translate(54.426 -122.576)"/><path class="x" d="M180.792,165.948l-36.373-21,36.372-21,36.373,21Z" transform="translate(-144.419 -119.091)"/></g><g transform="translate(138.519)"><path class="a" d="M232.094,113.7l-53.32-30.785v61.567l53.32,30.784,53.32-30.784V82.916Z" transform="translate(-178.774 -52.133)"/><path class="r" d="M232.094,175.267l-53.32-30.784V82.916l53.32,30.784Z" transform="translate(-178.774 -52.133)"/><path class="c" d="M247.162,144.483l-53.32,30.784V113.7l53.32-30.784Z" transform="translate(-140.521 -52.133)"/><path class="r" d="M232.094,135.785,178.774,105l53.319-30.784L285.412,105Z" transform="translate(-178.774 -74.217)"/><path class="d" d="M232.094,113.7l-53.32-30.785v2.67l53.32,30.785,53.319-30.784V82.916Z" transform="translate(-178.774 -52.133)"/></g><g transform="translate(207.778 39.518)"><path class="a" d="M251.666,124.868l-53.32-30.785V155.65l53.32,30.784,53.32-30.784V94.083Z" transform="translate(-198.346 -63.3)"/><path class="r" d="M251.666,186.435l-53.32-30.784V94.084l53.32,30.784Z" transform="translate(-198.346 -63.3)"/><path class="c" d="M266.733,155.651l-53.32,30.784V124.868l53.32-30.784Z" transform="translate(-160.093 -63.3)"/><path class="r" d="M251.666,146.952l-53.32-30.784,53.319-30.784,53.32,30.784Z" transform="translate(-198.346 -85.384)"/><path class="d" d="M251.666,124.868l-53.32-30.785v2.671l53.32,30.785,53.319-30.784V94.084Z" transform="translate(-198.346 -63.3)"/></g><g transform="translate(277.037 79.035)"><path class="a" d="M271.238,136.035l-53.32-30.785v61.567l53.32,30.784,53.32-30.784V105.251Z" transform="translate(-217.917 -74.467)"/><path class="r" d="M271.238,197.6l-53.32-30.784V105.251l53.32,30.784Z" transform="translate(-217.917 -74.467)"/><path class="c" d="M286.305,166.818,232.985,197.6V136.035l53.32-30.784Z" transform="translate(-179.665 -74.467)"/><path class="r" d="M271.238,158.12l-53.32-30.784,53.318-30.784,53.32,30.784Z" transform="translate(-217.917 -96.552)"/><path class="d" d="M271.238,136.036l-53.32-30.785v2.671l53.32,30.785,53.319-30.784v-2.671Z" transform="translate(-217.917 -74.468)"/></g><g transform="translate(69.259 42.189)"><path class="a" d="M212.522,125.623,159.2,94.838v61.567l53.32,30.784,53.32-30.784V94.838Z" transform="translate(-159.202 -64.055)"/><path class="r" d="M212.522,187.19,159.2,156.405V94.838l53.32,30.784Z" transform="translate(-159.202 -64.055)"/><path class="c" d="M227.59,156.405,174.27,187.19V125.623l53.32-30.784Z" transform="translate(-120.949 -64.055)"/><path class="r" d="M212.522,147.707,159.2,116.923,212.52,86.139l53.32,30.784Z" transform="translate(-159.202 -86.139)"/><path class="d" d="M212.522,125.623,159.2,94.838v2.67l53.32,30.785,53.319-30.784V94.838Z" transform="translate(-159.202 -64.055)"/></g><g transform="translate(0 84.377)"><path class="a" d="M192.95,137.545,139.63,106.76v61.567l53.32,30.784,53.32-30.784V106.76Z" transform="translate(-139.63 -75.977)"/><path class="r" d="M192.95,199.112l-53.32-30.784V106.76l53.32,30.784Z" transform="translate(-139.63 -75.977)"/><path class="c" d="M208.018,168.327,154.7,199.112V137.545l53.32-30.784Z" transform="translate(-101.378 -75.977)"/><path class="r" d="M192.95,159.629l-53.32-30.784,53.319-30.783,53.32,30.784Z" transform="translate(-139.63 -98.061)"/><path class="d" d="M192.95,137.545,139.63,106.76v2.67l53.32,30.784,53.318-30.784V106.76Z" transform="translate(-139.63 -75.977)"/></g></g><path class="y" d="M571.615,453.933V55.2H131.628l.321,398.729L351.785,580.852Z" transform="translate(217.282)"/><g transform="translate(251.802 651.364)"><path class="t" d="M104.186,230.867a7.2,7.2,0,1,0,7.194-7.2A7.193,7.193,0,0,0,104.186,230.867Z" transform="translate(-104.186 -223.669)"/><circle class="g" cx="3.123" cy="3.123" r="3.123" transform="translate(4.072 4.074)"/></g><g transform="translate(888.315 323.268)"><path class="t" d="M284.057,138.147a7.2,7.2,0,1,0,7.194-7.194A7.193,7.193,0,0,0,284.057,138.147Z" transform="translate(-284.057 -130.953)"/><path class="g" d="M285.208,135.225a3.123,3.123,0,1,0,3.121-3.121A3.122,3.122,0,0,0,285.208,135.225Z" transform="translate(-281.135 -128.031)"/></g><g transform="translate(1097.923 773.853)"><path class="t" d="M343.29,265.477a7.2,7.2,0,1,0,7.194-7.194A7.2,7.2,0,0,0,343.29,265.477Z" transform="translate(-343.29 -258.283)"/><circle class="g" cx="3.123" cy="3.123" r="3.123" transform="translate(4.073 4.073)"/></g><g transform="translate(956.763 795.355)"><circle class="t" cx="11.23" cy="11.23" r="11.23"/><path class="g" d="M305.2,271.029a4.875,4.875,0,1,0,4.873-4.873A4.875,4.875,0,0,0,305.2,271.029Z" transform="translate(-298.839 -259.798)"/></g><g transform="translate(923.008 700.998)"><path class="t" d="M293.861,245.3a7.608,7.608,0,1,0,7.608-7.608A7.609,7.609,0,0,0,293.861,245.3Z" transform="translate(-293.861 -237.695)"/><path class="g" d="M295.078,242.214a3.3,3.3,0,1,0,3.3-3.3A3.3,3.3,0,0,0,295.078,242.214Z" transform="translate(-290.771 -234.605)"/></g><g transform="translate(811.68 281.773)"><path class="t" d="M262.4,126.421a7.194,7.194,0,1,0,7.194-7.194A7.193,7.193,0,0,0,262.4,126.421Z" transform="translate(-262.401 -119.227)"/><path class="g" d="M263.552,123.5a3.121,3.121,0,1,0,3.121-3.121A3.122,3.122,0,0,0,263.552,123.5Z" transform="translate(-259.479 -116.305)"/></g><g transform="translate(170.5 605.612)"><path class="t" d="M81.211,217.938a7.2,7.2,0,1,0,7.2-7.2A7.2,7.2,0,0,0,81.211,217.938Z" transform="translate(-81.211 -210.74)"/><path class="g" d="M82.362,215.016a3.123,3.123,0,1,0,3.125-3.125A3.122,3.122,0,0,0,82.362,215.016Z" transform="translate(-78.289 -207.818)"/></g></g></svg>